<?xml version="1.0" encoding="utf-8"?>
<!-- Generator: Adobe Illustrator 19.0.0, SVG Export Plug-In . SVG Version: 6.00 Build 0)  -->
<svg version="1.1" id="Layer_1" xmlns="http://www.w3.org/2000/svg" xmlns:xlink="http://www.w3.org/1999/xlink" x="0px" y="0px"
	 viewBox="0 0 200 200" style="enable-background:new 0 0 200 200;" xml:space="preserve">
<style type="text/css">
	.st0{opacity:0.3;}
	.st1{fill:none;stroke:#000000;stroke-miterlimit:10;}
	.st2{clip-path:url(#XMLID_5_);fill:none;stroke:#000000;stroke-miterlimit:10;}
	.st3{clip-path:url(#XMLID_7_);fill:none;stroke:#000000;stroke-miterlimit:10;}
	.st4{opacity:0.3;fill:none;stroke:#000000;stroke-miterlimit:10;}
	.st5{clip-path:url(#XMLID_9_);fill:none;stroke:#000000;stroke-miterlimit:10;}
	.st6{clip-path:url(#XMLID_21_);fill:none;stroke:#000000;stroke-miterlimit:10;}
</style>
<g id="XMLID_14_" class="st0">
	<g id="XMLID_77_">
		<g id="XMLID_78_">
			<g id="XMLID_79_">
				<g id="XMLID_89_">
					<path id="XMLID_91_" class="st1" d="M26.6,75.4h-53.2c-0.8,0-1.4,0.6-1.4,1.4v33.6h56V76.8C28,76,27.4,75.4,26.6,75.4"/>
					<path id="XMLID_90_" class="st1" d="M24.7,107.8h-49.3c-0.4,0-0.7-0.3-0.7-0.7V78.7c0-0.4,0.3-0.7,0.7-0.7h49.4
						c0.4,0,0.7,0.3,0.7,0.7v28.4C25.4,107.5,25.1,107.8,24.7,107.8"/>
				</g>
				<g id="XMLID_80_">
					<path id="XMLID_88_" class="st1" d="M34.3,114.6h-68.6c-0.4,0-0.7-0.3-0.7-0.7v-2.8c0-0.4,0.3-0.7,0.7-0.7h68.6
						c0.4,0,0.7,0.3,0.7,0.7v2.8C35,114.3,34.7,114.6,34.3,114.6"/>
					<g id="XMLID_81_">
						<g id="XMLID_82_">
							<g id="XMLID_85_">
								<defs>
									<path id="XMLID_87_" d="M-6.7,111.8H6.7c0.2,0,0.3-0.1,0.3-0.3v-0.8c0-0.2-0.1-0.3-0.3-0.3H-6.7c-0.2,0-0.3,0.1-0.3,0.3
										v0.8C-7,111.7-6.9,111.8-6.7,111.8z"/>
								</defs>
								<clipPath id="XMLID_5_">
									<use xlink:href="#XMLID_87_"  style="overflow:visible;"/>
								</clipPath>
								<path id="XMLID_86_" class="st2" d="M5.6,111.8H-5.6c-0.8,0-1.4-0.6-1.4-1.4H7C7,111.2,6.4,111.8,5.6,111.8"/>
								<use xlink:href="#XMLID_87_"  style="overflow:visible;fill:none;stroke:#000000;stroke-miterlimit:10;"/>
							</g>
							<g id="XMLID_83_">
								<path id="XMLID_84_" class="st1" d="M-6.7,111.8H6.7c0.2,0,0.3-0.1,0.3-0.3v-0.8c0-0.2-0.1-0.3-0.3-0.3H-6.7
									c-0.2,0-0.3,0.1-0.3,0.3v0.8C-7,111.7-6.9,111.8-6.7,111.8z"/>
							</g>
						</g>
					</g>
				</g>
			</g>
		</g>
	</g>
	<path id="XMLID_76_" class="st1" d="M15.4,96h-30.8c-0.2,0-0.3-0.2-0.3-0.3v-2.5c0-0.2,0.2-0.3,0.3-0.3h30.8c0.2,0,0.3,0.2,0.3,0.3
		v2.5C15.7,95.9,15.6,96,15.4,96z"/>
	<path id="XMLID_75_" class="st1" d="M5.6,96h-21.1c-0.2,0-0.3-0.2-0.3-0.3v-2.5c0-0.2,0.2-0.3,0.3-0.3H5.6c0.2,0,0.3,0.2,0.3,0.3
		v2.5C6,95.9,5.8,96,5.6,96z"/>
</g>
<g id="XMLID_1_" class="st0">
	<g id="XMLID_2_">
		<g id="XMLID_4_">
			<path id="XMLID_20_" class="st1" d="M88.9,36.9C88.9,49.4,78.7,73,66.2,73c-12.5,0-22.7-23.6-22.7-36.1s10.2-22.7,22.7-22.7
				C78.7,14.2,88.9,24.3,88.9,36.9"/>
			<path id="XMLID_19_" class="st1" d="M88.9,36.9C88.9,49.4,78.7,73,66.2,73c-12.5,0-22.7-23.6-22.7-36.1s10.2-22.7,22.7-22.7
				C78.7,14.2,88.9,24.3,88.9,36.9z"/>
			<path id="XMLID_18_" class="st1" d="M83.2,36.9c0,12.5-7.6,36.1-17,36.1c-9.4,0-17-23.6-17-36.1s7.6-22.7,17-22.7
				C75.6,14.2,83.2,24.3,83.2,36.9"/>
			<path id="XMLID_17_" class="st1" d="M83.2,36.9c0,12.5-7.6,36.1-17,36.1c-9.4,0-17-23.6-17-36.1s7.6-22.7,17-22.7
				C75.6,14.2,83.2,24.3,83.2,36.9z"/>
			<path id="XMLID_16_" class="st1" d="M74.7,36.9c0,12.5-3.8,36.1-8.5,36.1c-4.7,0-8.5-23.6-8.5-36.1s3.8-22.7,8.5-22.7
				C70.9,14.2,74.7,24.3,74.7,36.9"/>
			<path id="XMLID_15_" class="st1" d="M74.7,36.9c0,12.5-3.8,36.1-8.5,36.1c-4.7,0-8.5-23.6-8.5-36.1s3.8-22.7,8.5-22.7
				C70.9,14.2,74.7,24.3,74.7,36.9z"/>
			<path id="XMLID_13_" class="st1" d="M72.9,90.6H59.5c-0.7,0-1.3-0.6-1.3-1.3v-6.7c0-0.7,0.6-1.3,1.3-1.3h13.4
				c0.7,0,1.3,0.6,1.3,1.3v6.7C74.2,90,73.6,90.6,72.9,90.6"/>
			<path id="XMLID_12_" class="st1" d="M72.9,91.1H59.5c-0.7,0-1.3-0.6-1.3-1.2v-6.2c0-0.7,0.6-1.2,1.3-1.2h13.4
				c0.7,0,1.3,0.6,1.3,1.2v6.2C74.2,90.5,73.6,91.1,72.9,91.1z"/>
			<path id="XMLID_11_" class="st1" d="M74.2,82.5H58.1c-0.4,0-0.7-0.3-0.7-0.7v-1.3c0-0.4,0.3-0.7,0.7-0.7h16.1
				c0.4,0,0.7,0.3,0.7,0.7v1.3C74.9,82.2,74.6,82.5,74.2,82.5"/>
			<path id="XMLID_10_" class="st1" d="M74.2,82.5H58.1c-0.4,0-0.7-0.3-0.7-0.7v-1.3c0-0.4,0.3-0.7,0.7-0.7h16.1
				c0.4,0,0.7,0.3,0.7,0.7v1.3C74.9,82.2,74.6,82.5,74.2,82.5z"/>
		</g>
	</g>
</g>
<g id="XMLID_39_" class="st0">
	<g id="XMLID_42_">
		<line id="XMLID_44_" class="st1" x1="30" y1="201" x2="30" y2="230"/>
		<path id="XMLID_43_" class="st1" d="M42,182c0-6.6-5.4-12-12-12s-12,5.4-12,12c0,6.2,4.7,16.5,10.7,17.9c-0.1,0.1-0.2,0.4-0.2,0.6
			c0,0.3,0.3,0.7,0.6,0.7h1.8c0.3,0,0.6-0.4,0.6-0.7c0-0.2-0.1-0.4-0.2-0.5C37.3,198.6,42,188.2,42,182z"/>
	</g>
	<g id="XMLID_40_">
		<defs>
			<path id="XMLID_41_" d="M42,182c0-6.6-5.4-12-12-12s-12,5.4-12,12c0,6.2,4.7,16.5,10.7,17.9c-0.1,0.1-0.2,0.4-0.2,0.6
				c0,0.3,0.3,0.7,0.6,0.7h1.8c0.3,0,0.6-0.4,0.6-0.7c0-0.2-0.1-0.4-0.2-0.5C37.3,198.6,42,188.2,42,182z"/>
		</defs>
		<clipPath id="XMLID_6_">
			<use xlink:href="#XMLID_41_"  style="overflow:visible;"/>
		</clipPath>
		<use xlink:href="#XMLID_41_"  style="overflow:visible;fill:none;stroke:#000000;stroke-miterlimit:10;"/>
	</g>
</g>
<g id="XMLID_45_" class="st0">
	<defs>
		<circle id="XMLID_46_" class="st0" cx="145" cy="170" r="45"/>
	</defs>
	<clipPath id="XMLID_7_">
		<use xlink:href="#XMLID_46_"  style="overflow:visible;"/>
	</clipPath>
	<circle id="XMLID_54_" class="st3" cx="145" cy="170" r="45"/>
	<path id="XMLID_53_" class="st3" d="M99.9,166.2l7.6-4.9c0.2-0.1,0.4-0.1,0.6,0l3.2,1.7c0.4,0.2,0.9-0.1,0.9-0.6v-0.4
		c0-0.4,0.4-0.7,0.8-0.6l4.4,1.6c0.1,0.1,0.3,0.2,0.3,0.3l4,7.7c0,0,0,0,0,0.1l2.9,4.3c0.1,0.2,0.3,0.3,0.5,0.3h2.9
		c0.5,0,0.8,0.6,0.5,1l-6.5,8.5c-0.1,0.1-0.1,0.3-0.1,0.5l1,6.7c0.1,0.4-0.2,0.7-0.6,0.7h-1.8c-0.2,0-0.4,0.1-0.5,0.3l-4.2,7.2
		c-0.2,0.3-0.6,0.4-0.9,0.2l-3.8-2.3c-0.1-0.1-0.2-0.2-0.3-0.3l-3.8-11.8c-0.1-0.2-0.2-0.3-0.3-0.4l-5.8-2.6
		c-0.2-0.1-0.3-0.2-0.3-0.4l-4.4-12c-0.1-0.2,0-0.4,0.1-0.6l3.3-4.1C99.8,166.3,99.8,166.3,99.9,166.2z"/>
	<path id="XMLID_52_" class="st3" d="M127.6,191.3l-1,0.9c0,0-0.1,0.1-0.1,0.1l-1.4,0.7c-0.3,0.1-0.4,0.5-0.3,0.8l1.6,4.2
		c0.1,0.3,0.4,0.4,0.7,0.4l1-0.2c0.3-0.1,0.5-0.3,0.5-0.6v-5.7C128.7,191.2,128,191,127.6,191.3z"/>
	<path id="XMLID_51_" class="st3" d="M123.7,174.1l5.6-1.8c0.1,0,0.2-0.1,0.3-0.2l3.4-4.1c0.3-0.4,0.1-0.9-0.4-1l-3.7-0.6
		c-0.1,0-0.3-0.1-0.4-0.2l-1.7-2.2c-0.3-0.4,0-1,0.5-1h0.4c0.1,0,0.2,0,0.3,0.1l3.3,2.1c0.1,0,0.2,0.1,0.3,0.1l7.2,0.8
		c0.2,0,0.4,0.1,0.5,0.3l6.7,11.1c0.1,0.1,0.2,0.2,0.3,0.2l1.3,0.6c0.5,0.2,1-0.2,0.9-0.7l-0.6-3c0-0.1,0-0.3,0-0.4l1.4-3.2
		c0.1-0.1,0.1-0.2,0.2-0.3l4.7-2.9c0.3-0.2,0.6-0.1,0.8,0.2l1.9,2.7c0.1,0.1,0.2,0.2,0.3,0.2l2.5,1c0.1,0,0.1,0,0.1,0.1l3.7,2.8
		c0.2,0.1,0.4,0.2,0.6,0.1l1.5-0.5c0.4-0.1,0.5-0.5,0.4-0.8l-1.7-3.7c-0.1-0.2-0.1-0.5,0.1-0.7l2.3-2.1c0.1-0.1,0.2-0.2,0.4-0.2
		l2.2-0.2c0.2,0,0.4-0.1,0.5-0.3l1.7-3.2c0.1-0.1,0.1-0.3,0.1-0.5l-1.3-4.6c0-0.1-0.1-0.1-0.1-0.2l-2.2-3c-0.2-0.2-0.2-0.6,0.1-0.8
		l0.9-0.9c0.3-0.3,0.9-0.2,1,0.3l0.3,1.1c0.1,0.3,0.4,0.5,0.7,0.4l1.3-0.2c0.2,0,0.4-0.2,0.5-0.3l0.9-1.8c0-0.1,0.1-0.2,0.1-0.3
		v-4.6c0-0.1,0-0.2-0.1-0.3l-2.7-4.7c0-0.1-0.1-0.1-0.1-0.2l-0.5-3.6c0-0.1,0-0.1,0-0.2l0.5-2.5c0-0.1,0-0.2,0.1-0.2l3.1-4.5
		c0.2-0.3,0.1-0.6-0.1-0.8l-10.7-9.1c-0.1-0.1-0.2-0.1-0.4-0.1l-23.8-1c-0.2,0-0.4,0.1-0.6,0.3l-2.6,4.6c-0.1,0.1-0.1,0.2-0.1,0.3
		l0.1,4c0,0,0,0,0,0l-0.1,2.3c0,0.4-0.3,0.6-0.7,0.6l-1.4-0.1c-0.3,0-0.5,0.1-0.6,0.4l-0.5,1c-0.1,0.3-0.5,0.4-0.8,0.3l-3.3-1.2
		c0,0,0,0-0.1,0l-2.8-1.4c-0.2-0.1-0.5-0.1-0.7,0.1l-1.4,1.2c-0.1,0.1-0.1,0.1-0.1,0.2l-2.3,4.4c-0.1,0.2-0.3,0.3-0.5,0.3l-2.5,0.4
		c-0.1,0-0.3,0-0.4-0.1l-2.4-1.3c-0.1-0.1-0.2-0.1-0.3-0.1l-4.6,0.4c-0.2,0-0.4,0.2-0.5,0.4l-1.4,3.6c0,0.1,0,0.2,0,0.3l0.6,4
		c0,0.1,0,0.2,0,0.2l-0.6,2.6c0,0.2-0.1,0.3-0.3,0.4l-2.3,1.4c-0.1,0-0.2,0.1-0.2,0.1l-3.4,0.5c-0.3,0-0.5,0.3-0.5,0.6v0.9
		c0,0.1,0,0.2,0.1,0.3l1,1.9c0.1,0.1,0.2,0.2,0.3,0.3l1.1,0.5c0.2,0.1,0.4,0.1,0.6,0l1.9-1.2c0.2-0.1,0.5-0.1,0.7,0.1l0.9,0.8
		c0,0,0,0,0.1,0.1l2.7,1.9c0.1,0.1,0.2,0.1,0.4,0.1h1.8c0.5,0,0.8,0.6,0.5,1l0,0c-0.3,0.4,0,1.1,0.5,1l3.6-0.3
		c0.5,0,0.8,0.4,0.6,0.9l-0.3,0.8c-0.1,0.1-0.2,0.2-0.3,0.3l-1.1,0.6c-0.3,0.2-0.4,0.5-0.3,0.8l0.6,1.2"/>
	<path id="XMLID_50_" class="st3" d="M184.7,192.7h-4.2c-0.9,0-1.5-0.9-1.2-1.7l0.3-0.9c0.3-0.8-0.4-1.7-1.3-1.7l-2,0.1
		c-0.2,0-0.4,0.1-0.5,0.2l-2.9,1.7c-0.1,0-0.2,0.1-0.2,0.1L169,192c-0.1,0-0.2,0.1-0.3,0.2l-3.3,2.3c-0.3,0.2-0.5,0.6-0.5,1v3.6
		c0,0.1,0,0.2-0.1,0.4l-0.8,2.5c-0.2,0.5,0,1,0.4,1.4l1.3,1c0.2,0.2,0.5,0.3,0.8,0.3h2.8c0.2,0,0.4,0,0.5-0.1l2.3-1.1
		c0.5-0.2,1.1-0.1,1.5,0.3l0.5,0.6c0.2,0.2,0.5,0.4,0.8,0.4l10.5,0.9c0.3,0,0.6-0.1,0.8-0.2l10.6-7.9c0.9-0.6,0.6-2-0.5-2.2
		l-11.3-2.3C184.9,192.8,184.8,192.7,184.7,192.7z"/>
	<path id="XMLID_61_" class="st3" d="M170.7,182c0,0.3-0.1,0.7-0.4,0.9l-1.2,1.2c-0.4,0.4-0.5,0.9-0.3,1.4l0,0c0.4,1-0.6,2-1.6,1.6
		l-2.9-1.1c-0.6-0.2-0.9-0.8-0.9-1.4v-0.6c0-0.8,0.7-1.5,1.5-1.5h1.2c0.4,0,0.8-0.2,1.1-0.5l0.8-1c0.7-0.9,2.1-0.6,2.5,0.5
		L170.7,182z"/>
	<path id="XMLID_48_" class="st3" d="M173.8,170.9l2,2.9c0.2,0.3,0.3,0.8,0.1,1.2l-1,2.4c-0.4,0.9-1.5,1.1-2.1,0.3l-0.5-0.6
		c-0.2-0.2-0.3-0.5-0.3-0.8v-2c0-0.2,0-0.3-0.1-0.5l-0.7-1.6c-0.3-0.7,0-1.4,0.7-1.7l0.4-0.1C172.9,170.2,173.5,170.4,173.8,170.9z"
		/>
	<path id="XMLID_47_" class="st3" d="M181,181.7l-2.2-0.4c-0.4-0.1-0.9,0.1-1.2,0.4l-0.2,0.3c-0.5,0.6-0.3,1.6,0.4,1.9l2.8,1.3
		l0.9,0.7l1.4,0.8c0.4,0.3,1,0.2,1.4-0.1l1.7-1.2h1.2l7.5,0.6c0.6,0,1.1-0.3,1.3-0.8l2.5-7c0.3-0.8-0.3-1.7-1.2-1.7h-7.3
		c-0.2,0-0.4,0.1-0.6,0.2l-1.5,0.9c-0.1,0.1-0.2,0.1-0.3,0.2l-2.1,2.3c-0.1,0.2-0.3,0.3-0.5,0.3l-3.3,1.1
		C181.4,181.8,181.2,181.8,181,181.7z"/>
	<use xlink:href="#XMLID_46_"  style="overflow:visible;fill:none;stroke:#000000;stroke-miterlimit:10;"/>
</g>
<g id="XMLID_55_" class="st0">
	<g id="XMLID_58_">
		<line id="XMLID_60_" class="st1" x1="30" y1="1" x2="30" y2="30"/>
		<path id="XMLID_59_" class="st1" d="M42-18c0-6.6-5.4-12-12-12s-12,5.4-12,12c0,6.2,4.7,16.5,10.7,17.9c-0.1,0.1-0.2,0.4-0.2,0.6
			c0,0.3,0.3,0.7,0.6,0.7h1.8c0.3,0,0.6-0.4,0.6-0.7c0-0.2-0.1-0.4-0.2-0.5C37.3-1.4,42-11.8,42-18z"/>
	</g>
	<g id="XMLID_56_">
		<defs>
			<path id="XMLID_57_" d="M42-18c0-6.6-5.4-12-12-12s-12,5.4-12,12c0,6.2,4.7,16.5,10.7,17.9c-0.1,0.1-0.2,0.4-0.2,0.6
				c0,0.3,0.3,0.7,0.6,0.7h1.8c0.3,0,0.6-0.4,0.6-0.7c0-0.2-0.1-0.4-0.2-0.5C37.3-1.4,42-11.8,42-18z"/>
		</defs>
		<clipPath id="XMLID_8_">
			<use xlink:href="#XMLID_57_"  style="overflow:visible;"/>
		</clipPath>
		<use xlink:href="#XMLID_57_"  style="overflow:visible;fill:none;stroke:#000000;stroke-miterlimit:10;"/>
	</g>
</g>
<path id="XMLID_30_" class="st4" d="M212.7,41c0-0.3,0.1-0.6,0.1-0.9c0-4-3.2-7.2-7.2-7.2c-1.3,0-2.6,0.4-3.7,1
	c-1.6-7.6-8.4-13.2-16.4-13.2c-9.3,0-16.8,9.4-16.8,18.6c0,1.2,0.1,4.3,0.4,5.3h-0.4c-4.8,0-8.6,3.7-8.6,8.5c0,4.8,3.9,8.5,8.6,8.5
	h42.8c4.8,0,8.6-5.6,8.6-10.3C220,46.9,216.8,41.6,212.7,41z"/>
<path id="XMLID_31_" class="st4" d="M12.7,40.9c0-0.3,0.1-0.6,0.1-0.9c0-4-3.2-7.2-7.2-7.2c-1.3,0-2.6,0.4-3.7,1
	c-1.6-7.6-8.4-13.2-16.4-13.2c-9.3,0-16.8,9.4-16.8,18.7c0,1.2,0.1,4.3,0.4,5.3h-0.4c-4.8,0-8.6,3.7-8.6,8.5c0,4.8,3.9,8.5,8.6,8.5
	h42.8c4.8,0,8.6-5.6,8.6-10.3C20,46.9,16.8,41.6,12.7,40.9z"/>
<g id="XMLID_33_" class="st0">
	<g id="layer1_4_">
		<path id="path4263_4_" class="st1" d="M114.3,80.4c-0.6,0-1.1,0-1.5,0.4c-0.6,0.6-0.5,2.3-0.4,3.1c-0.7,0.2-1.5,0.4-2.1,0.8
			c-0.5-0.8-1.5-2-2.4-2.1c-0.6-0.1-1.1,0.4-1.5,0.8c-0.4,0.4-0.9,0.8-0.9,1.3c-0.1,0.8,1,2.1,1.7,2.7c-0.5,0.7-0.8,1.3-1.1,2
			c-0.9-0.2-2.4-0.6-3.1-0.1c-0.5,0.4-0.6,0.9-0.7,1.5c-0.1,0.6-0.2,1.1,0.1,1.6c0.5,0.7,2.1,0.9,3,1c0.1,0.8,0.2,1.5,0.4,2.3
			c-0.8,0.4-2.2,1.2-2.4,2c-0.2,0.6,0.1,1.1,0.5,1.6c0.3,0.5,0.6,1,1.1,1.1c0.8,0.2,2.1-0.7,2.9-1.1c0.2,0.3,0.5,0.6,0.8,0.8
			c0.3,0.2,0.6,0.5,0.9,0.7c-0.4,0.8-0.9,2.3-0.7,3.1c0.2,0.5,0.8,0.8,1.4,0.9c0.5,0.2,1.1,0.4,1.5,0.1c0.7-0.4,1.2-1.9,1.5-2.8
			c0.8,0.1,1.5,0.1,2.3,0c0.2,0.9,0.8,2.4,1.5,2.8c0.5,0.2,1.1,0.1,1.7-0.2c0.5-0.2,1.1-0.4,1.3-0.9c0.4-0.8-0.2-2.3-0.7-3.1
			c0.7-0.4,1.2-0.9,1.7-1.5c0.8,0.5,2.1,1.4,2.9,1.2c0.5-0.1,0.9-0.7,1.2-1.2c0.3-0.5,0.5-1,0.4-1.5c-0.2-0.8-1.7-1.6-2.5-2
			c0.2-0.7,0.4-1.5,0.4-2.3c0.9-0.1,2.5-0.3,3-1c0.4-0.5,0.2-1.1,0.1-1.7c-0.1-0.6-0.2-1.1-0.7-1.5c-0.7-0.5-2.3-0.1-3.1,0.1
			c-0.3-0.7-0.7-1.4-1.1-2c0.7-0.7,1.7-1.9,1.7-2.7c-0.1-0.6-0.5-1-1-1.4c-0.5-0.4-0.9-0.7-1.4-0.7c-0.8,0.1-1.8,1.4-2.4,2.1
			c-0.7-0.4-1.4-0.7-2.1-0.8c0.1-0.9,0.1-2.6-0.4-3.1C115.6,80.4,115,80.4,114.3,80.4z M114.4,88.6c2.3,0,4.1,1.8,4.1,4.1
			s-1.8,4.1-4.1,4.1c-2.3,0-4.1-1.8-4.1-4.1C110.3,90.5,112.1,88.6,114.4,88.6z"/>
	</g>
</g>
<g id="XMLID_32_" class="st0">
	<g id="layer1_3_">
		<path id="path4263_3_" class="st1" d="M135.3,88.2c-0.4,0-0.8,0-1.1,0.3c-0.4,0.4-0.4,1.5-0.3,2.2c-0.5,0.1-1,0.3-1.5,0.5
			c-0.4-0.5-1.1-1.4-1.7-1.5c-0.4-0.1-0.7,0.2-1.1,0.5c-0.3,0.2-0.6,0.5-0.7,0.9c-0.1,0.6,0.7,1.4,1.1,1.9c-0.4,0.4-0.6,0.9-0.8,1.4
			c-0.6-0.2-1.7-0.4-2.2-0.1c-0.4,0.2-0.4,0.7-0.5,1.1c-0.1,0.4-0.1,0.8,0.1,1.1c0.4,0.5,1.4,0.7,2.1,0.7c0,0.5,0.1,1.1,0.3,1.6
			c-0.6,0.3-1.5,0.8-1.7,1.4c-0.1,0.4,0.1,0.8,0.3,1.1c0.2,0.4,0.4,0.7,0.8,0.8c0.5,0.1,1.5-0.4,2-0.8c0.2,0.2,0.4,0.4,0.6,0.6
			c0.2,0.2,0.4,0.4,0.7,0.5c-0.2,0.6-0.7,1.6-0.4,2.1c0.2,0.4,0.6,0.5,0.9,0.7c0.4,0.1,0.8,0.2,1.1,0.1c0.5-0.2,0.9-1.3,1-2
			c0.5,0.1,1.1,0.1,1.6,0c0.2,0.6,0.5,1.7,1,2c0.4,0.2,0.8,0.1,1.2-0.1c0.4-0.1,0.8-0.3,0.9-0.7c0.2-0.5-0.2-1.5-0.5-2.1
			c0.4-0.3,0.8-0.7,1.2-1.1c0.5,0.4,1.5,0.9,2,0.8c0.4-0.1,0.6-0.5,0.8-0.8c0.2-0.4,0.4-0.7,0.3-1.1c-0.2-0.6-1.2-1.1-1.7-1.4
			c0.2-0.5,0.2-1.1,0.3-1.6c0.7-0.1,1.8-0.2,2.1-0.7c0.2-0.4,0.2-0.8,0.1-1.2c-0.1-0.4-0.2-0.8-0.5-1c-0.5-0.4-1.6-0.1-2.2,0.1
			c-0.2-0.5-0.5-0.9-0.8-1.4c0.4-0.5,1.2-1.3,1.2-1.9c-0.1-0.4-0.4-0.7-0.7-0.9c-0.3-0.2-0.6-0.5-1-0.5c-0.6,0.1-1.3,0.9-1.7,1.5
			c-0.5-0.2-0.9-0.4-1.5-0.5c0.1-0.7,0.1-1.8-0.3-2.2C136.2,88.2,135.7,88.2,135.3,88.2z M135.3,93.9c1.6,0,2.8,1.3,2.8,2.8
			c0,1.6-1.3,2.8-2.8,2.8s-2.8-1.3-2.8-2.8C132.5,95.2,133.7,93.9,135.3,93.9z"/>
	</g>
</g>
<path id="XMLID_71_" class="st4" d="M82.6,109.8c-7.2,0-12.9,5.8-12.9,12.9s12.9,21.7,12.9,21.7s12.9-14.6,12.9-21.7
	S89.7,109.8,82.6,109.8z M82.6,127.8c-2.9,0-5.2-2.3-5.2-5.2c0-2.9,2.3-5.2,5.2-5.2s5.2,2.3,5.2,5.2
	C87.8,125.5,85.4,127.8,82.6,127.8z"/>
<g id="XMLID_49_" class="st0">
	<path id="XMLID_65_" class="st1" d="M139.7,65.2h-25.1c-0.6,0-1-0.4-1-1V31.4c0-0.6,0.4-1,1-1h25.1c0.6,0,1,0.4,1,1v32.8
		C140.7,64.8,140.2,65.2,139.7,65.2z"/>
	<path id="XMLID_64_" class="st1" d="M116.5,65.2h-1.9c-0.6,0-1-0.4-1-1V31.4c0-0.6,0.4-1,1-1h1.9c0.6,0,1,0.4,1,1v32.8
		C117.5,64.8,117,65.2,116.5,65.2z"/>
	<path id="XMLID_38_" class="st1" d="M130.7,45.6l3.3-2c0,0,0.1,0,0.1,0l3.3,2c0.1,0,0.1,0,0.1-0.1V30.8c0,0,0-0.1-0.1-0.1h-6.8
		c0,0-0.1,0-0.1,0.1v14.8C130.6,45.6,130.7,45.6,130.7,45.6z"/>
</g>
<g id="XMLID_62_" class="st0">
	<defs>
		<circle id="XMLID_63_" class="st0" cx="145" cy="-30" r="45"/>
	</defs>
	<clipPath id="XMLID_9_">
		<use xlink:href="#XMLID_63_"  style="overflow:visible;"/>
	</clipPath>
	<circle id="XMLID_93_" class="st5" cx="145" cy="-30" r="45"/>
	<path id="XMLID_92_" class="st5" d="M99.9-33.8l7.6-4.9c0.2-0.1,0.4-0.1,0.6,0l3.2,1.7c0.4,0.2,0.9-0.1,0.9-0.6v-0.4
		c0-0.4,0.4-0.7,0.8-0.6l4.4,1.6c0.1,0.1,0.3,0.2,0.3,0.3l4,7.7c0,0,0,0,0,0.1l2.9,4.3c0.1,0.2,0.3,0.3,0.5,0.3h2.9
		c0.5,0,0.8,0.6,0.5,1l-6.5,8.5c-0.1,0.1-0.1,0.3-0.1,0.5l1,6.7c0.1,0.4-0.2,0.7-0.6,0.7h-1.8c-0.2,0-0.4,0.1-0.5,0.3l-4.2,7.2
		c-0.2,0.3-0.6,0.4-0.9,0.2l-3.8-2.3c-0.1-0.1-0.2-0.2-0.3-0.3l-3.8-11.8c-0.1-0.2-0.2-0.3-0.3-0.4l-5.8-2.6
		c-0.2-0.1-0.3-0.2-0.3-0.4l-4.4-12c-0.1-0.2,0-0.4,0.1-0.6l3.3-4.1C99.8-33.7,99.8-33.7,99.9-33.8z"/>
	<path id="XMLID_74_" class="st5" d="M127.6-8.7l-1,0.9c0,0-0.1,0.1-0.1,0.1L125.1-7c-0.3,0.1-0.4,0.5-0.3,0.8l1.6,4.2
		c0.1,0.3,0.4,0.4,0.7,0.4l1-0.2c0.3-0.1,0.5-0.3,0.5-0.6v-5.7C128.7-8.8,128-9,127.6-8.7z"/>
	<path id="XMLID_70_" class="st5" d="M123.7-25.9l5.6-1.8c0.1,0,0.2-0.1,0.3-0.2l3.4-4.1c0.3-0.4,0.1-0.9-0.4-1l-3.7-0.6
		c-0.1,0-0.3-0.1-0.4-0.2l-1.7-2.2c-0.3-0.4,0-1,0.5-1h0.4c0.1,0,0.2,0,0.3,0.1l3.3,2.1c0.1,0,0.2,0.1,0.3,0.1l7.2,0.8
		c0.2,0,0.4,0.1,0.5,0.3l6.7,11.1c0.1,0.1,0.2,0.2,0.3,0.2l1.3,0.6c0.5,0.2,1-0.2,0.9-0.7l-0.6-3c0-0.1,0-0.3,0-0.4l1.4-3.2
		c0.1-0.1,0.1-0.2,0.2-0.3l4.7-2.9c0.3-0.2,0.6-0.1,0.8,0.2l1.9,2.7c0.1,0.1,0.2,0.2,0.3,0.2l2.5,1c0.1,0,0.1,0,0.1,0.1l3.7,2.8
		c0.2,0.1,0.4,0.2,0.6,0.1l1.5-0.5c0.4-0.1,0.5-0.5,0.4-0.8l-1.7-3.7c-0.1-0.2-0.1-0.5,0.1-0.7l2.3-2.1c0.1-0.1,0.2-0.2,0.4-0.2
		l2.2-0.2c0.2,0,0.4-0.1,0.5-0.3l1.7-3.2c0.1-0.1,0.1-0.3,0.1-0.5l-1.3-4.6c0-0.1-0.1-0.1-0.1-0.2l-2.2-3c-0.2-0.2-0.2-0.6,0.1-0.8
		l0.9-0.9c0.3-0.3,0.9-0.2,1,0.3l0.3,1.1c0.1,0.3,0.4,0.5,0.7,0.4l1.3-0.2c0.2,0,0.4-0.2,0.5-0.3l0.9-1.8c0-0.1,0.1-0.2,0.1-0.3
		v-4.6c0-0.1,0-0.2-0.1-0.3l-2.7-4.7c0-0.1-0.1-0.1-0.1-0.2l-0.5-3.6c0-0.1,0-0.1,0-0.2l0.5-2.5c0-0.1,0-0.2,0.1-0.2l3.1-4.5
		c0.2-0.3,0.1-0.6-0.1-0.8l-10.7-9.1c-0.1-0.1-0.2-0.1-0.4-0.1l-23.8-1c-0.2,0-0.4,0.1-0.6,0.3l-2.6,4.6c-0.1,0.1-0.1,0.2-0.1,0.3
		l0.1,4c0,0,0,0,0,0l-0.1,2.3c0,0.4-0.3,0.6-0.7,0.6l-1.4-0.1c-0.3,0-0.5,0.1-0.6,0.4l-0.5,1c-0.1,0.3-0.5,0.4-0.8,0.3l-3.3-1.2
		c0,0,0,0-0.1,0l-2.8-1.4c-0.2-0.1-0.5-0.1-0.7,0.1l-1.4,1.2c-0.1,0.1-0.1,0.1-0.1,0.2l-2.3,4.4c-0.1,0.2-0.3,0.3-0.5,0.3l-2.5,0.4
		c-0.1,0-0.3,0-0.4-0.1l-2.4-1.3c-0.1-0.1-0.2-0.1-0.3-0.1l-4.6,0.4c-0.2,0-0.4,0.2-0.5,0.4l-1.4,3.6c0,0.1,0,0.2,0,0.3l0.6,4
		c0,0.1,0,0.2,0,0.2l-0.6,2.6c0,0.2-0.1,0.3-0.3,0.4l-2.3,1.4c-0.1,0-0.2,0.1-0.2,0.1l-3.4,0.5c-0.3,0-0.5,0.3-0.5,0.6v0.9
		c0,0.1,0,0.2,0.1,0.3l1,1.9c0.1,0.1,0.2,0.2,0.3,0.3l1.1,0.5c0.2,0.1,0.4,0.1,0.6,0l1.9-1.2c0.2-0.1,0.5-0.1,0.7,0.1l0.9,0.8
		c0,0,0,0,0.1,0.1l2.7,1.9c0.1,0.1,0.2,0.1,0.4,0.1h1.8c0.5,0,0.8,0.6,0.5,1v0c-0.3,0.4,0,1.1,0.5,1l3.6-0.3c0.5,0,0.8,0.4,0.6,0.9
		l-0.3,0.8c-0.1,0.1-0.2,0.2-0.3,0.3l-1.1,0.6c-0.3,0.2-0.4,0.5-0.3,0.8l0.6,1.2"/>
	<path id="XMLID_69_" class="st5" d="M184.7-7.3h-4.2c-0.9,0-1.5-0.9-1.2-1.7l0.3-0.9c0.3-0.8-0.4-1.7-1.3-1.7l-2,0.1
		c-0.2,0-0.4,0.1-0.5,0.2L173-9.4c-0.1,0-0.2,0.1-0.2,0.1L169-8c-0.1,0-0.2,0.1-0.3,0.2l-3.3,2.3c-0.3,0.2-0.5,0.6-0.5,1v3.6
		c0,0.1,0,0.2-0.1,0.4L164,1.9c-0.2,0.5,0,1,0.4,1.4l1.3,1c0.2,0.2,0.5,0.3,0.8,0.3h2.8c0.2,0,0.4,0,0.5-0.1l2.3-1.1
		c0.5-0.2,1.1-0.1,1.5,0.3l0.5,0.6c0.2,0.2,0.5,0.4,0.8,0.4l10.5,0.9c0.3,0,0.6-0.1,0.8-0.2l10.6-7.9c0.9-0.6,0.6-2-0.5-2.2
		l-11.3-2.3C184.9-7.2,184.8-7.3,184.7-7.3z"/>
	<path id="XMLID_68_" class="st5" d="M170.7-18c0,0.3-0.1,0.7-0.4,0.9l-1.2,1.2c-0.4,0.4-0.5,0.9-0.3,1.4v0c0.4,1-0.6,2-1.6,1.6
		l-2.9-1.1c-0.6-0.2-0.9-0.8-0.9-1.4v-0.6c0-0.8,0.7-1.5,1.5-1.5h1.2c0.4,0,0.8-0.2,1.1-0.5l0.8-1c0.7-0.9,2.1-0.6,2.5,0.5L170.7-18
		z"/>
	<path id="XMLID_67_" class="st5" d="M173.8-29.1l2,2.9c0.2,0.3,0.3,0.8,0.1,1.2l-1,2.4c-0.4,0.9-1.5,1.1-2.1,0.3l-0.5-0.6
		c-0.2-0.2-0.3-0.5-0.3-0.8v-2c0-0.2,0-0.3-0.1-0.5l-0.7-1.6c-0.3-0.7,0-1.4,0.7-1.7l0.4-0.1C172.9-29.8,173.5-29.6,173.8-29.1z"/>
	<path id="XMLID_66_" class="st5" d="M181-18.3l-2.2-0.4c-0.4-0.1-0.9,0.1-1.2,0.4l-0.2,0.3c-0.5,0.6-0.3,1.6,0.4,1.9l2.8,1.3
		l0.9,0.7l1.4,0.8c0.4,0.3,1,0.2,1.4-0.1l1.7-1.2h1.2l7.5,0.6c0.6,0,1.1-0.3,1.3-0.8l2.5-7c0.3-0.8-0.3-1.7-1.2-1.7h-7.3
		c-0.2,0-0.4,0.1-0.6,0.2l-1.5,0.9c-0.1,0.1-0.2,0.1-0.3,0.2l-2.1,2.3c-0.1,0.2-0.3,0.3-0.5,0.3l-3.3,1.1
		C181.4-18.2,181.2-18.2,181-18.3z"/>
	<use xlink:href="#XMLID_63_"  style="overflow:visible;fill:none;stroke:#000000;stroke-miterlimit:10;"/>
</g>
<g id="XMLID_94_" class="st0">
	<g id="XMLID_97_">
		<g id="XMLID_98_">
			<g id="XMLID_99_">
				<g id="XMLID_109_">
					<path id="XMLID_111_" class="st1" d="M226.6,75.4h-53.2c-0.8,0-1.4,0.6-1.4,1.4v33.6h56V76.8C228,76,227.4,75.4,226.6,75.4"/>
					<path id="XMLID_110_" class="st1" d="M224.7,107.8h-49.3c-0.4,0-0.7-0.3-0.7-0.7V78.7c0-0.4,0.3-0.7,0.7-0.7h49.4
						c0.4,0,0.7,0.3,0.7,0.7v28.4C225.4,107.5,225.1,107.8,224.7,107.8"/>
				</g>
				<g id="XMLID_100_">
					<path id="XMLID_108_" class="st1" d="M234.3,114.6h-68.6c-0.4,0-0.7-0.3-0.7-0.7v-2.8c0-0.4,0.3-0.7,0.7-0.7h68.6
						c0.4,0,0.7,0.3,0.7,0.7v2.8C235,114.3,234.7,114.6,234.3,114.6"/>
					<g id="XMLID_101_">
						<g id="XMLID_102_">
							<g id="XMLID_105_">
								<defs>
									<path id="XMLID_107_" d="M193.3,111.8h13.4c0.2,0,0.3-0.1,0.3-0.3v-0.8c0-0.2-0.1-0.3-0.3-0.3h-13.4
										c-0.2,0-0.3,0.1-0.3,0.3v0.8C193,111.7,193.1,111.8,193.3,111.8z"/>
								</defs>
								<clipPath id="XMLID_21_">
									<use xlink:href="#XMLID_107_"  style="overflow:visible;"/>
								</clipPath>
								<path id="XMLID_106_" class="st6" d="M205.6,111.8h-11.2c-0.8,0-1.4-0.6-1.4-1.4h14C207,111.2,206.4,111.8,205.6,111.8"/>
								<use xlink:href="#XMLID_107_"  style="overflow:visible;fill:none;stroke:#000000;stroke-miterlimit:10;"/>
							</g>
							<g id="XMLID_103_">
								<path id="XMLID_104_" class="st1" d="M193.3,111.8h13.4c0.2,0,0.3-0.1,0.3-0.3v-0.8c0-0.2-0.1-0.3-0.3-0.3h-13.4
									c-0.2,0-0.3,0.1-0.3,0.3v0.8C193,111.7,193.1,111.8,193.3,111.8z"/>
							</g>
						</g>
					</g>
				</g>
			</g>
		</g>
	</g>
	<path id="XMLID_96_" class="st1" d="M215.4,96h-30.8c-0.2,0-0.3-0.2-0.3-0.3v-2.5c0-0.2,0.2-0.3,0.3-0.3h30.8
		c0.2,0,0.3,0.2,0.3,0.3v2.5C215.7,95.9,215.6,96,215.4,96z"/>
	<path id="XMLID_95_" class="st1" d="M205.6,96h-21.1c-0.2,0-0.3-0.2-0.3-0.3v-2.5c0-0.2,0.2-0.3,0.3-0.3h21.1
		c0.2,0,0.3,0.2,0.3,0.3v2.5C206,95.9,205.8,96,205.6,96z"/>
</g>
<path id="XMLID_114_" class="st4" d="M31,128.8l-2.6,2.4c-1.4,1.3-2.3,3.1-2.5,5c-5.3,5.2-11,14.2-8.1,18.7
	c2.9,4.5,13.4,3.3,20.3,0.8c1.8,0.7,3.9,0.7,5.8-0.1l3.2-1.3c1.2-0.5,1.5-1.8,0.9-2.9l-2-3.2c0.3-0.9,0-1.6-0.1-2.4l1.9-0.3
	c0.6-0.4,1-1.3,0.6-1.9l-7.2-11.4c-0.4-0.6-1.3-0.8-2-0.4l-1,1.6c-0.7-0.5-1.4-0.9-2.1-1.2l-2.1-3.2C33.4,128.1,31.9,127.9,31,128.8
	z"/>
<circle id="XMLID_113_" class="st4" cx="28.1" cy="148.5" r="5.7"/>
<path id="XMLID_112_" class="st4" d="M51,139.7c-0.5,0.3-1.2-0.1-1.2-0.6c-0.2-2.3-1.6-4.5-3.6-5.7c-0.5-0.2-0.6-1-0.1-1.3
	c1-0.7,2.1-1.3,3.1-2c0.5-0.3,1.2,0.1,1.2,0.7c-0.1,0.5-0.2,0.9-0.3,1.4c1.2-0.1,2.4-0.2,3.5-0.3c0.6,0,1,0.6,0.7,1.1
	c-0.6,1-1.2,2-1.8,3c0.5,0.1,0.9,0.2,1.4,0.3c0.6,0.2,0.7,1.1,0.2,1.4C53,138.4,52,139,51,139.7z"/>
<g id="XMLID_119_" class="st0">
	<g id="Layer_1_1_">
		<path id="XMLID_115_" class="st1" d="M77.3,175.1l-0.8-0.8l-6.3-6.3l-0.8-0.8c-0.1-0.1-0.3-0.1-0.4,0l-1.2,1.2
			c-0.1,0.1-0.1,0.3,0,0.4l0.6,0.6l-14.9,14.9c0,0,0,0,0,0.1c-1,0.9-1.6,2.1-1.6,3.5c0,2.6,2.1,4.8,4.8,4.8c1.4,0,2.7-0.6,3.5-1.6
			c0,0,0,0,0.1,0L75,176.2l0.6,0.6c0.1,0.1,0.3,0.1,0.4,0l1.2-1.2C77.4,175.4,77.4,175.2,77.3,175.1z"/>
	</g>
	<circle id="XMLID_116_" class="st1" cx="74.3" cy="162.3" r="2.1"/>
	<circle id="XMLID_117_" class="st1" cx="79.6" cy="168.3" r="3.5"/>
	<circle id="XMLID_118_" class="st1" cx="81.3" cy="160.3" r="1.4"/>
</g>
</svg>
