<?xml version="1.0" encoding="utf-8"?>
<!-- Generator: Adobe Illustrator 19.0.0, SVG Export Plug-In . SVG Version: 6.00 Build 0)  -->
<svg version="1.1" id="Layer_1" xmlns="http://www.w3.org/2000/svg" xmlns:xlink="http://www.w3.org/1999/xlink" x="0px" y="0px"
	 viewBox="-199 -150 800 800" style="enable-background:new -199 -150 800 800;" xml:space="preserve">
<style type="text/css">
	.st0{fill:#FF8833;}
	.st1{fill:#F7F7F7;}
	.st2{fill:#DE6525;}
	.st3{fill:#DDDDDD;}
</style>
<circle id="XMLID_1_" class="st0" cx="201" cy="250" r="400"/>
<path id="XMLID_2_" class="st1" d="M366,475H36c-5.5,0-10-4.5-10-10V35c0-5.5,4.5-10,10-10h330c5.5,0,10,4.5,10,10v430
	C376,470.5,371.5,475,366,475z"/>
<path id="XMLID_3_" class="st2" d="M76,475H36c-5.5,0-10-4.5-10-10V35c0-5.5,4.5-10,10-10h40V475z"/>
<path id="XMLID_4_" class="st3" d="M286,110H156c-5.5,0-10-4.5-10-10l0,0c0-5.5,4.5-10,10-10h130c5.5,0,10,4.5,10,10l0,0
	C296,105.5,291.5,110,286,110z"/>
<path id="XMLID_5_" class="st3" d="M286,140H156c-5.5,0-10-4.5-10-10l0,0c0-5.5,4.5-10,10-10h130c5.5,0,10,4.5,10,10l0,0
	C296,135.5,291.5,140,286,140z"/>
<path id="XMLID_6_" class="st3" d="M286,170h-80c-5.5,0-10-4.5-10-10l0,0c0-5.5,4.5-10,10-10h80c5.5,0,10,4.5,10,10l0,0
	C296,165.5,291.5,170,286,170z"/>
<path id="XMLID_7_" class="st2" d="M253.6,205.4l34.8-21.2c1.6-1,3.6-1,5.2,0l34.8,21.2c3.3,2,7.6-0.4,7.6-4.3v-180c0-2.8-2.2-5-5-5
	h-80c-2.8,0-5,2.2-5,5v180C246,205,250.3,207.4,253.6,205.4z"/>
</svg>
