<?xml version="1.0" encoding="utf-8"?>
<!-- Generator: Adobe Illustrator 19.0.0, SVG Export Plug-In . SVG Version: 6.00 Build 0)  -->
<svg version="1.1" id="Layer_1" xmlns="http://www.w3.org/2000/svg" xmlns:xlink="http://www.w3.org/1999/xlink" x="0px" y="0px"
	 viewBox="-199 -150 800 800" style="enable-background:new -199 -150 800 800;" xml:space="preserve">
<style type="text/css">
	.st0{fill:#00B6E3;}
	.st1{fill:#F7F7F7;}
</style>
<g id="background">
	<circle id="XMLID_6_" class="st0" cx="201" cy="250" r="400"/>
</g>
<g id="tool">
</g>
<g id="Layer_1_1_">
	<path id="XMLID_2_" class="st1" d="M381.5,220.5l-19.6,19.6c-2,2-5.1,2-7.1,0L228.5,113.8c-2-2-2-5.1,0-7.1l19.6-19.6
		c2-2,5.1-2,7.1,0l126.4,126.4C383.5,215.4,383.5,218.6,381.5,220.5z"/>
	<path id="XMLID_3_" class="st1" d="M101.3,467L1.6,367.3c-2-2-2-5.1,0-7.1l259.8-259.8c2-2,5.1-2,7.1,0l99.7,99.7c2,2,2,5.1,0,7.1
		L108.4,467C106.4,468.9,103.3,468.9,101.3,467z"/>
	<circle id="XMLID_1_" class="st1" cx="51.5" cy="417.1" r="75.5"/>
	<polygon id="XMLID_5_" class="st0" points="91.5,457.2 11.5,377.1 111.5,277 291.7,257 	"/>
	<circle id="XMLID_4_" class="st0" cx="51.5" cy="417.1" r="56.6"/>
	<g id="XMLID_8_">
		<g id="layer1_1_">
			<path id="path4263_1_" class="st1" d="M391.3,115.8c-1.6,0-3.2,0-4.3,1.1c-1.6,1.7-1.4,6.3-1.2,8.8c-2.1,0.5-4.1,1.2-6,2.2
				c-1.5-2.1-4.3-5.7-6.6-5.9c-1.6-0.2-2.9,0.9-4.2,2.1c-1.2,1.1-2.4,2.1-2.5,3.7c-0.2,2.3,2.8,5.7,4.6,7.5
				c-1.3,1.7-2.4,3.7-3.2,5.6c-2.5-0.7-6.9-1.6-8.8-0.3c-1.3,0.9-1.6,2.7-1.9,4.4c-0.2,1.6-0.5,3.2,0.4,4.5c1.3,1.9,5.7,2.5,8.3,2.8
				c0.1,2.2,0.5,4.3,1.1,6.4c-2.3,1.1-6.2,3.3-6.8,5.5c-0.4,1.6,0.4,3,1.3,4.5c0.8,1.4,1.6,2.8,3.1,3.2c2.2,0.6,6-1.8,8.1-3.2
				c0.7,0.8,1.5,1.6,2.3,2.3c0.8,0.7,1.7,1.3,2.6,1.9c-1.1,2.3-2.7,6.5-1.8,8.6c0.7,1.5,2.3,2.1,3.9,2.7c1.5,0.5,3,1.1,4.4,0.4
				c2.1-1,3.5-5.3,4.2-7.8c2.1,0.3,4.2,0.3,6.4,0c0.7,2.5,2.1,6.8,4.2,7.8c1.5,0.7,3.1,0.1,4.7-0.5c1.5-0.6,3-1.2,3.6-2.6
				c0.9-2.1-0.7-6.3-1.8-8.6c1.8-1.2,3.4-2.6,4.9-4.2c2.1,1.5,5.9,3.8,8.2,3.3c1.6-0.4,2.4-1.9,3.3-3.4c0.8-1.4,1.6-2.8,1.1-4.3
				c-0.6-2.3-4.7-4.5-7-5.6c0.6-2.1,1-4.2,1.1-6.3c2.5-0.2,7-0.9,8.4-2.8c0.9-1.3,0.7-3,0.3-4.7c-0.3-1.6-0.6-3.2-1.9-4.1
				c-1.9-1.3-6.4-0.3-8.9,0.3c-0.8-1.9-1.9-3.8-3.2-5.5c1.8-1.8,4.9-5.3,4.7-7.6c-0.1-1.6-1.4-2.8-2.8-3.9c-1.3-1-2.5-2-4-1.9
				c-2.3,0.2-5.2,3.9-6.6,6c-1.9-1-3.9-1.8-6-2.2c0.2-2.5,0.4-7.2-1.2-8.9C394.8,115.8,393.1,115.8,391.3,115.8z M391.5,138.8
				c6.3,0,11.5,5.1,11.5,11.5s-5.1,11.5-11.5,11.5s-11.5-5.1-11.5-11.5S385.2,138.8,391.5,138.8z"/>
		</g>
	</g>
	<g id="XMLID_13_">
		<g id="layer1_2_">
			<path id="path4263_2_" class="st1" d="M360.2,7.4c-2.3,0-4.5,0.1-6,1.6c-2.3,2.4-2,8.8-1.7,12.4c-2.9,0.7-5.8,1.7-8.4,3.1
				c-2-2.9-6-8-9.2-8.3c-2.3-0.2-4.1,1.3-5.9,2.9c-1.7,1.5-3.4,3-3.6,5.1c-0.2,3.3,4,8.1,6.5,10.6c-1.9,2.5-3.3,5.1-4.5,7.9
				c-3.4-0.9-9.6-2.3-12.3-0.5c-1.9,1.3-2.3,3.8-2.7,6.2c-0.3,2.3-0.8,4.5,0.5,6.3c1.9,2.6,8,3.6,11.6,3.9c0.1,3,0.7,6.1,1.6,9
				c-3.2,1.5-8.7,4.6-9.6,7.7c-0.6,2.2,0.6,4.3,1.8,6.4c1.2,2,2.3,3.9,4.4,4.4c3.1,0.8,8.4-2.5,11.4-4.5c1,1.1,2.1,2.2,3.3,3.2
				s2.4,1.9,3.6,2.7c-1.5,3.3-3.8,9.1-2.5,12.1c0.9,2.1,3.2,3,5.5,3.8c2.1,0.7,4.2,1.5,6.2,0.6c2.9-1.4,4.9-7.4,5.9-10.9
				c3,0.4,6,0.4,8.9,0c0.9,3.5,3,9.5,5.9,10.9c2.1,1,4.3,0.2,6.6-0.7c2.1-0.8,4.2-1.7,5.1-3.6c1.3-3-1-8.8-2.5-12.1
				c2.5-1.6,4.8-3.6,6.9-5.9c2.9,2.1,8.3,5.4,11.5,4.6c2.2-0.6,3.4-2.7,4.6-4.8c1.1-2,2.2-3.9,1.6-6c-0.9-3.2-6.6-6.3-9.8-7.8
				c0.9-2.9,1.4-5.9,1.6-8.9c3.5-0.3,9.9-1.2,11.8-3.9c1.3-1.9,0.9-4.3,0.5-6.7c-0.4-2.2-0.8-4.5-2.6-5.8c-2.7-1.9-9.1-0.5-12.5,0.5
				c-1.1-2.7-2.6-5.4-4.4-7.8c2.5-2.5,6.9-7.4,6.6-10.7c-0.2-2.3-2-3.9-3.9-5.5c-1.8-1.4-3.5-2.8-5.6-2.6c-3.3,0.3-7.3,5.5-9.3,8.4
				c-2.7-1.4-5.5-2.5-8.4-3.1c0.3-3.6,0.6-10.1-1.7-12.5C365,7.4,362.6,7.3,360.2,7.4z M360.4,39.7c8.9,0,16.2,7.2,16.2,16.2
				c0,8.9-7.2,16.2-16.2,16.2c-8.9,0-16.2-7.2-16.2-16.2C344.3,46.9,351.5,39.7,360.4,39.7z"/>
		</g>
	</g>
</g>
</svg>
