<?xml version="1.0" encoding="utf-8"?>
<!-- Generator: Adobe Illustrator 19.0.0, SVG Export Plug-In . SVG Version: 6.00 Build 0)  -->
<svg version="1.1" id="Layer_1" xmlns="http://www.w3.org/2000/svg" xmlns:xlink="http://www.w3.org/1999/xlink" x="0px" y="0px"
	 viewBox="0 0 800 800" style="enable-background:new 0 0 800 800;" xml:space="preserve">
<style type="text/css">
	.st0{opacity:0.2;}
	.st1{fill:#FAFAFA;stroke:#424242;stroke-width:5;stroke-miterlimit:10;}
	.st2{fill:#795548;stroke:#424242;stroke-width:5;stroke-miterlimit:10;}
	.st3{display:none;fill:#BCAAA4;}
	.st4{display:none;fill:#D7CCC8;}
	.st5{fill:#EFEBE9;stroke:#424242;stroke-width:5;stroke-miterlimit:10;}
</style>
<circle id="XMLID_5_" class="st0" cx="358.5" cy="388.5" r="275"/>
<path id="XMLID_3_" class="st1" d="M628,613.9L613.9,628c-15.6,15.6-40.9,15.6-56.6,0l-84.9-84.9c-15.6-15.6-15.6-40.9,0-56.6
	l14.1-14.1c15.6-15.6,40.9-15.6,56.6,0l84.9,84.9C643.7,573,643.7,598.3,628,613.9z"/>
<circle id="XMLID_2_" class="st1" cx="373.5" cy="373.5" r="275"/>
<circle id="XMLID_1_" class="st2" cx="373.5" cy="373.5" r="200"/>
<path id="XMLID_7_" class="st3" d="M457.7,382.2c23.2-23.2,23.2-60.9,0-84.1c-23.2-23.2-60.9-23.2-84.1,0l-0.1-0.1
	c-23.2-23.2-60.9-23.2-84.1,0c-23.2,23.2-23.2,60.9,0,84.1l21,21l21,21l42.1,42.1l39.5-39.5c0.8-0.8,1.7-1.7,2.6-2.6L457.7,382.2z"
	/>
<path id="XMLID_6_" class="st4" d="M445.8,381c20-20,20-52.3,0-72.3c-20-20-52.3-20-72.3,0l-0.1-0.1c-20-20-52.3-20-72.3,0
	c-20,20-20,52.3,0,72.3l18.1,18.1l18.1,18.1l36.2,36.2l33.9-33.9c0.7-0.7,1.5-1.5,2.2-2.2L445.8,381z"/>
<path id="XMLID_12_" class="st5" d="M402.9,435c24.3,0,43.9-19.7,43.9-43.9c0-24.3-19.7-43.9-43.9-43.9v-0.1
	c0-24.3-19.7-43.9-43.9-43.9c-24.3,0-43.9,19.7-43.9,43.9v22v22l0,44h41.3c0.9,0,1.8,0,2.7,0H402.9z"/>
</svg>
