<?xml version="1.0" encoding="utf-8"?>
<!-- Generator: Adobe Illustrator 19.0.0, SVG Export Plug-In . SVG Version: 6.00 Build 0)  -->
<svg version="1.1" id="Layer_1" xmlns="http://www.w3.org/2000/svg" xmlns:xlink="http://www.w3.org/1999/xlink" x="0px" y="0px"
	 viewBox="0 0 1200 1200" style="enable-background:new 0 0 1200 1200;" xml:space="preserve">
<style type="text/css">
	.st0{clip-path:url(#XMLID_151_);fill:#333C4E;}
	.st1{clip-path:url(#XMLID_151_);}
	.st2{clip-path:url(#XMLID_152_);}
	.st3{clip-path:url(#XMLID_153_);}
	.st4{clip-path:url(#XMLID_154_);fill:#754943;}
	.st5{clip-path:url(#XMLID_154_);fill:#AD7E64;}
	.st6{clip-path:url(#XMLID_154_);fill:#4A2525;}
	.st7{clip-path:url(#XMLID_154_);fill:#455164;}
	.st8{clip-path:url(#XMLID_154_);fill:#333C4E;}
	.st9{clip-path:url(#XMLID_154_);fill:#FF6699;}
	.st10{opacity:0.2;clip-path:url(#XMLID_154_);}
	.st11{clip-path:url(#XMLID_155_);fill:#444444;}
	.st12{clip-path:url(#XMLID_156_);}
	.st13{clip-path:url(#XMLID_157_);fill:#F7AC54;}
	.st14{clip-path:url(#XMLID_157_);fill:#FDCC6A;}
	.st15{clip-path:url(#XMLID_157_);fill:#455164;}
	.st16{clip-path:url(#XMLID_157_);fill:#333C4E;}
	.st17{clip-path:url(#XMLID_157_);fill:#F7F7F7;}
	.st18{clip-path:url(#XMLID_157_);fill:#ECF0F1;}
	.st19{clip-path:url(#XMLID_158_);}
	.st20{clip-path:url(#XMLID_159_);}
	.st21{clip-path:url(#XMLID_160_);fill:#F7F7F7;}
	.st22{clip-path:url(#XMLID_160_);fill:#4C4C4D;}
	.st23{clip-path:url(#XMLID_160_);fill:#5E5E5D;}
	.st24{clip-path:url(#XMLID_160_);fill:#ECF0F1;}
	.st25{clip-path:url(#XMLID_160_);fill:#FF6699;}
	.st26{clip-path:url(#XMLID_160_);fill:#DDDDDD;}
	.st27{clip-path:url(#XMLID_151_);fill:#FDCC6A;}
	.st28{clip-path:url(#XMLID_151_);fill:#EEEEEE;}
	.st29{fill:#DF775E;}
	.st30{clip-path:url(#XMLID_161_);fill:#DF775E;}
	.st31{clip-path:url(#XMLID_151_);fill:#FF6699;}
	.st32{opacity:0.2;clip-path:url(#XMLID_151_);fill:#444444;}
</style>
<g id="XMLID_148_">
	<defs>
		<circle id="XMLID_147_" cx="600" cy="602" r="600"/>
	</defs>
	<clipPath id="XMLID_151_">
		<use xlink:href="#XMLID_147_"  style="overflow:visible;"/>
	</clipPath>
	<circle id="XMLID_146_" class="st0" cx="600" cy="600" r="600"/>
	<g id="XMLID_76_" class="st1">
		<g id="XMLID_77_">
			<defs>
				<rect id="XMLID_78_" x="-121.7" y="178.7" width="800" height="800"/>
			</defs>
			<clipPath id="XMLID_152_">
				<use xlink:href="#XMLID_78_"  style="overflow:visible;"/>
			</clipPath>
			<g id="XMLID_79_" class="st2">
				<defs>
					<rect id="XMLID_80_" x="-121.7" y="178.7" width="800" height="800"/>
				</defs>
				<clipPath id="XMLID_153_">
					<use xlink:href="#XMLID_80_"  style="overflow:visible;"/>
				</clipPath>
				<g id="XMLID_81_" class="st3">
					<defs>
						<rect id="XMLID_82_" x="-121.7" y="178.7" width="800" height="800"/>
					</defs>
					<clipPath id="XMLID_154_">
						<use xlink:href="#XMLID_82_"  style="overflow:visible;"/>
					</clipPath>
					<path id="XMLID_103_" class="st4" d="M388.3,862.2h-220c-5.5,0-10-4.5-10-10V553.7h240v298.5
						C398.3,857.7,393.9,862.2,388.3,862.2"/>
					<path id="XMLID_102_" class="st5" d="M278.3,862.2h-110c-5.5,0-10-4.5-10-10V553.7h120V862.2z"/>
					<path id="XMLID_101_" class="st4" d="M312.3,673.7c0,18.8-15.2,34-34,34c-18.8,0-34-15.2-34-34c0-18.8,15.2-34,34-34
						C297.1,639.7,312.3,654.9,312.3,673.7"/>
					<path id="XMLID_100_" class="st6" d="M278.3,639.7c18.8,0,34,15.2,34,34c0,18.8-15.2,34-34,34V639.7z"/>
					<path id="XMLID_99_" class="st4" d="M418.3,463.7c0,33.1-26.9,60-60,60s-60-26.9-60-60s26.9-60,60-60S418.3,430.5,418.3,463.7"
						/>
					<path id="XMLID_98_" class="st5" d="M408.3,463.7c0,27.6-22.4,50-50,50c-27.6,0-50-22.4-50-50c0-27.6,22.4-50,50-50
						C386,413.7,408.3,436.1,408.3,463.7"/>
					<path id="XMLID_97_" class="st4" d="M278.3,433.7c66,0,120,53,120,121h-120V433.7z"/>
					<path id="XMLID_96_" class="st5" d="M258.3,463.7c0,33.1-26.9,60-60,60s-60-26.9-60-60s26.9-60,60-60S258.3,430.5,258.3,463.7"
						/>
					<path id="XMLID_95_" class="st4" d="M248.3,463.7c0,27.6-22.4,50-50,50c-27.6,0-50-22.4-50-50c0-27.6,22.4-50,50-50
						C226,413.7,248.3,436.1,248.3,463.7"/>
					<path id="XMLID_94_" class="st5" d="M158.3,554.7c0-68,54-121,120-121v121H158.3z"/>
					<polygon id="XMLID_93_" class="st7" points="292.5,666.6 278.3,680.8 264.2,666.6 					"/>
					<polygon id="XMLID_92_" class="st8" points="278.3,666.7 278.3,680.8 292.5,666.7 					"/>
					<rect id="XMLID_91_" x="158.3" y="554.7" class="st9" width="240" height="74"/>
					<path id="XMLID_90_" class="st7" d="M238.3,593.7c0,5.5-4.5,10-10,10c-5.5,0-10-4.5-10-10c0-5.5,4.5-10,10-10
						C233.9,583.7,238.3,588.2,238.3,593.7"/>
					<path id="XMLID_89_" class="st8" d="M338.3,593.7c0,5.5-4.5,10-10,10c-5.5,0-10-4.5-10-10c0-5.5,4.5-10,10-10
						C333.9,583.7,338.3,588.2,338.3,593.7"/>
					<polygon id="XMLID_88_" class="st9" points="175.7,594.2 119.3,614.7 109,586.5 					"/>
					<polygon id="XMLID_87_" class="st9" points="131.3,551.1 169.8,597.1 114.9,577.7 					"/>
					<g id="XMLID_83_" class="st10">
						<g id="XMLID_84_">
							<defs>
								<rect id="XMLID_85_" x="278.3" y="554.7" width="120" height="74"/>
							</defs>
							<clipPath id="XMLID_155_">
								<use xlink:href="#XMLID_85_"  style="overflow:visible;"/>
							</clipPath>
							<rect id="XMLID_86_" x="278.3" y="554.7" class="st11" width="120" height="74"/>
						</g>
					</g>
				</g>
			</g>
		</g>
	</g>
	<g id="XMLID_104_" class="st1">
		<g id="XMLID_105_">
			<defs>
				<rect id="XMLID_106_" x="649.9" y="433" width="600" height="600"/>
			</defs>
			<clipPath id="XMLID_156_">
				<use xlink:href="#XMLID_106_"  style="overflow:visible;"/>
			</clipPath>
			<g id="XMLID_107_" class="st12">
				<defs>
					<rect id="XMLID_108_" x="649.9" y="433" width="600" height="600"/>
				</defs>
				<clipPath id="XMLID_157_">
					<use xlink:href="#XMLID_108_"  style="overflow:visible;"/>
				</clipPath>
				<path id="XMLID_118_" class="st13" d="M949.9,920.5h82.5c4.1,0,7.5-3.4,7.5-7.5V770.5c0-49.7-40.5-90-90-90v90V920.5z"/>
				<path id="XMLID_117_" class="st14" d="M949.9,770.5v-90c-49.5,0-90,40.3-90,90V913c0,4.1,3.4,7.5,7.5,7.5h82.5V770.5z"/>
				<path id="XMLID_116_" class="st15" d="M919.9,800.5c0,4.1-3.4,7.5-7.5,7.5s-7.5-3.4-7.5-7.5s3.4-7.5,7.5-7.5
					S919.9,796.4,919.9,800.5"/>
				<path id="XMLID_115_" class="st16" d="M994.9,800.5c0,4.1-3.4,7.5-7.5,7.5s-7.5-3.4-7.5-7.5s3.4-7.5,7.5-7.5
					S994.9,796.4,994.9,800.5"/>
				<polygon id="XMLID_114_" class="st15" points="960.5,815.5 949.9,826.1 939.3,815.5 				"/>
				<path id="XMLID_113_" class="st14" d="M876,585c18.7,39.6,51.5,121.1,42.3,125.3c-9.1,4.2-56.7-70.5-75.4-110.1
					c-18.7-39.6-14.2-49.1-5.1-53.3C847,542.8,857.2,545.4,876,585"/>
				<path id="XMLID_112_" class="st13" d="M1058,597.6c-19,39.3-63.2,116.1-75,112.8s13.1-85.3,32.1-124.6
					c19-39.3,31.5-42.6,43.4-39.4C1070.3,549.7,1077,558.3,1058,597.6"/>
				<path id="XMLID_111_" class="st17" d="M872.7,589.2c13.6,28.8,37.4,88.1,30.8,91.1c-6.6,3.1-41.2-51.2-54.9-80.1
					c-13.6-28.8-10.3-35.7-3.7-38.7C851.6,558.5,859.1,560.4,872.7,589.2"/>
				<path id="XMLID_110_" class="st18" d="M1052,598.4c-13.8,28.5-45.9,84.4-54.6,82.1c-8.6-2.4,9.5-62.1,23.3-90.6
					c13.8-28.5,22.9-31,31.5-28.6C1060.9,563.5,1065.8,569.8,1052,598.4"/>
				<polygon id="XMLID_109_" class="st16" points="949.9,815.5 949.9,826.1 960.5,815.5 				"/>
			</g>
		</g>
	</g>
	<g id="XMLID_119_" class="st1">
		<g id="XMLID_120_">
			<g id="XMLID_122_">
				<defs>
					<rect id="XMLID_123_" x="272.7" y="281.7" width="700" height="700"/>
				</defs>
				<defs>
					<rect id="XMLID_121_" x="272.7" y="281.7" width="700" height="700"/>
				</defs>
				<clipPath id="XMLID_158_">
					<use xlink:href="#XMLID_123_"  style="overflow:visible;"/>
				</clipPath>
				<clipPath id="XMLID_159_" class="st19">
					<use xlink:href="#XMLID_121_"  style="overflow:visible;"/>
				</clipPath>
				<g id="XMLID_124_" class="st20">
					<defs>
						<rect id="XMLID_125_" x="272.7" y="281.7" width="700" height="700"/>
					</defs>
					<clipPath id="XMLID_160_">
						<use xlink:href="#XMLID_125_"  style="overflow:visible;"/>
					</clipPath>
					<circle id="XMLID_149_" class="st21" cx="622.7" cy="619.1" r="105"/>
					<path id="XMLID_139_" class="st22" d="M762.7,522.3c0,29-23.5,52.5-52.5,52.5c-29,0-52.5-23.5-52.5-52.5
						c0-29,23.5-52.5,52.5-52.5C739.2,469.8,762.7,493.3,762.7,522.3"/>
					<path id="XMLID_138_" class="st23" d="M587.7,522.3c0,29-23.5,52.5-52.5,52.5c-29,0-52.5-23.5-52.5-52.5
						c0-29,23.5-52.5,52.5-52.5C564.2,469.8,587.7,493.3,587.7,522.3"/>
					<path id="XMLID_137_" class="st24" d="M727.7,619.4c-0.5-59.5-47.3-105.9-105-105.9v105.9h-105v165.4c0,4.8,3.9,9.6,8.8,9.6
						H719c4.8,0,8.8-4.8,8.8-9.6L727.7,619.4L727.7,619.4z"/>
					<path id="XMLID_136_" class="st21" d="M517.7,619.4L517.7,619.4l0,165.4c0,4.8,3.9,9.6,8.8,9.6h96.2v-175v-0.9v-105
						C565.3,513.6,518.2,559.9,517.7,619.4"/>
					<rect id="XMLID_140_" x="517.7" y="619.4" class="st25" width="210" height="63.6"/>
					<path id="XMLID_135_" class="st23" d="M596.5,653.6c0,14.5-11.8,26.2-26.2,26.2S544,668.1,544,653.6s11.8-26.2,26.2-26.2
						S596.5,639.1,596.5,653.6"/>
					<path id="XMLID_134_" class="st21" d="M587.7,653.6c0,9.7-7.8,17.5-17.5,17.5c-9.7,0-17.5-7.8-17.5-17.5
						c0-9.7,7.8-17.5,17.5-17.5C579.9,636.1,587.7,643.9,587.7,653.6"/>
					<path id="XMLID_133_" class="st23" d="M579,653.6c0,4.8-3.9,8.8-8.8,8.8s-8.8-3.9-8.8-8.8c0-4.8,3.9-8.8,8.8-8.8
						S579,648.7,579,653.6"/>
					<path id="XMLID_132_" class="st22" d="M701.5,653.6c0,14.5-11.8,26.2-26.2,26.2S649,668.1,649,653.6s11.8-26.2,26.2-26.2
						S701.5,639.1,701.5,653.6"/>
					<path id="XMLID_131_" class="st24" d="M692.7,653.6c0,9.7-7.8,17.5-17.5,17.5c-9.7,0-17.5-7.8-17.5-17.5
						c0-9.7,7.8-17.5,17.5-17.5C684.9,636.1,692.7,643.9,692.7,653.6"/>
					<path id="XMLID_130_" class="st22" d="M684,653.6c0,4.8-3.9,8.8-8.8,8.8s-8.8-3.9-8.8-8.8c0-4.8,3.9-8.8,8.8-8.8
						S684,648.7,684,653.6"/>
					<path id="XMLID_129_" class="st24" d="M652.5,716.6c0,16.4-13.3,29.8-29.8,29.8c-16.4,0-29.8-13.3-29.8-29.8
						c0-16.4,13.3-29.8,29.8-29.8C639.2,686.8,652.5,700.1,652.5,716.6"/>
					<path id="XMLID_128_" class="st26" d="M622.7,686.8c16.4,0,29.8,13.3,29.8,29.8c0,16.4-13.3,29.8-29.8,29.8V686.8z"/>
					<polygon id="XMLID_127_" class="st23" points="635.8,703.9 622.7,717 609.6,703.9 					"/>
					<polygon id="XMLID_126_" class="st22" points="635.8,703.9 622.7,717 622.7,703.9 					"/>
				</g>
			</g>
		</g>
	</g>
	<path id="XMLID_145_" class="st27" d="M1028.7,793.1l-13.2-4.8c-6.2-2.3-9.4-9.2-7.2-15.4l33.8-92.9c2.3-6.2,9.2-9.4,15.4-7.2
		l13.2,4.8c6.2,2.3,9.4,9.2,7.2,15.4l-33.8,92.9C1041.8,792.2,1034.9,795.4,1028.7,793.1z"/>
	<path id="XMLID_143_" class="st27" d="M878.9,801.8l-13.2,4.8c-6.2,2.3-13.1-1-15.4-7.2l-33.8-92.9c-2.3-6.2,1-13.1,7.2-15.4
		l13.2-4.8c6.2-2.3,13.1,1,15.4,7.2l33.8,92.9C888.4,792.6,885.1,799.6,878.9,801.8z"/>
	<path id="XMLID_2_" class="st28" d="M1235.4,1344.2H-100.2c-2.8,0-5-2.2-5-5V727c0-2.8,2.2-5,5-5h1335.5c2.8,0,5,2.2,5,5v612.2
		C1240.4,1342,1238.1,1344.2,1235.4,1344.2z"/>
	<g id="XMLID_2101_" class="st1">
		<path id="XMLID_1_" class="st29" d="M70.1,795.8H-69.6c-2.8,0-5-2.2-5-5V727c0-2.8,2.2-5,5-5H70.1c2.8,0,5,2.2,5,5v63.8
			C75.1,793.6,72.9,795.8,70.1,795.8z"/>
		<path id="XMLID_3_" class="st29" d="M223.8,795.8H84.1c-2.8,0-5-2.2-5-5V727c0-2.8,2.2-5,5-5h139.8c2.8,0,5,2.2,5,5v63.8
			C228.8,793.6,226.6,795.8,223.8,795.8z"/>
		<path id="XMLID_4_" class="st29" d="M377.5,795.8H237.7c-2.8,0-5-2.2-5-5V727c0-2.8,2.2-5,5-5h139.8c2.8,0,5,2.2,5,5v63.8
			C382.5,793.6,380.2,795.8,377.5,795.8z"/>
		<path id="XMLID_5_" class="st29" d="M531.1,795.8H391.4c-2.8,0-5-2.2-5-5V727c0-2.8,2.2-5,5-5h139.8c2.8,0,5,2.2,5,5v63.8
			C536.1,793.6,533.9,795.8,531.1,795.8z"/>
		<path id="XMLID_6_" class="st29" d="M148.9,874.2H9.2c-2.8,0-5-2.2-5-5v-63.8c0-2.8,2.2-5,5-5h139.8c2.8,0,5,2.2,5,5v63.8
			C153.9,871.9,151.7,874.2,148.9,874.2z"/>
		<path id="XMLID_8_" class="st29" d="M302.6,874.2H162.8c-2.8,0-5-2.2-5-5v-63.8c0-2.8,2.2-5,5-5h139.8c2.8,0,5,2.2,5,5v63.8
			C307.6,871.9,305.4,874.2,302.6,874.2z"/>
		<path id="XMLID_9_" class="st29" d="M456.3,874.2H316.5c-2.8,0-5-2.2-5-5v-63.8c0-2.8,2.2-5,5-5h139.8c2.8,0,5,2.2,5,5v63.8
			C461.3,871.9,459,874.2,456.3,874.2z"/>
		<path id="XMLID_10_" class="st29" d="M684.8,795.8H545.1c-2.8,0-5-2.2-5-5V727c0-2.8,2.2-5,5-5h139.8c2.8,0,5,2.2,5,5v63.8
			C689.8,793.6,687.6,795.8,684.8,795.8z"/>
		<path id="XMLID_11_" class="st29" d="M838.5,795.8H698.7c-2.8,0-5-2.2-5-5V727c0-2.8,2.2-5,5-5h139.8c2.8,0,5,2.2,5,5v63.8
			C843.5,793.6,841.2,795.8,838.5,795.8z"/>
		<path id="XMLID_12_" class="st29" d="M992.1,795.8H852.4c-2.8,0-5-2.2-5-5V727c0-2.8,2.2-5,5-5h139.8c2.8,0,5,2.2,5,5v63.8
			C997.1,793.6,994.9,795.8,992.1,795.8z"/>
		<path id="XMLID_13_" class="st29" d="M1145.8,795.8h-139.8c-2.8,0-5-2.2-5-5V727c0-2.8,2.2-5,5-5h139.8c2.8,0,5,2.2,5,5v63.8
			C1150.8,793.6,1148.6,795.8,1145.8,795.8z"/>
		<path id="XMLID_15_" class="st29" d="M609.9,874.2H470.2c-2.8,0-5-2.2-5-5v-63.8c0-2.8,2.2-5,5-5h139.8c2.8,0,5,2.2,5,5v63.8
			C614.9,871.9,612.7,874.2,609.9,874.2z"/>
		<path id="XMLID_16_" class="st29" d="M763.6,874.2H623.8c-2.8,0-5-2.2-5-5v-63.8c0-2.8,2.2-5,5-5h139.8c2.8,0,5,2.2,5,5v63.8
			C768.6,871.9,766.4,874.2,763.6,874.2z"/>
		<path id="XMLID_17_" class="st29" d="M917.3,874.2H777.5c-2.8,0-5-2.2-5-5v-63.8c0-2.8,2.2-5,5-5h139.8c2.8,0,5,2.2,5,5v63.8
			C922.3,871.9,920,874.2,917.3,874.2z"/>
		<path id="XMLID_18_" class="st29" d="M1070.9,874.2H931.2c-2.8,0-5-2.2-5-5v-63.8c0-2.8,2.2-5,5-5h139.8c2.8,0,5,2.2,5,5v63.8
			C1075.9,871.9,1073.7,874.2,1070.9,874.2z"/>
		<path id="XMLID_19_" class="st29" d="M1224.6,874.2h-139.8c-2.8,0-5-2.2-5-5v-63.8c0-2.8,2.2-5,5-5h139.8c2.8,0,5,2.2,5,5v63.8
			C1229.6,871.9,1227.4,874.2,1224.6,874.2z"/>
		<path id="XMLID_37_" class="st29" d="M69.8,952.5H-70c-2.8,0-5-2.2-5-5v-63.8c0-2.8,2.2-5,5-5H69.8c2.8,0,5,2.2,5,5v63.8
			C74.8,950.3,72.5,952.5,69.8,952.5z"/>
		<path id="XMLID_36_" class="st29" d="M223.4,952.5H83.7c-2.8,0-5-2.2-5-5v-63.8c0-2.8,2.2-5,5-5h139.8c2.8,0,5,2.2,5,5v63.8
			C228.4,950.3,226.2,952.5,223.4,952.5z"/>
		<path id="XMLID_35_" class="st29" d="M377.1,952.5H237.3c-2.8,0-5-2.2-5-5v-63.8c0-2.8,2.2-5,5-5h139.8c2.8,0,5,2.2,5,5v63.8
			C382.1,950.3,379.8,952.5,377.1,952.5z"/>
		<path id="XMLID_34_" class="st29" d="M530.8,952.5H391c-2.8,0-5-2.2-5-5v-63.8c0-2.8,2.2-5,5-5h139.8c2.8,0,5,2.2,5,5v63.8
			C535.8,950.3,533.5,952.5,530.8,952.5z"/>
		<path id="XMLID_33_" class="st29" d="M148.5,1030.9H8.8c-2.8,0-5-2.2-5-5V962c0-2.8,2.2-5,5-5h139.8c2.8,0,5,2.2,5,5v63.8
			C153.5,1028.6,151.3,1030.9,148.5,1030.9z"/>
		<path id="XMLID_31_" class="st29" d="M302.2,1030.9H162.5c-2.8,0-5-2.2-5-5V962c0-2.8,2.2-5,5-5h139.8c2.8,0,5,2.2,5,5v63.8
			C307.2,1028.6,305,1030.9,302.2,1030.9z"/>
		<path id="XMLID_30_" class="st29" d="M455.9,1030.9H316.1c-2.8,0-5-2.2-5-5V962c0-2.8,2.2-5,5-5h139.8c2.8,0,5,2.2,5,5v63.8
			C460.9,1028.6,458.6,1030.9,455.9,1030.9z"/>
		<path id="XMLID_29_" class="st29" d="M684.4,952.5H544.7c-2.8,0-5-2.2-5-5v-63.8c0-2.8,2.2-5,5-5h139.8c2.8,0,5,2.2,5,5v63.8
			C689.4,950.3,687.2,952.5,684.4,952.5z"/>
		<path id="XMLID_28_" class="st29" d="M838.1,952.5H698.3c-2.8,0-5-2.2-5-5v-63.8c0-2.8,2.2-5,5-5h139.8c2.8,0,5,2.2,5,5v63.8
			C843.1,950.3,840.8,952.5,838.1,952.5z"/>
		<path id="XMLID_27_" class="st29" d="M991.8,952.5H852c-2.8,0-5-2.2-5-5v-63.8c0-2.8,2.2-5,5-5h139.8c2.8,0,5,2.2,5,5v63.8
			C996.8,950.3,994.5,952.5,991.8,952.5z"/>
		<path id="XMLID_26_" class="st29" d="M1145.4,952.5h-139.8c-2.8,0-5-2.2-5-5v-63.8c0-2.8,2.2-5,5-5h139.8c2.8,0,5,2.2,5,5v63.8
			C1150.4,950.3,1148.2,952.5,1145.4,952.5z"/>
		<path id="XMLID_24_" class="st29" d="M609.5,1030.9H469.8c-2.8,0-5-2.2-5-5V962c0-2.8,2.2-5,5-5h139.8c2.8,0,5,2.2,5,5v63.8
			C614.5,1028.6,612.3,1030.9,609.5,1030.9z"/>
		<path id="XMLID_23_" class="st29" d="M763.2,1030.9H623.5c-2.8,0-5-2.2-5-5V962c0-2.8,2.2-5,5-5h139.8c2.8,0,5,2.2,5,5v63.8
			C768.2,1028.6,766,1030.9,763.2,1030.9z"/>
		<path id="XMLID_22_" class="st29" d="M916.9,1030.9H777.1c-2.8,0-5-2.2-5-5V962c0-2.8,2.2-5,5-5h139.8c2.8,0,5,2.2,5,5v63.8
			C921.9,1028.6,919.6,1030.9,916.9,1030.9z"/>
		<path id="XMLID_21_" class="st29" d="M1070.5,1030.9H930.8c-2.8,0-5-2.2-5-5V962c0-2.8,2.2-5,5-5h139.8c2.8,0,5,2.2,5,5v63.8
			C1075.5,1028.6,1073.3,1030.9,1070.5,1030.9z"/>
		<path id="XMLID_20_" class="st29" d="M1224.2,1030.9h-139.8c-2.8,0-5-2.2-5-5V962c0-2.8,2.2-5,5-5h139.8c2.8,0,5,2.2,5,5v63.8
			C1229.2,1028.6,1227,1030.9,1224.2,1030.9z"/>
		<path id="XMLID_55_" class="st29" d="M69.8,1109.2H-70c-2.8,0-5-2.2-5-5v-63.8c0-2.8,2.2-5,5-5H69.8c2.8,0,5,2.2,5,5v63.8
			C74.8,1107,72.5,1109.2,69.8,1109.2z"/>
		<path id="XMLID_54_" class="st29" d="M223.4,1109.2H83.7c-2.8,0-5-2.2-5-5v-63.8c0-2.8,2.2-5,5-5h139.8c2.8,0,5,2.2,5,5v63.8
			C228.4,1107,226.2,1109.2,223.4,1109.2z"/>
		<path id="XMLID_53_" class="st29" d="M377.1,1109.2H237.3c-2.8,0-5-2.2-5-5v-63.8c0-2.8,2.2-5,5-5h139.8c2.8,0,5,2.2,5,5v63.8
			C382.1,1107,379.8,1109.2,377.1,1109.2z"/>
		<path id="XMLID_52_" class="st29" d="M530.8,1109.2H391c-2.8,0-5-2.2-5-5v-63.8c0-2.8,2.2-5,5-5h139.8c2.8,0,5,2.2,5,5v63.8
			C535.8,1107,533.5,1109.2,530.8,1109.2z"/>
		<path id="XMLID_51_" class="st29" d="M148.5,1187.5H8.8c-2.8,0-5-2.2-5-5v-63.8c0-2.8,2.2-5,5-5h139.8c2.8,0,5,2.2,5,5v63.8
			C153.5,1185.3,151.3,1187.5,148.5,1187.5z"/>
		<path id="XMLID_49_" class="st29" d="M302.2,1187.5H162.5c-2.8,0-5-2.2-5-5v-63.8c0-2.8,2.2-5,5-5h139.8c2.8,0,5,2.2,5,5v63.8
			C307.2,1185.3,305,1187.5,302.2,1187.5z"/>
		<path id="XMLID_48_" class="st29" d="M455.9,1187.5H316.1c-2.8,0-5-2.2-5-5v-63.8c0-2.8,2.2-5,5-5h139.8c2.8,0,5,2.2,5,5v63.8
			C460.9,1185.3,458.6,1187.5,455.9,1187.5z"/>
		<path id="XMLID_47_" class="st29" d="M684.4,1109.2H544.7c-2.8,0-5-2.2-5-5v-63.8c0-2.8,2.2-5,5-5h139.8c2.8,0,5,2.2,5,5v63.8
			C689.4,1107,687.2,1109.2,684.4,1109.2z"/>
		<path id="XMLID_46_" class="st29" d="M838.1,1109.2H698.3c-2.8,0-5-2.2-5-5v-63.8c0-2.8,2.2-5,5-5h139.8c2.8,0,5,2.2,5,5v63.8
			C843.1,1107,840.8,1109.2,838.1,1109.2z"/>
		<path id="XMLID_45_" class="st29" d="M991.8,1109.2H852c-2.8,0-5-2.2-5-5v-63.8c0-2.8,2.2-5,5-5h139.8c2.8,0,5,2.2,5,5v63.8
			C996.8,1107,994.5,1109.2,991.8,1109.2z"/>
		<path id="XMLID_44_" class="st29" d="M1145.4,1109.2h-139.8c-2.8,0-5-2.2-5-5v-63.8c0-2.8,2.2-5,5-5h139.8c2.8,0,5,2.2,5,5v63.8
			C1150.4,1107,1148.2,1109.2,1145.4,1109.2z"/>
		<path id="XMLID_42_" class="st29" d="M609.5,1187.5H469.8c-2.8,0-5-2.2-5-5v-63.8c0-2.8,2.2-5,5-5h139.8c2.8,0,5,2.2,5,5v63.8
			C614.5,1185.3,612.3,1187.5,609.5,1187.5z"/>
		<path id="XMLID_41_" class="st29" d="M763.2,1187.5H623.5c-2.8,0-5-2.2-5-5v-63.8c0-2.8,2.2-5,5-5h139.8c2.8,0,5,2.2,5,5v63.8
			C768.2,1185.3,766,1187.5,763.2,1187.5z"/>
		<path id="XMLID_40_" class="st29" d="M916.9,1187.5H777.1c-2.8,0-5-2.2-5-5v-63.8c0-2.8,2.2-5,5-5h139.8c2.8,0,5,2.2,5,5v63.8
			C921.9,1185.3,919.6,1187.5,916.9,1187.5z"/>
		<path id="XMLID_39_" class="st29" d="M1070.5,1187.5H930.8c-2.8,0-5-2.2-5-5v-63.8c0-2.8,2.2-5,5-5h139.8c2.8,0,5,2.2,5,5v63.8
			C1075.5,1185.3,1073.3,1187.5,1070.5,1187.5z"/>
		<path id="XMLID_38_" class="st29" d="M1224.2,1187.5h-139.8c-2.8,0-5-2.2-5-5v-63.8c0-2.8,2.2-5,5-5h139.8c2.8,0,5,2.2,5,5v63.8
			C1229.2,1185.3,1227,1187.5,1224.2,1187.5z"/>
		<path id="XMLID_73_" class="st29" d="M70.1,1265.9H-69.6c-2.8,0-5-2.2-5-5v-63.8c0-2.8,2.2-5,5-5H70.1c2.8,0,5,2.2,5,5v63.8
			C75.1,1263.7,72.9,1265.9,70.1,1265.9z"/>
		<path id="XMLID_72_" class="st29" d="M223.8,1265.9H84.1c-2.8,0-5-2.2-5-5v-63.8c0-2.8,2.2-5,5-5h139.8c2.8,0,5,2.2,5,5v63.8
			C228.8,1263.7,226.6,1265.9,223.8,1265.9z"/>
		<path id="XMLID_71_" class="st29" d="M377.5,1265.9H237.7c-2.8,0-5-2.2-5-5v-63.8c0-2.8,2.2-5,5-5h139.8c2.8,0,5,2.2,5,5v63.8
			C382.5,1263.7,380.2,1265.9,377.5,1265.9z"/>
		<path id="XMLID_70_" class="st29" d="M531.1,1265.9H391.4c-2.8,0-5-2.2-5-5v-63.8c0-2.8,2.2-5,5-5h139.8c2.8,0,5,2.2,5,5v63.8
			C536.1,1263.7,533.9,1265.9,531.1,1265.9z"/>
		<path id="XMLID_69_" class="st29" d="M148.9,1344.2H9.2c-2.8,0-5-2.2-5-5v-63.8c0-2.8,2.2-5,5-5h139.8c2.8,0,5,2.2,5,5v63.8
			C153.9,1342,151.7,1344.2,148.9,1344.2z"/>
		<path id="XMLID_67_" class="st29" d="M302.6,1344.2H162.8c-2.8,0-5-2.2-5-5v-63.8c0-2.8,2.2-5,5-5h139.8c2.8,0,5,2.2,5,5v63.8
			C307.6,1342,305.4,1344.2,302.6,1344.2z"/>
		<path id="XMLID_66_" class="st29" d="M456.3,1344.2H316.5c-2.8,0-5-2.2-5-5v-63.8c0-2.8,2.2-5,5-5h139.8c2.8,0,5,2.2,5,5v63.8
			C461.3,1342,459,1344.2,456.3,1344.2z"/>
		<path id="XMLID_65_" class="st29" d="M684.8,1265.9H545.1c-2.8,0-5-2.2-5-5v-63.8c0-2.8,2.2-5,5-5h139.8c2.8,0,5,2.2,5,5v63.8
			C689.8,1263.7,687.6,1265.9,684.8,1265.9z"/>
		<path id="XMLID_64_" class="st29" d="M838.5,1265.9H698.7c-2.8,0-5-2.2-5-5v-63.8c0-2.8,2.2-5,5-5h139.8c2.8,0,5,2.2,5,5v63.8
			C843.5,1263.7,841.2,1265.9,838.5,1265.9z"/>
		<path id="XMLID_63_" class="st29" d="M992.1,1265.9H852.4c-2.8,0-5-2.2-5-5v-63.8c0-2.8,2.2-5,5-5h139.8c2.8,0,5,2.2,5,5v63.8
			C997.1,1263.7,994.9,1265.9,992.1,1265.9z"/>
		<path id="XMLID_62_" class="st29" d="M1145.8,1265.9h-139.8c-2.8,0-5-2.2-5-5v-63.8c0-2.8,2.2-5,5-5h139.8c2.8,0,5,2.2,5,5v63.8
			C1150.8,1263.7,1148.6,1265.9,1145.8,1265.9z"/>
		<path id="XMLID_60_" class="st29" d="M609.9,1344.2H470.2c-2.8,0-5-2.2-5-5v-63.8c0-2.8,2.2-5,5-5h139.8c2.8,0,5,2.2,5,5v63.8
			C614.9,1342,612.7,1344.2,609.9,1344.2z"/>
		<path id="XMLID_59_" class="st29" d="M763.6,1344.2H623.8c-2.8,0-5-2.2-5-5v-63.8c0-2.8,2.2-5,5-5h139.8c2.8,0,5,2.2,5,5v63.8
			C768.6,1342,766.4,1344.2,763.6,1344.2z"/>
		<path id="XMLID_58_" class="st29" d="M917.3,1344.2H777.5c-2.8,0-5-2.2-5-5v-63.8c0-2.8,2.2-5,5-5h139.8c2.8,0,5,2.2,5,5v63.8
			C922.3,1342,920,1344.2,917.3,1344.2z"/>
		<path id="XMLID_57_" class="st29" d="M1070.9,1344.2H931.2c-2.8,0-5-2.2-5-5v-63.8c0-2.8,2.2-5,5-5h139.8c2.8,0,5,2.2,5,5v63.8
			C1075.9,1342,1073.7,1344.2,1070.9,1344.2z"/>
		<path id="XMLID_56_" class="st29" d="M1224.6,1344.2h-139.8c-2.8,0-5-2.2-5-5v-63.8c0-2.8,2.2-5,5-5h139.8c2.8,0,5,2.2,5,5v63.8
			C1229.6,1342,1227.4,1344.2,1224.6,1344.2z"/>
		<g id="XMLID_75_">
			<defs>
				<path id="XMLID_74_" d="M1223.8,1346.5H-69.6c-2.8,0-5-2.2-5-5V729.3c0-2.8,2.2-5,5-5h1293.4c2.8,0,5,2.2,5,5v612.2
					C1228.8,1344.3,1226.6,1346.5,1223.8,1346.5z"/>
			</defs>
			<clipPath id="XMLID_161_">
				<use xlink:href="#XMLID_74_"  style="overflow:visible;"/>
			</clipPath>
			<path id="XMLID_7_" class="st30" d="M-4.7,874.2h-139.8c-2.8,0-5-2.2-5-5v-63.8c0-2.8,2.2-5,5-5H-4.7c2.8,0,5,2.2,5,5v63.8
				C0.3,871.9-2,874.2-4.7,874.2z"/>
			<path id="XMLID_14_" class="st30" d="M1299.5,795.8h-139.8c-2.8,0-5-2.2-5-5V727c0-2.8,2.2-5,5-5h139.8c2.8,0,5,2.2,5,5v63.8
				C1304.5,793.6,1302.2,795.8,1299.5,795.8z"/>
			<path id="XMLID_32_" class="st30" d="M-5.1,1030.9h-139.8c-2.8,0-5-2.2-5-5V962c0-2.8,2.2-5,5-5H-5.1c2.8,0,5,2.2,5,5v63.8
				C-0.1,1028.6-2.4,1030.9-5.1,1030.9z"/>
			<path id="XMLID_25_" class="st30" d="M1299.1,952.5h-139.8c-2.8,0-5-2.2-5-5v-63.8c0-2.8,2.2-5,5-5h139.8c2.8,0,5,2.2,5,5v63.8
				C1304.1,950.3,1301.8,952.5,1299.1,952.5z"/>
			<path id="XMLID_50_" class="st30" d="M-5.1,1187.5h-139.8c-2.8,0-5-2.2-5-5v-63.8c0-2.8,2.2-5,5-5H-5.1c2.8,0,5,2.2,5,5v63.8
				C-0.1,1185.3-2.4,1187.5-5.1,1187.5z"/>
			<path id="XMLID_43_" class="st30" d="M1299.1,1109.2h-139.8c-2.8,0-5-2.2-5-5v-63.8c0-2.8,2.2-5,5-5h139.8c2.8,0,5,2.2,5,5v63.8
				C1304.1,1107,1301.8,1109.2,1299.1,1109.2z"/>
			<path id="XMLID_68_" class="st30" d="M-4.7,1344.2h-139.8c-2.8,0-5-2.2-5-5v-63.8c0-2.8,2.2-5,5-5H-4.7c2.8,0,5,2.2,5,5v63.8
				C0.3,1342-2,1344.2-4.7,1344.2z"/>
			<path id="XMLID_61_" class="st30" d="M1299.5,1265.9h-139.8c-2.8,0-5-2.2-5-5v-63.8c0-2.8,2.2-5,5-5h139.8c2.8,0,5,2.2,5,5v63.8
				C1304.5,1263.7,1302.2,1265.9,1299.5,1265.9z"/>
		</g>
	</g>
	<polygon id="XMLID_142_" class="st31" points="531.3,661.2 475,681.7 464.7,653.5 	"/>
	<polygon id="XMLID_141_" class="st31" points="486.9,618.1 525.5,664.1 470.5,644.7 	"/>
	<rect id="XMLID_144_" x="622.7" y="620.1" class="st32" width="105" height="63.6"/>
</g>
</svg>
