<?xml version="1.0" encoding="utf-8"?>
<!-- Generator: Adobe Illustrator 19.0.0, SVG Export Plug-In . SVG Version: 6.00 Build 0)  -->
<svg version="1.1" id="Layer_1" xmlns="http://www.w3.org/2000/svg" xmlns:xlink="http://www.w3.org/1999/xlink" x="0px" y="0px"
	 viewBox="-249 251 300 300" style="enable-background:new -249 251 300 300;" xml:space="preserve">
<style type="text/css">
	.st0{fill:#FFFFFF;stroke:#FFFFFF;stroke-width:9.8592;}
	.st1{fill:#FFBE41;}
	.st2{opacity:0.8;fill:#F0282A;enable-background:new    ;}
	.st3{fill:#AB7CFF;}
	.st4{opacity:0.8;fill:#00B4FF;enable-background:new    ;}
</style>
<path id="XMLID_14_" class="st0" d="M-114.3,449.8l-41-48.8l40.9-48.8c7.6-9.1,6.5-22.7-2.7-30.3c-9.1-7.6-22.7-6.5-30.3,2.7
	l-52.2,62.2c-1.8,2.1-3.2,4.4-4.1,6.9c0,0.1,0,0.1-0.1,0.2c0,0.1-0.1,0.2-0.1,0.3s-0.1,0.2-0.1,0.3c0,0.1,0,0.1-0.1,0.2
	c0,0.1-0.1,0.3-0.1,0.4c0,0,0,0,0,0.1c-0.4,1.3-0.6,2.7-0.7,4l0,0c0,0.2,0,0.3,0,0.5v0.1c0,0.1,0,0.3,0,0.4v0.1c0,0.1,0,0.2,0,0.3
	c0,0.1,0,0.1,0,0.2c0,0.1,0,0.2,0,0.3c0,0.1,0,0.2,0,0.3s0,0.1,0,0.2c0,0.1,0,0.2,0,0.3v0.1c0,0.1,0,0.3,0,0.4v0.1
	c0,0.2,0,0.3,0,0.5l0,0c0.1,1.4,0.4,2.7,0.7,4c0,0,0,0,0,0.1s0.1,0.3,0.1,0.4c0,0.1,0,0.1,0.1,0.2c0,0.1,0.1,0.2,0.1,0.3
	s0.1,0.2,0.1,0.3c0,0.1,0,0.1,0.1,0.2c0.9,2.5,2.3,4.8,4.1,6.9l52.2,62.2c7.6,9.1,21.2,10.3,30.3,2.7
	C-107.9,472.5-106.7,458.9-114.3,449.8z"/>
<path class="st1" d="M-117,321.9c-9.1-7.6-22.7-6.5-30.3,2.7l-52.6,62.6c-7.6,9.1-6.5,22.7,2.7,30.3c9.1,7.6,22.7,6.5,30.3-2.7
	l52.6-62.6C-106.7,343.1-107.9,329.5-117,321.9z M-189.3,408c-3.9-3.2-4.4-9-1.1-12.9c3.2-3.9,9-4.4,12.9-1.1
	c3.9,3.2,4.4,9,1.1,12.9C-179.6,410.7-185.4,411.3-189.3,408z M-136.7,345.4c-3.9-3.2-4.4-9-1.1-12.9c3.2-3.9,9-4.4,12.9-1.1
	c3.9,3.2,4.4,9,1.1,12.9C-127.1,348.2-132.8,348.6-136.7,345.4z"/>
<path class="st2" d="M-117,480.1c9.1-7.6,10.3-21.2,2.7-30.3l-52.6-62.6c-7.6-9.1-21.2-10.3-30.3-2.7c-9.1,7.6-10.3,21.2-2.7,30.3
	l52.6,62.6C-139.7,486.6-126.1,487.8-117,480.1z M-189.3,394c3.9-3.2,9.6-2.7,12.9,1.1c3.3,3.8,2.7,9.6-1.1,12.9
	c-3.9,3.2-9.6,2.7-12.9-1.1C-193.6,403-193.1,397.2-189.3,394z M-136.7,456.6c3.9-3.2,9.6-2.7,12.9,1.1c3.3,3.8,2.7,9.6-1.1,12.9
	c-3.9,3.2-9.6,2.7-12.9-1.1C-141.1,465.6-140.6,459.9-136.7,456.6z"/>
<path id="XMLID_1_" class="st0" d="M-83.7,352.2l40.9,48.8l-40.9,48.8c-7.6,9.1-6.5,22.7,2.7,30.3c9.1,7.6,22.7,6.5,30.3-2.7
	l52.2-62.2c1.8-2.1,3.2-4.4,4.1-6.9c0-0.1,0-0.1,0.1-0.2c0-0.1,0.1-0.2,0.1-0.3s0.1-0.2,0.1-0.3c0-0.1,0-0.1,0.1-0.2
	c0-0.1,0.1-0.3,0.1-0.4c0,0,0,0,0-0.1c0.4-1.3,0.6-2.7,0.7-4l0,0c0-0.2,0-0.3,0-0.5v-0.1c0-0.1,0-0.3,0-0.4v-0.1c0-0.1,0-0.2,0-0.3
	c0-0.1,0-0.1,0-0.2c0-0.1,0-0.2,0-0.3c0-0.1,0-0.2,0-0.3s0-0.1,0-0.2c0-0.1,0-0.2,0-0.3V400c0-0.1,0-0.3,0-0.4v-0.1
	c0-0.2,0-0.3,0-0.5l0,0c-0.1-1.4-0.4-2.7-0.7-4c0,0,0,0,0-0.1S6,394.6,6,394.5c0-0.1,0-0.1-0.1-0.2c0-0.1-0.1-0.2-0.1-0.3
	s-0.1-0.2-0.1-0.3c0-0.1,0-0.1-0.1-0.2c-0.9-2.5-2.3-4.8-4.1-6.9l-52.2-62.2c-7.6-9.1-21.2-10.3-30.3-2.7
	C-90.1,329.5-91.3,343.1-83.7,352.2z"/>
<path class="st3" d="M-81,480.1c9.1,7.6,22.7,6.5,30.3-2.7l52.6-62.6c7.6-9.1,6.5-22.7-2.7-30.3c-9.1-7.6-22.7-6.5-30.3,2.7
	l-52.6,62.6C-91.3,458.9-90.1,472.5-81,480.1z M-8.7,394c3.9,3.2,4.4,9,1.1,12.9s-9,4.4-12.9,1.1c-3.9-3.2-4.4-9-1.1-12.9
	C-18.4,391.3-12.6,390.7-8.7,394z M-61.3,456.6c3.9,3.2,4.4,9,1.1,12.9s-9,4.4-12.9,1.1c-3.9-3.2-4.4-9-1.1-12.9
	C-70.9,453.9-65.2,453.4-61.3,456.6z"/>
<path class="st4" d="M-81,321.9c-9.1,7.6-10.3,21.2-2.7,30.3l52.6,62.6c7.6,9.1,21.2,10.3,30.3,2.7c9.1-7.6,10.3-21.2,2.7-30.3
	l-52.6-62.6C-58.3,315.4-71.9,314.2-81,321.9z M-8.7,408c-3.9,3.2-9.6,2.7-12.9-1.1c-3.2-3.9-2.7-9.6,1.1-12.9
	c3.9-3.2,9.6-2.7,12.9,1.1S-4.9,404.8-8.7,408z M-61.3,345.4c-3.9,3.2-9.6,2.7-12.9-1.1c-3.2-3.9-2.7-9.6,1.1-12.9
	c3.9-3.2,9.6-2.7,12.9,1.1S-57.4,342.1-61.3,345.4z"/>
</svg>
