<?xml version="1.0" encoding="utf-8"?>
<!-- Generator: Adobe Illustrator 19.0.0, SVG Export Plug-In . SVG Version: 6.00 Build 0)  -->
<svg version="1.1" id="Layer_1" xmlns="http://www.w3.org/2000/svg" xmlns:xlink="http://www.w3.org/1999/xlink" x="0px" y="0px"
	 viewBox="200 51 800 300" style="enable-background:new 200 51 800 300;" xml:space="preserve">
<style type="text/css">
	.st0{fill:#FFFFFF;}
	.st1{fill:#FFFFFF;stroke:#FFFFFF;stroke-width:9.8592;}
	.st2{fill:#FFBE41;enable-background:new    ;}
	.st3{opacity:0.8;fill:#F0282A;enable-background:new    ;}
	.st4{fill:#AB7CFF;enable-background:new    ;}
	.st5{opacity:0.8;fill:#00B4FF;enable-background:new    ;}
</style>
<g>
	<path class="st0" d="M514.2,169.8c8.3,0,15,2.6,20,7.7c5.1,5.1,7.6,11.7,7.6,19.8v8.7c0,8.1-2.5,14.7-7.6,19.8s-11.7,7.6-20,7.6
		h-26.7V228l7.1-1.2v-50.1l-7.1-1.2v-5.6h7.1h19.6V169.8z M503.3,176.6v50.1h10.9c5.9,0,10.5-1.9,13.9-5.8c3.4-3.9,5.1-8.8,5.1-14.9
		v-8.8c0-6-1.7-10.9-5.1-14.8c-3.4-3.9-8-5.8-13.9-5.8C514.2,176.6,503.3,176.6,503.3,176.6z"/>
	<path class="st0" d="M572,234.4c-6.6,0-11.8-2.2-15.7-6.6c-3.9-4.4-5.8-10.1-5.8-17.1v-1.9c0-6.7,2-12.3,6-16.8s8.8-6.7,14.2-6.7
		c6.4,0,11.2,1.9,14.4,5.8c3.3,3.8,4.9,9,4.9,15.4v5.4h-30.7l-0.1,0.2c0.1,4.5,1.2,8.3,3.5,11.2c2.2,2.9,5.3,4.4,9.3,4.4
		c2.9,0,5.5-0.4,7.7-1.2c2.2-0.8,4.1-2,5.7-3.4l3.4,5.6c-1.7,1.6-3.9,3-6.7,4.1C579.2,233.8,575.9,234.4,572,234.4z M570.7,192.1
		c-2.9,0-5.3,1.2-7.4,3.7c-2,2.4-3.3,5.5-3.8,9.2l0.1,0.2h21.8V204c0-3.4-0.9-6.2-2.7-8.5S574.2,192.1,570.7,192.1z"/>
	<path class="st0" d="M614.2,191.7l-5.7,0.9l9.7,26.9l0.8,3.4h0.3l0.8-3.4l9.4-26.9l-5.7-0.9v-5.6h18.3v5.6l-3.9,0.7l-15.9,41.1
		h-6.5l-16-41.1l-3.9-0.7v-5.6h18.3L614.2,191.7L614.2,191.7z"/>
	<path class="st0" d="M668.9,234.4c-6.6,0-11.8-2.2-15.7-6.6c-3.9-4.4-5.8-10.1-5.8-17.1v-1.9c0-6.7,2-12.3,6-16.8s8.8-6.7,14.2-6.7
		c6.4,0,11.2,1.9,14.4,5.8c3.3,3.8,4.9,9,4.9,15.4v5.4h-30.7l-0.1,0.2c0.1,4.5,1.2,8.3,3.5,11.2c2.2,2.9,5.3,4.4,9.3,4.4
		c2.9,0,5.5-0.4,7.7-1.2s4.1-2,5.7-3.4l3.4,5.6c-1.7,1.6-3.9,3-6.7,4.1C676.2,233.8,672.8,234.4,668.9,234.4z M667.6,192.1
		c-2.9,0-5.3,1.2-7.4,3.7c-2,2.4-3.3,5.5-3.8,9.2l0.1,0.2h21.8V204c0-3.4-0.9-6.2-2.7-8.5C673.9,193.2,671.2,192.1,667.6,192.1z"/>
	<path class="st0" d="M694.3,170.8v-5.6H710v61.5l7.1,1.2v5.5h-22.9V228l7.1-1.2v-54.7L694.3,170.8z"/>
	<path class="st0" d="M722.8,209.4c0-7,1.9-12.8,5.7-17.3s8.9-6.8,15.4-6.8s11.7,2.3,15.5,6.8s5.7,10.3,5.7,17.3v1
		c0,7.1-1.9,12.8-5.7,17.3s-8.9,6.7-15.4,6.7c-6.6,0-11.7-2.3-15.5-6.8s-5.7-10.3-5.7-17.3V209.4z M731.5,210.4
		c0,5,1.1,9.2,3.2,12.4c2.1,3.3,5.3,4.9,9.4,4.9c4.1,0,7.2-1.6,9.3-4.9c2.1-3.3,3.2-7.4,3.2-12.4v-1c0-5-1.1-9.1-3.2-12.4
		c-2.1-3.3-5.3-4.9-9.4-4.9c-4.1,0-7.3,1.6-9.4,4.9c-2.1,3.3-3.1,7.4-3.1,12.4V210.4z"/>
	<path class="st0" d="M772,246.1l7.1-1.2V193l-7.1-1.2v-5.6h14.5l0.8,5.8c1.6-2.2,3.5-3.8,5.7-4.9c2.3-1.1,4.9-1.7,7.8-1.7
		c5.9,0,10.4,2.3,13.7,7c3.2,4.6,4.9,10.8,4.9,18.4v0.9c0,6.8-1.6,12.3-4.9,16.5c-3.3,4.2-7.8,6.3-13.5,6.3c-2.9,0-5.5-0.5-7.7-1.5
		s-4.1-2.4-5.6-4.3V245l7.1,1.2v5.6H772V246.1z M810.8,210.7c0-5.4-1-9.8-3.1-13.2s-5.2-5.2-9.4-5.2c-2.4,0-4.5,0.6-6.3,1.7
		c-1.7,1.1-3.2,2.6-4.2,4.5v23c1.1,2,2.5,3.5,4.2,4.5c1.7,1.1,3.9,1.6,6.4,1.6c4.1,0,7.2-1.5,9.3-4.5s3.1-6.8,3.1-11.6V210.7z"/>
	<path class="st0" d="M848.8,234.4c-6.6,0-11.8-2.2-15.7-6.6c-3.9-4.4-5.8-10.1-5.8-17.1v-1.9c0-6.7,2-12.3,6-16.8s8.8-6.7,14.2-6.7
		c6.4,0,11.2,1.9,14.4,5.8c3.3,3.8,4.9,9,4.9,15.4v5.4h-30.7l-0.1,0.2c0.1,4.5,1.2,8.3,3.5,11.2c2.2,2.9,5.3,4.4,9.3,4.4
		c2.9,0,5.5-0.4,7.7-1.2s4.1-2,5.7-3.4l3.4,5.6c-1.7,1.6-3.9,3-6.7,4.1C856.1,233.8,852.7,234.4,848.8,234.4z M847.5,192.1
		c-2.9,0-5.3,1.2-7.4,3.7c-2,2.4-3.3,5.5-3.8,9.2l0.1,0.2h21.8V204c0-3.4-0.9-6.2-2.7-8.5C853.8,193.2,851.1,192.1,847.5,192.1z"/>
	<path class="st0" d="M875.4,191.7v-5.6h14.8l0.8,6.9c1.3-2.4,3-4.3,5-5.7s4.2-2.1,6.8-2.1c0.7,0,1.4,0.1,2.1,0.2
		c0.7,0.1,1.3,0.2,1.6,0.3l-1.1,8l-4.9-0.3c-2.3,0-4.2,0.5-5.7,1.6s-2.7,2.6-3.6,4.5v27.1l7.1,1.2v5.5h-22.9V228l7.1-1.2V193
		L875.4,191.7z"/>
	<path class="st0" d="M948.6,201h-6.5l-1.4-5.7c-1-1-2.4-1.8-4-2.4c-1.6-0.6-3.4-0.9-5.4-0.9c-3.1,0-5.3,0.7-6.8,2s-2.2,3-2.2,4.9
		s0.7,3.3,2,4.4c1.3,1.1,4,2,8,2.9c6,1.3,10.4,3,13.3,5.2c2.9,2.2,4.4,5.2,4.4,8.9c0,4.2-1.7,7.6-5.1,10.2
		c-3.4,2.6-7.8,3.9-13.3,3.9c-3.6,0-6.8-0.4-9.7-1.2s-5.4-2-7.7-3.6v-10.8h6.5l1.6,6.3c1,0.9,2.3,1.6,4,2s3.4,0.6,5.2,0.6
		c3.1,0,5.5-0.6,7.2-1.9c1.7-1.2,2.6-2.9,2.6-4.9c0-1.9-0.7-3.5-2.2-4.7c-1.4-1.2-4.2-2.3-8.2-3.2c-5.7-1.3-10.1-3-13-5.1
		c-2.9-2.2-4.4-5.1-4.4-8.7c0-3.8,1.6-7.1,4.9-9.8c3.3-2.7,7.5-4.1,12.8-4.1c3.6,0,6.8,0.5,9.7,1.4s5.2,2.2,7.1,3.9L948.6,201z"/>
</g>
<path id="XMLID_14_" class="st1" d="M340.6,249.8l-41-48.8l40.9-48.8c7.6-9.1,6.5-22.7-2.7-30.3c-9.1-7.6-22.7-6.5-30.3,2.7
	l-52.2,62.2c-1.8,2.1-3.2,4.4-4.1,6.9c0,0.1,0,0.1-0.1,0.2c0,0.1-0.1,0.2-0.1,0.3s-0.1,0.2-0.1,0.3s0,0.1-0.1,0.2
	c0,0.1-0.1,0.3-0.1,0.4c0,0,0,0,0,0.1c-0.4,1.3-0.6,2.7-0.7,4l0,0c0,0.2,0,0.3,0,0.5v0.1c0,0.1,0,0.3,0,0.4v0.1c0,0.1,0,0.2,0,0.3
	s0,0.1,0,0.2c0,0.1,0,0.2,0,0.3s0,0.2,0,0.3s0,0.1,0,0.2c0,0.1,0,0.2,0,0.3v0.1c0,0.1,0,0.3,0,0.4v0.1c0,0.2,0,0.3,0,0.5l0,0
	c0.1,1.4,0.4,2.7,0.7,4c0,0,0,0,0,0.1s0.1,0.3,0.1,0.4c0,0.1,0,0.1,0.1,0.2c0,0.1,0.1,0.2,0.1,0.3s0.1,0.2,0.1,0.3s0,0.1,0.1,0.2
	c0.9,2.5,2.3,4.8,4.1,6.9l52.2,62.2c7.6,9.1,21.2,10.3,30.3,2.7C347,272.5,348.2,258.9,340.6,249.8z"/>
<path class="st2" d="M337.9,121.9c-9.1-7.6-22.7-6.5-30.3,2.7L255,187.2c-7.6,9.1-6.5,22.7,2.7,30.3c9.1,7.6,22.7,6.5,30.3-2.7
	l52.6-62.6C348.2,143.1,347,129.5,337.9,121.9z M265.6,208c-3.9-3.2-4.4-9-1.1-12.9c3.2-3.9,9-4.4,12.9-1.1c3.9,3.2,4.4,9,1.1,12.9
	C275.3,210.7,269.5,211.3,265.6,208z M318.2,145.4c-3.9-3.2-4.4-9-1.1-12.9c3.2-3.9,9-4.4,12.9-1.1c3.9,3.2,4.4,9,1.1,12.9
	C327.8,148.1,322.1,148.6,318.2,145.4z"/>
<path class="st3" d="M337.9,280.1c9.1-7.6,10.3-21.2,2.7-30.3L288,187.2c-7.6-9.1-21.2-10.3-30.3-2.7c-9.1,7.6-10.3,21.2-2.7,30.3
	l52.6,62.6C315.2,286.6,328.8,287.8,337.9,280.1z M265.6,194c3.9-3.2,9.6-2.7,12.9,1.1c3.2,3.9,2.7,9.6-1.1,12.9
	c-3.9,3.2-9.6,2.7-12.9-1.1C261.3,203,261.8,197.2,265.6,194z M318.2,256.6c3.9-3.2,9.6-2.7,12.9,1.1c3.2,3.9,2.7,9.6-1.1,12.9
	c-3.9,3.2-9.6,2.7-12.9-1.1C313.8,265.6,314.3,259.9,318.2,256.6z"/>
<path id="XMLID_7_" class="st1" d="M371.2,152.2l40.9,48.8l-40.9,48.8c-7.6,9.1-6.5,22.7,2.7,30.3c9.1,7.6,22.7,6.5,30.3-2.7
	l52.2-62.2c1.8-2.1,3.2-4.4,4.1-6.9c0-0.1,0-0.1,0.1-0.2c0-0.1,0.1-0.2,0.1-0.3s0.1-0.2,0.1-0.3s0-0.1,0.1-0.2
	c0-0.1,0.1-0.3,0.1-0.4c0,0,0,0,0-0.1c0.4-1.3,0.6-2.7,0.7-4l0,0c0-0.2,0-0.3,0-0.5v-0.1c0-0.1,0-0.3,0-0.4v-0.1c0-0.1,0-0.2,0-0.3
	s0-0.1,0-0.2c0-0.1,0-0.2,0-0.3s0-0.2,0-0.3s0-0.1,0-0.2c0-0.1,0-0.2,0-0.3V200c0-0.1,0-0.3,0-0.4v-0.1c0-0.2,0-0.3,0-0.5l0,0
	c-0.1-1.4-0.4-2.7-0.7-4c0,0,0,0,0-0.1s-0.1-0.3-0.1-0.4c0-0.1,0-0.1-0.1-0.2c0-0.1-0.1-0.2-0.1-0.3s-0.1-0.2-0.1-0.3s0-0.1-0.1-0.2
	c-0.9-2.5-2.3-4.8-4.1-6.9l-52.2-62.2c-7.6-9.1-21.2-10.3-30.3-2.7C364.8,129.5,363.6,143.1,371.2,152.2z"/>
<path class="st4" d="M373.9,280.1c9.1,7.6,22.7,6.5,30.3-2.7l52.6-62.6c7.6-9.1,6.5-22.7-2.7-30.3c-9.1-7.6-22.7-6.5-30.3,2.7
	l-52.6,62.6C363.6,258.9,364.8,272.5,373.9,280.1z M446.2,194c3.9,3.2,4.4,9,1.1,12.9s-9,4.4-12.9,1.1c-3.9-3.2-4.4-9-1.1-12.9
	C436.5,191.3,442.3,190.7,446.2,194z M393.6,256.6c3.9,3.2,4.4,9,1.1,12.9c-3.2,3.9-9,4.4-12.9,1.1c-3.9-3.2-4.4-9-1.1-12.9
	C384,253.9,389.7,253.4,393.6,256.6z"/>
<path class="st5" d="M373.9,121.9c-9.1,7.6-10.3,21.2-2.7,30.3l52.6,62.6c7.6,9.1,21.2,10.3,30.3,2.7c9.1-7.6,10.3-21.2,2.7-30.3
	l-52.6-62.6C396.6,115.4,383,114.2,373.9,121.9z M446.2,208c-3.9,3.2-9.6,2.7-12.9-1.1s-2.7-9.6,1.1-12.9c3.9-3.2,9.6-2.7,12.9,1.1
	S450,204.8,446.2,208z M393.6,145.4c-3.9,3.2-9.6,2.7-12.9-1.1c-3.2-3.9-2.7-9.6,1.1-12.9c3.9-3.2,9.6-2.7,12.9,1.1
	C398,136.4,397.5,142.1,393.6,145.4z"/>
</svg>
