<?xml version="1.0" encoding="utf-8"?>
<!-- Generator: Adobe Illustrator 19.0.0, SVG Export Plug-In . SVG Version: 6.00 Build 0)  -->
<svg version="1.1" id="Layer_1" xmlns="http://www.w3.org/2000/svg" xmlns:xlink="http://www.w3.org/1999/xlink" x="0px" y="0px"
	 viewBox="0 0 800 500" style="enable-background:new 0 0 800 500;" xml:space="preserve">
<style type="text/css">
	.st0{display:none;}
	.st1{display:inline;}
	.st2{clip-path:url(#XMLID_32_);}
	.st3{clip-path:url(#XMLID_33_);fill:#FDD2CC;}
	.st4{clip-path:url(#XMLID_33_);fill:none;}
	.st5{fill:#FFFFFF;stroke:#ECB2B2;stroke-miterlimit:10;}
	.st6{fill:#ECB2B2;}
	.st7{fill:none;stroke:#ECB2B2;stroke-width:2;stroke-miterlimit:10;}
	.st8{fill:#FFFFFF;}
	.st9{fill:#E9F0F5;}
</style>
<g id="XMLID_47_" class="st0">
	<g id="XMLID_48_" class="st1">
		<defs>
			<rect id="XMLID_49_" x="0" y="-150" width="800" height="800"/>
		</defs>
		<clipPath id="XMLID_32_">
			<use xlink:href="#XMLID_49_"  style="overflow:visible;"/>
		</clipPath>
		<g id="XMLID_50_" class="st2">
			<defs>
				<rect id="XMLID_51_" x="0" y="-150" width="800" height="800"/>
			</defs>
			<clipPath id="XMLID_33_">
				<use xlink:href="#XMLID_51_"  style="overflow:visible;"/>
			</clipPath>
			<path id="XMLID_53_" class="st3" d="M691.8,280.6c81.3-81.3,81.3-213.1,0-294.4C610.5-95,478.7-95,397.4-13.8l-0.3-0.3
				C315.8-95.3,184-95.3,102.7-14c-81.3,81.3-81.3,213.1,0,294.4l73.6,73.6l73.6,73.6L397.4,575l138.3-138.3c3-3,5.9-5.9,8.9-8.9
				L691.8,280.6z"/>
			<path id="XMLID_52_" class="st4" d="M691.8,280.6c81.3-81.3,81.3-213.1,0-294.4C610.5-95,478.7-95,397.4-13.8l-0.3-0.3
				C315.8-95.3,184-95.3,102.7-14c-81.3,81.3-81.3,213.1,0,294.4l73.6,73.6l73.6,73.6L397.4,575l138.3-138.3c3-3,5.9-5.9,8.9-8.9
				L691.8,280.6z"/>
		</g>
	</g>
</g>
<g id="XMLID_2_">
	<path id="XMLID_46_" class="st5" d="M416.2,168.9c0-27.6-22.4-50-50-50s-50,22.4-50,50c0,25.8,19.5,68.8,44.6,74.4
		c-0.5,0.5-0.8,1.6-0.8,2.3c0,1.4,1.1,2.9,2.5,2.9h7.5c1.4,0,2.5-1.6,2.5-2.9c0-0.7-0.3-1.6-0.8-2.1
		C396.7,237.9,416.2,194.7,416.2,168.9z"/>
	<g id="XMLID_43_">
		<g id="XMLID_44_">
			<path id="XMLID_45_" class="st6" d="M376.4,180.1c2.9-2.9,2.9-7.7,0-10.7c-2.9-2.9-7.7-2.9-10.7,0l0,0c-2.9-2.9-7.7-2.9-10.7,0
				s-2.9,7.7,0,10.7l2.7,2.7l2.7,2.7l5.3,5.3l5-5c0.1-0.1,0.2-0.2,0.3-0.3L376.4,180.1z"/>
		</g>
	</g>
	<line id="XMLID_42_" class="st7" x1="366" y1="248" x2="366" y2="424"/>
</g>
<path id="XMLID_3_" class="st8" d="M267.7,57.1c-9.6-20.2-30.3-34.2-54.1-34.2c-22,0-41.3,11.9-51.7,29.6
	c-8.6-6.6-19.3-10.6-31-10.6c-28,0-50.6,22.7-50.6,50.6s22.7,50.6,50.6,50.6c1.4,0,2.9-0.2,4.3-0.2h128c23.8,0,43.1-19.3,43.1-43.1
	C306.3,77.7,289.4,59.4,267.7,57.1z"/>
<path id="XMLID_4_" class="st9" d="M679.2,370.3c-8.3-39.6-43.4-69.3-85.4-69.3c-29.8,0-56.2,15-71.9,37.8
	c-4.9-1.1-10.1-1.7-15.4-1.7c-38.7,0-70,31.3-70,70c0,38.7,31.3,70.1,70,70.1c2.3,0,4.6-0.2,6.8-0.2h148c1.4,0,2.8,0,4.2,0
	c29.9,0,54.2-24.3,54.2-54.2C719.7,397.6,702.5,376.4,679.2,370.3z"/>
<path id="XMLID_8_" class="st8" d="M563.8,311.2c-7.6-38.8-41.7-68-82.7-68c-36.7,0-67.9,23.5-79.5,56.2
	c-26.9,4.3-47.5,27.8-47.5,55.9c0,31.2,25.3,56.7,56.6,56.7h142.9c28.1,0,50.8-22.8,50.8-50.9C604.4,336.6,587,316,563.8,311.2z"/>
</svg>
