<?xml version="1.0" encoding="utf-8"?>
<!-- Generator: Adobe Illustrator 19.0.0, SVG Export Plug-In . SVG Version: 6.00 Build 0)  -->
<svg version="1.1" id="Layer_1" xmlns="http://www.w3.org/2000/svg" xmlns:xlink="http://www.w3.org/1999/xlink" x="0px" y="0px"
	 viewBox="-79 -325 800 800" style="enable-background:new -79 -325 800 800;" xml:space="preserve">
<style type="text/css">
	.st0{fill:#F7F7F7;}
	.st1{fill:#FFFFFF;stroke:#FFFFFF;stroke-width:7.4932;}
	.st2{fill:#FFBE41;}
	.st3{opacity:0.8;fill:#F0282A;enable-background:new    ;}
	.st4{fill:#AB7CFF;}
	.st5{opacity:0.8;fill:#00B4FF;enable-background:new    ;}
	.st6{fill:#F7F7F7;enable-background:new    ;}
	.st7{fill:none;stroke:#FFFFFF;stroke-width:2.4237;stroke-miterlimit:10;}
	.st8{fill:#00B4FF;}
	.st9{fill:none;stroke:#FFFFFF;stroke-width:2.0034;stroke-miterlimit:10;}
	.st10{fill:none;stroke:#FFFFFF;stroke-width:2.7036;stroke-miterlimit:10;}
	.st11{fill:#F0282A;}
	.st12{fill:none;stroke:#FFFFFF;stroke-width:3.3004;stroke-miterlimit:10;}
	.st13{fill:#FFFFFF;}
</style>
<path id="XMLID_95_" class="st0" d="M666.4,22H313.3c-30.2,0-54.6,21.5-54.6,48.5s24.4,48.5,54.6,48.5h353.1
	c30.2,0,54.6-21.5,54.6-48.5S696.6,22,666.4,22z"/>
<g id="XMLID_51_">
	<path id="XMLID_69_" class="st1" d="M285,291.8l-8.4-47.7l45.5-16.6c8.5-3.1,12.9-12.5,9.7-21c-3.1-8.5-12.5-12.9-21-9.7l-58,21.1
		c-2,0.7-3.8,1.7-5.3,3c0,0.1,0,0.1-0.1,0.1c0,0.1-0.1,0.1-0.2,0.2s-0.1,0.1-0.2,0.2c0,0.1,0,0.1-0.1,0.1c0,0.1-0.2,0.2-0.2,0.2
		s0,0,0,0.1c-0.8,0.7-1.4,1.5-2,2.4l0,0c-0.1,0.1-0.1,0.2-0.2,0.3v0.1c0,0.1-0.1,0.2-0.2,0.3v0.1c0,0.1-0.1,0.1-0.1,0.2
		s0,0.1-0.1,0.1c0,0.1-0.1,0.1-0.1,0.2s-0.1,0.1-0.1,0.2s0,0.1-0.1,0.1c0,0.1-0.1,0.1-0.1,0.2v0.1c0,0.1-0.1,0.2-0.2,0.3v0.1
		c-0.1,0.1-0.1,0.2-0.2,0.3l0,0c-0.5,1-0.8,1.9-1.1,2.9c0,0,0,0,0,0.1s0,0.2-0.1,0.3c0,0.1,0,0.1,0,0.2c0,0.1,0,0.2,0,0.2v0.2
		c0,0.1,0,0.1,0,0.2c-0.4,2-0.3,4,0.1,6.1l10.7,60.8c1.5,8.9,10,14.8,18.9,13.3C280.6,309.2,286.6,300.7,285,291.8z"/>
	<path id="XMLID_65_" class="st2" d="M331.8,206.6c-3.1-8.5-12.5-12.9-21-9.7l-58.4,21.2c-8.5,3.1-12.9,12.5-9.7,21
		c3.1,8.5,12.5,12.9,21,9.7l58.4-21.2C330.6,224.5,335,215,331.8,206.6z M251.5,235.8c-1.4-3.6,0.5-7.6,4.2-8.9
		c3.6-1.4,7.6,0.5,8.9,4.2c1.4,3.6-0.5,7.6-4.2,8.9C256.9,241.2,252.9,239.4,251.5,235.8z M310,214.6c-1.4-3.6,0.5-7.6,4.2-8.9
		c3.6-1.4,7.6,0.5,8.9,4.2c1.4,3.6-0.5,7.6-4.2,8.9C315.2,220.1,311.3,218.2,310,214.6z"/>
	<path id="XMLID_61_" class="st3" d="M271.7,310.7c8.9-1.5,14.8-10,13.3-18.9l-10.8-61.2c-1.5-8.9-10-14.8-18.9-13.3
		s-14.8,10-13.3,18.9l10.8,61.2C254.3,306.4,262.8,312.3,271.7,310.7z M256.9,226.6c3.8-0.6,7.3,1.9,8.1,5.6s-1.9,7.3-5.6,8.1
		c-3.8,0.6-7.3-1.9-8.1-5.6C250.6,230.9,253.1,227.2,256.9,226.6z M267.7,287.8c3.8-0.6,7.3,1.9,8.1,5.6c0.7,3.8-1.9,7.3-5.6,8.1
		c-3.8,0.6-7.3-1.9-8.1-5.6C261.4,292,263.9,288.4,267.7,287.8z"/>
	<path id="XMLID_60_" class="st1" d="M342.3,239.2l8.4,47.7l-45.5,16.6c-8.5,3.1-12.9,12.5-9.7,21c3.1,8.5,12.5,12.9,21,9.7l58-21.1
		c2-0.7,3.8-1.7,5.3-3c0-0.1,0-0.1,0.1-0.1c0-0.1,0.1-0.1,0.2-0.2c0-0.1,0.1-0.1,0.2-0.2c0-0.1,0-0.1,0.1-0.1c0-0.1,0.2-0.2,0.2-0.2
		s0,0,0-0.1c0.8-0.7,1.4-1.5,2-2.4l0,0c0.1-0.1,0.1-0.2,0.2-0.3v-0.1c0-0.1,0.1-0.2,0.2-0.3V306c0-0.1,0.1-0.1,0.1-0.2
		s0-0.1,0.1-0.1c0-0.1,0.1-0.1,0.1-0.2s0.1-0.1,0.1-0.2s0-0.1,0.1-0.1c0-0.1,0.1-0.1,0.1-0.2v-0.1c0-0.1,0.1-0.2,0.2-0.3v-0.1
		c0.1-0.1,0.1-0.2,0.2-0.3l0,0c0.5-1,0.8-1.9,1.1-2.9c0,0,0,0,0-0.1s0-0.2,0.1-0.3c0-0.1,0-0.1,0-0.2c0-0.1,0-0.2,0-0.2v-0.2
		c0,0,0-0.1,0-0.2c0.4-2,0.3-4-0.1-6.1l-10.7-60.8c-1.5-8.9-10-14.8-18.9-13.3C346.7,221.8,340.7,230.3,342.3,239.2z"/>
	<path id="XMLID_56_" class="st4" d="M295.4,324.4c3.1,8.5,12.5,12.9,21,9.7l58.4-21.2c8.5-3.1,12.9-12.5,9.7-21
		c-3.1-8.5-12.5-12.9-21-9.7l-58.4,21.2C296.7,306.5,292.3,315.9,295.4,324.4z M375.7,295.2c1.4,3.6-0.5,7.6-4.2,8.9
		s-7.6-0.5-8.9-4.2c-1.4-3.6,0.5-7.6,4.2-8.9C370.4,289.7,374.4,291.5,375.7,295.2z M317.3,316.4c1.4,3.6-0.5,7.6-4.2,8.9
		s-7.6-0.5-8.9-4.2c-1.4-3.6,0.5-7.6,4.2-8.9C312,311,316,312.8,317.3,316.4z"/>
	<path id="XMLID_52_" class="st5" d="M355.5,220.3c-8.9,1.5-14.8,10-13.3,18.9l10.8,61.2c1.5,8.9,10,14.8,18.9,13.3
		s14.8-10,13.3-18.9l-10.8-61.2C373,224.6,364.5,218.7,355.5,220.3z M370.4,304.4c-3.8,0.6-7.3-1.9-8.1-5.6
		c-0.6-3.8,1.9-7.3,5.6-8.1c3.8-0.6,7.3,1.9,8.1,5.6C376.8,300.1,374.1,303.7,370.4,304.4z M359.6,243.2c-3.8,0.6-7.3-1.9-8.1-5.6
		c-0.6-3.8,1.9-7.3,5.6-8.1c3.8-0.6,7.3,1.9,8.1,5.6C365.9,238.9,363.4,242.5,359.6,243.2z"/>
</g>
<path id="XMLID_118_" class="st6" d="M647.1,83H420.6c-19.3,0-35,15.2-35,34.5s15.7,34.5,35,34.5h226.5c19.3,0,35-15.2,35-34.5
	S666.4,83,647.1,83z"/>
<path id="XMLID_94_" class="st0" d="M595.7-19H351.8c-20.8,0-37.7,17.2-37.7,38s16.9,38,37.7,38h243.9c20.8,0,37.7-17.2,37.7-38
	S616.5-19,595.7-19z"/>
<g id="XMLID_97_">
	<g id="XMLID_98_">
		<line id="XMLID_106_" class="st7" x1="380.2" y1="29.9" x2="357.4" y2="243.5"/>
		<path id="XMLID_102_" class="st8" d="M450.4-58.3c3.5-33-20.4-62.7-53.4-66.2s-62.7,20.4-66.2,53.4c-3.3,30.9,14.5,84.8,43.9,94.7
			c-0.7,0.5-1.2,1.8-1.3,2.7c-0.2,1.7,0.9,3.6,2.6,3.8l9,1c1.7,0.2,3.2-1.6,3.4-3.2c0.1-0.8-0.2-2-0.7-2.6
			C418.2,21.7,447.1-27.5,450.4-58.3z"/>
	</g>
</g>
<g id="XMLID_103_">
	<g id="XMLID_104_">
		<line id="XMLID_105_" class="st9" x1="419.6" y1="129" x2="368.5" y2="299.1"/>
		<path id="XMLID_109_" class="st4" d="M490.1,68c7.9-26.3-7-54.1-33.3-62s-54.1,7-62,33.3c-7.4,24.6-1.1,71.1,21.2,83.7
			c-0.6,0.3-1.2,1.3-1.4,2c-0.4,1.3,0.2,3.1,1.6,3.5l7.1,2.1c1.3,0.4,2.8-0.8,3.2-2c0.2-0.7,0.2-1.6-0.2-2.2
			C451.8,128.2,482.7,92.6,490.1,68z"/>
	</g>
</g>
<g id="XMLID_119_">
	<g id="XMLID_120_">
		<line id="XMLID_125_" class="st10" x1="219.5" y1="1.1" x2="257.2" y2="237.7"/>
		<path id="XMLID_124_" class="st11" d="M269.3-114.4c-5.8-36.6-40.3-61.6-76.9-55.7c-36.6,5.8-61.6,40.3-55.7,76.9
			C142.2-59,177.1-6.1,211.5-4c-0.6,0.8-0.7,2.3-0.6,3.2c0.3,1.9,2.1,3.6,3.9,3.3l9.9-1.6c1.9-0.3,3-2.6,2.7-4.4
			c-0.1-0.9-0.7-2.1-1.5-2.6C258.1-18.8,274.8-80.2,269.3-114.4z"/>
	</g>
</g>
<g id="XMLID_107_">
	<g id="XMLID_112_">
		<line id="XMLID_117_" class="st12" x1="316.2" y1="-87.5" x2="316.2" y2="214"/>
		<path id="XMLID_116_" class="st2" d="M396-213.2c0-43.9-35.6-79.5-79.5-79.5S237-257.1,237-213.2c0,41,31,109.4,70.9,118.3
			c-0.8,0.8-1.3,2.5-1.3,3.7c0,2.2,1.7,4.6,4,4.6h11.9c2.2,0,4-2.5,4-4.6c0-1.1-0.5-2.5-1.3-3.3C365-103.5,396-172.2,396-213.2z"/>
	</g>
</g>
<path id="XMLID_127_" class="st13" d="M160.6,354H-46.9c-17.7,0-32.1,14.5-32.1,32s14.4,32,32.1,32h207.5c17.7,0,32.1-14.5,32.1-32
	S178.3,354,160.6,354z"/>
<path id="XMLID_126_" class="st13" d="M144.5,334H41.6c-8.8,0-15.9,8.6-15.9,19s7.1,19,15.9,19h102.9c8.8,0,15.9-8.6,15.9-19
	S153.2,334,144.5,334z"/>
<path id="XMLID_96_" class="st13" d="M110.5,391H-31.3c-12.1,0-21.9,11.6-21.9,26s9.8,26,21.9,26h141.8c12.1,0,21.9-11.6,21.9-26
	S122.6,391,110.5,391z"/>
</svg>
