<?xml version="1.0" encoding="utf-8"?>
<!-- Generator: Adobe Illustrator 19.0.0, SVG Export Plug-In . SVG Version: 6.00 Build 0)  -->
<svg version="1.1" id="Layer_1" xmlns="http://www.w3.org/2000/svg" xmlns:xlink="http://www.w3.org/1999/xlink" x="0px" y="0px"
	 viewBox="0 0 400 400" style="enable-background:new 0 0 400 400;" xml:space="preserve">
<style type="text/css">
	.st0{fill:#F99D1C;}
	.st1{fill:#E9F0F5;}
	.st2{fill:#455164;}
	.st3{fill:#66DE90;}
	.st4{fill:#FFFFFF;}
	.st5{fill:#919191;}
	.st6{fill:#A78B68;}
	.st7{fill:#C19653;}
	.st8{fill:#D48C28;}
	.st9{fill:#FE8908;}
	.st10{fill:#FF7A15;}
</style>
<circle id="XMLID_7_" class="st0" cx="200" cy="200" r="175"/>
<path id="XMLID_1_" class="st1" d="M245.7,189.5c0,38.8-1.2,55.7-58.3,55.7S100,228.4,100,189.5s15.8-55.7,72.8-55.7
	S245.7,150.7,245.7,189.5z"/>
<circle id="XMLID_3_" class="st0" cx="150.5" cy="190" r="7.3"/>
<circle id="XMLID_4_" class="st0" cx="175.5" cy="190" r="7.3"/>
<circle id="XMLID_5_" class="st0" cx="199.5" cy="190" r="7.3"/>
<path id="XMLID_2_" class="st2" d="M300,210.8c0,31.9-25.6,52.3-65.1,52.3s-43.7-10-43.7-42s14-48.8,53.6-48.8S300,178.9,300,210.8z
	"/>
<polygon id="XMLID_9_" class="st1" points="161.9,243.5 136.5,263.1 127.5,234.6 132.7,214.7 152.5,209.3 167.1,223.7 "/>
<polygon id="XMLID_10_" class="st2" points="283.7,240.8 284.7,266.1 259.4,255.4 251.2,240.7 259.4,226 275.6,226 "/>
<path id="XMLID_18_" class="st3" d="M259,206.7c-1.3-1.3-3.4-1.3-4.7,0l-11.7,11.7l-7-7c-1.3-1.3-3.4-1.3-4.7,0
	c-1.3,1.3-1.3,3.4,0,4.7l9.4,9.4c1.3,1.3,3.4,1.3,4.7,0l14-14C260.3,210.1,260.3,208,259,206.7z"/>
<circle id="XMLID_6_" class="st4" cx="300" cy="340" r="50"/>
<g id="XMLID_8_">
	<g id="layer1_1_">
		<path id="path2830_1_" class="st5" d="M273.3,345.6l5.1,0.1l-0.2,22.8h34.1v-22.7h5.4V374h-44.5
			C273.3,374,273.3,345.6,273.3,345.6z"/>
		<rect id="rect3604_1_" x="281.7" y="359.1" class="st5" width="26.7" height="5.7"/>

			<rect id="rect3606_1_" x="282" y="350.2" transform="matrix(-0.9954 -9.606666e-02 9.606666e-02 -0.9954 555.5169 732.9219)" class="st6" width="26.8" height="5.8"/>

			<rect id="rect3606-1_1_" x="283.5" y="340.9" transform="matrix(-0.9624 -0.2716 0.2716 -0.9624 489.2424 755.2896)" class="st7" width="26.8" height="5.8"/>

			<rect id="rect3606-1-3_1_" x="287.6" y="330.8" transform="matrix(-0.856 -0.517 0.517 -0.856 386.1432 774.9696)" class="st8" width="26.8" height="5.8"/>

			<rect id="rect3606-1-3-7_1_" x="296.1" y="321.6" transform="matrix(-0.5824 -0.8129 0.8129 -0.5824 226.0565 765.1259)" class="st9" width="26.8" height="5.8"/>

			<rect id="rect3606-1-3-7-6_1_" x="308.2" y="316.8" transform="matrix(-0.1648 -0.9863 0.9863 -0.1648 59.2938 689.5692)" class="st10" width="26.8" height="5.8"/>
	</g>
</g>
</svg>
