<?xml version="1.0" encoding="utf-8"?>
<!-- Generator: Adobe Illustrator 19.0.0, SVG Export Plug-In . SVG Version: 6.00 Build 0)  -->
<svg version="1.1" id="Layer_1" xmlns="http://www.w3.org/2000/svg" xmlns:xlink="http://www.w3.org/1999/xlink" x="0px" y="0px"
	 viewBox="-549 551 100 100" style="enable-background:new -549 551 100 100;" xml:space="preserve">
<style type="text/css">
	.st0{fill:#ffffff;}
</style>
<path class="st0" d="M-452.9,576.3h-3.6c-1.4,0-3.3,2-3.3,3.2v45.3c0,1.3,1.9,3,3.3,3h3.6v10.8h-33v-10.8h6.9v-47.6h-0.3l-16.1,58.4
	H-508l-15.9-58.4h-0.4v47.6h6.9v10.8h-27.7v-10.8h3.5c1.5,0,3.4-1.7,3.4-3v-45.3c0-1.3-1.9-3.2-3.4-3.2h-3.5v-10.8h34.6l11.4,42.3
	h0.3l11.5-42.3h34.5V576.3z"/>
</svg>
