<?xml version="1.0" encoding="utf-8"?>
<!-- Generator: Adobe Illustrator 19.0.0, SVG Export Plug-In . SVG Version: 6.00 Build 0)  -->
<svg version="1.1" id="Layer_1" xmlns="http://www.w3.org/2000/svg" xmlns:xlink="http://www.w3.org/1999/xlink" x="0px" y="0px"
	 viewBox="0 221.7 200 265" style="enable-background:new 0 221.7 200 265;" xml:space="preserve">
<style type="text/css">
	.st0{fill:#FFFFFF;stroke:#ECB2B2;stroke-miterlimit:10;}
	.st1{fill:#ECB2B2;}
	.st2{fill:none;stroke:#ECB2B2;stroke-width:1.4142;stroke-miterlimit:10;}
</style>
<g id="XMLID_2_">
	<path id="XMLID_46_" class="st0" d="M150.2,299.6c0-27.6-22.4-50-50-50s-50,22.4-50,50c0,25.8,19.5,68.8,44.6,74.4
		c-0.5,0.5-0.8,1.6-0.8,2.3c0,1.4,1.1,2.9,2.5,2.9h7.5c1.4,0,2.5-1.6,2.5-2.9c0-0.7-0.3-1.6-0.8-2.1
		C130.7,368.6,150.2,325.4,150.2,299.6z"/>
	<g id="XMLID_43_">
		<g id="XMLID_44_">
			<path id="XMLID_45_" class="st1" d="M110.4,310.8c2.9-2.9,2.9-7.7,0-10.7c-2.9-2.9-7.7-2.9-10.7,0l0,0c-2.9-2.9-7.7-2.9-10.7,0
				s-2.9,7.7,0,10.7l2.7,2.7l2.7,2.7l5.3,5.3l5-5c0.1-0.1,0.2-0.2,0.3-0.3L110.4,310.8z"/>
		</g>
	</g>
	<line id="XMLID_42_" class="st2" x1="100" y1="378.7" x2="100" y2="466.7"/>
</g>
</svg>
