<?xml version="1.0" encoding="utf-8"?>
<!-- Generator: Adobe Illustrator 19.0.0, SVG Export Plug-In . SVG Version: 6.00 Build 0)  -->
<svg version="1.1" id="Layer_1" xmlns="http://www.w3.org/2000/svg" xmlns:xlink="http://www.w3.org/1999/xlink" x="0px" y="0px"
	 viewBox="0 0 100 100" style="enable-background:new 0 0 100 100;" xml:space="preserve">
<style type="text/css">
	.st0{fill:#ffffff;}
</style>
<path id="XMLID_1_" class="st0" d="M95,22.1c-3.3,1.5-6.9,2.5-10.6,2.9c3.8-2.3,6.7-5.9,8.1-10.2c-3.6,2.1-7.5,3.7-11.7,4.5
	c-3.4-3.6-8.2-5.8-13.5-5.8c-10.2,0-18.5,8.3-18.5,18.5c0,1.4,0.2,2.9,0.5,4.2C34,35.3,20.4,28,11.3,16.8c-1.6,2.7-2.5,5.9-2.5,9.3
	c0,6.4,3.3,12.1,8.2,15.4c-3-0.1-5.9-0.9-8.4-2.3c0,0.1,0,0.2,0,0.2c0,8.9,6.4,16.4,14.8,18.1c-1.5,0.4-3.2,0.6-4.9,0.6
	c-1.2,0-2.3-0.1-3.5-0.3c2.3,7.3,9.2,12.7,17.2,12.8c-6.3,5-14.3,7.9-22.9,7.9c-1.5,0-3-0.1-4.4-0.3c8.2,5.2,17.9,8.3,28.3,8.3
	c34,0,52.5-28.1,52.5-52.5c0-0.8,0-1.6-0.1-2.4C89.4,29,92.5,25.8,95,22.1z"/>
</svg>
