<?xml version="1.0" encoding="utf-8"?>
<!-- Generator: Adobe Illustrator 19.0.0, SVG Export Plug-In . SVG Version: 6.00 Build 0)  -->
<svg version="1.1" id="Layer_1" xmlns="http://www.w3.org/2000/svg" xmlns:xlink="http://www.w3.org/1999/xlink" x="0px" y="0px"
	 viewBox="0 0 400 650" style="enable-background:new 0 0 400 650;" xml:space="preserve">
<style type="text/css">
	.st0{fill:#005A9C;}
	.st1{opacity:0.8;}
	.st2{fill:#333333;}
	.st3{fill:none;stroke:#333333;stroke-width:2;stroke-miterlimit:10;}
	.st4{fill:none;stroke:#333333;stroke-width:2;stroke-miterlimit:10;stroke-dasharray:7.9829,7.9829;}
</style>
<path id="XMLID_1_" class="st0" d="M342.2,594.8L200,499.7L57.8,594.8c-3.3,2.2-7.8-0.2-7.8-4.2V55c0-2.8,2.2-5,5-5h290
	c2.8,0,5,2.2,5,5v535.6C350,594.6,345.5,597,342.2,594.8z"/>
<g id="XMLID_2_" class="st1">
	<g id="XMLID_3_" text-rendering="geometricPrecision" shape-rendering="geometricPrecision" image-rendering="optimizeQuality">
		<g id="XMLID_4_" text-rendering="geometricPrecision" shape-rendering="geometricPrecision" image-rendering="optimizeQuality">
			<g id="Background_1_">
			</g>
			<g id="Guides_1_">
			</g>
			<g id="Foreground_1_">
				<g id="XMLID_13_">
					<path id="XMLID_14_" class="st2" d="M155.8,200.4l14.2,48.4l14.2-48.4h10.3h28.3v4.8l-14.5,25c5.1,1.6,9,4.6,11.6,8.9
						c2.6,4.3,3.9,9.4,3.9,15.2c0,7.2-1.9,13.3-5.7,18.2c-3.8,4.9-8.8,7.4-14.9,7.4c-4.6,0-8.6-1.5-12-4.4
						c-3.4-2.9-5.9-6.9-7.6-11.8l8.1-3.3c1.2,3,2.7,5.4,4.7,7.1c1.9,1.7,4.2,2.6,6.8,2.6c2.7,0,5.1-1.5,7-4.6
						c1.9-3.1,2.8-6.8,2.8-11.1c0-4.8-1-8.5-3-11.1c-2.4-3.1-6.1-4.6-11.1-4.6H195V234l13.7-23.8h-16.6l-0.9,1.6L171,280h-1
						l-14.7-49.3L140.5,280h-1L116,200.4h10.3l14.2,48.4l9.6-32.6l-4.7-15.8C145.5,200.4,155.8,200.4,155.8,200.4z"/>
				</g>
				<path id="XMLID_8_" class="st2" d="M276.5,200.4c-2,0-3.8,0.7-5.2,2.1c-1.5,1.5-2.3,3.4-2.3,5.4s0.8,3.8,2.2,5.3
					c1.4,1.5,3.3,2.3,5.3,2.3c2,0,3.9-0.8,5.3-2.2c1.4-1.4,2.2-3.2,2.2-5.3c0-2-0.8-3.9-2.2-5.3
					C280.4,201.2,278.5,200.4,276.5,200.4z M283,208c0,1.7-0.7,3.3-1.9,4.5c-1.3,1.3-2.9,1.9-4.7,1.9c-1.7,0-3.3-0.7-4.6-1.9
					c-1.2-1.3-1.9-2.9-1.9-4.6s0.7-3.4,2-4.7c1.2-1.2,2.8-1.9,4.6-1.9c1.8,0,3.4,0.7,4.7,1.9C282.3,204.6,283,206.2,283,208z
					 M276.7,203.6h-3.2v8.5h1.6v-3.6h1.6l1.7,3.6h1.8l-1.9-3.9c1.2-0.3,1.9-1.1,1.9-2.3C280.2,204.4,279,203.6,276.7,203.6z
					 M276.4,204.6c1.5,0,2.2,0.4,2.2,1.5c0,1-0.7,1.4-2.2,1.4h-1.4v-2.8C275.1,204.6,276.4,204.6,276.4,204.6z"/>
			</g>
			<g id="Calque_1_1_">
				<g id="XMLID_5_">
					<path id="XMLID_7_" class="st2" d="M263.8,200l1.7,10.2l-5.9,11.3c0,0-2.3-4.8-6-7.5c-3.2-2.2-5.2-2.7-8.5-2.1
						c-4.2,0.9-8.9,5.8-10.9,12c-2.5,7.3-2.5,10.9-2.6,14.1c-0.1,5.2,0.7,8.3,0.7,8.3s-3.6-6.6-3.6-16.4c0-6.9,1.1-13.2,4.3-19.5
						c2.8-5.5,7-8.7,10.8-9.1c3.9-0.4,6.9,1.5,9.3,3.5c2.5,2.1,5,6.7,5,6.7L263.8,200z"/>
					<path id="XMLID_6_" class="st2" d="M264.5,257.5c0,0-2.6,4.7-4.2,6.5c-1.6,1.8-4.5,5-8.1,6.6c-3.6,1.6-5.5,1.9-9,1.5
						c-3.6-0.3-6.9-2.4-8-3.3c-1.2-0.9-4.1-3.4-5.8-5.7S225,256,225,256s1.5,4.7,2.4,6.7c0.5,1.2,2.1,4.7,4.4,7.8
						c2.1,2.9,6.3,7.8,12.6,8.9c6.3,1.1,10.6-1.7,11.7-2.4c1.1-0.7,3.3-2.6,4.8-4.1c1.5-1.6,2.9-3.6,3.7-4.9
						c0.6-0.9,1.5-2.7,1.5-2.7L264.5,257.5z"/>
				</g>
			</g>
		</g>
	</g>
</g>
<g id="XMLID_15_" class="st1">
	<g id="XMLID_41_">
		<polyline id="XMLID_43_" class="st3" points="203.3,481.1 200,478.9 196.7,481.1 		"/>
	</g>
</g>
</svg>
