<?xml version="1.0" encoding="utf-8"?>
<!-- Generator: Adobe Illustrator 19.0.0, SVG Export Plug-In . SVG Version: 6.00 Build 0)  -->
<svg version="1.1" id="Layer_1" xmlns="http://www.w3.org/2000/svg" xmlns:xlink="http://www.w3.org/1999/xlink" x="0px" y="0px"
	 viewBox="0 0 800 216" style="enable-background:new 0 0 800 216;" xml:space="preserve">
<style type="text/css">
	.st0{fill:#FFFFFF;}
</style>
<g>
	<g>
		<path class="st0" d="M218.3,161.5h-12.4v-107h12.4c29.1,0.1,31.3,11.6,31.3,53.6C249.6,149.9,247.4,161.4,218.3,161.5z
			 M221.7,145.8c11.1,0,11.8-2.8,11.6-37.9c0.1-34.9-0.6-37.7-11.6-37.7V145.8z"/>
		<path class="st0" d="M264.8,54.5h36v16.2h-20.2v28.1h14.6v17.2h-14.6v29.4h20.2v16.2h-36V54.5z"/>
		<path class="st0" d="M343.8,54.5h15.3l-16.3,107h-15.7l-16.3-107h15.3l7.9,58.8l0.6,4.5h0.9l0.6-4.5L343.8,54.5z"/>
		<path class="st0" d="M371.5,54.5h36v16.2h-20.2v28.1h14.6v17.2h-14.6v29.4h20.2v16.2h-36V54.5z"/>
		<path class="st0" d="M422.6,54.5h15.7v92.4h20.8v14.6h-36.5V54.5z"/>
		<path class="st0" d="M489.7,162.7c-21.1,0-21-23.1-21-23.1v-63c0,0-0.1-23.1,21-23.1s21,23.1,21,23.1v63
			C510.6,139.5,510.8,162.7,489.7,162.7z M489.7,68.6c-5.5,0-5.2,7.9-5.2,7.9v63c0,0-0.3,7.9,5.2,7.9s5.2-7.9,5.2-7.9v-63
			C494.9,76.5,495.2,68.6,489.7,68.6z"/>
		<path class="st0" d="M527.1,54.5c0,0,15,0,15.7,0c13.7,0,27.7,7.4,27.7,32c0,24.6-14,32.2-27.7,32.2v42.8h-15.7V54.5z
			 M542.8,102.7c9.9,0,11.8-3.6,11.8-15.6c0-11.9-1.9-16.6-11.8-16.6V102.7z"/>
		<path class="st0" d="M582.5,54.5h36v16.2h-20.2v28.1h14.6v17.2h-14.6v29.4h20.2v16.2h-36V54.5z"/>
		<path class="st0" d="M661.1,161.5l-8.2-45.1h-4.2v45.1H633v-107h15.7c18.6,0,26.8,10.8,26.8,30.9c0,10.6-2.8,20.2-8.7,24.3
			l10,51.8H661.1z M648.8,70.1v31.7c4.4,0,11.6-0.6,11.6-15.9S653.1,70.1,648.8,70.1z"/>
		<path class="st0" d="M706.8,53.3c18.9-0.4,22,16.5,22,28.4l-15.4,1.5c0-7.1-1-15.4-6.3-15.4c-4.1,0.1-5.4,4.5-5.4,10.6
			c0,7.3,6.3,15.4,12.4,24.3c7.3,10.9,14.7,21.5,14.7,33c0,14.3-4.7,26.9-21.8,26.9c-20.2,0-22.9-15.3-22.9-31.2l15.4-1.5
			c0,8.9,0.9,18.2,7.4,18.2c4.7,0,6.4-5.1,6.4-11.8c0-7.1-6.7-15.7-12.7-24.7c-7.4-10.9-14.4-21.8-14.4-33.3
			C686.3,66.7,692,53.6,706.8,53.3z"/>
		<path class="st0" d="M181.1,78.8l1.4,7.5l-4.4,8.5c0,0-1.7-3.6-4.6-5.6c-2.4-1.7-3.9-2-6.3-1.5c-3,0.7-6.6,4.4-8.2,9
			c-1.8,5.4-1.8,8-1.8,10.5c-0.2,3.9,0.5,6.1,0.5,6.1s-2.7-4.9-2.7-12.2c0-5.1,0.8-9.8,3.2-14.4c2.2-4.1,5.3-6.5,8-6.8
			c2.9-0.3,5.3,1,7,2.6c1.9,1.5,3.7,5.1,3.7,5.1L181.1,78.8z"/>
		<path class="st0" d="M181.8,121.5c0,0-2.1,3.4-3.2,4.8c-1.2,1.4-3.4,3.7-6.1,4.9c-2.7,1.2-4.1,1.3-6.6,1.2
			c-2.7-0.4-5.3-1.9-6.1-2.4c-0.8-0.7-3.1-2.5-4.2-4.4c-1.2-1.7-3.2-5.2-3.2-5.2s1.2,3.6,1.9,5.1c0.3,0.9,1.5,3.4,3.2,5.8
			c1.5,2.2,4.8,5.8,9.3,6.6c4.8,0.8,8-1.2,8.8-1.7c0.7-0.5,2.4-2,3.4-3.1c1.2-1.2,2.2-2.7,2.9-3.7c0.3-0.7,1-2,1-2L181.8,121.5z"/>
		<polygon class="st0" points="100.7,79.1 111.4,115.1 121.9,79.1 129.5,79.1 112,138.3 111.4,138.3 100.3,101.5 89.3,138.3 
			88.6,138.3 71,79.1 78.8,79.1 89.3,115.1 96.6,90.8 93.1,79.1 		"/>
		<path class="st0" d="M151.4,119.3c0,5.3-1.4,9.8-4.3,13.6c-2.9,3.6-6.6,5.5-11.2,5.5c-3.4,0-6.3-1.2-8.8-3.3
			c-2.5-2.2-4.4-5.1-5.6-8.8l5.9-2.5c0.8,2.2,2,4.1,3.4,5.2c1.5,1.4,3.2,2,5.1,2c2,0,3.9-1.2,5.3-3.6c1.3-2.2,2.2-4.9,2.2-8.2
			c0-3.5-0.9-6.3-2.4-8.3c-1.7-2.2-4.4-3.4-8.3-3.4h-2.9V104l10.3-17.6h-12.4l-3.5,5.8h-2.2V79.1h28.7v3.6l-10.9,18.7
			c3.7,1.2,6.6,3.4,8.6,6.6C150.4,111.2,151.4,114.9,151.4,119.3"/>
		<polygon class="st0" points="72.5,54.5 71.4,58.4 182.4,58.4 182.4,54.5 		"/>
		<polygon class="st0" points="72.7,161.5 182.4,161.5 182.4,157.6 71.5,157.6 		"/>
	</g>
</g>
</svg>
