<?xml version="1.0" encoding="utf-8"?>
<!-- Generator: Adobe Illustrator 19.0.0, SVG Export Plug-In . SVG Version: 6.00 Build 0)  -->
<svg version="1.1" id="Layer_1" xmlns="http://www.w3.org/2000/svg" xmlns:xlink="http://www.w3.org/1999/xlink" x="0px" y="0px"
	 viewBox="0 0 400 400" style="enable-background:new 0 0 400 400;" xml:space="preserve">
<style type="text/css">
	.st0{fill:#455164;}
	.st1{fill:#333C4E;}
	.st2{fill:#ECF0F1;}
	.st3{fill:#F99D1C;}
	.st4{fill:#D02E27;}
	.st5{fill:#30B4C5;}
	.st6{fill:#694D9F;}
</style>
<circle id="XMLID_2_" class="st0" cx="200" cy="200" r="162.5"/>
<circle id="XMLID_1_" class="st1" cx="200" cy="200" r="150"/>
<g id="XMLID_3_">
	<g id="XMLID_539_">
		<g id="XMLID_590_">
			<circle id="XMLID_591_" class="st2" cx="130" cy="200" r="20"/>
		</g>
		<g id="XMLID_588_">
			<circle id="XMLID_589_" class="st2" cx="177.5" cy="152.5" r="20"/>
		</g>
		<g id="XMLID_586_">
			<circle id="XMLID_587_" class="st2" cx="177.5" cy="247.5" r="20"/>
		</g>
		<g id="XMLID_584_">
			
				<rect id="XMLID_585_" x="133.7" y="142.7" transform="matrix(0.7071 0.7071 -0.7071 0.7071 169.6621 -57.095)" class="st2" width="40" height="67.2"/>
		</g>
		<g id="XMLID_582_">
			
				<rect id="XMLID_583_" x="120.2" y="203.8" transform="matrix(0.7071 0.7071 -0.7071 0.7071 203.2477 -43.1827)" class="st2" width="67.2" height="40"/>
		</g>
		<g id="XMLID_580_">
			
				<rect id="XMLID_581_" x="138.8" y="142.7" transform="matrix(0.7071 0.7071 -0.7071 0.7071 169.6599 -57.0952)" class="st3" width="30" height="67.2"/>
		</g>
		<g id="XMLID_578_">
			
				<rect id="XMLID_579_" x="120.2" y="208.8" transform="matrix(0.7071 0.7071 -0.7071 0.7071 203.2475 -43.1828)" class="st4" width="67.2" height="30"/>
		</g>
		<g id="XMLID_576_">
			<circle id="XMLID_577_" class="st3" cx="177.5" cy="152.5" r="15"/>
		</g>
		<g id="XMLID_574_">
			<circle id="XMLID_575_" class="st4" cx="130" cy="200" r="15"/>
		</g>
		<g id="XMLID_572_">
			<circle id="XMLID_573_" class="st4" cx="177.5" cy="247.5" r="15"/>
		</g>
		<g id="XMLID_570_">
			<circle id="XMLID_571_" class="st2" cx="130" cy="200" r="7.5"/>
		</g>
		<g id="XMLID_568_">
			<circle id="XMLID_569_" class="st2" cx="177.5" cy="152.5" r="7.5"/>
		</g>
		<g id="XMLID_566_">
			<circle id="XMLID_567_" class="st2" cx="177.5" cy="247.5" r="7.5"/>
		</g>
		<g id="XMLID_564_">
			<circle id="XMLID_565_" class="st2" cx="270" cy="200" r="20"/>
		</g>
		<g id="XMLID_562_">
			<circle id="XMLID_563_" class="st2" cx="222.5" cy="152.5" r="20"/>
		</g>
		<g id="XMLID_560_">
			<circle id="XMLID_561_" class="st2" cx="222.5" cy="247.5" r="20"/>
		</g>
		<g id="XMLID_558_">
			
				<rect id="XMLID_559_" x="212.7" y="156.2" transform="matrix(0.7071 0.7071 -0.7071 0.7071 196.7542 -122.5028)" class="st2" width="67.2" height="40"/>
		</g>
		<g id="XMLID_556_">
			
				<rect id="XMLID_557_" x="226.2" y="190.2" transform="matrix(0.7071 0.7071 -0.7071 0.7071 230.3403 -108.5901)" class="st2" width="40" height="67.2"/>
		</g>
		<g id="XMLID_554_">
			
				<rect id="XMLID_555_" x="212.7" y="161.3" transform="matrix(0.7071 0.7071 -0.7071 0.7071 196.7525 -122.5026)" class="st5" width="67.2" height="30"/>
		</g>
		<g id="XMLID_552_">
			
				<rect id="XMLID_553_" x="231.3" y="190.2" transform="matrix(0.7071 0.7071 -0.7071 0.7071 230.3401 -108.5902)" class="st6" width="30" height="67.2"/>
		</g>
		<g id="XMLID_550_">
			<circle id="XMLID_551_" class="st6" cx="270" cy="200" r="15"/>
		</g>
		<g id="XMLID_548_">
			<circle id="XMLID_549_" class="st5" cx="222.5" cy="152.5" r="15"/>
		</g>
		<g id="XMLID_546_">
			<circle id="XMLID_547_" class="st6" cx="222.5" cy="247.5" r="15"/>
		</g>
		<g id="XMLID_544_">
			<circle id="XMLID_545_" class="st2" cx="270" cy="200" r="7.5"/>
		</g>
		<g id="XMLID_542_">
			<circle id="XMLID_543_" class="st2" cx="222.5" cy="152.5" r="7.5"/>
		</g>
		<g id="XMLID_540_">
			<circle id="XMLID_541_" class="st2" cx="222.5" cy="247.5" r="7.5"/>
		</g>
	</g>
</g>
</svg>
