<svg id="Layer_1" data-name="Layer 1" xmlns="http://www.w3.org/2000/svg" viewBox="0 0 498.5 100"><defs><style>.cls-1{fill:#ffffff;}</style></defs><title>logo-test5</title><path class="cls-1" d="M345,460.66q2.09-.28,4.38-0.36t3.89-.08a21.63,21.63,0,0,1,8.41,1.44,13.72,13.72,0,0,1,5.46,4,15.93,15.93,0,0,1,3,6.16,32.12,32.12,0,0,1,.91,7.9,33.8,33.8,0,0,1-.83,7.54,17.24,17.24,0,0,1-2.87,6.41,14.55,14.55,0,0,1-5.49,4.47,19.56,19.56,0,0,1-8.63,1.69l-1.87,0q-1.16,0-2.37-.11l-2.32-.14a12.52,12.52,0,0,1-1.65-.17V460.66Zm8.51,3.65q-0.77,0-2,.06a12.47,12.47,0,0,0-2,.22v30.94a5.94,5.94,0,0,0,.8.08l1.08,0.06,1.08,0.06,0.86,0a14,14,0,0,0,6.55-1.33,9.88,9.88,0,0,0,3.9-3.56,14.29,14.29,0,0,0,1.88-5.14,35.37,35.37,0,0,0,.5-6,34.12,34.12,0,0,0-.44-5.44,13.51,13.51,0,0,0-1.8-4.94,10.35,10.35,0,0,0-3.87-3.62A13.46,13.46,0,0,0,353.51,464.31Z" transform="translate(-169.97 -400)"/><path class="cls-1" d="M379.64,460.66h22.71v4.09H384.22V477.4H401v4.09H384.22v13.76h18.4v4.09h-23V460.66Z" transform="translate(-169.97 -400)"/><path class="cls-1" d="M423.56,493.65h0.61l10.5-33h4.59l-13,38.67h-5.36l-13.26-38.67h5Z" transform="translate(-169.97 -400)"/><path class="cls-1" d="M445.94,460.66h22.71v4.09H450.52V477.4h16.74v4.09H450.52v13.76h18.4v4.09h-23V460.66Z" transform="translate(-169.97 -400)"/><path class="cls-1" d="M478.14,460.66h4.59v34.58h15.64v-9.61h4.09v13.7H478.14V460.66Z" transform="translate(-169.97 -400)"/><path class="cls-1" d="M509,480q0-9.61,3.39-14.81T522.81,460a13.68,13.68,0,0,1,6.53,1.44,11.48,11.48,0,0,1,4.33,4.06,18.28,18.28,0,0,1,2.37,6.3,42.94,42.94,0,0,1,.72,8.2q0,9.61-3.39,14.81T522.81,500a13.38,13.38,0,0,1-6.45-1.44,11.52,11.52,0,0,1-4.3-4.06,18.27,18.27,0,0,1-2.37-6.3A43,43,0,0,1,509,480Zm4.81,0a42.55,42.55,0,0,0,.41,6.08,17.31,17.31,0,0,0,1.47,5.05,9.35,9.35,0,0,0,2.77,3.48,7.06,7.06,0,0,0,4.38,1.3,7.41,7.41,0,0,0,7-3.87q2.19-3.87,2.19-12a42.71,42.71,0,0,0-.42-6,17.26,17.26,0,0,0-1.47-5.08,9.13,9.13,0,0,0-2.83-3.48,8.08,8.08,0,0,0-11.3,2.6Q513.78,471.88,513.78,480Z" transform="translate(-169.97 -400)"/><path class="cls-1" d="M545,461.05a27.85,27.85,0,0,1,4.53-.66q2.43-.17,4.81-0.17a27.68,27.68,0,0,1,5.17.5,14,14,0,0,1,4.78,1.82,10.25,10.25,0,0,1,3.51,3.65,11.61,11.61,0,0,1,1.35,5.91,12.76,12.76,0,0,1-1.27,6,11.18,11.18,0,0,1-3.37,4,13.65,13.65,0,0,1-4.81,2.18,23.35,23.35,0,0,1-5.58.66H553.2l-1.33,0c-0.46,0-.91,0-1.35-0.08a9.43,9.43,0,0,1-.94-0.11v14.7H545V461.05Zm9.47,3.15c-1,0-1.89,0-2.77.06a9.49,9.49,0,0,0-2.11.28v16a2.91,2.91,0,0,0,.89.14l1.28,0.06,1.28,0h0.89a19.63,19.63,0,0,0,3.74-.36,9.71,9.71,0,0,0,3.35-1.3,6.88,6.88,0,0,0,2.41-2.65,9.24,9.24,0,0,0,.91-4.36,7.59,7.59,0,0,0-.86-3.78,6.85,6.85,0,0,0-2.27-2.43,9.63,9.63,0,0,0-3.19-1.3A16.64,16.64,0,0,0,554.46,464.2Z" transform="translate(-169.97 -400)"/><path class="cls-1" d="M578.53,460.66h22.71v4.09H583.11V477.4h16.74v4.09H583.11v13.76h18.4v4.09h-23V460.66Z" transform="translate(-169.97 -400)"/><path class="cls-1" d="M611.29,461.05q2.09-.39,4.82-0.61t5-.22a20.48,20.48,0,0,1,4.82.55,11.17,11.17,0,0,1,4,1.82,9.26,9.26,0,0,1,2.78,3.31,10.81,10.81,0,0,1,1,5,10.12,10.12,0,0,1-.74,4,11.52,11.52,0,0,1-6,6.1l10.22,18.34h-5.36l-9.12-17h-6.87v17h-4.59V461.05Zm9.94,3.15h-1.49c-0.52,0-1,0-1.49.06l-1.35.11a5.74,5.74,0,0,0-1,.17v14.25h4.31a10.15,10.15,0,0,0,6.3-1.88Q629,475,629,471a6.48,6.48,0,0,0-2-4.92A8,8,0,0,0,621.23,464.2Z" transform="translate(-169.97 -400)"/><path class="cls-1" d="M647.2,493.87a18.44,18.44,0,0,0,3.73,1.46,15.38,15.38,0,0,0,4.17.58,15.61,15.61,0,0,0,3.43-.36,8.1,8.1,0,0,0,2.79-1.16,6,6,0,0,0,1.88-2,5.72,5.72,0,0,0,.69-2.87,4.87,4.87,0,0,0-1.52-3.7,15.13,15.13,0,0,0-3.78-2.54q-2.27-1.1-4.92-2.16a29.18,29.18,0,0,1-4.92-2.49,13.8,13.8,0,0,1-3.78-3.51,8.69,8.69,0,0,1-1.52-5.28,9,9,0,0,1,.91-4.09,8.83,8.83,0,0,1,2.57-3.09,12.16,12.16,0,0,1,4-2,18.48,18.48,0,0,1,5.22-.69,35.38,35.38,0,0,1,6,.47,16.71,16.71,0,0,1,4.31,1.24l0.11-.06v0.11h0.06l-0.06.17v8.84H662.5v-5.91a30.4,30.4,0,0,0-3-.55,27.07,27.07,0,0,0-3.54-.22,11.38,11.38,0,0,0-3.29.44,8.21,8.21,0,0,0-2.49,1.19,5.4,5.4,0,0,0-1.57,1.74,4.27,4.27,0,0,0-.55,2.1,4.73,4.73,0,0,0,1.52,3.59,15.65,15.65,0,0,0,3.78,2.57q2.26,1.13,4.92,2.24a31.16,31.16,0,0,1,4.92,2.57A14.4,14.4,0,0,1,667,484a8.29,8.29,0,0,1,1.52,5.08,10.63,10.63,0,0,1-.91,4.48A9.86,9.86,0,0,1,665,497a11.74,11.74,0,0,1-4.14,2.21,18.5,18.5,0,0,1-5.55.77,22.84,22.84,0,0,1-4-.33,27.09,27.09,0,0,1-3.45-.83,26.72,26.72,0,0,1-2.82-1q-1.24-.55-2-0.94l0.06-.17v-9h4.09v6.13Z" transform="translate(-169.97 -400)"/><g id="Foreground"><rect class="cls-1" width="149.28" height="2.3"/><rect class="cls-1" y="97.7" width="149.28" height="2.3"/><path class="cls-1" d="M211.83,418.31l12,40.67,12-40.67h32.43v4l-12.21,21a17,17,0,0,1,9.73,7.51,24.19,24.19,0,0,1,3.3,12.79q0,9.08-4.83,15.26a15.68,15.68,0,0,1-22.56,2.52,21.6,21.6,0,0,1-6.35-9.94l6.76-2.8a15.42,15.42,0,0,0,3.92,6,8.3,8.3,0,0,0,5.73,2.19q3.47,0,5.86-3.88a17.41,17.41,0,0,0,2.39-9.32q0-6-2.56-9.32-3-3.88-9.33-3.88h-3.3v-4l11.55-20H242.36l-0.79,1.35-17,57.23h-0.82l-12.38-41.41L199,485.14h-0.82l-19.8-66.83h8.66L199,459l8.09-27.39-4-13.28h8.66Z" transform="translate(-169.97 -400)"/><path class="cls-1" d="M313.21,418.31a6,6,0,0,0-4.39,1.79,6.45,6.45,0,0,0-1.91,4.52,6.38,6.38,0,0,0,6.3,6.32,6.45,6.45,0,0,0,4.49-1.88,6.06,6.06,0,0,0,1.84-4.44,6.31,6.31,0,0,0-1.82-4.44A6.23,6.23,0,0,0,313.21,418.31Zm5.49,6.37a5.23,5.23,0,0,1-1.6,3.81,5.54,5.54,0,0,1-3.93,1.61,5.38,5.38,0,0,1-3.82-1.63,5.45,5.45,0,0,1-1.61-3.84,5.62,5.62,0,0,1,1.67-3.93,5.28,5.28,0,0,1,3.82-1.56A5.45,5.45,0,0,1,318.7,424.68Zm-5.31-3.75h-2.7v7.16H312V425h1.33l1.46,3.05h1.51l-1.6-3.26a1.87,1.87,0,0,0,1.63-1.93C316.36,421.59,315.38,420.93,313.38,420.93Zm-0.25.88c1.26,0,1.84.35,1.84,1.23s-0.58,1.14-1.81,1.14H312V421.8h1.11Z" transform="translate(-169.97 -400)"/></g><g id="Calque_1" data-name="Calque 1"><path class="cls-1" d="M302.59,417.94l1.4,8.53-5,9.5a18.28,18.28,0,0,0-5.07-6.26c-2.67-1.88-4.41-2.29-7.13-1.73-3.49.72-7.45,4.9-9.18,10a34.35,34.35,0,0,0-2.16,11.88,27,27,0,0,0,.58,7,31.18,31.18,0,0,1-3-13.75,34.5,34.5,0,0,1,3.64-16.34c2.37-4.59,5.9-7.34,9-7.67s5.8,1.23,7.78,2.92a24.75,24.75,0,0,1,4.18,5.65Z" transform="translate(-169.97 -400)"/><path class="cls-1" d="M303.2,466.21a42.44,42.44,0,0,1-3.56,5.44c-1.37,1.51-3.82,4.18-6.84,5.51a12.74,12.74,0,0,1-7.59,1.3,14.94,14.94,0,0,1-6.73-2.74,26.13,26.13,0,0,1-4.86-4.82c-1.4-2-3.6-5.94-3.6-5.94s1.22,4,2,5.65a36.7,36.7,0,0,0,3.72,6.51c1.79,2.41,5.27,6.55,10.57,7.49a13.43,13.43,0,0,0,9.83-2,27.13,27.13,0,0,0,4-3.45,30.43,30.43,0,0,0,3.1-4.08c0.48-.75,1.26-2.27,1.26-2.27Z" transform="translate(-169.97 -400)"/></g><path class="cls-1" d="M345,400.66h22.15v4.09H349.59V418H366V422H349.59v17.29H345V400.66Z" transform="translate(-169.97 -400)"/><path class="cls-1" d="M374.34,420q0-9.61,3.39-14.81T388.18,400a13.66,13.66,0,0,1,6.53,1.44A11.48,11.48,0,0,1,399,405.5a18.29,18.29,0,0,1,2.37,6.3,42.92,42.92,0,0,1,.72,8.2q0,9.61-3.39,14.81T388.18,440a13.36,13.36,0,0,1-6.45-1.44,11.51,11.51,0,0,1-4.3-4.06,18.27,18.27,0,0,1-2.37-6.3A43,43,0,0,1,374.34,420Zm4.81,0a42.55,42.55,0,0,0,.41,6.08,17.32,17.32,0,0,0,1.47,5.06,9.37,9.37,0,0,0,2.77,3.48,7.06,7.06,0,0,0,4.38,1.3,7.41,7.41,0,0,0,7-3.87q2.19-3.87,2.19-12a42.74,42.74,0,0,0-.42-6.05,17.3,17.3,0,0,0-1.47-5.08,9.13,9.13,0,0,0-2.83-3.48,8.08,8.08,0,0,0-11.3,2.6Q379.14,411.88,379.14,420Z" transform="translate(-169.97 -400)"/><path class="cls-1" d="M410.36,401q2.09-.38,4.82-0.61t5-.22a20.55,20.55,0,0,1,4.82.55,11.2,11.2,0,0,1,4,1.82,9.26,9.26,0,0,1,2.78,3.32,10.79,10.79,0,0,1,1,5,10.13,10.13,0,0,1-.74,4,11.39,11.39,0,0,1-1.82,3,11.26,11.26,0,0,1-2.23,2,11.47,11.47,0,0,1-2,1.11l10.22,18.34h-5.36l-9.12-17h-6.87v17h-4.59V401Zm9.94,3.15h-1.49c-0.52,0-1,0-1.49.05l-1.35.11a5.49,5.49,0,0,0-1,.17v14.25h4.31a10.16,10.16,0,0,0,6.3-1.88Q428,415,428,411a6.47,6.47,0,0,0-2-4.92A8,8,0,0,0,420.3,404.2Z" transform="translate(-169.97 -400)"/></svg>
