<?xml version="1.0" encoding="utf-8"?>
<!-- Generator: Adobe Illustrator 19.0.0, SVG Export Plug-In . SVG Version: 6.00 Build 0)  -->
<svg version="1.1" id="Layer_1" xmlns="http://www.w3.org/2000/svg" xmlns:xlink="http://www.w3.org/1999/xlink" x="0px" y="0px"
	 viewBox="-159 121 960 560" style="enable-background:new -159 121 960 560;" xml:space="preserve">
<style type="text/css">
	.st0{fill:#455164;}
	.st1{opacity:0.3;fill:none;stroke:#000000;stroke-width:5;stroke-miterlimit:10;}
	.st2{fill:#F99D1C;}
	.st3{opacity:0.3;fill:none;stroke:#000000;stroke-width:3;stroke-miterlimit:10;}
	.st4{fill:#DE6525;}
	.st5{fill:#1073B3;}
	.st6{opacity:0.2;fill:#F0EBDD;}
	.st7{fill:#F0EBDD;}
	.st8{opacity:0.5;}
	.st9{fill:#BA3525;}
	.st10{clip-path:url(#SVGID_2_);fill:#ECF0F1;}
	.st11{clip-path:url(#SVGID_4_);fill:#ECF0F1;}
	.st12{clip-path:url(#SVGID_6_);fill:#F0EBDD;}
	.st13{clip-path:url(#SVGID_8_);fill:#FFFFFF;}
	.st14{clip-path:url(#SVGID_10_);fill:#FFFFFF;stroke:#FFFFFF;stroke-width:2;stroke-miterlimit:10;}
	.st15{clip-path:url(#SVGID_12_);fill:#FFFFFF;}
	.st16{fill:#FFFFFF;}
	.st17{fill:#ECF0F1;}
	.st18{fill:none;stroke:#ECF0F1;stroke-miterlimit:10;}
	.st19{fill:#FDFFFF;}
</style>
<g id="background">
	<rect id="XMLID_1_" x="-159" y="121" class="st0" width="960" height="560"/>
</g>
<g id="Layer_2">
	<circle class="st1" cx="119.5" cy="560.2" r="76"/>
	<circle class="st2" cx="119.5" cy="560.2" r="39.8"/>
	<circle class="st3" cx="119.5" cy="560.2" r="50.8"/>
	<circle class="st4" cx="164.5" cy="536.6" r="5.8"/>
	<circle class="st5" cx="44.6" cy="573.4" r="13.3"/>
	<circle class="st6" cx="569.2" cy="530.8" r="44.7"/>
	<circle class="st7" cx="569.2" cy="530.8" r="31.2"/>
	<circle class="st8" cx="556.8" cy="531.7" r="4.6"/>
	<circle class="st8" cx="565.4" cy="514.7" r="6.2"/>
	<circle class="st8" cx="566.1" cy="537.9" r="3.1"/>
	<g>
		<g>
			<g>
				<g>
					<path class="st9" d="M489.6,560.1c0.3-2.2,0.7-4.6,1.9-6.5c2.3,0.2,4.3,1.2,6.3,2.3c4.7,2.7,8.8,6.7,11,11.8
						c1.2,0.3,2.5,0.5,3.7,0.8c1.8,0.5,3.2,2,3.8,3.7c0.6,2.3,1.3,4.5,1.9,6.8c0.3,1.2-0.9,2.4-2.1,2.1c-2-0.5-3.9-1-5.9-1.4
						c-0.5,1.5-1.6,2.9-3,3.8c-1.6,1-3.7,1.1-5.5,0.6c-0.6,1.3-1.1,2.7-1.6,4c-0.3,0.6-0.4,1.3-0.8,1.9c-0.7,0.8-2.1,0.8-2.7,0
						c-1.5-1.8-2.9-3.5-4.4-5.3c-1.2-1.5-1.5-3.7-0.8-5.5c0.4-1,0.9-2,1.3-3c0.2-0.2-0.1-0.4-0.2-0.6
						C489.8,570.8,489,565.3,489.6,560.1z M494.1,565.6c-0.4,1.8,0.8,3.8,2.6,4.3c1.9,0.7,4.3-0.4,4.9-2.4c0.5-1.4,0.1-3.1-1-4.2
						c-1.1-1-2.7-1.3-4-0.8C495.3,563.1,494.3,564.3,494.1,565.6z"/>
				</g>
				<path class="st2" d="M503.4,588.5c-0.3-0.6,0.2-1.4,0.9-1.3c2.7,0,5.3-1.3,6.8-3.5c0.3-0.5,1.2-0.5,1.5,0
					c0.6,1.3,1.3,2.5,1.9,3.8c0.3,0.6-0.3,1.4-1,1.3c-0.5-0.1-1-0.3-1.6-0.5c0,1.4,0,2.7,0,4.1c0,0.6-0.8,1.1-1.4,0.7
					c-1.1-0.8-2.2-1.6-3.3-2.4c-0.2,0.5-0.3,1-0.5,1.5c-0.3,0.6-1.3,0.6-1.6,0C504.6,590.9,504,589.7,503.4,588.5z"/>
			</g>
		</g>
	</g>
</g>
<polyline id="XMLID_5_" class="st7" points="582.5,673 537.1,671 596.5,639 635.5,639 "/>
<g id="mountains">
</g>
<polygon id="XMLID_17_" class="st7" points="86.5,656.6 117.5,662 -91.9,673 -51.5,607.8 39.5,613.8 57.5,650.7 "/>
<g id="main-planet">
	<g id="XMLID_6_">
		<g>
			<g>
				<defs>
					<rect id="SVGID_1_" x="-365" y="401" width="1405.5" height="280"/>
				</defs>
				<clipPath id="SVGID_2_">
					<use xlink:href="#SVGID_1_"  style="overflow:visible;"/>
				</clipPath>
				<polygon id="XMLID_8_" class="st10" points="560.5,770 472.5,821.1 384.5,770 476.5,670 543.5,620 560.5,668 				"/>
			</g>
		</g>
		<g>
			<g>
				<defs>
					<rect id="SVGID_3_" x="-365" y="401" width="1405.5" height="280"/>
				</defs>
				<clipPath id="SVGID_4_">
					<use xlink:href="#SVGID_3_"  style="overflow:visible;"/>
				</clipPath>
				<polygon id="XMLID_9_" class="st11" points="207.5,656 23.5,813.1 -64.5,762 27.5,662 94.5,612 163.5,627 				"/>
			</g>
		</g>
		<g>
			<g>
				<defs>
					<rect id="SVGID_5_" x="-365" y="401" width="1405.5" height="280"/>
				</defs>
				<clipPath id="SVGID_6_">
					<use xlink:href="#SVGID_5_"  style="overflow:visible;"/>
				</clipPath>
				<polygon id="XMLID_3_" class="st12" points="504.5,683 408.5,824.1 320.5,773 320.5,671 441.5,603 477.5,617 				"/>
			</g>
		</g>
		<g>
			<g>
				<defs>
					<rect id="SVGID_7_" x="-365" y="401" width="1405.5" height="280"/>
				</defs>
				<clipPath id="SVGID_8_">
					<use xlink:href="#SVGID_7_"  style="overflow:visible;"/>
				</clipPath>
				<polygon id="XMLID_2_" class="st13" points="523.5,732 353.5,806.1 265.5,755 357.5,655 406.5,610 467.5,624.7 				"/>
			</g>
		</g>
		<g>
			<g>
				<defs>
					<rect id="SVGID_9_" x="-365" y="401" width="1405.5" height="280"/>
				</defs>
				<clipPath id="SVGID_10_">
					<use xlink:href="#SVGID_9_"  style="overflow:visible;"/>
				</clipPath>
				<path id="XMLID_4_" class="st14" d="M800.5,681c-195.7-23.1-410.2-35.5-442.6-35.5c-25.2,0-324.5,4.3-517.4,35.5H800.5z"/>
			</g>
		</g>
		<g>
			<g>
				<defs>
					<rect id="SVGID_11_" x="-365" y="401" width="1405.5" height="280"/>
				</defs>
				<clipPath id="SVGID_12_">
					<use xlink:href="#SVGID_11_"  style="overflow:visible;"/>
				</clipPath>
				<polygon id="XMLID_7_" class="st15" points="523.5,780 435.5,831.1 347.5,780 439.5,680 495.2,620.7 543.5,620 				"/>
			</g>
		</g>
	</g>
	<polyline id="XMLID_10_" class="st16" points="27.5,662 93.5,602 163.5,627 174.5,662 	"/>
	<polygon id="XMLID_13_" class="st17" points="237.5,671 262.5,634 346.7,667 	"/>
	<line id="XMLID_12_" class="st18" x1="346.7" y1="667" x2="237.5" y2="671"/>
	<polygon id="XMLID_11_" class="st19" points="228.5,673 287.5,624.7 351.8,669 	"/>
	<path id="XMLID_16_" class="st18" d="M351.8,671"/>
	<path id="XMLID_15_" class="st18" d="M228.5,673"/>
</g>
<polyline id="XMLID_14_" class="st16" points="582.5,678.8 648.5,618.8 718.5,643.8 729.5,678.8 "/>
<rect x="-145.8" y="678.8" class="st16" width="923.9" height="13.8"/>
<polyline id="XMLID_18_" class="st16" points="-122.5,678.8 -49,624.7 12.8,602 83.2,656 "/>
</svg>
