<?xml version="1.0" encoding="utf-8"?>
<!-- Generator: Adobe Illustrator 19.0.0, SVG Export Plug-In . SVG Version: 6.00 Build 0)  -->
<svg version="1.1" id="Layer_1" xmlns="http://www.w3.org/2000/svg" xmlns:xlink="http://www.w3.org/1999/xlink" x="0px" y="0px"
	 viewBox="0 0 1600 400" style="enable-background:new 0 0 1600 400;" xml:space="preserve">
<style type="text/css">
	.st0{fill:transparent;}
	.st1{fill:#ECF0F1;}
	.st2{fill:none;stroke:#ECF0F1;stroke-width:88.8889;}
	.st3{fill:none;stroke:#F99D1C;stroke-width:66.6667;}
	.st4{fill:none;stroke:#D02E27;stroke-width:66.6667;}
	.st5{fill:#F99D1C;}
	.st6{fill:#D02E27;}
	.st7{fill:none;stroke:#30B4C5;stroke-width:66.6667;}
	.st8{fill:none;stroke:#694D9F;stroke-width:66.6667;}
	.st9{fill:#694D9F;}
	.st10{fill:#30B4C5;}
	.st11{fill:#FFFFFF;}
</style>
<rect id="XMLID_30_" class="st0" width="1600" height="400"/>
<g id="XMLID_1_">
	<title>W3C developers</title>
	<circle id="XMLID_27_" class="st1" cx="112.7" cy="200" r="44.4"/>
	<circle id="XMLID_26_" class="st1" cx="218.2" cy="94.4" r="44.4"/>
	<circle id="XMLID_25_" class="st1" cx="218.2" cy="305.6" r="44.4"/>
	<line id="XMLID_24_" class="st2" x1="112.7" y1="200" x2="218.2" y2="94.4"/>
	<line id="XMLID_23_" class="st2" x1="112.7" y1="200" x2="218.2" y2="305.6"/>
	<line id="XMLID_22_" class="st3" x1="112.7" y1="200" x2="218.2" y2="94.4"/>
	<line id="XMLID_21_" class="st4" x1="112.7" y1="200" x2="218.2" y2="305.6"/>
	<circle id="XMLID_20_" class="st5" cx="218.2" cy="94.4" r="33.3"/>
	<circle id="XMLID_19_" class="st6" cx="112.7" cy="200" r="33.3"/>
	<circle id="XMLID_18_" class="st6" cx="218.2" cy="305.6" r="33.3"/>
	<circle id="XMLID_17_" class="st1" cx="112.7" cy="200" r="16.7"/>
	<circle id="XMLID_16_" class="st1" cx="218.2" cy="94.4" r="16.7"/>
	<circle id="XMLID_15_" class="st1" cx="218.2" cy="305.6" r="16.7"/>
	<circle id="XMLID_14_" class="st1" cx="423.8" cy="200" r="44.4"/>
	<circle id="XMLID_13_" class="st1" cx="318.2" cy="94.4" r="44.4"/>
	<circle id="XMLID_12_" class="st1" cx="318.2" cy="305.6" r="44.4"/>
	<line id="XMLID_11_" class="st2" x1="423.8" y1="200" x2="318.2" y2="94.4"/>
	<line id="XMLID_10_" class="st2" x1="423.8" y1="200" x2="318.2" y2="305.6"/>
	<line id="XMLID_9_" class="st7" x1="423.8" y1="200" x2="318.2" y2="94.4"/>
	<line id="XMLID_8_" class="st8" x1="423.8" y1="200" x2="318.2" y2="305.6"/>
	<circle id="XMLID_7_" class="st9" cx="423.8" cy="200" r="33.3"/>
	<circle id="XMLID_6_" class="st10" cx="318.2" cy="94.4" r="33.3"/>
	<circle id="XMLID_5_" class="st9" cx="318.2" cy="305.6" r="33.3"/>
	<circle id="XMLID_4_" class="st1" cx="423.8" cy="200" r="16.7"/>
	<circle id="XMLID_3_" class="st1" cx="318.2" cy="94.4" r="16.7"/>
	<circle id="XMLID_2_" class="st1" cx="318.2" cy="305.6" r="16.7"/>
</g>
<g id="XMLID_31_">
	<path id="XMLID_32_" class="st11" d="M623.8,134.9c17.3,0,31.2,5.3,41.8,16c10.5,10.7,15.8,24.4,15.8,41.3v18.1
		c0,16.9-5.3,30.7-15.8,41.3c-10.5,10.6-24.5,15.9-41.8,15.9h-55.6V256l14.8-2.6V149l-14.8-2.6v-11.6h14.8H623.8z M601,149v104.5
		h22.8c12.3,0,21.9-4,29-12.1c7.1-8.1,10.6-18.4,10.6-31.1V192c0-12.5-3.5-22.8-10.6-30.9c-7.1-8.1-16.7-12.1-29-12.1H601z"/>
	<path id="XMLID_35_" class="st11" d="M744.1,269.4c-13.7,0-24.6-4.6-32.7-13.7c-8.1-9.1-12.2-21-12.2-35.6v-4
		c0-14,4.2-25.7,12.5-35c8.3-9.3,18.2-14,29.7-14c13.2,0,23.3,4,30.1,12c6.8,8,10.2,18.7,10.2,32.1v11.2h-63.9l-0.3,0.5
		c0.2,9.5,2.6,17.3,7.2,23.4c4.6,6.1,11.1,9.2,19.4,9.2c6.1,0,11.4-0.9,16-2.6c4.6-1.7,8.5-4.1,11.9-7.2l7,11.7
		c-3.5,3.4-8.2,6.3-14,8.6C759.2,268.3,752.2,269.4,744.1,269.4z M741.4,181.2c-6,0-11.1,2.5-15.4,7.6c-4.3,5.1-6.9,11.4-7.8,19.1
		l0.2,0.5h45.5V206c0-7-1.9-12.9-5.6-17.7C754.4,183.6,748.8,181.2,741.4,181.2z"/>
	<path id="XMLID_38_" class="st11" d="M832,180.5l-11.8,1.8l20.3,56.1l1.6,7.1h0.5l1.7-7.1l19.7-56.1l-11.9-1.8V169h38.1v11.6
		l-8.1,1.4L849,267.5h-13.6L802,181.9l-8.1-1.4V169H832V180.5z"/>
	<path id="XMLID_40_" class="st11" d="M946.2,269.4c-13.7,0-24.6-4.6-32.7-13.7c-8.1-9.1-12.2-21-12.2-35.6v-4
		c0-14,4.2-25.7,12.5-35c8.3-9.3,18.2-14,29.7-14c13.2,0,23.3,4,30.1,12c6.8,8,10.2,18.7,10.2,32.1v11.2h-63.9l-0.3,0.5
		c0.2,9.5,2.6,17.3,7.2,23.4c4.6,6.1,11.1,9.2,19.4,9.2c6.1,0,11.4-0.9,16-2.6c4.6-1.7,8.5-4.1,11.9-7.2l7,11.7
		c-3.5,3.4-8.2,6.3-14,8.6C961.3,268.3,954.3,269.4,946.2,269.4z M943.4,181.2c-6,0-11.1,2.5-15.4,7.6c-4.3,5.1-6.9,11.4-7.8,19.1
		l0.2,0.5h45.5V206c0-7-1.9-12.9-5.6-17.7C956.4,183.6,950.8,181.2,943.4,181.2z"/>
	<path id="XMLID_43_" class="st11" d="M999,137v-11.6h32.8v128.1l14.8,2.6v11.5H999V256l14.8-2.6v-114L999,137z"/>
	<path id="XMLID_45_" class="st11" d="M1058.5,217.3c0-14.6,3.9-26.6,11.8-36c7.9-9.4,18.6-14.2,32.2-14.2
		c13.6,0,24.4,4.7,32.3,14.1c7.9,9.4,11.9,21.4,11.9,36.1v2c0,14.7-3.9,26.7-11.8,36.1c-7.9,9.4-18.6,14-32.2,14
		c-13.7,0-24.4-4.7-32.3-14.1c-7.9-9.4-11.8-21.4-11.8-36V217.3z M1076.4,219.3c0,10.4,2.2,19.1,6.6,25.9
		c4.4,6.8,10.9,10.2,19.6,10.2c8.5,0,15-3.4,19.4-10.2c4.4-6.8,6.6-15.4,6.6-25.9v-2c0-10.3-2.2-18.9-6.6-25.8
		c-4.4-6.9-11-10.3-19.6-10.3c-8.6,0-15.1,3.4-19.5,10.3c-4.4,6.9-6.6,15.5-6.6,25.8V219.3z"/>
	<path id="XMLID_48_" class="st11" d="M1160.9,293.8l14.8-2.6V183.1l-14.8-2.6V169h30.2l1.6,12c3.3-4.5,7.3-7.9,12-10.3
		c4.7-2.4,10.2-3.6,16.4-3.6c12.2,0,21.7,4.8,28.5,14.5c6.8,9.7,10.2,22.5,10.2,38.4v1.9c0,14.2-3.4,25.7-10.2,34.4
		c-6.8,8.7-16.2,13.1-28.1,13.1c-6.1,0-11.4-1-16-3.1c-4.6-2-8.5-5.1-11.7-9.1v34l14.8,2.6v11.6h-47.6V293.8z M1241.7,220.1
		c0-11.2-2.2-20.4-6.6-27.6c-4.4-7.2-10.9-10.7-19.5-10.7c-5.1,0-9.5,1.2-13.1,3.5c-3.6,2.3-6.6,5.5-8.8,9.5v48
		c2.2,4.1,5.2,7.2,8.8,9.4c3.6,2.2,8.1,3.3,13.3,3.3c8.5,0,14.9-3.1,19.3-9.3c4.4-6.2,6.6-14.2,6.6-24.1V220.1z"/>
	<path id="XMLID_51_" class="st11" d="M1321,269.4c-13.7,0-24.6-4.6-32.7-13.7c-8.1-9.1-12.2-21-12.2-35.6v-4c0-14,4.2-25.7,12.5-35
		c8.3-9.3,18.2-14,29.7-14c13.2,0,23.3,4,30.1,12c6.8,8,10.2,18.7,10.2,32.1v11.2h-63.9l-0.3,0.5c0.2,9.5,2.6,17.3,7.2,23.4
		c4.6,6.1,11.1,9.2,19.4,9.2c6.1,0,11.4-0.9,16-2.6c4.6-1.7,8.5-4.1,11.9-7.2l7,11.7c-3.5,3.4-8.2,6.3-14,8.6
		C1336.1,268.3,1329.1,269.4,1321,269.4z M1318.3,181.2c-6,0-11.1,2.5-15.4,7.6c-4.3,5.1-6.9,11.4-7.8,19.1l0.2,0.5h45.5V206
		c0-7-1.9-12.9-5.6-17.7C1331.3,183.6,1325.7,181.2,1318.3,181.2z"/>
	<path id="XMLID_54_" class="st11" d="M1376.3,180.5V169h30.9l1.7,14.3c2.8-5,6.2-9,10.3-11.8c4.1-2.9,8.8-4.3,14.1-4.3
		c1.4,0,2.8,0.1,4.3,0.3c1.5,0.2,2.6,0.4,3.4,0.7l-2.4,16.7l-10.2-0.5c-4.7,0-8.7,1.1-11.9,3.3c-3.2,2.2-5.7,5.3-7.5,9.3v56.6
		l14.8,2.6v11.5h-47.6V256l14.8-2.6v-70.4L1376.3,180.5z"/>
	<path id="XMLID_56_" class="st11" d="M1528.9,199.9h-13.5l-2.9-11.8c-2.2-2.1-4.9-3.7-8.2-5c-3.3-1.2-7.1-1.9-11.2-1.9
		c-6.4,0-11.1,1.4-14.2,4.2c-3.1,2.8-4.6,6.2-4.6,10.1c0,3.9,1.4,7,4.1,9.2c2.7,2.2,8.3,4.3,16.7,6c12.4,2.7,21.7,6.3,27.8,10.9
		c6.1,4.6,9.1,10.7,9.1,18.4c0,8.7-3.5,15.8-10.6,21.2c-7.1,5.4-16.3,8.1-27.7,8.1c-7.5,0-14.2-0.9-20.1-2.6
		c-6-1.7-11.3-4.2-15.9-7.5l-0.1-22.5h13.5l3.4,13.2c2.1,1.9,4.9,3.2,8.4,4.1c3.6,0.9,7.2,1.3,10.9,1.3c6.4,0,11.4-1.3,15-3.9
		c3.6-2.6,5.4-6,5.4-10.2c0-3.9-1.5-7.2-4.5-9.7c-3-2.6-8.7-4.8-17.1-6.6c-12-2.6-21-6.2-27.1-10.7c-6.1-4.5-9.1-10.6-9.1-18.2
		c0-8,3.4-14.8,10.2-20.5c6.8-5.6,15.7-8.5,26.6-8.5c7.5,0,14.2,1,20.1,2.9c6,1.9,10.9,4.6,14.8,8.1L1528.9,199.9z"/>
</g>
</svg>
