<?xml version="1.0" standalone="no"?>
<!DOCTYPE svg PUBLIC "-//W3C//DTD SVG 20010904//EN"
 "http://www.w3.org/TR/2001/REC-SVG-20010904/DTD/svg10.dtd">
<svg version="1.0" xmlns="http://www.w3.org/2000/svg"
 width="1000.000000pt" height="350.000000pt" viewBox="0 0 1000.000000 350.000000"
 preserveAspectRatio="xMidYMid meet">
<metadata>
Created by potrace 1.11, written by Peter Selinger 2001-2013
</metadata>
<g transform="translate(0.000000,350.000000) scale(0.100000,-0.100000)"
fill="#000000" stroke="none">
<path d="M0 1750 l0 -1750 5000 0 5000 0 0 1750 0 1750 -5000 0 -5000 0 0
-1750z m1676 1124 c19 -9 41 -29 49 -45 19 -36 19 -102 1 -137 -8 -15 -98
-110 -200 -212 l-186 -185 200 -200 200 -201 0 -58 c0 -53 -3 -61 -34 -92 -31
-31 -39 -34 -92 -34 l-59 0 -262 263 -263 262 0 53 c0 29 6 65 14 80 20 37
474 487 511 506 39 20 78 20 121 0z m914 -393 l0 -409 50 -12 c49 -12 50 -12
50 -51 l0 -39 -104 0 -103 0 -7 32 c-6 29 -7 30 -24 15 -61 -56 -198 -74 -278
-38 -175 79 -195 436 -32 575 58 50 129 69 235 64 l83 -4 0 87 0 87 -50 12
c-49 12 -50 12 -50 51 l0 39 115 0 115 0 0 -409z m2330 0 l0 -408 60 -17 c58
-17 60 -18 60 -52 l0 -34 -176 0 -175 0 3 37 c3 35 6 38 51 51 l47 13 0 359 0
358 -50 12 c-49 12 -50 12 -50 51 l0 39 115 0 115 0 0 -409z m3967 146 l263
-262 0 -53 c0 -29 -6 -65 -14 -80 -22 -41 -487 -499 -519 -511 -61 -23 -137 0
-162 50 -19 36 -19 102 -1 137 8 15 98 110 200 212 l186 185 -200 200 -200
201 0 58 c0 53 3 61 34 92 31 31 39 34 92 34 l59 0 262 -263z m-5736 -18 c51
-18 97 -56 120 -101 25 -50 42 -149 34 -200 l-7 -38 -204 0 -204 0 0 -32 c1
-78 67 -161 137 -172 46 -8 129 7 191 34 48 22 47 22 74 -24 13 -23 -7 -41
-92 -84 -49 -24 -66 -27 -155 -27 -84 0 -107 4 -141 22 -97 52 -146 152 -146
296 1 199 120 337 293 337 36 0 81 -5 100 -11z m1310 0 c51 -18 97 -56 120
-101 25 -50 42 -149 34 -200 l-7 -38 -204 0 -204 0 0 -32 c1 -78 67 -161 137
-172 46 -8 129 7 191 34 48 22 47 22 74 -24 13 -23 -7 -41 -92 -84 -49 -24
-66 -27 -155 -27 -84 0 -107 4 -141 22 -97 52 -146 152 -146 296 1 199 120
337 293 337 36 0 81 -5 100 -11z m1041 -5 c60 -20 114 -73 147 -143 22 -49 25
-69 25 -156 0 -164 -50 -257 -169 -316 -60 -29 -70 -31 -147 -27 -93 5 -133
21 -191 76 -54 52 -78 125 -78 237 -1 122 25 192 96 261 30 30 70 58 96 67 58
20 164 21 221 1z m767 -10 c92 -46 133 -134 134 -289 1 -124 -24 -196 -88
-260 -63 -63 -137 -88 -247 -83 l-88 4 0 -87 0 -88 60 -12 60 -12 0 -38 0 -39
-176 0 -175 0 3 37 c3 35 6 38 51 52 l47 15 0 357 0 357 -50 12 c-49 12 -50
12 -50 51 l0 39 105 0 105 0 0 -30 c0 -36 3 -37 43 -6 73 54 181 62 266 20z
m632 15 c51 -18 97 -56 120 -101 25 -50 42 -149 34 -200 l-7 -38 -204 0 -204
0 0 -32 c1 -78 67 -161 137 -172 46 -8 129 7 191 34 48 22 47 22 74 -24 13
-23 -7 -41 -92 -84 -49 -24 -66 -27 -155 -27 -84 0 -107 4 -141 22 -97 52
-146 152 -146 296 1 199 120 337 293 337 36 0 81 -5 100 -11z m713 1 c23 -8
26 -15 26 -57 0 -27 -3 -65 -6 -85 -6 -36 -8 -38 -45 -38 -34 0 -39 3 -45 28
-14 62 -14 62 -42 56 -50 -12 -70 -23 -106 -54 l-36 -32 0 -178 0 -178 58 -14
c56 -13 57 -15 60 -51 l3 -37 -175 0 -176 0 0 34 c0 34 2 36 55 52 l55 18 0
216 0 217 -52 14 c-51 14 -53 15 -53 49 l0 35 101 3 101 3 7 -42 7 -42 32 31
c18 17 48 38 67 46 40 17 126 21 164 6z m479 -11 l37 -12 0 -84 0 -83 -43 0
c-43 0 -43 1 -53 42 -8 39 -12 43 -49 51 -50 10 -114 1 -137 -20 -23 -21 -23
-68 1 -92 17 -17 119 -61 142 -61 12 0 98 -45 119 -62 48 -39 65 -118 39 -185
-17 -45 -69 -91 -126 -113 -61 -23 -185 -26 -268 -6 l-50 11 -3 93 -3 92 45 0
c48 0 56 -9 56 -65 0 -32 1 -33 50 -40 117 -16 202 31 184 101 -8 29 -46 50
-163 89 -102 33 -155 80 -166 144 -17 99 33 180 133 212 36 12 207 4 255 -12z
m-4465 -31 c-3 -40 -5 -43 -33 -46 -16 -2 -34 -7 -38 -11 -4 -4 23 -101 60
-215 l67 -208 68 204 c37 111 68 206 68 209 0 4 -17 11 -37 16 -36 8 -38 11
-38 48 l0 40 138 3 138 3 -3 -43 c-3 -38 -6 -43 -30 -46 -14 -2 -31 -9 -36
-15 -5 -7 -53 -130 -107 -275 l-98 -263 -70 3 -70 3 -96 264 c-92 255 -97 265
-128 278 -28 11 -33 18 -33 46 0 19 3 37 7 40 3 4 67 7 140 7 l134 0 -3 -42z
m3096 -1465 c34 -117 64 -214 67 -217 2 -3 23 59 45 137 l41 142 -18 65 c-26
91 -26 90 30 90 l48 0 64 -220 c35 -120 67 -216 70 -212 3 4 25 75 49 157 23
83 51 178 62 213 l19 62 184 0 185 0 0 -25 c0 -14 -30 -78 -67 -142 -57 -99
-64 -117 -50 -124 38 -22 79 -64 100 -103 28 -54 30 -193 3 -246 -42 -81 -99
-120 -176 -120 -77 0 -135 39 -175 118 -19 39 -21 35 27 55 l38 16 22 -32 c31
-45 48 -56 84 -57 42 0 72 35 86 101 22 104 -23 176 -116 186 -40 5 -46 9 -46
29 0 13 27 71 60 128 33 57 60 107 60 110 0 3 -32 6 -70 6 -58 0 -72 -3 -77
-17 -4 -10 -48 -157 -98 -327 -50 -170 -96 -311 -101 -313 -6 -2 -39 92 -75
217 -35 121 -66 220 -69 220 -3 0 -29 -85 -59 -188 -63 -218 -78 -259 -90
-246 -7 7 -194 636 -217 727 l-6 28 52 -3 53 -3 61 -212z m1238 165 c4 -32 -2
-56 -20 -93 -13 -27 -26 -52 -28 -54 -2 -2 -15 11 -30 28 -56 66 -104 72 -161
18 -47 -44 -68 -106 -68 -204 0 -84 -10 -95 -26 -27 -14 63 -10 173 9 233 21
70 85 141 126 141 38 0 66 -16 102 -56 l30 -35 24 50 c12 28 26 48 30 46 5 -3
10 -24 12 -47z m152 31 c51 -40 23 -129 -42 -129 -61 0 -95 56 -67 109 23 46
66 54 109 20z m-2134 -496 c0 -44 3 -54 12 -45 17 17 79 15 105 -3 49 -34 49
-146 0 -180 -26 -18 -88 -20 -106 -2 -11 10 -14 10 -18 0 -3 -7 -11 -13 -19
-13 -11 0 -14 27 -14 150 0 143 1 150 20 150 18 0 20 -7 20 -57z m1700 -133
c45 -32 123 -38 170 -12 19 10 51 40 70 65 37 50 48 46 49 -14 1 -35 -78 -124
-122 -138 -42 -14 -98 -8 -136 15 -34 20 -84 85 -106 138 -24 57 -17 63 14 14
16 -25 43 -55 61 -68z m-1449 13 l33 -86 29 86 c23 70 32 87 49 87 23 0 24 4
-38 -159 -50 -131 -64 -151 -111 -151 -43 0 -44 23 -1 35 55 16 57 47 13 156
-20 52 -39 100 -42 107 -3 7 3 12 15 12 17 0 27 -17 53 -87z"/>
<path d="M2277 2506 c-82 -30 -112 -93 -111 -226 1 -127 33 -191 106 -210 55
-15 105 -3 150 38 l38 34 0 178 c0 145 -3 179 -14 183 -38 15 -133 16 -169 3z"/>
<path d="M2994 2510 c-34 -11 -94 -71 -94 -95 0 -7 -3 -20 -6 -29 -5 -14 10
-16 135 -16 l141 0 0 26 c0 35 -25 86 -50 101 -27 18 -90 24 -126 13z"/>
<path d="M4304 2510 c-34 -11 -94 -71 -94 -95 0 -7 -3 -20 -6 -29 -5 -14 10
-16 135 -16 l141 0 0 26 c0 35 -25 86 -50 101 -27 18 -90 24 -126 13z"/>
<path d="M5325 2505 c-78 -28 -109 -100 -103 -237 4 -110 26 -155 91 -187 92
-45 189 -2 218 96 22 76 17 200 -10 256 -35 72 -115 102 -196 72z"/>
<path d="M6070 2509 c-19 -6 -47 -22 -62 -37 l-28 -26 0 -183 0 -183 28 -7
c53 -15 145 -9 181 12 55 32 76 84 79 200 3 88 0 105 -20 144 -39 75 -100 103
-178 80z"/>
<path d="M6744 2510 c-34 -11 -94 -71 -94 -95 0 -7 -3 -20 -6 -29 -5 -14 10
-16 135 -16 l141 0 0 26 c0 35 -25 86 -50 101 -27 18 -90 24 -126 13z"/>
</g>
</svg>
