<svg xmlns="http://www.w3.org/2000/svg" viewBox="0 0 340 260" xmlns:xlink="http://www.w3.org/1999/xlink">
     
  <title>W3C developers</title>
  <svg id="logo" width="340" height="260">
      
      <!--
        
        left bracket

        -->
      <circle cx="35" cy="130" r="35" fill="white"/>
      <circle cx="130" cy="35" r="35" fill="white"/>
      <circle cx="130" cy="225" r="35" fill="white"/>
      <line x1="35" y1="130" x2="130" y2="35" stroke-width="70" stroke="white"/>
      <line x1="35" y1="130" x2="130" y2="225" stroke-width="70" stroke="white"/>
      <line x1="35" y1="130" x2="130" y2="35" stroke-width="60" stroke="#F99D1C"/>
      <line x1="35" y1="130" x2="130" y2="225" stroke-width="60" stroke="#D02E27"/>
      <circle cx="130" cy="35" r="30" fill="#F99D1C"/>
      <circle cx="35" cy="130" r="30" fill="#D02E27"/>
      <circle cx="130" cy="225" r="30" fill="#D02E27"/>
      <circle cx="35" cy="130" r="15" fill="white"/>
      <circle cx="130" cy="35" r="15" fill="white"/>
      <circle cx="130" cy="225" r="15" fill="white"/>
      
      <!--
        
        right bracket

        -->
      <circle cx="305" cy="130" r="35" fill="white"/>
      <circle cx="210" cy="35" r="35" fill="white"/>
      <circle cx="210" cy="225" r="35" fill="white"/>
      <line x1="305" y1="130" x2="210" y2="35" stroke-width="70" stroke="white"/>
      <line x1="305" y1="130" x2="210" y2="225" stroke-width="70" stroke="white"/>
      <line x1="305" y1="130" x2="210" y2="35" stroke-width="60" stroke="#30B4C5"/>
      <line x1="305" y1="130" x2="210" y2="225" stroke-width="60" stroke="#694D9F"/>
      <circle cx="305" cy="130" r="30" fill="#694D9F"/>
      <circle cx="210" cy="35" r="30" fill="#30B4C5"/>
      <circle cx="210" cy="225" r="30" fill="#694D9F"/>
      <circle cx="305" cy="130" r="15" fill="white"/>
      <circle cx="210" cy="35" r="15" fill="white"/>
      <circle cx="210" cy="225" r="15" fill="white"/>
      
  </svg>
</svg>