<?xml version="1.0" encoding="utf-8"?>
<!-- Generator: Adobe Illustrator 19.0.0, SVG Export Plug-In . SVG Version: 6.00 Build 0)  -->
<svg version="1.1" id="Layer_1" xmlns="http://www.w3.org/2000/svg" xmlns:xlink="http://www.w3.org/1999/xlink" x="0px" y="0px"
	 viewBox="0 0 400 400" style="enable-background:new 0 0 400 400;" xml:space="preserve">
<style type="text/css">
	.st0{fill:#333C4E;}
	.st1{fill:#ECF0F1;}
	.st2{fill:#86B8C6;}
	.st3{fill:#FF6699;}
	.st4{fill:#F7F7F7;}
</style>
<circle id="XMLID_7_" class="st0" cx="200" cy="200" r="200"/>
<path id="XMLID_1_" class="st1" d="M257.1,186.9c0,48.5-1.6,69.6-72.8,69.6S75,235.4,75,186.9s19.8-69.6,91-69.6
	S257.1,138.4,257.1,186.9z"/>
<circle id="XMLID_3_" class="st2" cx="143.2" cy="187" r="9.1"/>
<circle id="XMLID_4_" class="st2" cx="170.7" cy="189" r="7.2"/>
<circle id="XMLID_5_" class="st2" cx="196.5" cy="186.3" r="8.4"/>
<path id="XMLID_2_" class="st3" d="M325,213.5c0,39.9-32,65.3-81.4,65.3S189,266.3,189,226.4s17.5-61.1,66.9-61.1
	S325,173.6,325,213.5z"/>
<polygon id="XMLID_9_" class="st1" points="152.3,254.4 120.6,278.8 109.4,243.2 115.9,218.4 140.6,211.7 158.8,229.6 "/>
<polygon id="XMLID_10_" class="st3" points="304.6,251.2 305.8,282.8 274.2,269.4 264,251.2 274.2,233 294.5,233 "/>
<path id="XMLID_11_" class="st4" d="M265.9,207c-3.7,0-6.9,1.8-8.9,4.5c-2-2.7-5.2-4.5-8.9-4.5c-6.1,0-11.1,4.9-11.1,11.1
	c0,1.5,0.3,2.9,0.8,4.3l0,0c0.4,0.9,0.9,1.8,1.5,2.6l17.5,18.2c5.9-5.9,12.4-12.8,17.7-18.3c0.6-0.8,1.1-1.6,1.5-2.6l0,0
	c0.5-1.3,0.8-2.7,0.8-4.3C276.9,211.9,272,207,265.9,207z"/>
</svg>
