<?xml version="1.0" encoding="utf-8"?>
<!-- Generator: Adobe Illustrator 19.0.0, SVG Export Plug-In . SVG Version: 6.00 Build 0)  -->
<svg version="1.1" id="Layer_1" xmlns="http://www.w3.org/2000/svg" xmlns:xlink="http://www.w3.org/1999/xlink" x="0px" y="0px"
	 viewBox="0 0 1200 800" style="enable-background:new 0 0 1200 800;" xml:space="preserve">
<style type="text/css">
	.st0{fill:#333C4E;}
	.st1{fill:#455164;}
	.st2{fill:#FE6A65;}
	.st3{opacity:0.5;fill:#444444;}
	.st4{fill:#F7F7F7;}
	.st5{fill:#EEEEEE;}
	.st6{fill:#333333;}
	.st7{fill:#ECF0F1;}
	.st8{fill:#86B8C6;}
	.st9{fill:#E96666;}
</style>
<path id="XMLID_2_" class="st0" d="M980,120H220c-11,0-20,9-20,20v480h800V140C1000,129,991,120,980,120z"/>
<path id="XMLID_3_" class="st1" d="M952.5,582.5h-705c-5.5,0-10-4.5-10-10v-405c0-5.5,4.5-10,10-10h705c5.5,0,10,4.5,10,10v405
	C962.5,578,958,582.5,952.5,582.5z"/>
<path id="XMLID_8_" class="st2" d="M962.5,215h-725v-47.5c0-5.5,4.5-10,10-10h705c5.5,0,10,4.5,10,10V215z"/>
<circle id="XMLID_6_" class="st3" cx="331.5" cy="291.5" r="40"/>
<circle id="XMLID_5_" class="st2" cx="327.5" cy="287.5" r="40"/>
<path id="XMLID_7_" class="st4" d="M898,430.5H436c-2.8,0-5-2.2-5-5v-70c0-2.8,2.2-5,5-5h462c2.8,0,5,2.2,5,5v70
	C903,428.3,900.8,430.5,898,430.5z"/>
<path id="XMLID_9_" class="st4" d="M898,542.5H436c-2.8,0-5-2.2-5-5v-70c0-2.8,2.2-5,5-5h462c2.8,0,5,2.2,5,5v70
	C903,540.3,900.8,542.5,898,542.5z"/>
<path id="XMLID_1_" class="st5" d="M1090,680H110c-5.5,0-10-4.5-10-10v-40c0-5.5,4.5-10,10-10h980c5.5,0,10,4.5,10,10v40
	C1100,675.5,1095.5,680,1090,680z"/>
<path id="XMLID_4_" class="st3" d="M680,640H520c-11,0-20-9-20-20l0,0h200l0,0C700,631,691,640,680,640z"/>
<rect id="XMLID_25_" x="104.5" y="659" class="st5" width="991.1" height="68.6"/>
<rect id="XMLID_26_" x="43.3" y="5.9" class="st6" width="1107.2" height="779.7"/>
<g id="XMLID_27_">
	<path id="XMLID_36_" class="st7" d="M907.8,395.3c0,19.4-0.6,27.8-29.1,27.8s-43.7-8.4-43.7-27.8s7.9-27.8,36.4-27.8
		C899.9,367.4,907.8,375.9,907.8,395.3"/>
	<path id="XMLID_35_" class="st8" d="M865.9,395.3c0,2-1.6,3.6-3.6,3.6c-2,0-3.6-1.6-3.6-3.6s1.6-3.6,3.6-3.6
		C864.3,391.7,865.9,393.3,865.9,395.3"/>
	<path id="XMLID_34_" class="st8" d="M876.1,396.1c0,1.6-1.3,2.9-2.9,2.9c-1.6,0-2.9-1.3-2.9-2.9c0-1.6,1.3-2.9,2.9-2.9
		C874.8,393.2,876.1,394.5,876.1,396.1"/>
	<path id="XMLID_33_" class="st8" d="M886.9,395c0,1.8-1.5,3.3-3.3,3.3c-1.8,0-3.3-1.5-3.3-3.3c0-1.8,1.5-3.3,3.3-3.3
		C885.4,391.7,886.9,393.2,886.9,395"/>
	<path id="XMLID_32_" class="st9" d="M935,405.9c0,16-12.8,26.1-32.6,26.1c-19.8,0-21.9-5-21.9-21c0-16,7-24.4,26.8-24.4
		C927.1,386.6,935,389.9,935,405.9"/>
	<polygon id="XMLID_31_" class="st7" points="865.9,422.3 853.3,432 848.8,417.8 851.4,407.9 861.2,405.2 868.5,412.4 	"/>
	<polygon id="XMLID_30_" class="st9" points="926.9,420.9 927.3,433.6 914.7,428.2 910.6,420.9 914.7,413.5 922.8,413.5 	"/>
	<path id="XMLID_29_" class="st4" d="M911.3,403.3c-1.5,0-2.8,0.7-3.6,1.8c-0.8-1.1-2.1-1.8-3.5-1.8c-2.4,0-4.4,2-4.4,4.4
		c0,0.6,0.1,1.2,0.3,1.7l0,0c0.2,0.4,0.4,0.7,0.6,1l7,7.3c2.3-2.3,5-5.1,7.1-7.3c0.2-0.3,0.5-0.7,0.6-1l0,0c0.2-0.5,0.3-1.1,0.3-1.7
		C915.8,405.3,913.8,403.3,911.3,403.3"/>
</g>
</svg>
