<?xml version="1.0" encoding="utf-8"?>
<!-- Generator: Adobe Illustrator 19.0.0, SVG Export Plug-In . SVG Version: 6.00 Build 0)  -->
<svg version="1.1" id="Layer_1" xmlns="http://www.w3.org/2000/svg" xmlns:xlink="http://www.w3.org/1999/xlink" x="0px" y="0px"
	 viewBox="0 0 400 400" style="enable-background:new 0 0 400 400;" xml:space="preserve">
<style type="text/css">
	.st0{fill:#EE677E;}
	.st1{fill:#FFFFFF;}
</style>
<circle id="XMLID_7_" class="st0" cx="200" cy="200" r="175"/>
<g id="XMLID_1_">
	<path id="XMLID_2_" class="st1" d="M198.1,251c11.4-11.4,11.4-30,0-41.4s-30-11.4-41.4,0l0,0c-11.4-11.4-30-11.4-41.4,0
		s-11.4,30,0,41.4l10.4,10.4l10.4,10.4l20.7,20.7l19.5-19.5c0.4-0.4,0.8-0.8,1.3-1.3L198.1,251z"/>
</g>
<g id="XMLID_3_">
	<path id="XMLID_4_" class="st1" d="M198.7,164.6c5.7-5.7,5.7-15,0-20.7c-5.7-5.7-15-5.7-20.7,0l0,0c-5.7-5.7-15-5.7-20.7,0
		c-5.7,5.7-5.7,15,0,20.7l5.2,5.2l5.2,5.2l10.4,10.4l9.7-9.7c0.2-0.2,0.4-0.4,0.6-0.6L198.7,164.6z"/>
</g>
<g id="XMLID_5_">
	<path id="XMLID_6_" class="st1" d="M247.2,191.3c4.6-4.6,4.6-12,0-16.6c-4.6-4.6-12-4.6-16.6,0l0,0c-4.6-4.6-12-4.6-16.6,0
		s-4.6,12,0,16.6l4.1,4.1l4.1,4.1l8.3,8.3l7.8-7.8c0.2-0.2,0.3-0.3,0.5-0.5L247.2,191.3z"/>
</g>
<g id="XMLID_8_">
	<path id="XMLID_9_" class="st1" d="M245.2,141.1c4-4,4-10.5,0-14.5c-4-4-10.5-4-14.5,0l0,0c-4-4-10.5-4-14.5,0s-4,10.5,0,14.5
		l3.6,3.6l3.6,3.6l7.3,7.3l6.8-6.8c0.1-0.1,0.3-0.3,0.4-0.4L245.2,141.1z"/>
</g>
<g id="XMLID_10_">
	<path id="XMLID_11_" class="st1" d="M290.8,156.9c3.4-3.4,3.4-9,0-12.4c-3.4-3.4-9-3.4-12.4,0l0,0c-3.4-3.4-9-3.4-12.4,0
		c-3.4,3.4-3.4,9,0,12.4l3.1,3.1l3.1,3.1l6.2,6.2l5.8-5.8c0.1-0.1,0.2-0.2,0.4-0.4L290.8,156.9z"/>
</g>
<g id="XMLID_12_">
	<path id="XMLID_13_" class="st1" d="M279.3,117.6c2.3-2.3,2.3-6,0-8.3c-2.3-2.3-6-2.3-8.3,0l0,0c-2.3-2.3-6-2.3-8.3,0
		c-2.3,2.3-2.3,6,0,8.3l2.1,2.1l2.1,2.1l4.1,4.1l3.9-3.9c0.1-0.1,0.2-0.2,0.3-0.3L279.3,117.6z"/>
</g>
</svg>
