<?xml version="1.0" encoding="utf-8"?>
<!-- Generator: Adobe Illustrator 19.0.0, SVG Export Plug-In . SVG Version: 6.00 Build 0)  -->
<svg version="1.1" id="Layer_1" xmlns="http://www.w3.org/2000/svg" xmlns:xlink="http://www.w3.org/1999/xlink" x="0px" y="0px"
	 viewBox="0 0 1200 800" style="enable-background:new 0 0 1200 800;" xml:space="preserve">
<style type="text/css">
	.st0{fill:#E9F0F5;}
	.st1{fill:#F7F7F7;}
	.st2{fill:#EA4C89;}
	.st3{opacity:0.1;fill:#444444;}
	.st4{opacity:0.2;fill:none;stroke:#000000;stroke-width:5;stroke-miterlimit:10;}
	.st5{clip-path:url(#XMLID_84_);fill:#EA4C89;}
	.st6{opacity:0.1;clip-path:url(#XMLID_84_);fill:#444444;}
	.st7{opacity:0.2;clip-path:url(#XMLID_84_);fill:none;stroke:#000000;stroke-width:0.8;stroke-miterlimit:10;}
	.st8{opacity:0.2;fill:none;stroke:#000000;stroke-miterlimit:10;}
	.st9{opacity:0.2;fill:none;stroke:#000000;stroke-width:6;stroke-miterlimit:10;}
	.st10{opacity:0.2;fill:none;stroke:#000000;stroke-width:3;stroke-miterlimit:10;}
	.st11{fill:#FFFFFF;}
</style>
<path id="XMLID_3_" class="st0" d="M378.2,205.5c-12.4-26-39-44.1-69.8-44.1c-28.4,0-53.2,15.3-66.6,38.1
	c-11-8.5-24.9-13.6-39.9-13.6c-36,0-65.2,29.2-65.2,65.2s29.2,65.1,65.2,65.1c1.9,0,3.7-0.3,5.5-0.3h165c30.7,0,55.5-24.7,55.5-55.4
	C427.9,231.9,406.1,208.4,378.2,205.5z"/>
<path id="XMLID_4_" class="st0" d="M1000,306.2c-12.9-62-67.8-108.5-133.6-108.5c-46.7,0-87.9,23.4-112.5,59.2
	c-7.7-1.7-15.8-2.7-24-2.7c-60.5,0-109.5,49-109.5,109.5c0,60.5,49,109.7,109.5,109.7c3.6,0,7.1-0.4,10.6-0.4H972
	c2.2,0,4.3,0.1,6.5,0.1c46.8,0,84.8-38,84.8-84.8C1063.3,348.9,1036.4,315.7,1000,306.2z"/>
<path id="XMLID_8_" class="st1" d="M819.5,213.8c-11.9-60.6-65.3-106.4-129.4-106.4c-57.4,0-106.2,36.7-124.4,87.9
	c-42.1,6.8-74.3,43.2-74.3,87.3c0,48.9,39.6,88.4,88.5,88.4h223.5c43.9,0,79.5-35.5,79.5-79.4C882.9,253.2,855.7,221.2,819.5,213.8z
	"/>
<path id="XMLID_2_" class="st2" d="M438.8,421.1c0-27.6-22.4-50-50-50s-50,22.4-50,50c0,25.8,19.5,68.8,44.6,74.4
	c-0.5,0.5-0.8,1.2-0.8,1.9c0,1.4,1.1,2.6,2.5,2.6h7.5c1.4,0,2.5-1.2,2.5-2.6c0-0.7-0.3-1.4-0.8-1.9
	C419.3,489.9,438.8,446.9,438.8,421.1z"/>
<path id="XMLID_5_" class="st3" d="M438.9,421.1c0-27.6-22.9-50-49.9-50V500h3.6c1.4,0,2.5-1.2,2.5-2.6c0-0.7-0.3-1.4-0.8-1.9
	C419.4,489.9,438.9,446.9,438.9,421.1z"/>
<path id="XMLID_9_" class="st2" d="M815.8,586.1c0-33.1-26.9-60-60-60s-60,26.9-60,60c0,30.9,23.4,82.6,53.5,89.3
	c-0.6,0.6-1,1.5-1,2.4c0,1.7,1.3,3.2,3,3.2h9c1.7,0,3-1.5,3-3.2c0-0.9-0.4-1.8-1-2.3C792.4,668.8,815.8,617.1,815.8,586.1z"/>
<path id="XMLID_7_" class="st3" d="M815.9,586.1c0-33.1-26.9-60-59.9-60V681h4.3c1.7,0,3-1.5,3-3.2c0-0.9-0.3-1.8-1-2.3
	C792.5,668.8,815.9,617.1,815.9,586.1z"/>
<line id="XMLID_1_" class="st4" x1="388.5" y1="500" x2="388.5" y2="552"/>
<g id="XMLID_14_">
	<defs>
		<rect id="XMLID_13_" x="592.8" y="142.7" width="172.6" height="90"/>
	</defs>
	<clipPath id="XMLID_84_">
		<use xlink:href="#XMLID_13_"  style="overflow:visible;"/>
	</clipPath>
	<path id="XMLID_12_" class="st5" d="M720.8,212.1c0-22.1-17.9-40-40-40s-40,17.9-40,40c0,20.6,15.6,55,35.7,59.5
		c-0.4,0.4-0.7,0.8-0.7,1.4c0,1.1,0.9,1.9,2,1.9h6c1.1,0,2-0.8,2-1.9c0-0.6-0.3-1.1-0.7-1.5C705.2,267.1,720.8,232.7,720.8,212.1z"
		/>
	<path id="XMLID_11_" class="st6" d="M720.9,212.1c0-22.1-17.9-40-39.9-40V275h2.8c1.1,0,2-0.8,2-1.9c0-0.6-0.2-1.1-0.6-1.5
		C705.3,267.1,720.9,232.7,720.9,212.1z"/>
	<path id="XMLID_10_" class="st7" d="M680.8,275.3c0,22.8,0.5,41.2,1.2,41.2"/>
</g>
<line id="XMLID_15_" class="st8" x1="733" y1="233.5" x2="625" y2="233.5"/>
<line id="XMLID_6_" class="st9" x1="756" y1="681" x2="756" y2="769"/>
<path id="XMLID_18_" class="st2" d="M513.8,61.9c0-17.1-13.9-31-31-31s-31,13.9-31,31c0,16,12.1,42.7,27.6,46.1
	c-0.3,0.3-0.5,0.8-0.5,1.3c0,0.9,0.7,1.7,1.5,1.7h4.7c0.9,0,1.5-0.8,1.5-1.7c0-0.5-0.2-0.9-0.5-1.2
	C501.7,104.6,513.8,77.9,513.8,61.9z"/>
<path id="XMLID_17_" class="st3" d="M513.9,61.9c0-17.1-13.9-31-30.9-31V111h2.2c0.9,0,1.5-0.8,1.5-1.7c0-0.5-0.2-0.9-0.5-1.2
	C501.8,104.6,513.9,77.9,513.9,61.9z"/>
<line id="XMLID_16_" class="st10" x1="482.5" y1="111" x2="482.5" y2="143"/>
<g id="XMLID_22_">
	<g id="XMLID_23_">
		<path id="XMLID_24_" class="st11" d="M770.7,605.2c4.1-4.1,4.1-10.7,0-14.8s-10.7-4.1-14.8,0l0,0c-4.1-4.1-10.7-4.1-14.8,0
			c-4.1,4.1-4.1,10.7,0,14.8l3.7,3.7l3.7,3.7l7.4,7.4l7-7c0.2-0.2,0.3-0.3,0.4-0.4L770.7,605.2z"/>
	</g>
</g>
<g id="XMLID_19_">
	<g id="XMLID_20_">
		<path id="XMLID_21_" class="st11" d="M399,432.3c2.9-2.9,2.9-7.7,0-10.7c-2.9-2.9-7.7-2.9-10.7,0l0,0c-2.9-2.9-7.7-2.9-10.7,0
			s-2.9,7.7,0,10.7l2.7,2.7l2.7,2.7l5.3,5.3l5-5c0.1-0.1,0.2-0.2,0.3-0.3L399,432.3z"/>
	</g>
</g>
<g id="XMLID_25_">
	<g id="XMLID_26_">
		<path id="XMLID_27_" class="st11" d="M691.8,216.3c2.9-2.9,2.9-7.7,0-10.7c-2.9-2.9-7.7-2.9-10.7,0l0,0c-2.9-2.9-7.7-2.9-10.7,0
			c-2.9,2.9-2.9,7.7,0,10.7l2.7,2.7l2.7,2.7l5.3,5.3l5-5c0.1-0.1,0.2-0.2,0.3-0.3L691.8,216.3z"/>
	</g>
</g>
<g id="XMLID_28_">
	<g id="XMLID_29_">
		<path id="XMLID_30_" class="st11" d="M493,72.1c2.9-2.9,2.9-7.7,0-10.7c-2.9-2.9-7.7-2.9-10.7,0l0,0c-2.9-2.9-7.7-2.9-10.7,0
			c-2.9,2.9-2.9,7.7,0,10.7l2.7,2.7l2.7,2.7l5.3,5.3l5-5c0.1-0.1,0.2-0.2,0.3-0.3L493,72.1z"/>
	</g>
</g>
</svg>
