<?xml version="1.0" encoding="utf-8"?>
<!-- Generator: Adobe Illustrator 19.0.0, SVG Export Plug-In . SVG Version: 6.00 Build 0)  -->
<svg version="1.1" id="Layer_1" xmlns="http://www.w3.org/2000/svg" xmlns:xlink="http://www.w3.org/1999/xlink" x="0px" y="0px"
	 viewBox="0 0 3000 600" style="enable-background:new 0 0 3000 600;" xml:space="preserve">
<style type="text/css">
	.st0{fill:url(#XMLID_4_);}
	.st1{clip-path:url(#XMLID_5_);fill:#FFFFFF;}
</style>
<radialGradient id="XMLID_4_" cx="1500" cy="300" r="1081.6654" gradientUnits="userSpaceOnUse">
	<stop  offset="0" style="stop-color:#455164"/>
	<stop  offset="1" style="stop-color:#333C4E"/>
</radialGradient>
<rect id="XMLID_1_" class="st0" width="3000" height="600"/>
<g id="XMLID_14_">
	<defs>
		<rect id="XMLID_2_" y="-0.1" width="3000" height="600"/>
	</defs>
	<clipPath id="XMLID_5_">
		<use xlink:href="#XMLID_2_"  style="overflow:visible;"/>
	</clipPath>
	<path id="XMLID_67_" class="st1" d="M3000,419c-57.3,0-108.3,26.6-141.5,68.1c-18.2-13.9-40.9-22.1-65.5-22.1
		c-57.1,0-103.9,44.4-107.7,100.5c-2.7-0.3-5.5-0.5-8.3-0.5c-1.5,0-3,0.1-4.6,0.2c-9.8-25.5-34.5-43.5-63.4-43.5
		c-14.3,0-27.6,4.4-38.5,12c-6.7-2.6-13.9-4-21.5-4c-10.9,0-21.1,2.9-29.9,8c-10.6-23.7-34.4-40.3-62.1-40.3
		c-32.1,0-59,22.2-66.1,52.2c-8.7-7.2-19.1-12.4-30.5-14.8c-10.8-29.5-39.1-50.7-72.4-50.7c-16.4,0-31.5,5.1-44,13.8
		c-0.4-0.2-0.7-0.4-1.1-0.6c0.2-2.1,0.4-4.1,0.4-6.3c0-30-24.3-54.3-54.3-54.3c-27.6,0-50.3,20.6-53.8,47.2
		c-8.2-6.7-18.8-10.7-30.2-10.7c-26.5,0-48,21.5-48,48c0,1.1,0.1,2.3,0.1,3.4c-6.4-2-13.1-3-20.1-3c-21.1,0-39.9,9.6-52.4,24.6
		c-9.3-8.7-21.7-14-35.4-14c-0.7,0-1.5,0-2.2,0.1c-11.1-25.5-36.5-43.3-66-43.3c-10.8,0-21.1,2.4-30.3,6.7
		c-10.1-14.3-26.8-23.7-45.7-23.7c-5.7,0-11.2,0.9-16.3,2.4c-17.2-25.6-46.5-42.4-79.7-42.4c-43.9,0-80.9,29.5-92.4,69.7
		c-38,1.9-69.6,27.8-80,62.9c-1.6-0.2-3.2-0.3-4.9-0.3c-5.2,0-10.1,1-14.7,2.8c-10.3-11.3-25.1-18.4-41.6-18.4c-4,0-8,0.4-11.8,1.2
		c-9-21.4-30.1-36.3-54.8-36.3c-1.9,0-3.8,0.1-5.6,0.3c-7.6-6.6-17.5-10.7-28.4-10.7c-12.6,0-23.9,5.4-31.8,14
		c-6.8-2.7-14.2-4.2-22-4.2c-6,0-11.9,0.9-17.4,2.6c-10-9.5-23.5-15.3-38.4-15.3c-18.9,0-35.6,9.4-45.7,23.8
		c-7.2-2-14.7-3.1-22.5-3.1c-31.8,0-59.5,17.7-73.7,43.7c-7.3-5.5-16.4-8.7-26.3-8.7c-0.1,0-0.2,0-0.3,0
		c-1.8-16.1-12.3-29.6-26.7-35.6c1.9-4.8,3-10,3-15.4c0-22.9-18.5-41.4-41.4-41.4c-14.3,0-26.9,7.3-34.3,18.3
		c-8.8-3.2-18.3-4.9-28.3-4.9c-46.4,0-84,37.6-84,84c0,0.8,0,1.6,0.1,2.4c-4.9-2.2-10.3-3.4-16.1-3.4c-5,0-9.9,0.9-14.3,2.6
		C844.5,551.2,829.6,544,813,544c-10.2,0-19.8,2.7-28,7.5c-1.7-1-3.5-1.9-5.4-2.7c-5.6-25.1-27.9-43.8-54.6-43.8
		c-14.6,0-27.8,5.6-37.8,14.7c-11.6-9.2-26.2-14.7-42.2-14.7c-2.6,0-5.1,0.2-7.6,0.4c-6.8-9-17.6-14.8-29.8-14.8
		c-12,0-22.6,5.6-29.4,14.4c-11-7.6-24.2-12-38.6-12c-5.2,0-10.2,0.6-15.1,1.7c-7.9-4.3-17-6.7-26.6-6.7c-30.9,0-56,25.1-56,56
		c0,5.3,0.8,10.5,2.1,15.3c-6,2.5-11.4,6.3-15.7,11c-6-9.5-14.8-17.1-25.2-21.5C398,530.5,381.1,517,361,517c-5,0-9.8,0.8-14.2,2.4
		c-12.4-16-31.9-26.4-53.8-26.4c-31.9,0-58.7,22-66,51.6c-12.5-10.4-28.5-16.6-46-16.6c-4.9,0-9.7,0.5-14.3,1.4
		C139.2,464.5,74.9,419,0,419c-100,0-181,81-181,181s81,181,181,181c74.9,0,139.2-45.5,166.7-110.4c4.6,0.9,9.4,1.4,14.3,1.4
		c34.7,0,63.6-24.5,70.5-57.2C263,623.7,277.4,629,293,629c13.2,0,25.5-3.8,36-10.3c7.7,21.5,28.2,36.9,52.4,36.9
		c19.8,0,37.2-10.4,47.1-26c8,8.8,19.6,14.4,32.5,14.4c18.2,0,33.8-11,40.5-26.7c10.9,7.4,24,11.7,38.2,11.7
		c18.7,0,35.6-7.5,47.9-19.7c12,19,33.3,31.7,57.5,31.7c23.2,0,43.7-11.6,56-29.4c0.5,0.2,0.9,0.4,1.4,0.6
		c5.6,25.1,27.9,43.8,54.6,43.8c10.2,0,19.8-2.7,28-7.5c8.2,4.8,17.8,7.5,28,7.5c16.6,0,31.5-7.2,41.7-18.6
		c4.4,1.7,9.3,2.6,14.3,2.6c16.4,0,30.4-9.8,36.6-23.9C921,633.8,943.7,645,969,645c30.9,0,57.9-16.7,72.5-41.5
		c3.7,1,7.5,1.5,11.5,1.5c0.1,0,0.2,0,0.3,0c2.5,21.9,21.1,39,43.7,39c8.3,0,16-2.3,22.6-6.3c12.8,30.1,42.6,51.3,77.4,51.3
		c42.3,0,77.4-31.3,83.1-72.1c10.7,10,25.1,16.1,40.9,16.1c17.6,0,33.3-7.5,44.3-19.6c10.9,11.7,26.3,19,43.5,19
		c5.6,0,11-0.8,16.2-2.2c9.2,18.5,28.3,31.1,50.4,31.1c16.5,0,31.3-7.1,41.6-18.4c4.6,1.8,9.5,2.8,14.7,2.8c6.5,0,12.7-1.5,18.2-4.3
		c16,21.9,41.9,36.2,71.1,36.2c36.5,0,67.8-22.2,81.1-53.9c2.3,0.2,4.6,0.2,6.9,0.2c17.2,0,33.3-4.5,47.3-12.4
		c9.6,17,27.8,28.4,48.7,28.4c15.6,0,29.7-6.4,39.9-16.7c10.6,6.2,22.9,9.7,36.1,9.7c12.8,0,24.8-3.3,35.2-9.2
		c9,7.5,20.5,11.9,33.1,11.9c11.3,0,21.8-3.6,30.3-9.8c12.1,19,33.3,31.7,57.5,31.7c16.7,0,31.9-6,43.7-15.9
		c16.7,43.5,58.9,74.3,108.3,74.3c44.7,0,83.5-25.3,102.9-62.4C2305.1,668,2324,677,2345,677c34.9,0,64-24.8,70.6-57.7
		c11.5,8.8,25.8,14.1,41.4,14.1c15.1,0,29-4.9,40.3-13.3c10.4,17.7,29.7,29.5,51.7,29.5c7.6,0,14.8-1.4,21.5-4
		c11,7.5,24.2,12,38.5,12c1.5,0,3-0.1,4.6-0.2c9.8,25.5,34.5,43.5,63.4,43.5c25.9,0,48.4-14.5,59.9-35.7
		c16.4,10,35.6,15.7,56.1,15.7c14.6,0,28.5-2.9,41.3-8.2c28,63.7,91.7,108.2,165.7,108.2c100,0,181-81,181-181S3100,419,3000,419z"
		/>
</g>
</svg>
