<?xml version="1.0" encoding="UTF-8" standalone="no"?>
<!-- Created with Inkscape (http://www.inkscape.org/) -->

<svg
   xmlns:svg="http://www.w3.org/2000/svg"
   xmlns="http://www.w3.org/2000/svg"
   version="1.1"
   width="410"
   height="160"
   id="MozillaCorp"
   xml:space="preserve"><defs
     id="Defs" /><g
     transform="matrix(1.25,0,0,-1.25,0,160)"
     id="Logo"><g
       id="Mozilla"><path
         d="m 61.969312,79.271131 c 0,3.206159 -0.269962,5.303114 -0.80154,6.303528 -0.534168,1.003867 -1.759358,1.504362 -3.670678,1.504362 -1.349234,0 -2.872591,-0.413865 -4.577842,-1.240156 -1.701221,-0.817369 -3.331355,-1.94154 -4.893854,-3.361575 l 0,-39.377619 -13.605741,0 0,35.548648 c 0,3.407623 -0.326085,5.670642 -0.972497,6.780134 -0.646412,1.096253 -1.976306,1.650568 -3.985307,1.650568 -1.365957,0 -2.896077,-0.343065 -4.581297,-1.017394 -1.689738,-0.669149 -3.322145,-1.731441 -4.905078,-3.148023 l 0,-39.813933 -13.9372278,0 0,38.208551 c 0,1.989891 -0.037101,3.724498 -0.1124228,5.188279 C 5.8549983,87.95798 5.7515695,89.222888 5.6076665,90.290936 5.4615128,91.373662 5.2703923,92.3145 5.0174396,93.129567 4.7701049,93.944633 4.430583,94.681129 3.9999993,95.325239 L 16.95127,98.855468 c 0.498049,-0.779091 0.874671,-1.551563 1.124228,-2.299283 0.245096,-0.750886 0.517159,-1.837929 0.79823,-3.269188 3.783066,3.713273 8.240692,5.568471 13.37849,5.568471 4.491472,0 8.201292,-1.493138 11.12425,-4.489199 0.363211,-0.359757 0.714046,-0.753188 1.073804,-1.182595 0.357455,-0.421636 0.711744,-0.925296 1.071502,-1.49544 2.4924,2.565503 4.957746,4.398252 7.380497,5.516666 2.428508,1.107478 5.137913,1.650568 8.136277,1.650568 2.135808,0 4.170884,-0.29788 6.093141,-0.90515 1.9283,-0.604681 3.500009,-1.447952 4.710809,-2.518303 1.565952,-1.214254 2.641771,-2.810426 3.209612,-4.814995 0.571008,-1.992193 0.857662,-4.847804 0.857662,-8.561078 l 0,-38.956271 -13.94046,0 0,36.17146"
         id="m"
         style="fill:#FCFCFB;fill-opacity:1;fill-rule:nonzero;stroke:none" /><path
         d="m 115.38755,85.36456 c -1.49515,1.916788 -3.55815,2.874607 -6.18869,2.874607 -1.709,0 -3.22113,-0.491285 -4.5341,-1.497455 -1.32103,-0.989477 -2.2564,-2.332955 -2.82769,-4.039357 -0.49676,-1.413128 -0.86774,-3.116364 -1.12072,-5.099635 -0.24723,-1.984423 -0.37098,-4.328315 -0.37098,-7.021028 0,-6.172 0.60353,-10.742072 1.81001,-13.726908 0.64066,-1.483928 1.65834,-2.608098 3.04096,-3.350062 1.38866,-0.742252 2.79056,-1.124458 4.21607,-1.124458 3.19839,0 5.47723,1.461479 6.82618,4.378968 1.35269,2.895041 2.02932,7.577357 2.02932,14.030544 0,7.240048 -0.96127,12.086701 -2.88036,14.574784 z m 16.82658,-26.716457 c -1.10719,-3.361574 -2.83288,-6.397064 -5.17936,-9.112226 -2.06846,-2.355117 -4.52489,-4.204558 -7.37503,-5.565017 -2.84439,-1.354703 -6.408,-2.034789 -10.68019,-2.034789 -3.70205,0 -7.06938,0.680086 -10.095662,2.034789 -3.024266,1.360459 -5.6079,3.266022 -7.740543,5.728203 -2.136096,2.467649 -3.7976,5.447016 -4.972425,8.94904 -1.17137,3.496268 -1.759358,7.386254 -1.759358,11.675139 0,4.283417 0.587988,8.18434 1.759358,11.721476 1.174825,3.538863 2.836329,6.580109 4.972425,9.109636 2.132643,2.529527 4.716277,4.476823 7.740543,5.831526 3.026282,1.360171 6.393612,2.038242 10.095662,2.038242 7.75723,0 13.95974,-2.748835 18.58939,-8.249672 2.20344,-2.571259 3.80767,-5.42687 4.80262,-8.57259 0.99494,-3.133056 1.49515,-6.954545 1.49515,-11.456982 0,-4.710521 -0.55086,-8.752181 -1.65258,-12.096775"
         id="o"
         style="fill:#FCFCFB;fill-opacity:1;fill-rule:nonzero;stroke:none" /><path
         d="m 140.28075,43.099671 0,8.825284 25.81016,35.654273 -23.65391,0 0,10.118108 40.66382,0 0,-9.761804 -24.19384,-34.717753 25.18533,0 -3.42892,-10.118108 -40.38264,0"
         id="z"
         style="fill:#FCFCFB;fill-opacity:1;fill-rule:nonzero;stroke:none" /><path
         d="m 193.73266,96.940694 14.44096,2.259853 0,-56.100876 -14.44096,0 0,53.841023 z m 13.54502,9.792316 c -1.70669,-1.69979 -3.80566,-2.56551 -6.29346,-2.56551 -2.41728,0 -4.47452,0.86572 -6.18351,2.56551 -1.70323,1.71446 -2.55974,3.81458 -2.55974,6.3159 0,2.49585 0.86773,4.60374 2.61385,6.3182 1.74238,1.7113 3.86178,2.56349 6.34641,2.56349 2.41124,0 4.45984,-0.85219 6.12912,-2.56349 1.66956,-1.71446 2.50161,-3.82235 2.50161,-6.3182 0,-2.50132 -0.85104,-4.60144 -2.55428,-6.3159"
         id="i"
         style="fill:#FCFCFB;fill-opacity:1;fill-rule:nonzero;stroke:none" /><path
         d="m 233.46342,41.773173 c -3.02081,0 -5.65481,0.680085 -7.90344,2.02932 -2.24834,1.354703 -3.79415,3.170183 -4.63396,5.452485 -0.28464,0.724983 -0.49474,1.394132 -0.63519,2.040545 -0.13844,0.640656 -0.26766,1.388376 -0.36552,2.24834 -0.10677,0.854496 -0.18333,1.922545 -0.2193,3.215369 -0.0337,1.2816 -0.0449,2.883817 -0.0449,4.811829 l 0,40.887449 c 0,3.64276 -0.0596,6.6748 -0.16635,9.09755 -0.10333,2.42592 -0.30018,4.88464 -0.58454,7.38942 l 14.45218,3.30775 c 0.2786,-1.49198 0.46654,-3.27379 0.57331,-5.34599 0.10448,-2.07422 0.1606,-5.02538 0.1606,-8.88141 l 0,-42.716744 c 0,-2.349649 0.0135,-4.238232 0.0507,-5.666037 0.0337,-1.427806 0.0754,-2.568957 0.11484,-3.417697 0.0371,-0.86572 0.12346,-1.500908 0.2642,-1.933769 0.14045,-0.421635 0.32033,-0.820822 0.53388,-1.18058 0.57331,-1.000414 1.53804,-1.500908 2.89274,-1.500908 l 0.74743,0 c 0.14074,0 0.42739,0.07886 0.8568,0.219308 l 2.45988,-8.561078 c -2.64206,-1.00617 -5.49192,-1.495152 -8.55331,-1.495152"
         id="l"
         style="fill:#FCFCFB;fill-opacity:1;fill-rule:nonzero;stroke:none" /><path
         d="m 262.48348,41.773173 c -3.02196,0 -5.66374,0.680085 -7.90344,2.02932 -2.25755,1.354703 -3.79415,3.170183 -4.63742,5.452485 -0.28119,0.724983 -0.49244,1.394132 -0.63289,2.040545 -0.14073,0.640656 -0.2665,1.388376 -0.37328,2.24834 -0.10447,0.854496 -0.17441,1.922545 -0.21154,3.215369 -0.0337,1.2816 -0.0472,2.883817 -0.0472,4.811829 l 0,40.887449 c 0,3.64276 -0.0561,6.6748 -0.16635,9.09755 -0.10908,2.42592 -0.30018,4.88464 -0.58108,7.38942 l 14.44872,3.30775 c 0.2809,-1.49198 0.46999,-3.27379 0.57677,-5.34599 0.10332,-2.07422 0.15944,-5.02538 0.15944,-8.88141 l 0,-42.716744 c 0,-2.349649 0.0115,-4.238232 0.0484,-5.666037 0.036,-1.427806 0.0731,-2.568957 0.10707,-3.417697 0.036,-0.86572 0.12577,-1.500908 0.27197,-1.933769 0.14391,-0.421635 0.31803,-0.820822 0.52842,-1.18058 0.571,-1.000414 1.54005,-1.500908 2.89475,-1.500908 l 0.75348,0 c 0.14045,0 0.4248,0.07886 0.84874,0.219308 l 2.46534,-8.561078 c -2.63975,-1.00617 -5.49191,-1.495152 -8.54985,-1.495152"
         id="l2"
         style="fill:#FCFCFB;fill-opacity:1;fill-rule:nonzero;stroke:none" /><path
         d="m 293.789,65.179861 c -1.99421,-1.096253 -2.98915,-3.221125 -2.98915,-6.380084 0,-2.06875 0.59921,-3.7268 1.79476,-5.002932 1.19439,-1.275844 2.7284,-1.905564 4.61641,-1.905564 2.88957,0 5.4309,1.203029 7.59808,3.603332 l 0.22161,11.33783 -0.65332,0 c -5.06251,0 -8.59965,-0.550861 -10.58839,-1.652582 z m 18.0109,-22.046517 c -1.40449,1.146907 -2.46362,2.417283 -3.17737,3.850557 -0.58137,-0.57331 -1.13108,-1.10719 -1.67504,-1.607685 -0.53532,-0.488982 -1.09366,-0.921842 -1.67215,-1.287068 -2.7284,-1.989891 -6.42671,-2.984836 -11.10068,-2.984836 -6.25517,0 -10.98037,1.461479 -14.17876,4.37868 -3.19522,2.906266 -4.79485,7.139029 -4.79485,12.698578 0,6.464123 2.21467,11.202849 6.64199,14.227115 4.42041,3.029734 11.13723,4.541866 20.13404,4.541866 l 1.62899,0 c 0.73102,0 1.2721,-0.03367 1.63473,-0.106776 l 0,2.24978 c 0,3.074632 -0.41156,5.199504 -1.22893,6.377781 -0.82024,1.186049 -2.54996,1.772885 -5.18914,1.772885 -2.29094,0 -4.7488,-0.545392 -7.39,-1.60423 -2.63975,-1.082727 -5.4637,-2.611552 -8.45775,-4.612955 l -6.10465,10.292519 c 1.43356,0.925296 2.7825,1.703236 4.06756,2.34418 1.28966,0.65188 2.89159,1.354703 4.8196,2.141564 2.71286,1.14662 5.26483,1.967442 7.65449,2.471103 2.39454,0.491285 4.83802,0.74772 7.33329,0.74772 4.68549,0 8.51043,-0.81852 11.46907,-2.450956 2.95289,-1.644812 4.96178,-3.999928 6.01515,-7.054701 0.35112,-0.786862 0.59576,-1.624378 0.73678,-2.510244 0.14103,-0.899394 0.2101,-2.093501 0.2101,-3.583185 l 0,-3.743493 -0.31371,-18.380444 c 0,-1.506377 0.0288,-2.793733 0.10361,-3.900923 0.0691,-1.096253 0.28205,-2.113647 0.64469,-3.05247 0.36263,-0.916087 0.87205,-1.787564 1.55703,-2.60263 0.67634,-0.826291 1.62323,-1.69748 2.83201,-2.630547 l -7.61822,-8.763694 c -1.65201,0.719515 -3.18314,1.641646 -4.58188,2.782509"
         id="a"
         style="fill:#FCFCFB;fill-opacity:1;fill-rule:nonzero;stroke:none" /></g><g
       id="Corporation"><path
         d="m 14.927649,5.7467664 c -3.06358,0 -5.4211147,0.9893332 -7.2367677,3.0635512 -1.7852924,2.0011724 -2.6790654,4.6824884 -2.6790654,7.9315314 0,2.776896 0.477804,4.969172 1.5008652,6.885989 1.7234774,3.220952 4.9073029,5.132157 8.4767879,5.132157 2.197888,0 4.399173,-0.70265 5.61334,-1.753804 l -2.010152,-3.024208 c -1.118616,0.820679 -2.295685,1.242286 -3.537971,1.242286 -1.498635,0 -2.965755,-0.73638 -3.763985,-1.911205 -0.860022,-1.276016 -1.238918,-3.1254 -1.238918,-5.711165 0,-3.024208 0.252953,-4.716191 0.924145,-5.924746 0.888141,-1.630162 2.355289,-2.4845715 4.266494,-2.4845715 1.307503,0 2.487939,0.3822352 3.794319,1.4333895 L 21.074984,7.820993 C 19.326792,6.3875838 17.443678,5.7467664 14.927649,5.7467664"
         id="c"
         style="fill:#FCFCFB;fill-opacity:1;fill-rule:nonzero;stroke:none" /><path
         d="m 48.356951,22.31809 c -0.348533,1.113004 -1.528826,2.810627 -3.886533,2.810627 -1.500908,0 -2.808411,-0.770111 -3.443599,-1.950576 -0.760959,-1.433418 -1.112945,-3.372712 -1.112945,-6.048416 0,-3.828051 0.635187,-6.217071 1.973198,-7.1782853 0.700232,-0.5059055 1.59646,-0.7588582 2.647527,-0.7588582 3.091612,0 4.399115,2.3609015 4.399115,7.9989635 0,2.259738 -0.191103,3.889872 -0.576763,5.126545 z M 49.121364,6.8035556 C 47.783641,6.0671751 46.539168,5.7804938 44.692029,5.7804938 c -3.344594,0 -5.511197,0.9218778 -7.203209,3.1197632 -1.689709,2.164186 -2.549674,4.974785 -2.549674,8.229468 0,4.778011 1.815769,8.600449 5.002932,10.354253 1.309806,0.702678 2.934183,1.084914 4.592521,1.084914 5.894267,0 9.531272,-4.300225 9.531272,-11.253676 0,-4.997263 -1.723382,-8.7634662 -4.944507,-10.5116604"
         id="o2"
         style="fill:#FCFCFB;fill-opacity:1;fill-rule:nonzero;stroke:none" /><path
         d="M 77.680643,24.392337 C 77.168924,24.58344 76.243915,24.70711 75.16234,24.70711 l -1.590991,0 0,-5.986595 1.49544,0 c 1.911032,0 2.739625,0.191132 3.344593,0.730768 0.545105,0.517159 0.862267,1.304107 0.862267,2.231619 0,1.377181 -0.541939,2.327171 -1.593006,2.709435 z M 80.007842,6.1346311 c -0.860252,1.4671343 -1.211951,2.0742266 -2.074218,3.6312888 -2.197974,3.9798391 -2.866835,5.0647241 -3.662907,5.4132281 -0.224776,0.09558 -0.41588,0.163014 -0.699368,0.196744 l 0,-9.2412609 -4.370911,0 0,22.1475769 8.255428,0 c 3.920206,0 6.503553,-2.613854 6.503553,-6.503754 0,-3.310892 -2.197687,-6.054028 -4.938751,-6.115878 0.444084,-0.354117 0.635188,-0.545249 0.921842,-0.927484 1.27383,-1.596431 5.323261,-8.6004609 5.323261,-8.6004609 l -5.257929,0"
         id="r"
         style="fill:#FCFCFB;fill-opacity:1;fill-rule:nonzero;stroke:none" /><path
         d="m 108.34091,24.684633 -2.83518,0 0,-6.762319 2.32691,0 c 1.81577,0 2.35771,0.224834 2.96469,1.146734 0.38019,0.607069 0.53964,1.242286 0.53964,2.29344 0,2.068606 -1.11525,3.322145 -2.99606,3.322145 z m 4.04741,-9.662857 c -1.01768,-0.477816 -1.97866,-0.730768 -4.42962,-0.730768 l -2.45297,0 0,-8.1563769 -4.46099,0 0,22.1475769 5.83238,0 c 3.75731,0 4.90739,-0.387876 6.15186,-1.084914 2.06875,-1.141093 3.18515,-3.187221 3.18515,-5.739255 0,-2.934268 -1.39989,-5.283917 -3.82581,-6.436263"
         id="p"
         style="fill:#FCFCFB;fill-opacity:1;fill-rule:nonzero;stroke:none" /><path
         d="m 142.06256,22.31809 c -0.34853,1.113004 -1.52882,2.810627 -3.88653,2.810627 -1.50091,0 -2.80841,-0.770111 -3.4436,-1.950576 -0.76441,-1.433418 -1.11525,-3.372712 -1.11525,-6.048416 0,-3.828051 0.63749,-6.217071 1.9755,-7.1782853 0.70023,-0.5059055 1.59617,-0.7588582 2.64753,-0.7588582 3.09161,0 4.39912,2.3609015 4.39912,7.9989635 0,2.259738 -0.19456,3.889872 -0.57677,5.126545 z m 0.76441,-15.5145344 c -1.33772,-0.7363805 -2.58219,-1.0230618 -4.42933,-1.0230618 -3.34459,0 -5.5112,0.9218778 -7.20321,3.1197632 -1.68971,2.164186 -2.54967,4.974785 -2.54967,8.229468 0,4.778011 1.81577,8.600449 5.00293,10.354253 1.3098,0.702678 2.93418,1.084914 4.59252,1.084914 5.89427,0 9.53127,-4.300225 9.53127,-11.253676 0,-4.997263 -1.72338,-8.7634662 -4.94451,-10.5116604"
         id="o3"
         style="fill:#FCFCFB;fill-opacity:1;fill-rule:nonzero;stroke:none" /><path
         d="m 170.74761,24.392337 c -0.51373,0.191103 -1.43557,0.314773 -2.5183,0.314773 l -1.59301,0 0,-5.986595 1.49746,0 c 1.91132,0 2.74077,0.191132 3.34459,0.730768 0.54539,0.517159 0.85997,1.304107 0.85997,2.231619 0,1.377181 -0.53964,2.327171 -1.59071,2.709435 z m 2.3249,-18.2577059 c -0.85997,1.4671343 -1.21195,2.0742266 -2.07192,3.6312888 -2.20027,3.9798391 -2.86683,5.0647241 -3.66492,5.4132281 -0.22506,0.09558 -0.41271,0.163014 -0.69937,0.196744 l 0,-9.2412609 -4.37119,0 0,22.1475769 8.25773,0 c 3.92135,0 6.50355,-2.613854 6.50355,-6.503754 0,-3.310892 -2.19999,-6.054028 -4.94106,-6.115878 0.44754,-0.354117 0.63519,-0.545249 0.9253,-0.927484 1.27038,-1.596431 5.32326,-8.6004609 5.32326,-8.6004609 l -5.26138,0"
         id="r2"
         style="fill:#FCFCFB;fill-opacity:1;fill-rule:nonzero;stroke:none" /><path
         d="m 202.04421,19.546835 c -0.22477,1.017452 -0.89363,3.923602 -0.89363,3.923602 0,0 -0.63519,-2.613855 -1.05452,-4.272106 -0.41042,-1.596432 -0.69362,-2.653227 -1.17166,-4.114734 l 4.33061,0 c 0,0 -0.73304,2.32717 -1.2108,4.463238 z m 3.86179,-13.4122039 -1.56596,5.2558389 -6.50038,0 -1.56049,-5.2558389 -4.6567,0 7.2648,22.2093979 4.81528,0 6.9816,-22.2093979 -4.77815,0"
         id="a2"
         style="fill:#FCFCFB;fill-opacity:1;fill-rule:nonzero;stroke:none" /><path
         d="m 237.92672,24.58344 -5.28614,0 0,-18.4488089 -4.52287,0 0,18.4488089 -5.41881,0 0,3.698768 15.96748,0 -0.73966,-3.698768"
         id="t"
         style="fill:#FCFCFB;fill-opacity:1;fill-rule:nonzero;stroke:none" /><path
         d="m 253.48407,6.1346311 4.651,0 0,22.1475649 -4.651,0 0,-22.1475649 z"
         id="i2"
         style="fill:#FCFCFB;fill-opacity:1;fill-rule:nonzero;stroke:none" /><path
         d="m 287.97014,22.31809 c -0.34623,1.113004 -1.52681,2.810627 -3.88423,2.810627 -1.50436,0 -2.80841,-0.770111 -3.4436,-1.950576 -0.76671,-1.433418 -1.1187,-3.372712 -1.1187,-6.048416 0,-3.828051 0.63864,-6.217071 1.97636,-7.1782853 0.70283,-0.5059055 1.5933,-0.7588582 2.64437,-0.7588582 3.09161,0 4.40141,2.3609015 4.40141,7.9989635 0,2.259738 -0.19686,3.889872 -0.57561,5.126545 z m 0.76672,-15.5145344 c -1.34348,-0.7363805 -2.58019,-1.0230618 -4.43509,-1.0230618 -3.3446,0 -5.5112,0.9218778 -7.20091,3.1197632 -1.68626,2.164186 -2.54622,4.974785 -2.54622,8.229468 0,4.778011 1.81548,8.600449 5.00264,10.354253 1.30751,0.702678 2.93217,1.084914 4.58706,1.084914 5.90002,0 9.53242,-4.300225 9.53242,-11.253676 0,-4.997263 -1.72108,-8.7634662 -4.9399,-10.5116604"
         id="o4"
         style="fill:#FCFCFB;fill-opacity:1;fill-rule:nonzero;stroke:none" /><path
         d="m 319.23969,6.1346311 -3.79616,8.4711499 c -1.24045,2.776896 -2.57587,5.896656 -2.99606,7.268253 0.16692,-1.815653 0.19283,-4.429536 0.22449,-6.278891 l 0.12663,-9.4605119 -4.3027,0 0,22.1475769 4.93875,0 4.24226,-8.859043 c 1.11381,-2.360902 1.97435,-4.688073 2.42621,-6.284504 -0.16693,1.720102 -0.32235,4.55879 -0.354,6.087759 l -0.0979,9.055788 4.23938,0 0,-22.1475769 -4.65094,0"
         id="n"
         style="fill:#FCFCFB;fill-opacity:1;fill-rule:nonzero;stroke:none" /></g></g></svg>