<?xml version="1.0" encoding="utf-8"?>
<!-- Generator: Adobe Illustrator 19.0.0, SVG Export Plug-In . SVG Version: 6.00 Build 0)  -->
<svg version="1.1" id="Layer_1" xmlns="http://www.w3.org/2000/svg" xmlns:xlink="http://www.w3.org/1999/xlink" x="0px" y="0px"
	 viewBox="0 0 400 400" style="enable-background:new 0 0 400 400;" xml:space="preserve">
<style type="text/css">
	.st0{fill:#333C4E;}
	.st1{fill:#FF6699;}
	.st2{fill:#C9507F;}
	.st3{fill:#C3C3C3;}
	.st4{fill:#ECF0F1;}
	.st5{fill:#F7F7F7;}
	.st6{opacity:0.5;fill:#333333;}
	.st7{clip-path:url(#XMLID_41_);}
	.st8{clip-path:url(#XMLID_42_);fill:#ECF0F1;}
	.st9{clip-path:url(#XMLID_42_);fill:#F7F7F7;}
	.st10{clip-path:url(#XMLID_42_);}
	.st11{clip-path:url(#XMLID_43_);fill:#455164;}
	.st12{clip-path:url(#XMLID_43_);fill:#333C4E;}
	.st13{clip-path:url(#XMLID_43_);fill:#F7AC54;}
	.st14{clip-path:url(#XMLID_43_);fill:#FDCC6A;}
	.st15{clip-path:url(#XMLID_43_);fill:#ECF0F1;}
	.st16{clip-path:url(#XMLID_43_);fill:#F7F7F7;}
	.st17{opacity:0.5;clip-path:url(#XMLID_41_);fill:#86B8C6;}
	.st18{fill:#FDCC6A;}
</style>
<circle id="XMLID_1_" class="st0" cx="200" cy="200" r="200"/>
<path id="XMLID_37_" class="st1" d="M145.2,125.1c-4-8.4-12.6-14.3-22.6-14.3c-9.2,0-17.2,5-21.6,12.3c-3.6-2.8-8.1-4.4-12.9-4.4
	c-11.7,0-21.1,9.5-21.1,21.1c0,11.7,9.5,21.1,21.1,21.1c0.6,0,1.2-0.1,1.8-0.1h53.4c9.9,0,18-8,18-17.9
	C161.3,133.7,154.2,126.1,145.2,125.1z"/>
<path id="XMLID_39_" class="st1" d="M179.5,254c-4.2-20.1-22-35.1-43.3-35.1c-15.1,0-28.5,7.6-36.4,19.2c-2.5-0.6-5.1-0.9-7.8-0.9
	c-19.6,0-35.5,15.9-35.5,35.5s15.9,35.5,35.5,35.5c1.2,0,2.3-0.1,3.4-0.1h75c0.7,0,1.4,0,2.1,0c15.2,0,27.5-12.3,27.5-27.5
	C200,267.8,191.3,257.1,179.5,254z"/>
<path id="XMLID_34_" class="st1" d="M288.1,127.8c-3.9-19.6-21.1-34.4-41.9-34.4c-18.6,0-34.4,11.9-40.3,28.5
	c-13.6,2.2-24.1,14-24.1,28.3c0,15.8,12.8,28.6,28.7,28.6h72.4c14.2,0,25.7-11.5,25.7-25.7C308.6,140.6,299.8,130.2,288.1,127.8z"/>
<path id="XMLID_38_" class="st1" d="M306,283.1c-4-8.4-12.6-14.3-22.6-14.3c-9.2,0-17.2,5-21.6,12.3c-3.6-2.8-8.1-4.4-12.9-4.4
	c-11.7,0-21.1,9.5-21.1,21.1S237.3,319,249,319c0.6,0,1.2-0.1,1.8-0.1h53.4c9.9,0,18-8,18-17.9C322.1,291.7,315.1,284.1,306,283.1z"
	/>
<path id="XMLID_36_" class="st2" d="M346.5,157.7c-4.2-20.1-22-35.1-43.3-35.1c-15.1,0-28.5,7.6-36.4,19.2c-2.5-0.6-5.1-0.9-7.8-0.9
	c-19.6,0-35.5,15.9-35.5,35.5s15.9,35.5,35.5,35.5c1.2,0,2.3-0.1,3.4-0.1h75c0.7,0,1.4,0,2.1,0c15.2,0,27.5-12.3,27.5-27.5
	C367,171.6,358.3,160.8,346.5,157.7z"/>
<path id="XMLID_6_" class="st3" d="M242.5,175.6l1.2,60l21.5-0.4c6.2-0.1,10.8-5.8,9.6-11.8l-3.2-17.2
	C268.8,191.2,257.4,179.2,242.5,175.6L242.5,175.6z"/>
<path id="XMLID_5_" class="st3" d="M156.5,175.6v60H135c-6.2,0-10.9-5.6-9.9-11.7l2.9-17.2C130.6,191.7,141.7,179.5,156.5,175.6
	L156.5,175.6z"/>
<path id="XMLID_2_" class="st3" d="M233.2,255.6h-66.7c-3.7,0-6.7-3-6.7-6.7l6.7-13.3h66.7l6.7,13.3
	C239.9,252.7,236.9,255.6,233.2,255.6z"/>
<path id="XMLID_3_" class="st4" d="M259.9,205.6c0,33.1-26.9,40-60,40s-60-6.9-60-40s26.9-106.7,60-106.7S259.9,172.5,259.9,205.6z"
	/>
<path id="XMLID_4_" class="st5" d="M200,245.6c-33,0-60-6.9-60-40s27-106.7,60-106.7V245.6z"/>
<circle id="XMLID_8_" class="st6" cx="199.9" cy="158.9" r="33.3"/>
<g id="XMLID_7_">
	<defs>
		<circle id="XMLID_32_" cx="199.9" cy="158.9" r="30"/>
	</defs>
	<clipPath id="XMLID_41_">
		<use xlink:href="#XMLID_32_"  style="overflow:visible;"/>
	</clipPath>
	<g id="XMLID_9_" class="st7">
		<g id="XMLID_10_">
			<defs>
				<rect id="XMLID_11_" x="149.9" y="128.9" width="100" height="100"/>
			</defs>
			<clipPath id="XMLID_42_">
				<use xlink:href="#XMLID_11_"  style="overflow:visible;"/>
			</clipPath>
			<rect id="XMLID_31_" x="184.9" y="179" class="st8" width="30" height="25"/>
			<rect id="XMLID_30_" x="184.9" y="179" class="st9" width="15" height="25"/>
			<g id="XMLID_12_" class="st10">
				<defs>
					<rect id="XMLID_13_" x="149.9" y="128.9" width="100" height="100"/>
				</defs>
				<clipPath id="XMLID_43_">
					<use xlink:href="#XMLID_13_"  style="overflow:visible;"/>
				</clipPath>
				<path id="XMLID_29_" class="st11" d="M194.9,184c0,0.7-0.6,1.3-1.3,1.3c-0.7,0-1.3-0.6-1.3-1.3c0-0.7,0.6-1.3,1.3-1.3
					C194.3,182.7,194.9,183.3,194.9,184"/>
				<path id="XMLID_28_" class="st12" d="M207.4,184c0,0.7-0.6,1.3-1.3,1.3c-0.7,0-1.3-0.6-1.3-1.3c0-0.7,0.6-1.3,1.3-1.3
					C206.8,182.7,207.4,183.3,207.4,184"/>
				<rect id="XMLID_27_" x="193.6" y="190.2" class="st13" width="12.5" height="2.5"/>
				<rect id="XMLID_26_" x="193.6" y="193" class="st13" width="12.5" height="2"/>
				<rect id="XMLID_25_" x="193.6" y="190.2" class="st14" width="6.3" height="2.5"/>
				<path id="XMLID_24_" class="st11" d="M198,191.5c0,0.3-0.3,0.6-0.6,0.6c-0.3,0-0.6-0.3-0.6-0.6s0.3-0.6,0.6-0.6
					C197.7,190.8,198,191.1,198,191.5"/>
				<path id="XMLID_23_" class="st12" d="M203,191.5c0,0.3-0.3,0.6-0.6,0.6c-0.3,0-0.6-0.3-0.6-0.6s0.3-0.6,0.6-0.6
					C202.7,190.8,203,191.1,203,191.5"/>
				<rect id="XMLID_22_" x="193.6" y="193" class="st14" width="6.3" height="2"/>
				<path id="XMLID_21_" class="st15" d="M211.6,170.7c2.4-2.4,3.6-5.2,2.7-6.2c-1-1-3.7,0.2-6.2,2.7c-2.4,2.4-3.6,5.2-2.7,6.2
					C206.4,174.3,209.2,173.2,211.6,170.7"/>
				<path id="XMLID_20_" class="st16" d="M191.6,167.2c-2.4-2.4-5.2-3.6-6.2-2.7c-1,1,0.2,3.7,2.7,6.2c2.4,2.4,5.2,3.6,6.2,2.7
					C195.3,172.4,194.1,169.6,191.6,167.2"/>
				<path id="XMLID_19_" class="st14" d="M191.2,167.6c-1.8-1.8-3.8-2.7-4.5-1.9c-0.7,0.7,0.2,2.8,1.9,4.5s3.8,2.7,4.5,1.9
					C193.8,171.5,193,169.4,191.2,167.6"/>
				<path id="XMLID_18_" class="st13" d="M211.2,170.2c1.8-1.8,2.7-3.8,1.9-4.5c-0.7-0.7-2.8,0.2-4.5,1.9s-2.7,3.8-1.9,4.5
					C207.3,172.9,209.4,172,211.2,170.2"/>
				<path id="XMLID_17_" class="st15" d="M199.9,163.9c8.3,0,15,6.7,15,15h-15V163.9z"/>
				<path id="XMLID_16_" class="st16" d="M184.9,179c0-8.3,6.8-15,15-15v15H184.9z"/>
				<polygon id="XMLID_15_" class="st13" points="195.4,168.9 200,141.4 204.6,168.9 				"/>
				<polygon id="XMLID_14_" class="st14" points="199.9,142.2 195.4,168.9 199.9,168.9 				"/>
			</g>
		</g>
	</g>
	<circle id="XMLID_33_" class="st17" cx="199.9" cy="158.9" r="30"/>
</g>
<path id="XMLID_35_" class="st18" d="M185,266.1c-0.1-1.9,2.3-3.2,3.9-2.2c6.8,3.5,15.3,3.5,22.1,0c1.6-1,3.9,0.2,3.9,2.1
	c0,4.1,0,8.1,0,12.2c0,2-2.6,3.2-4.1,2c-1.2-1-2.2-2.2-3.4-3.3c-1.8,3.5-3.5,7-5.3,10.5c-0.9,1.7-3.6,1.7-4.4,0
	c-1.8-3.5-3.5-7-5.3-10.5c-1.1,1.1-2.2,2.3-3.3,3.3c-1.5,1.2-4.1,0-4.1-2C185,274.1,185,270.1,185,266.1z"/>
</svg>
