<svg xmlns="http://www.w3.org/2000/svg" width="821" height="135.02923" viewBox="0 0 821 135.02923">
  <title>Asset 6</title>
  <g id="Layer_2" data-name="Layer 2">
    <g id="Layer_2-2" data-name="Layer 2">
      <g>
        <g>
          <path d="M102.84842,105.25248a37.73843,37.73843,0,1,1,37.73842-37.73842A37.78127,37.78127,0,0,1,102.84842,105.25248Zm0-71.703A33.96458,33.96458,0,1,0,136.813,67.51406,34.0033,34.0033,0,0,0,102.84842,33.54948Z" style="fill: #56565a"/>
          <path d="M160.78771,135.02923a1.88638,1.88638,0,0,1-1.57612-2.92129l42.34209-64.59388L159.21159,2.9214A1.88676,1.88676,0,1,1,162.36751.85267l43.02021,65.627a1.88519,1.88519,0,0,1,0,2.06874l-43.02021,65.62825A1.88473,1.88473,0,0,1,160.78771,135.02923Z" style="fill: #56565a"/>
          <path d="M44.90912,135.02923a1.88476,1.88476,0,0,1-1.5798-.85255L.30911,68.54843a1.88519,1.88519,0,0,1,0-2.06874L43.32932.85267A1.88676,1.88676,0,1,1,46.48524,2.9214L4.14315,67.51406l42.34209,64.59388a1.88637,1.88637,0,0,1-1.57612,2.92129Z" style="fill: #56565a"/>
        </g>
        <g>
          <path d="M280.34472,39.6376a2.27223,2.27223,0,0,1,1.335,1.21716,2.30646,2.30646,0,0,1,.07853,1.76686L263.65778,94.253c0-.05175-.02677,0-.07853.15706a.30281.30281,0,0,0-.03926.11779,1.066,1.066,0,0,1-.19632.27484c-.05354.1053-.066.13207-.03926.07853a2.90915,2.90915,0,0,1-.27485.3141c.025-.025,0,0-.07852.07853-.07853.05354-.15706.1053-.23559.157-.05354.02678-.10529.05355-.157.07853a2.393,2.393,0,0,1-.27484.15706h-.03927l-.03926.03926c.025-.025.01249-.025-.03926,0a1.15506,1.15506,0,0,1-.23558.07853h-.11779a1.96636,1.96636,0,0,1-.39264.03926,1.7655,1.7655,0,0,1-.35337-.03926h-.11779c-.1053-.025-.19632-.05176-.27484-.07853h0l-.03927-.03926h-.03926c-.1053-.05176-.21059-.10352-.31411-.15706a.38312.38312,0,0,1-.11779-.07853c-.07852-.05175-.157-.10351-.23558-.157-.07852-.07853-.10529-.10351-.07852-.07853a2.72549,2.72549,0,0,1-.27485-.3141l-.03926-.03927v-.03926a1.02525,1.02525,0,0,1-.19632-.27484.33763.33763,0,0,0-.03926-.11779c-.05354-.13029-.07853-.182-.07853-.15706L241.12058,42.62162a2.08339,2.08339,0,0,1,.07853-1.76686,2.30972,2.30972,0,0,1,3.14107-1.09937,2.14741,2.14741,0,0,1,1.1779,1.33495l15.90168,45.31,15.94094-45.31a2.1374,2.1374,0,0,1,1.17791-1.33495l.86379-.4319S279.71651,39.42879,280.34472,39.6376Z" style="fill: #56565a"/>
          <path d="M301.53982,93.46772a2.356,2.356,0,0,1-4.71161,0v-51.435a2.356,2.356,0,0,1,4.71161,0Z" style="fill: #56565a"/>
          <path d="M324.4875,95.82353a2.41541,2.41541,0,0,1-2.35581-2.35581V41.79709a2.18149,2.18149,0,0,1,.70674-1.64907,2.0841,2.0841,0,0,1,1.64907-.70674l31.17514.07853a2.176,2.176,0,0,1,1.64906.70674,2.26011,2.26011,0,0,1,.70674,1.64906,2.3033,2.3033,0,0,1-.70674,1.68833,2.23379,2.23379,0,0,1-1.64906.66748l-28.81934-.07853V65.2766h21.55561a2.356,2.356,0,0,1,0,4.71161H326.8433V91.11192h28.81934a2.356,2.356,0,0,1,0,4.71161Z" style="fill: #56565a"/>
          <path d="M447.12674,39.51981A2.26332,2.26332,0,0,1,448.501,40.737a2.3917,2.3917,0,0,1,.07852,1.80612L430.43979,94.253c0-.025-.02677.02677-.07853.15706a.30281.30281,0,0,0-.03926.11779,1.02525,1.02525,0,0,1-.19632.27484v.03926l-.03926.03927a2.72633,2.72633,0,0,1-.27484.3141c.02677-.025,0,0-.07853.07853a2.248,2.248,0,0,1-.27485.157.43309.43309,0,0,1-.11779.07853,2.24838,2.24838,0,0,1-.27484.15706h-.03926a.03494.03494,0,0,0-.03927.03926c0-.025-.01249-.025-.03926,0a1.08216,1.08216,0,0,1-.23558.07853h-.11779a1.95335,1.95335,0,0,1-.39263.03926,1.76535,1.76535,0,0,1-.35337-.03926h-.1178c-.10529-.025-.19631-.05176-.27484-.07853-.02677-.025-.03926-.025-.03926,0a.03494.03494,0,0,0-.03927-.03926,1.65061,1.65061,0,0,1-.3141-.15706.43309.43309,0,0,1-.11779-.07853c-.07853-.05175-.15706-.10351-.23558-.157-.07853-.07853-.1053-.10351-.07853-.07853-.1053-.10351-.20881-.20881-.31411-.3141v-.03927a.03424.03424,0,0,1-.03926-.03926,2.509,2.509,0,0,1-.15705-.27484c0-.025-.02678-.06425-.07853-.11779-.02677-.13029-.03926-.182-.03926-.15706l-15.941-45.38849L394.12114,94.253c0-.025-.02677.02677-.07852.15706a.3027.3027,0,0,0-.03927.11779,1.025,1.025,0,0,1-.19632.27484v.03926l-.03926.03927a2.72633,2.72633,0,0,1-.27484.3141c.02677-.025,0,0-.07853.07853-.07853.05354-.15705.1053-.23558.157a.53547.53547,0,0,0-.11779.07853c-.1053.05354-.20881.1053-.31411.15706h-.03926l-.03926.03926c.02677-.025.01249-.025-.03927,0a1.082,1.082,0,0,1-.23558.07853h-.11779a1.95335,1.95335,0,0,1-.39263.03926,1.76535,1.76535,0,0,1-.35337-.03926H391.412c-.1053-.025-.19632-.05176-.27485-.07853h0l-.03926-.03926h-.03926c-.1053-.05176-.20881-.10352-.31411-.15706a.43309.43309,0,0,1-.11779-.07853c-.07853-.05175-.15705-.10351-.23558-.157-.07853-.07853-.1053-.10351-.07853-.07853a2.72441,2.72441,0,0,1-.27484-.3141.03425.03425,0,0,1-.03927-.03927l-.03926-.03926a2.509,2.509,0,0,1-.15705-.27484.30288.30288,0,0,0-.03927-.11779c-.05175-.13029-.07852-.182-.07852-.15706l-18.1397-51.7099a2.1745,2.1745,0,0,1,.07853-1.80612,2.30972,2.30972,0,0,1,3.14107-1.09937,2.43973,2.43973,0,0,1,1.21717,1.33495l15.90168,45.3885,15.94094-45.3885c-.02677.07853,0,.03927.07853-.11779.02677-.07852.05175-.157.07852-.23558a.61215.61215,0,0,0,.11779-.157,1.348,1.348,0,0,1,.15706-.19632.44948.44948,0,0,1,.15705-.15705c.05176-.05176.1053-.10351.157-.157.05176-.05176.1053-.10352.15706-.15706a1.03792,1.03792,0,0,1,.23558-.11779,1.786,1.786,0,0,1,.19632-.07852c.18382-.07853.22308-.10352.11779-.07853-.05176.02677-.02678.02677.07852,0,.07853-.025.15706-.05176.23558-.07853a.53444.53444,0,0,0,.23558-.03926h.47116a.30661.30661,0,0,0,.19632.03926,1.31877,1.31877,0,0,1,.23558.07853q.158.04015.11779,0l.03926.03926a.11817.11817,0,0,1,.07853.03927,1.78679,1.78679,0,0,1,.19632.07852,1.60755,1.60755,0,0,0,.19632.11779,1.16249,1.16249,0,0,0,.19631.15706c.05176.05354.1053.10529.15706.157.05175.05354.10529.1053.15705.15705a.51563.51563,0,0,1,.11779.19632.68.68,0,0,1,.11779.157,1.03791,1.03791,0,0,1,.11779.23558c.07853.15706.091.19632.03926.11779l15.94095,45.3885,15.94094-45.3885a2.26673,2.26673,0,0,1,1.21716-1.33495q.86469-.431.8638-.4319S446.52529,39.311,447.12674,39.51981Z" style="fill: #56565a"/>
          <path d="M508.55752,65.31581c-.04559,0-.08194.02141-.12691.02356-.03881-.00308-.069-.022-.10842-.02356q-7.461-.11782-10.87574-3.7693a7.88262,7.88262,0,0,1-2.35577-6.00725,11.21754,11.21754,0,0,1,3.92608-8.08827,12.80784,12.80784,0,0,1,8.83477-3.29817,18.98072,18.98072,0,0,1,8.44111,1.8061,9.43532,9.43532,0,0,1,5.497,6.20362,2.16541,2.16541,0,0,0,1.06023,1.41352,2.0962,2.0962,0,0,0,1.76683.23564,2.27758,2.27758,0,0,0,1.688-2.827,13.74892,13.74892,0,0,0-7.3815-8.9127,23.198,23.198,0,0,0-11.07164-2.59141,17.246,17.246,0,0,0-12.05425,4.59373,15.64558,15.64558,0,0,0-5.37872,11.22935,12.523,12.523,0,0,0,3.61189,9.46252q4.78949,5.10506,14.2135,5.2221h.03881c.03573,0,.0653-.01741.10042-.01879.03388.00138.061.01879.0961.01879q7.461.11759,10.87635,3.76914a7.93723,7.93723,0,0,1,2.35578,6.04668,11.17969,11.17969,0,0,1-3.9267,8.049,12.808,12.808,0,0,1-8.83415,3.298,19.32217,19.32217,0,0,1-8.44173-1.76683,9.54585,9.54585,0,0,1-5.497-6.24289,2.29733,2.29733,0,0,0-1.0596-1.41338,2.3391,2.3391,0,0,0-1.76683-.23563,2.30887,2.30887,0,0,0-1.45326,1.06006,2.34162,2.34162,0,0,0-.23534,1.76683,13.87084,13.87084,0,0,0,7.38151,8.95213,23.47864,23.47864,0,0,0,11.07226,2.55213,17.24463,17.24463,0,0,0,12.05362-4.59388,15.50637,15.50637,0,0,0,5.33992-11.22935,12.27275,12.27275,0,0,0-3.57309-9.42309Q517.98245,65.47468,508.55752,65.31581Z" style="fill: #56565a"/>
          <path d="M568.08836,95.82353A28.15127,28.15127,0,0,1,539.9365,67.67167a28.15186,28.15186,0,1,1,56.30372,0,28.15128,28.15128,0,0,1-28.15186,28.15186Zm0-51.63138a23.52672,23.52672,0,0,0-23.44025,23.47952,23.46,23.46,0,0,0,46.91976,0,23.5944,23.5944,0,0,0-23.47951-23.47952Z" style="fill: #56565a"/>
          <path d="M649.858,39.6376a2.3287,2.3287,0,0,1,1.64907.66748,2.24634,2.24634,0,0,1,.66748,1.64906V76.5452a19.27834,19.27834,0,0,1-38.55667,0V41.95414a2.27994,2.27994,0,0,1,2.31654-2.31654,2.19519,2.19519,0,0,1,1.6098.66748,2.24634,2.24634,0,0,1,.66748,1.64906V76.5452a14.68456,14.68456,0,0,0,29.369,0V41.95414a2.24633,2.24633,0,0,1,.66747-1.64906A2.19522,2.19522,0,0,1,649.858,39.6376Z" style="fill: #56565a"/>
          <path d="M692.38737,39.59834a16.57786,16.57786,0,0,1,11.622,4.43676,14.3148,14.3148,0,0,1,.86379,20.53476,16.06861,16.06861,0,0,1-9.69806,5.10424l11.19007,22.812a2.19737,2.19737,0,0,1,.11779,1.76685,2.28232,2.28232,0,0,1-1.1779,1.335,2.25258,2.25258,0,0,1-1.02085.23558,2.14681,2.14681,0,0,1-2.081-1.29569L690.07083,69.90968h-13.114V93.11435a2.34587,2.34587,0,0,1-2.3558,2.31654,2.27991,2.27991,0,0,1-2.31654-2.31654V41.91488a2.23945,2.23945,0,0,1,.66747-1.64907,2.32871,2.32871,0,0,1,1.64907-.66747Zm11.779,15.15567a9.56733,9.56733,0,0,0-3.45518-7.42078,12.03522,12.03522,0,0,0-8.32384-3.10181H676.95685V65.23734h15.70536a11.889,11.889,0,0,0,8.12753-3.14107A9.57613,9.57613,0,0,0,704.16639,54.754Z" style="fill: #56565a"/>
          <path d="M749.687,95.82353A27.0579,27.0579,0,0,1,729.78041,87.539a27.05791,27.05791,0,0,1-8.28458-19.90654,27.10528,27.10528,0,0,1,8.28458-19.94581A27.06473,27.06473,0,0,1,749.687,39.402a27.408,27.408,0,0,1,17.19737,5.85025,2.22036,2.22036,0,0,1,.90306,1.57053,2.24619,2.24619,0,0,1-.47116,1.72759,2.21433,2.21433,0,0,1-1.57054.90306,2.05313,2.05313,0,0,1-1.72759-.47116,22.99509,22.99509,0,0,0-14.33114-4.8294A23.45943,23.45943,0,0,0,726.2467,67.63241a23.48829,23.48829,0,0,0,39.2634,17.35442,2.24062,2.24062,0,0,1,1.68833-.62821,2.36271,2.36271,0,0,1,1.492,4.12265A27.26709,27.26709,0,0,1,749.687,95.82353Z" style="fill: #56565a"/>
          <path d="M787.46905,95.82353a2.41541,2.41541,0,0,1-2.3558-2.35581V41.79709A2.18149,2.18149,0,0,1,785.82,40.148a2.08409,2.08409,0,0,1,1.64906-.70674l31.17515.07853a2.176,2.176,0,0,1,1.64906.70674A2.26011,2.26011,0,0,1,821,41.87561a2.3033,2.3033,0,0,1-.70674,1.68833,2.23379,2.23379,0,0,1-1.64906.66748l-28.81934-.07853V65.2766h21.55561a2.356,2.356,0,0,1,0,4.71161H789.82486V91.11192H818.6442a2.356,2.356,0,0,1,0,4.71161Z" style="fill: #56565a"/>
        </g>
      </g>
    </g>
  </g>
</svg>
