<?xml version="1.0" encoding="utf-8"?>
<!-- Generator: Adobe Illustrator 19.0.0, SVG Export Plug-In . SVG Version: 6.00 Build 0)  -->
<svg version="1.1" xmlns="http://www.w3.org/2000/svg" xmlns:xlink="http://www.w3.org/1999/xlink" x="0px" y="0px"
	 viewBox="-439 201 1700.9 400" style="enable-background:new -439 201 1700.9 400;" xml:space="preserve">
<style type="text/css">
	.st0{fill:#455164;}
	.st1{fill:#ECF0F1;}
	.st2{fill:none;stroke:#ECF0F1;stroke-width:80;}
	.st3{fill:none;stroke:#F99D1C;stroke-width:60;}
	.st4{fill:none;stroke:#D02E27;stroke-width:60;}
	.st5{fill:#F99D1C;}
	.st6{fill:#D02E27;}
	.st7{fill:none;stroke:#30B4C5;stroke-width:60;}
	.st8{fill:none;stroke:#694D9F;stroke-width:60;}
	.st9{fill:#694D9F;}
	.st10{fill:#30B4C5;}
	.st11{fill:none;}
	.st12{font-family:'Arvo';}
	.st13{font-size:150px;}
</style>
<g id="background">
	<rect x="-439" y="201" class="st0" width="1700.9" height="400"/>
</g>
<g id="logo">
	<title>W3C developers</title>
	<circle class="st1" cx="26" cy="401.4" r="40"/>
	<circle class="st1" cx="121" cy="306.4" r="40"/>
	<circle class="st1" cx="121" cy="496.4" r="40"/>
	<line class="st2" x1="26" y1="401.4" x2="121" y2="306.4"/>
	<line class="st2" x1="26" y1="401.4" x2="121" y2="496.4"/>
	<line class="st3" x1="26" y1="401.4" x2="121" y2="306.4"/>
	<line class="st4" x1="26" y1="401.4" x2="121" y2="496.4"/>
	<circle class="st5" cx="121" cy="306.4" r="30"/>
	<circle class="st6" cx="26" cy="401.4" r="30"/>
	<circle class="st6" cx="121" cy="496.4" r="30"/>
	<circle class="st1" cx="26" cy="401.4" r="15"/>
	<circle class="st1" cx="121" cy="306.4" r="15"/>
	<circle class="st1" cx="121" cy="496.4" r="15"/>
	<circle class="st1" cx="306" cy="401.4" r="40"/>
	<circle class="st1" cx="211" cy="306.4" r="40"/>
	<circle class="st1" cx="211" cy="496.4" r="40"/>
	<line class="st2" x1="306" y1="401.4" x2="211" y2="306.4"/>
	<line class="st2" x1="306" y1="401.4" x2="211" y2="496.4"/>
	<line class="st7" x1="306" y1="401.4" x2="211" y2="306.4"/>
	<line class="st8" x1="306" y1="401.4" x2="211" y2="496.4"/>
	<circle class="st9" cx="306" cy="401.4" r="30"/>
	<circle class="st10" cx="211" cy="306.4" r="30"/>
	<circle class="st9" cx="211" cy="496.4" r="30"/>
	<circle class="st1" cx="306" cy="401.4" r="15"/>
	<circle class="st1" cx="211" cy="306.4" r="15"/>
	<circle class="st1" cx="211" cy="496.4" r="15"/>
	<rect x="411.5" y="341.4" class="st11" width="818.9" height="120"/>
	<text transform="matrix(1 0 0 1 411.457 455.4194)" class="st1 st12 st13">developers</text>
	<g>
		<g image-rendering="optimizeQuality" shape-rendering="geometricPrecision" text-rendering="geometricPrecision">
			<g image-rendering="optimizeQuality" shape-rendering="geometricPrecision" text-rendering="geometricPrecision">
				<g id="Background_1_">
				</g>
				<g id="Guides_1_">
				</g>
				<g id="Foreground_1_">
					<g>
						<path class="st1" d="M-310.5,326.7l26.7,90.9l26.7-90.9h19.4h53.2v9l-27.3,47c9.6,3.1,16.8,8.7,21.8,16.8
							c4.9,8.1,7.4,17.6,7.4,28.6c0,13.5-3.6,24.9-10.8,34.1c-7.2,9.2-16.5,13.8-27.9,13.8c-8.6,0-16.1-2.7-22.5-8.2
							c-6.4-5.5-11.1-12.9-14.2-22.2l15.1-6.3c2.2,5.7,5.1,10.1,8.8,13.4c3.6,3.3,7.9,4.9,12.8,4.9c5.2,0,9.5-2.9,13.1-8.7
							c3.6-5.8,5.4-12.7,5.4-20.8c0-9-1.9-15.9-5.7-20.8c-4.4-5.8-11.4-8.7-20.8-8.7h-7.4v-8.9l25.8-44.6h-31.2l-1.8,3l-37.9,127.9
							h-1.8l-27.7-92.6l-27.7,92.6h-1.8l-44.3-149.4h19.4l26.7,90.9l18.1-61.2l-8.9-29.7C-329.9,326.7-310.5,326.7-310.5,326.7z"/>
					</g>
					<path class="st1" d="M-83.8,326.7c-3.8,0-7.2,1.4-9.8,4c-2.7,2.8-4.3,6.4-4.3,10.1s1.5,7.2,4.1,9.9c2.7,2.7,6.2,4.2,10,4.2
						c3.7,0,7.3-1.5,10-4.2c2.7-2.6,4.1-6,4.1-9.9c0-3.8-1.5-7.3-4.1-9.9C-76.5,328.2-80,326.7-83.8,326.7z M-71.6,340.9
						c0,3.3-1.3,6.3-3.6,8.5c-2.4,2.4-5.5,3.6-8.8,3.6c-3.1,0-6.2-1.3-8.5-3.6c-2.3-2.4-3.6-5.4-3.6-8.6c0-3.2,1.3-6.4,3.7-8.8
						c2.2-2.3,5.3-3.5,8.5-3.5c3.4,0,6.4,1.3,8.7,3.6C-72.8,334.5-71.6,337.5-71.6,340.9z M-83.5,332.6h-6v16h3v-6.8h3l3.3,6.8h3.4
						l-3.6-7.3c2.3-0.5,3.6-2,3.6-4.3C-76.8,334-79,332.6-83.5,332.6z M-84,334.5c2.8,0,4.1,0.8,4.1,2.7c0,1.9-1.3,2.5-4,2.5h-2.5
						v-5.3C-86.5,334.5-84,334.5-84,334.5z"/>
				</g>
				<g id="Calque_1_1_">
					<g>
						<path class="st1" d="M-107.6,325.9l3.1,19.1l-11.1,21.2c0,0-4.3-9-11.3-14c-6-4.2-9.9-5.1-15.9-3.9
							c-7.8,1.6-16.7,10.9-20.5,22.5c-4.6,13.8-4.7,20.4-4.8,26.6c-0.3,9.8,1.3,15.6,1.3,15.6s-6.7-12.5-6.7-30.7
							c0-13,2.1-24.9,8.1-36.5c5.3-10.3,13.2-16.4,20.2-17.1c7.2-0.7,13,2.7,17.4,6.5c4.6,4,9.3,12.6,9.3,12.6L-107.6,325.9z"/>
						<path class="st1" d="M-106.2,433.8c0,0-4.9,8.8-8,12.2c-3.1,3.4-8.5,9.3-15.3,12.3c-6.8,3-10.3,3.5-17,2.9
							c-6.7-0.6-12.9-4.5-15-6.1c-2.2-1.6-7.7-6.4-10.9-10.8s-8-13.3-8-13.3s2.7,8.9,4.4,12.6c1,2.2,4,8.8,8.3,14.6
							c4,5.4,11.8,14.6,23.6,16.7c11.8,2.1,20-3.2,22-4.5c2-1.3,6.3-4.8,8.9-7.7c2.8-3,5.5-6.8,6.9-9.1c1.1-1.7,2.8-5.1,2.8-5.1
							L-106.2,433.8z"/>
					</g>
				</g>
			</g>
		</g>
	</g>
</g>
</svg>
