<?xml version="1.0" encoding="utf-8"?>
<!-- Generator: Adobe Illustrator 19.0.0, SVG Export Plug-In . SVG Version: 6.00 Build 0)  -->
<svg version="1.1" id="Layer_1" xmlns="http://www.w3.org/2000/svg" xmlns:xlink="http://www.w3.org/1999/xlink" x="0px" y="0px"
	 viewBox="0 0 400 400" style="enable-background:new 0 0 400 400;" xml:space="preserve">
<style type="text/css">
	.st0{fill:#005A9C;}
	.st1{fill:#F7F7F7;stroke:#DDDDDD;stroke-width:1.2;stroke-miterlimit:10;}
	.st2{fill:none;stroke:#F7F7F7;stroke-width:2;stroke-miterlimit:10;}
	.st3{fill:none;stroke:#F7F7F7;stroke-width:2;stroke-miterlimit:10;stroke-dasharray:8,8;}
	.st4{fill:none;stroke:#F7F7F7;stroke-width:2;stroke-miterlimit:10;stroke-dasharray:7.5549,7.5549;}
</style>
<polygon id="XMLID_4_" class="st0" points="100,50 100,300 200,350 300,300 300,50 "/>
<g id="XMLID_1_">
	<g id="XMLID_2_" text-rendering="geometricPrecision" shape-rendering="geometricPrecision" image-rendering="optimizeQuality">
		<g id="XMLID_3_" text-rendering="geometricPrecision" shape-rendering="geometricPrecision" image-rendering="optimizeQuality">
			<g id="Background_1_">
			</g>
			<g id="Guides_1_">
			</g>
			<g id="Foreground_1_">
				<g id="XMLID_13_">
					<path id="XMLID_14_" class="st1" d="M168.4,200.3l10.2,34.6l10.2-34.6h7.4h20.2v3.4L206,221.6c3.6,1.2,6.4,3.3,8.3,6.4
						c1.9,3.1,2.8,6.7,2.8,10.9c0,5.1-1.4,9.5-4.1,13c-2.7,3.5-6.3,5.3-10.6,5.3c-3.3,0-6.1-1-8.6-3.1c-2.4-2.1-4.2-4.9-5.4-8.5
						l5.8-2.4c0.8,2.2,2,3.8,3.3,5.1c1.4,1.2,3,1.9,4.9,1.9c2,0,3.6-1.1,5-3.3c1.4-2.2,2-4.8,2-7.9c0-3.4-0.7-6.1-2.2-7.9
						c-1.7-2.2-4.3-3.3-7.9-3.3h-2.8v-3.4l9.8-17h-11.9l-0.7,1.1l-14.4,48.7h-0.7l-10.5-35.2l-10.5,35.2h-0.7L140,200.3h7.4
						l10.2,34.6l6.9-23.3l-3.4-11.3C161,200.3,168.4,200.3,168.4,200.3z"/>
				</g>
				<path id="XMLID_8_" class="st1" d="M254.6,200.3c-1.4,0-2.7,0.5-3.7,1.5c-1,1.1-1.6,2.4-1.6,3.8s0.6,2.7,1.6,3.8
					c1,1,2.4,1.6,3.8,1.6c1.4,0,2.8-0.6,3.8-1.6c1-1,1.6-2.3,1.6-3.8c0-1.4-0.6-2.8-1.6-3.8C257.4,200.9,256.1,200.3,254.6,200.3z
					 M259.3,205.7c0,1.2-0.5,2.4-1.4,3.2c-0.9,0.9-2.1,1.4-3.3,1.4c-1.2,0-2.4-0.5-3.3-1.4c-0.9-0.9-1.4-2-1.4-3.3s0.5-2.4,1.4-3.3
					c0.8-0.9,2-1.3,3.3-1.3c1.3,0,2.4,0.5,3.3,1.4C258.8,203.3,259.3,204.4,259.3,205.7z M254.8,202.5h-2.3v6.1h1.1V206h1.1l1.2,2.6
					h1.3l-1.4-2.8c0.9-0.2,1.4-0.8,1.4-1.6C257.3,203.1,256.5,202.5,254.8,202.5z M254.6,203.3c1.1,0,1.6,0.3,1.6,1
					c0,0.7-0.5,1-1.5,1h-1v-2C253.6,203.3,254.6,203.3,254.6,203.3z"/>
			</g>
			<g id="Calque_1_1_">
				<g id="XMLID_5_">
					<path id="XMLID_7_" class="st1" d="M245.6,200l1.2,7.3l-4.2,8.1c0,0-1.6-3.4-4.3-5.3c-2.3-1.6-3.7-1.9-6.1-1.5
						c-3,0.6-6.3,4.2-7.8,8.5c-1.8,5.2-1.8,7.8-1.8,10.1c-0.1,3.7,0.5,5.9,0.5,5.9s-2.6-4.7-2.5-11.7c0-5,0.8-9.5,3.1-13.9
						c2-3.9,5-6.2,7.7-6.5c2.8-0.3,4.9,1,6.6,2.5c1.8,1.5,3.6,4.8,3.6,4.8L245.6,200z"/>
					<path id="XMLID_6_" class="st1" d="M246.1,241c0,0-1.9,3.3-3,4.6c-1.2,1.3-3.2,3.6-5.8,4.7c-2.6,1.1-3.9,1.3-6.5,1.1
						c-2.5-0.2-4.9-1.7-5.7-2.3c-0.8-0.6-2.9-2.4-4.1-4.1s-3.1-5-3.1-5s1,3.4,1.7,4.8c0.4,0.8,1.5,3.3,3.2,5.5c1.5,2,4.5,5.6,9,6.4
						c4.5,0.8,7.6-1.2,8.4-1.7c0.8-0.5,2.4-1.8,3.4-2.9c1.1-1.1,2.1-2.6,2.6-3.5c0.4-0.6,1.1-1.9,1.1-1.9L246.1,241z"/>
				</g>
			</g>
		</g>
	</g>
</g>
<g id="XMLID_15_">
	<g id="XMLID_33_">
		<polyline id="XMLID_43_" class="st2" points="109,59 105,59 105,63 		"/>
		<line id="XMLID_42_" class="st3" x1="105" y1="71" x2="105" y2="288"/>
		<polyline id="XMLID_41_" class="st2" points="105,292 105,295.5 108.6,297.6 		"/>
		<line id="XMLID_40_" class="st4" x1="115.3" y1="300.7" x2="193" y2="339.6"/>
		<polyline id="XMLID_39_" class="st2" points="196.4,341.3 200,343 203.6,341.3 		"/>
		<line id="XMLID_38_" class="st4" x1="210.3" y1="337.9" x2="288" y2="299"/>
		<polyline id="XMLID_37_" class="st2" points="291.4,297.6 295,295.5 295,292 		"/>
		<line id="XMLID_36_" class="st3" x1="295" y1="284" x2="295" y2="67"/>
		<polyline id="XMLID_35_" class="st2" points="295,63 295,59 291,59 		"/>
		<line id="XMLID_34_" class="st3" x1="283" y1="59" x2="113" y2="59"/>
	</g>
</g>
</svg>
