<?xml version="1.0" encoding="utf-8"?>
<!-- Generator: Adobe Illustrator 19.0.0, SVG Export Plug-In . SVG Version: 6.00 Build 0)  -->
<svg version="1.1" id="Layer_1" xmlns="http://www.w3.org/2000/svg" xmlns:xlink="http://www.w3.org/1999/xlink" x="0px" y="0px"
	 viewBox="0 0 1200 120" style="enable-background:new 0 0 1200 120;" xml:space="preserve">
<style type="text/css">
	.st0{display:none;fill:#FFFFFF;}
	.st1{fill:#FFFFFF;}
	.st2{display:none;}
	.st3{display:inline;fill:#FFFFFF;}
</style>
<g id="XMLID_15_">
	<g id="XMLID_137_">
		<path id="XMLID_2_" class="st0" d="M211.8,113.5h-12.4V5.8h12.4c29.3,0.1,31.5,11.7,31.5,53.9
			C243.3,101.8,241.1,113.3,211.8,113.5z M215.2,97.7c11.1,0,11.9-2.8,11.7-38.1c0.1-35.2-0.6-37.9-11.7-37.9V97.7z"/>
		<path id="XMLID_3_" class="st0" d="M258.6,5.8h36.2v16.3h-20.4v28.3H289v17.3h-14.6v29.6h20.4v16.3h-36.2V5.8z"/>
		<path id="XMLID_4_" class="st0" d="M338.1,5.8h15.4l-16.4,107.6h-15.8L304.9,5.8h15.4l7.9,59.2l0.6,4.5h0.9l0.6-4.5L338.1,5.8z"/>
		<path id="XMLID_5_" class="st0" d="M365.9,5.8h36.2v16.3h-20.4v28.3h14.6v17.3h-14.6v29.6h20.4v16.3h-36.2V5.8z"/>
		<path id="XMLID_6_" class="st0" d="M417.4,5.8h15.8v93h20.9v14.6h-36.8V5.8z"/>
		<path id="XMLID_7_" class="st0" d="M484.8,114.6c-21.2,0-21.1-23.3-21.1-23.3V27.9c0,0-0.1-23.3,21.1-23.3
			c21.2,0,21.1,23.3,21.1,23.3v63.4C505.9,91.4,506,114.6,484.8,114.6z M484.8,20c-5.6,0-5.3,7.9-5.3,7.9v63.4c0,0-0.3,7.9,5.3,7.9
			c5.6,0,5.3-7.9,5.3-7.9V27.9C490.1,27.9,490.4,20,484.8,20z"/>
		<path id="XMLID_8_" class="st0" d="M522.5,5.8c0,0,15.1,0,15.8,0c13.8,0,27.8,7.5,27.8,32.2c0,24.8-14.1,32.4-27.8,32.4v43.1
			h-15.8V5.8z M538.3,54.3c10,0,11.9-3.7,11.9-15.7c0-12-1.9-16.7-11.9-16.7V54.3z"/>
		<path id="XMLID_9_" class="st0" d="M578.2,5.8h36.2v16.3H594v28.3h14.6v17.3H594v29.6h20.4v16.3h-36.2V5.8z"/>
		<path id="XMLID_10_" class="st0" d="M657.3,113.5l-8.2-45.4h-4.2v45.4H629V5.8h15.8c18.7,0,26.9,10.8,26.9,31
			c0,10.7-2.8,20.4-8.8,24.5l10.1,52.1H657.3z M644.9,21.5v31.9c4.4,0,11.7-0.6,11.7-16S649.3,21.5,644.9,21.5z"/>
		<path id="XMLID_12_" class="st0" d="M703.3,4.7c19-0.4,22.1,16.5,22.1,28.6l-15.5,1.5c0-7.2-1-15.5-6.3-15.5
			c-4.1,0.1-5.4,4.5-5.4,10.7c0,7.3,6.3,15.5,12.4,24.5c7.3,11,14.8,21.7,14.8,33.2c0,14.4-4.7,27.1-22,27.1
			c-20.4,0-23-15.4-23-31.3l15.5-1.5c0,8.9,0.9,18.3,7.5,18.3c4.7,0,6.4-5.1,6.4-11.9c0-7.2-6.7-15.8-12.7-24.9
			c-7.5-11-14.5-22-14.5-33.5C682.7,18.1,688.4,4.9,703.3,4.7z"/>
		<path id="XMLID_11_" class="st1" d="M174.4,30.2l1.4,7.5l-4.4,8.5c0,0-1.7-3.6-4.6-5.6c-2.4-1.7-3.9-2.1-6.3-1.6
			c-3.1,0.7-6.7,4.5-8.2,9.1c-1.9,5.5-1.9,8-1.9,10.6c-0.2,4,0.5,6.2,0.5,6.2s-2.7-5-2.7-12.3c0-5.1,0.8-9.9,3.2-14.5
			c2.2-4.1,5.3-6.5,8-6.9c2.9-0.3,5.3,1.1,7,2.6c1.9,1.5,3.8,5.1,3.8,5.1L174.4,30.2z"/>
		<path id="XMLID_44_" class="st1" d="M175.1,73.2c0,0-2.1,3.4-3.3,4.8c-1.2,1.4-3.4,3.8-6.1,4.9c-2.7,1.2-4.1,1.4-6.7,1.2
			c-2.7-0.4-5.3-1.9-6.1-2.4c-0.8-0.7-3.1-2.6-4.3-4.5c-1.2-1.7-3.3-5.3-3.3-5.3s1.2,3.6,1.9,5.1c0.3,0.9,1.5,3.4,3.3,5.8
			c1.5,2.2,4.8,5.8,9.4,6.7c4.8,0.8,8-1.2,8.9-1.7c0.7-0.5,2.4-2.1,3.4-3.1c1.2-1.2,2.2-2.7,2.9-3.8c0.3-0.7,1-2.1,1-2.1L175.1,73.2
			z"/>
		<polygon id="XMLID_43_" class="st1" points="93.5,30.5 104.2,66.7 114.8,30.5 122.5,30.5 104.9,90.2 104.2,90.2 93.1,53.1 
			82,90.2 81.4,90.2 63.6,30.5 71.4,30.5 82,66.7 89.4,42.3 85.8,30.5 		"/>
		<path id="XMLID_42_" class="st1" d="M144.5,71c0,5.3-1.4,9.9-4.3,13.7c-2.9,3.6-6.6,5.5-11.3,5.5c-3.4,0-6.3-1.2-8.9-3.3
			c-2.5-2.2-4.4-5.1-5.6-8.8l6-2.5c0.8,2.2,2,4.1,3.4,5.3c1.5,1.4,3.2,2.1,5.1,2.1c2.1,0,4-1.2,5.3-3.6c1.4-2.2,2.2-4.9,2.2-8.2
			c0-3.6-0.9-6.3-2.4-8.3c-1.7-2.2-4.4-3.4-8.4-3.4h-2.9v-3.6l10.4-17.7h-12.5l-3.6,5.8H115V30.6h28.9v3.6l-10.9,18.8
			c3.7,1.2,6.6,3.4,8.7,6.7C143.5,62.8,144.5,66.6,144.5,71"/>
		<polygon id="XMLID_14_" class="st1" points="65.2,5.8 64,9.7 175.7,9.7 175.7,5.8 		"/>
		<polygon id="XMLID_13_" class="st1" points="65.3,113.5 175.7,113.5 175.7,109.6 64.2,109.6 		"/>
	</g>
</g>
<g id="XMLID_17_">
	<path id="XMLID_18_" class="st1" d="M184.9,113.9V6.8h32.9c9.4,0,17.8,2.1,25.3,6.4c7.4,4.2,13.2,10.3,17.4,18.1
		c4.2,7.8,6.3,16.7,6.3,26.7v4.9c0,10-2,18.8-6.1,26.5c-4.1,7.7-9.9,13.8-17.3,18c-7.5,4.3-15.9,6.4-25.2,6.5H184.9z M206.9,24.7
		v71.5h10.7c8.6,0,15.2-2.8,19.8-8.5c4.6-5.6,6.9-13.7,7-24.2v-5.7c0-10.9-2.3-19.1-6.8-24.7c-4.5-5.6-11.1-8.4-19.8-8.4H206.9z"/>
	<path id="XMLID_21_" class="st1" d="M347.2,67.3h-42.4v28.8h49.7v17.7h-71.8V6.8h71.6v17.9h-49.6v25.5h42.4V67.3z"/>
	<path id="XMLID_23_" class="st1" d="M407,87.3l24.3-80.5h24.6l-37.3,107.1h-23L358.4,6.8h24.5L407,87.3z"/>
	<path id="XMLID_25_" class="st1" d="M530.3,67.3H488v28.8h49.7v17.7h-71.8V6.8h71.6v17.9H488v25.5h42.4V67.3z"/>
	<path id="XMLID_27_" class="st1" d="M572.7,96.2h46.8v17.7h-68.9V6.8h22.1V96.2z"/>
	<path id="XMLID_29_" class="st1" d="M715.4,62.8c0,10.5-1.9,19.8-5.6,27.7c-3.7,7.9-9.1,14.1-16,18.4c-6.9,4.3-14.9,6.5-23.9,6.5
		c-8.9,0-16.8-2.1-23.8-6.4c-7-4.3-12.4-10.4-16.2-18.3c-3.8-7.9-5.8-17-5.8-27.3v-5.3c0-10.5,1.9-19.8,5.7-27.8
		c3.8-8,9.2-14.2,16.1-18.5c6.9-4.3,14.9-6.4,23.8-6.4c8.9,0,16.9,2.1,23.8,6.4c6.9,4.3,12.3,10.4,16.1,18.5
		c3.8,8,5.7,17.3,5.7,27.8V62.8z M693.1,57.9c0-11.2-2-19.8-6-25.6c-4-5.8-9.8-8.8-17.2-8.8c-7.4,0-13.1,2.9-17.1,8.6
		c-4,5.8-6.1,14.2-6.1,25.3v5.2c0,10.9,2,19.4,6,25.4c4,6,9.8,9,17.4,9c7.4,0,13.1-2.9,17.1-8.7c4-5.8,6-14.3,6-25.4V57.9z"/>
	<path id="XMLID_32_" class="st1" d="M753.5,76.2v37.7h-22.1V6.8h41.8c8,0,15.1,1.5,21.2,4.4s10.8,7.1,14.1,12.5
		c3.3,5.4,4.9,11.6,4.9,18.5c0,10.5-3.6,18.8-10.8,24.8c-7.2,6.1-17.1,9.1-29.8,9.1H753.5z M753.5,58.3h19.7
		c5.8,0,10.3-1.4,13.3-4.1c3.1-2.7,4.6-6.7,4.6-11.8c0-5.2-1.5-9.5-4.6-12.7s-7.4-4.9-12.8-5h-20.2V58.3z"/>
	<path id="XMLID_35_" class="st1" d="M893,67.3h-42.4v28.8h49.7v17.7h-71.8V6.8h71.6v17.9h-49.6v25.5H893V67.3z"/>
	<path id="XMLID_37_" class="st1" d="M952.9,74.7h-17.6v39.2h-22.1V6.8h39.8c12.6,0,22.4,2.8,29.3,8.5c6.9,5.6,10.3,13.6,10.3,23.9
		c0,7.3-1.6,13.4-4.7,18.3c-3.2,4.9-8,8.8-14.4,11.7l23.2,43.7v1H973L952.9,74.7z M935.3,56.8h17.8c5.5,0,9.8-1.4,12.9-4.2
		c3-2.8,4.6-6.7,4.6-11.7c0-5-1.4-9-4.3-11.9c-2.9-2.9-7.3-4.3-13.2-4.3h-17.7V56.8z"/>
	<path id="XMLID_40_" class="st1" d="M1064.9,85.8c0-4.2-1.5-7.4-4.4-9.6c-2.9-2.2-8.2-4.6-15.9-7.1c-7.6-2.5-13.7-4.9-18.2-7.3
		c-12.2-6.6-18.2-15.4-18.2-26.5c0-5.8,1.6-10.9,4.9-15.5c3.3-4.5,7.9-8.1,14-10.6c6.1-2.5,13-3.8,20.6-3.8c7.6,0,14.5,1.4,20.4,4.2
		c6,2.8,10.6,6.7,13.9,11.7c3.3,5,5,10.8,5,17.2H1065c0-4.9-1.5-8.7-4.6-11.4c-3.1-2.7-7.4-4.1-13-4.1c-5.4,0-9.6,1.1-12.6,3.4
		c-3,2.3-4.5,5.3-4.5,9c0,3.5,1.8,6.4,5.3,8.8c3.5,2.4,8.7,4.6,15.5,6.6c12.5,3.8,21.7,8.5,27.4,14s8.6,12.6,8.6,20.9
		c0,9.3-3.5,16.5-10.5,21.8c-7,5.3-16.4,7.9-28.3,7.9c-8.2,0-15.7-1.5-22.5-4.5c-6.8-3-11.9-7.1-15.5-12.4
		c-3.6-5.2-5.3-11.3-5.3-18.2h22.1c0,11.8,7.1,17.7,21.2,17.7c5.2,0,9.3-1.1,12.3-3.2C1063.4,92.6,1064.9,89.6,1064.9,85.8z"/>
</g>
<g id="XMLID_61_" class="st2">
	<path id="XMLID_62_" class="st3" d="M209.6-164.3v-107.1h31.6c9.5,0,17.9,2.1,25.2,6.3c7.3,4.2,13,10.2,17,17.9
		c4,7.7,6,16.6,6,26.6v5.4c0,10.1-2,19.1-6.1,26.8c-4,7.7-9.8,13.6-17.3,17.8c-7.5,4.2-16,6.3-25.7,6.3H209.6z M228.2-256.3v77.1
		h12.1c9.8,0,17.2-3,22.5-9.1c5.2-6.1,7.9-14.8,8-26.2v-5.9c0-11.6-2.5-20.5-7.6-26.6c-5-6.1-12.4-9.2-22-9.2H228.2z"/>
	<path id="XMLID_65_" class="st3" d="M370.5-212.1h-44v32.8H378v15h-70v-107.1h69.5v15h-50.9v29.6h44V-212.1z"/>
	<path id="XMLID_67_" class="st3" d="M430.8-187.6l27.2-83.8h20.4l-38.5,107.1h-18l-38.4-107.1h20.4L430.8-187.6z"/>
	<path id="XMLID_69_" class="st3" d="M553.1-212.1h-44v32.8h51.4v15h-70v-107.1H560v15h-50.9v29.6h44V-212.1z"/>
	<path id="XMLID_71_" class="st3" d="M594.3-179.3h48.6v15h-67.2v-107.1h18.6V-179.3z"/>
	<path id="XMLID_73_" class="st3" d="M737.9-215c0,10.5-1.8,19.7-5.4,27.6c-3.6,7.9-8.8,14-15.6,18.2c-6.7,4.2-14.5,6.4-23.3,6.4
		c-8.7,0-16.4-2.1-23.2-6.4c-6.8-4.2-12-10.3-15.7-18.1c-3.7-7.8-5.6-16.9-5.6-27.1v-6c0-10.4,1.8-19.7,5.6-27.6
		c3.7-8,8.9-14.1,15.7-18.3c6.7-4.2,14.5-6.4,23.2-6.4c8.7,0,16.5,2.1,23.2,6.3c6.7,4.2,11.9,10.2,15.6,18.1
		c3.7,7.9,5.5,17,5.6,27.5V-215z M719.3-220.6c0-11.9-2.2-21-6.7-27.3c-4.5-6.3-10.8-9.5-19.1-9.5c-8,0-14.3,3.2-18.9,9.4
		c-4.5,6.3-6.9,15.2-6.9,26.7v6.2c0,11.8,2.3,20.9,6.9,27.3c4.6,6.4,10.9,9.6,19.1,9.6c8.2,0,14.6-3.1,19-9.4
		c4.4-6.3,6.7-15.4,6.7-27.5V-220.6z"/>
	<path id="XMLID_76_" class="st3" d="M775-204v39.7h-18.6v-107.1h41c12,0,21.5,3.1,28.5,9.3c7,6.2,10.6,14.5,10.6,24.7
		c0,10.5-3.4,18.7-10.3,24.5c-6.9,5.8-16.5,8.8-28.9,8.8H775z M775-219h22.4c6.6,0,11.7-1.6,15.1-4.7c3.5-3.1,5.2-7.6,5.2-13.5
		c0-5.8-1.8-10.4-5.3-13.9c-3.5-3.5-8.4-5.2-14.6-5.3H775V-219z"/>
	<path id="XMLID_79_" class="st3" d="M915.2-212.1h-44v32.8h51.4v15h-70v-107.1h69.5v15h-50.9v29.6h44V-212.1z"/>
	<path id="XMLID_81_" class="st3" d="M977.2-205.5h-20.7v41.2h-18.6v-107.1h37.6c12.4,0,21.9,2.8,28.6,8.3
		c6.7,5.5,10.1,13.6,10.1,24.1c0,7.2-1.7,13.2-5.2,18c-3.5,4.8-8.3,8.5-14.4,11.1l24,44.6v1h-19.9L977.2-205.5z M956.4-220.5h19.1
		c6.3,0,11.2-1.6,14.7-4.7c3.5-3.2,5.3-7.5,5.3-13c0-5.7-1.6-10.2-4.9-13.3c-3.3-3.1-8.1-4.8-14.6-4.9h-19.6V-220.5z"/>
	<path id="XMLID_84_" class="st3" d="M1087.7-191.9c0-4.7-1.7-8.3-5-10.9c-3.3-2.5-9.3-5.1-17.9-7.7c-8.6-2.6-15.5-5.5-20.6-8.7
		c-9.8-6.1-14.6-14.1-14.6-24c0-8.6,3.5-15.7,10.6-21.3c7-5.6,16.2-8.4,27.4-8.4c7.5,0,14.1,1.4,19.9,4.1
		c5.8,2.7,10.4,6.7,13.7,11.7c3.3,5.1,5,10.7,5,16.9h-18.5c0-5.5-1.8-9.9-5.3-13c-3.5-3.1-8.5-4.7-15-4.7c-6.1,0-10.8,1.3-14.2,3.9
		c-3.4,2.6-5,6.2-5,10.8c0,3.9,1.8,7.2,5.4,9.8c3.6,2.6,9.6,5.2,17.9,7.6c8.3,2.5,15,5.3,20.1,8.4c5,3.2,8.8,6.8,11.1,10.9
		c2.4,4.1,3.5,8.9,3.5,14.4c0,8.9-3.4,16-10.3,21.3c-6.8,5.3-16.1,7.9-27.8,7.9c-7.7,0-14.9-1.4-21.4-4.3
		c-6.5-2.9-11.5-6.8-15.1-11.9c-3.6-5-5.4-10.9-5.4-17.6h18.6c0,6.1,2,10.8,6,14.1c4,3.3,9.8,5,17.3,5c6.5,0,11.3-1.3,14.6-3.9
		C1086.1-184.1,1087.7-187.5,1087.7-191.9z"/>
</g>
</svg>
