<?xml version="1.0" encoding="utf-8"?>
<!-- Generator: Adobe Illustrator 19.0.0, SVG Export Plug-In . SVG Version: 6.00 Build 0)  -->
<svg version="1.1" xmlns="http://www.w3.org/2000/svg" xmlns:xlink="http://www.w3.org/1999/xlink" x="0px" y="0px"
	 viewBox="0 0 1200 693.8" style="enable-background:new 0 0 1200 693.8;" xml:space="preserve">
<style type="text/css">
	.st0{opacity:0.8;fill:#A4BEDE;stroke:#9FA8DA;stroke-width:0.8625;stroke-miterlimit:10;}
	.st1{fill:#E8EAF6;stroke:#9FA8DA;stroke-width:0.8625;stroke-miterlimit:10;}
	.st2{fill:#9FA8DA;stroke:#9FA8DA;stroke-width:0.8625;stroke-miterlimit:10;}
	.st3{fill:#FFFFFF;stroke:#9FA8DA;stroke-width:0.8625;stroke-miterlimit:10;}
	.st4{opacity:0.7;fill:#9FA8DA;stroke:#9FA8DA;stroke-width:0.8625;stroke-miterlimit:10;}
	.st5{opacity:0.8;fill:#9FA8DA;stroke:#9FA8DA;stroke-width:0.8625;stroke-miterlimit:10;}
	.st6{fill:#9FA8DA;}
	.st7{fill:none;stroke:#E8EAF6;stroke-width:0.8625;stroke-miterlimit:10;}
	.st8{opacity:0.15;fill:#9FA8DA;stroke:#E8EAF6;stroke-width:0.8625;stroke-miterlimit:10;}
	.st9{fill:none;}
	.st10{fill:#E8EAF6;stroke:#E8EAF6;stroke-width:0.8625;stroke-miterlimit:10;}
	.st11{opacity:0.7;}
	.st12{fill:#E8EAF6;stroke:#9FA8DA;stroke-width:1.2785;stroke-miterlimit:10;}
	.st13{opacity:0.8;}
	.st14{fill:#A4BEDE;stroke:#9FA8DA;stroke-width:0.8625;stroke-miterlimit:10;}
</style>
<g id="Layer_1">
	<path id="XMLID_4_" class="st0" d="M888.6,578H487.4c-8.3,0-15-6.7-15-15V334.3c0-8.3,6.7-15,15-15h401.2c8.3,0,15,6.7,15,15V563
		C903.6,571.3,896.9,578,888.6,578z"/>
	<path id="XMLID_1_" class="st1" d="M888.6,567.5H487.4c-8.3,0-15-6.7-15-15V323.7c0-8.3,6.7-15,15-15h401.2c8.3,0,15,6.7,15,15
		v228.7C903.6,560.8,896.9,567.5,888.6,567.5z"/>
	<path id="XMLID_2_" class="st2" d="M888.6,308.7H487.4c-8.3,0-15-6.7-15-15V65c0-8.3,6.7-15,15-15h401.2c8.3,0,15,6.7,15,15v228.7
		C903.6,302,896.9,308.7,888.6,308.7z"/>
	<path id="XMLID_3_" class="st3" d="M877,287.2H498.9c-2.8,0-5-2.2-5-5V76.6c0-2.8,2.2-5,5-5H877c2.8,0,5,2.2,5,5v205.6
		C882,284.9,879.8,287.2,877,287.2z"/>
	<path id="XMLID_5_" class="st0" d="M867.7,472.6H508.2c-5.5,0-10-4.5-10-10v-118c0-5.5,4.5-10,10-10h359.5c5.5,0,10,4.5,10,10v118
		C877.7,468.1,873.3,472.6,867.7,472.6z"/>
	<path id="XMLID_6_" class="st0" d="M738.4,558.9H637.6c-5.5,0-10-4.5-10-10v-57.6c0-5.5,4.5-10,10-10h100.7c5.5,0,10,4.5,10,10
		v57.6C748.4,554.4,743.9,558.9,738.4,558.9z"/>
	<path id="XMLID_7_" class="st4" d="M760.6,462.1H615.4c-2.8,0-5-2.2-5-5v-11.6c0-2.8,2.2-5,5-5h145.2c2.8,0,5,2.2,5,5v11.6
		C765.6,459.8,763.4,462.1,760.6,462.1z"/>
	<path id="XMLID_8_" class="st4" d="M786,462.1h-11.6c-2.8,0-5-2.2-5-5v-11.6c0-2.8,2.2-5,5-5H786c2.8,0,5,2.2,5,5v11.6
		C791,459.8,788.7,462.1,786,462.1z"/>
	<path id="XMLID_9_" class="st4" d="M812.7,462.1h-11.6c-2.8,0-5-2.2-5-5v-11.6c0-2.8,2.2-5,5-5h11.6c2.8,0,5,2.2,5,5v11.6
		C817.7,459.8,815.5,462.1,812.7,462.1z"/>
	<path id="XMLID_10_" class="st4" d="M838.6,462.1H827c-2.8,0-5-2.2-5-5v-11.6c0-2.8,2.2-5,5-5h11.6c2.8,0,5,2.2,5,5v11.6
		C843.6,459.8,841.3,462.1,838.6,462.1z"/>
	<path id="XMLID_11_" class="st4" d="M601.1,462.1h-11.6c-2.8,0-5-2.2-5-5v-11.6c0-2.8,2.2-5,5-5h11.6c2.8,0,5,2.2,5,5v11.6
		C606.1,459.8,603.8,462.1,601.1,462.1z"/>
	<path id="XMLID_12_" class="st4" d="M575.2,462.1h-11.6c-2.8,0-5-2.2-5-5v-11.6c0-2.8,2.2-5,5-5h11.6c2.8,0,5,2.2,5,5v11.6
		C580.2,459.8,577.9,462.1,575.2,462.1z"/>
	<path id="XMLID_13_" class="st4" d="M549.3,462.1h-11.6c-2.8,0-5-2.2-5-5v-11.6c0-2.8,2.2-5,5-5h11.6c2.8,0,5,2.2,5,5v11.6
		C554.3,459.8,552.1,462.1,549.3,462.1z"/>
	<path id="XMLID_14_" class="st4" d="M551.5,435.3h-33.1c-2.8,0-5-2.2-5-5v-11.6c0-2.8,2.2-5,5-5h33.1c2.8,0,5,2.2,5,5v11.6
		C556.5,433.1,554.3,435.3,551.5,435.3z"/>
	<path id="XMLID_15_" class="st4" d="M577.4,435.3h-11.6c-2.8,0-5-2.2-5-5v-11.6c0-2.8,2.2-5,5-5h11.6c2.8,0,5,2.2,5,5v11.6
		C582.4,433.1,580.1,435.3,577.4,435.3z"/>
	<path id="XMLID_16_" class="st4" d="M603.2,435.3h-11.6c-2.8,0-5-2.2-5-5v-11.6c0-2.8,2.2-5,5-5h11.6c2.8,0,5,2.2,5,5v11.6
		C608.2,433.1,606,435.3,603.2,435.3z"/>
	<path id="XMLID_17_" class="st4" d="M629.1,435.3h-11.6c-2.8,0-5-2.2-5-5v-11.6c0-2.8,2.2-5,5-5h11.6c2.8,0,5,2.2,5,5v11.6
		C634.1,433.1,631.9,435.3,629.1,435.3z"/>
	<path id="XMLID_20_" class="st4" d="M655.4,435.3h-11.6c-2.8,0-5-2.2-5-5v-11.6c0-2.8,2.2-5,5-5h11.6c2.8,0,5,2.2,5,5v11.6
		C660.4,433.1,658.2,435.3,655.4,435.3z"/>
	<path id="XMLID_19_" class="st4" d="M681.3,435.3h-11.6c-2.8,0-5-2.2-5-5v-11.6c0-2.8,2.2-5,5-5h11.6c2.8,0,5,2.2,5,5v11.6
		C686.3,433.1,684.1,435.3,681.3,435.3z"/>
	<path id="XMLID_18_" class="st4" d="M707.2,435.3h-11.6c-2.8,0-5-2.2-5-5v-11.6c0-2.8,2.2-5,5-5h11.6c2.8,0,5,2.2,5,5v11.6
		C712.2,433.1,709.9,435.3,707.2,435.3z"/>
	<path id="XMLID_23_" class="st4" d="M733,435.3h-11.6c-2.8,0-5-2.2-5-5v-11.6c0-2.8,2.2-5,5-5H733c2.8,0,5,2.2,5,5v11.6
		C738,433.1,735.8,435.3,733,435.3z"/>
	<path id="XMLID_22_" class="st4" d="M758.9,435.3h-11.6c-2.8,0-5-2.2-5-5v-11.6c0-2.8,2.2-5,5-5h11.6c2.8,0,5,2.2,5,5v11.6
		C763.9,433.1,761.7,435.3,758.9,435.3z"/>
	<path id="XMLID_21_" class="st4" d="M784.8,435.3h-11.6c-2.8,0-5-2.2-5-5v-11.6c0-2.8,2.2-5,5-5h11.6c2.8,0,5,2.2,5,5v11.6
		C789.8,433.1,787.6,435.3,784.8,435.3z"/>
	<path id="XMLID_24_" class="st4" d="M857.6,435.3h-33.1c-2.8,0-5-2.2-5-5v-11.6c0-2.8,2.2-5,5-5h33.1c2.8,0,5,2.2,5,5v11.6
		C862.6,433.1,860.4,435.3,857.6,435.3z"/>
	<path id="XMLID_25_" class="st4" d="M810.7,435.3h-11.6c-2.8,0-5-2.2-5-5v-11.6c0-2.8,2.2-5,5-5h11.6c2.8,0,5,2.2,5,5v11.6
		C815.7,433.1,813.4,435.3,810.7,435.3z"/>
	<path id="XMLID_35_" class="st4" d="M564.1,409.9h-11.6c-2.8,0-5-2.2-5-5v-11.6c0-2.8,2.2-5,5-5h11.6c2.8,0,5,2.2,5,5v11.6
		C569.1,407.6,566.9,409.9,564.1,409.9z"/>
	<path id="XMLID_34_" class="st4" d="M590,409.9h-11.6c-2.8,0-5-2.2-5-5v-11.6c0-2.8,2.2-5,5-5H590c2.8,0,5,2.2,5,5v11.6
		C595,407.6,592.8,409.9,590,409.9z"/>
	<path id="XMLID_33_" class="st4" d="M615.9,409.9h-11.6c-2.8,0-5-2.2-5-5v-11.6c0-2.8,2.2-5,5-5h11.6c2.8,0,5,2.2,5,5v11.6
		C620.9,407.6,618.7,409.9,615.9,409.9z"/>
	<path id="XMLID_32_" class="st4" d="M642.2,409.9h-11.6c-2.8,0-5-2.2-5-5v-11.6c0-2.8,2.2-5,5-5h11.6c2.8,0,5,2.2,5,5v11.6
		C647.2,407.6,645,409.9,642.2,409.9z"/>
	<path id="XMLID_31_" class="st4" d="M668.1,409.9h-11.6c-2.8,0-5-2.2-5-5v-11.6c0-2.8,2.2-5,5-5h11.6c2.8,0,5,2.2,5,5v11.6
		C673.1,407.6,670.8,409.9,668.1,409.9z"/>
	<path id="XMLID_30_" class="st4" d="M693.9,409.9h-11.6c-2.8,0-5-2.2-5-5v-11.6c0-2.8,2.2-5,5-5h11.6c2.8,0,5,2.2,5,5v11.6
		C698.9,407.6,696.7,409.9,693.9,409.9z"/>
	<path id="XMLID_29_" class="st4" d="M719.8,409.9h-11.6c-2.8,0-5-2.2-5-5v-11.6c0-2.8,2.2-5,5-5h11.6c2.8,0,5,2.2,5,5v11.6
		C724.8,407.6,722.6,409.9,719.8,409.9z"/>
	<path id="XMLID_28_" class="st4" d="M745.7,409.9h-11.6c-2.8,0-5-2.2-5-5v-11.6c0-2.8,2.2-5,5-5h11.6c2.8,0,5,2.2,5,5v11.6
		C750.7,407.6,748.5,409.9,745.7,409.9z"/>
	<path id="XMLID_27_" class="st4" d="M771.6,409.9H760c-2.8,0-5-2.2-5-5v-11.6c0-2.8,2.2-5,5-5h11.6c2.8,0,5,2.2,5,5v11.6
		C776.6,407.6,774.3,409.9,771.6,409.9z"/>
	<path id="XMLID_26_" class="st4" d="M797.4,409.9h-11.6c-2.8,0-5-2.2-5-5v-11.6c0-2.8,2.2-5,5-5h11.6c2.8,0,5,2.2,5,5v11.6
		C802.4,407.6,800.2,409.9,797.4,409.9z"/>
	<path id="XMLID_36_" class="st4" d="M823.1,409.9h-11.6c-2.8,0-5-2.2-5-5v-11.6c0-2.8,2.2-5,5-5h11.6c2.8,0,5,2.2,5,5v11.6
		C828.1,407.6,825.8,409.9,823.1,409.9z"/>
	<path id="XMLID_37_" class="st4" d="M538.5,409.9H514c-2.8,0-5-2.2-5-5v-11.6c0-2.8,2.2-5,5-5h24.5c2.8,0,5,2.2,5,5v11.6
		C543.5,407.6,541.3,409.9,538.5,409.9z"/>
	<path id="XMLID_38_" class="st4" d="M861.9,409.9h-24.5c-2.8,0-5-2.2-5-5v-11.6c0-2.8,2.2-5,5-5h24.5c2.8,0,5,2.2,5,5v11.6
		C866.9,407.6,864.7,409.9,861.9,409.9z"/>
	<path id="XMLID_50_" class="st4" d="M551.5,384H514c-2.8,0-5-2.2-5-5v-11.6c0-2.8,2.2-5,5-5h37.5c2.8,0,5,2.2,5,5V379
		C556.5,381.8,554.3,384,551.5,384z"/>
	<path id="XMLID_49_" class="st4" d="M577.4,384h-11.6c-2.8,0-5-2.2-5-5v-11.6c0-2.8,2.2-5,5-5h11.6c2.8,0,5,2.2,5,5V379
		C582.4,381.8,580.1,384,577.4,384z"/>
	<path id="XMLID_48_" class="st4" d="M603.2,384h-11.6c-2.8,0-5-2.2-5-5v-11.6c0-2.8,2.2-5,5-5h11.6c2.8,0,5,2.2,5,5V379
		C608.2,381.8,606,384,603.2,384z"/>
	<path id="XMLID_47_" class="st4" d="M629.1,384h-11.6c-2.8,0-5-2.2-5-5v-11.6c0-2.8,2.2-5,5-5h11.6c2.8,0,5,2.2,5,5V379
		C634.1,381.8,631.9,384,629.1,384z"/>
	<path id="XMLID_46_" class="st4" d="M655.4,384h-11.6c-2.8,0-5-2.2-5-5v-11.6c0-2.8,2.2-5,5-5h11.6c2.8,0,5,2.2,5,5V379
		C660.4,381.8,658.2,384,655.4,384z"/>
	<path id="XMLID_45_" class="st4" d="M681.3,384h-11.6c-2.8,0-5-2.2-5-5v-11.6c0-2.8,2.2-5,5-5h11.6c2.8,0,5,2.2,5,5V379
		C686.3,381.8,684.1,384,681.3,384z"/>
	<path id="XMLID_44_" class="st4" d="M707.2,384h-11.6c-2.8,0-5-2.2-5-5v-11.6c0-2.8,2.2-5,5-5h11.6c2.8,0,5,2.2,5,5V379
		C712.2,381.8,709.9,384,707.2,384z"/>
	<path id="XMLID_43_" class="st4" d="M733,384h-11.6c-2.8,0-5-2.2-5-5v-11.6c0-2.8,2.2-5,5-5H733c2.8,0,5,2.2,5,5V379
		C738,381.8,735.8,384,733,384z"/>
	<path id="XMLID_42_" class="st4" d="M758.9,384h-11.6c-2.8,0-5-2.2-5-5v-11.6c0-2.8,2.2-5,5-5h11.6c2.8,0,5,2.2,5,5V379
		C763.9,381.8,761.7,384,758.9,384z"/>
	<path id="XMLID_41_" class="st4" d="M784.8,384h-11.6c-2.8,0-5-2.2-5-5v-11.6c0-2.8,2.2-5,5-5h11.6c2.8,0,5,2.2,5,5V379
		C789.8,381.8,787.6,384,784.8,384z"/>
	<path id="XMLID_40_" class="st4" d="M861.9,384h-37.5c-2.8,0-5-2.2-5-5v-11.6c0-2.8,2.2-5,5-5h37.5c2.8,0,5,2.2,5,5V379
		C866.9,381.8,864.7,384,861.9,384z"/>
	<path id="XMLID_39_" class="st4" d="M810.7,384h-11.6c-2.8,0-5-2.2-5-5v-11.6c0-2.8,2.2-5,5-5h11.6c2.8,0,5,2.2,5,5V379
		C815.7,381.8,813.4,384,810.7,384z"/>
	<path id="XMLID_61_" class="st4" d="M525.5,358.1h-11.6c-2.8,0-5-2.2-5-5v-2.9c0-2.8,2.2-5,5-5h11.6c2.8,0,5,2.2,5,5v2.9
		C530.5,355.9,528.2,358.1,525.5,358.1z"/>
	<path id="XMLID_60_" class="st4" d="M551.4,358.1h-11.6c-2.8,0-5-2.2-5-5v-2.9c0-2.8,2.2-5,5-5h11.6c2.8,0,5,2.2,5,5v2.9
		C556.4,355.9,554.1,358.1,551.4,358.1z"/>
	<path id="XMLID_59_" class="st4" d="M577.2,358.1h-11.6c-2.8,0-5-2.2-5-5v-2.9c0-2.8,2.2-5,5-5h11.6c2.8,0,5,2.2,5,5v2.9
		C582.2,355.9,580,358.1,577.2,358.1z"/>
	<path id="XMLID_58_" class="st4" d="M603.5,358.1H592c-2.8,0-5-2.2-5-5v-2.9c0-2.8,2.2-5,5-5h11.6c2.8,0,5,2.2,5,5v2.9
		C608.5,355.9,606.3,358.1,603.5,358.1z"/>
	<path id="XMLID_57_" class="st4" d="M629.4,358.1h-11.6c-2.8,0-5-2.2-5-5v-2.9c0-2.8,2.2-5,5-5h11.6c2.8,0,5,2.2,5,5v2.9
		C634.4,355.9,632.2,358.1,629.4,358.1z"/>
	<path id="XMLID_56_" class="st4" d="M655.3,358.1h-11.6c-2.8,0-5-2.2-5-5v-2.9c0-2.8,2.2-5,5-5h11.6c2.8,0,5,2.2,5,5v2.9
		C660.3,355.9,658,358.1,655.3,358.1z"/>
	<path id="XMLID_55_" class="st4" d="M681.2,358.1h-11.6c-2.8,0-5-2.2-5-5v-2.9c0-2.8,2.2-5,5-5h11.6c2.8,0,5,2.2,5,5v2.9
		C686.2,355.9,683.9,358.1,681.2,358.1z"/>
	<path id="XMLID_54_" class="st4" d="M707,358.1h-11.6c-2.8,0-5-2.2-5-5v-2.9c0-2.8,2.2-5,5-5H707c2.8,0,5,2.2,5,5v2.9
		C712,355.9,709.8,358.1,707,358.1z"/>
	<path id="XMLID_53_" class="st4" d="M732.9,358.1h-11.6c-2.8,0-5-2.2-5-5v-2.9c0-2.8,2.2-5,5-5h11.6c2.8,0,5,2.2,5,5v2.9
		C737.9,355.9,735.7,358.1,732.9,358.1z"/>
	<path id="XMLID_52_" class="st4" d="M758.8,358.1h-11.6c-2.8,0-5-2.2-5-5v-2.9c0-2.8,2.2-5,5-5h11.6c2.8,0,5,2.2,5,5v2.9
		C763.8,355.9,761.5,358.1,758.8,358.1z"/>
	<path id="XMLID_51_" class="st4" d="M784.4,358.1h-11.6c-2.8,0-5-2.2-5-5v-2.9c0-2.8,2.2-5,5-5h11.6c2.8,0,5,2.2,5,5v2.9
		C789.4,355.9,787.2,358.1,784.4,358.1z"/>
	<path id="XMLID_64_" class="st4" d="M810.6,358.1H799c-2.8,0-5-2.2-5-5v-2.9c0-2.8,2.2-5,5-5h11.6c2.8,0,5,2.2,5,5v2.9
		C815.6,355.9,813.3,358.1,810.6,358.1z"/>
	<path id="XMLID_63_" class="st4" d="M836.4,358.1h-11.6c-2.8,0-5-2.2-5-5v-2.9c0-2.8,2.2-5,5-5h11.6c2.8,0,5,2.2,5,5v2.9
		C841.4,355.9,839.2,358.1,836.4,358.1z"/>
	<path id="XMLID_62_" class="st4" d="M862.1,358.1h-11.6c-2.8,0-5-2.2-5-5v-2.9c0-2.8,2.2-5,5-5h11.6c2.8,0,5,2.2,5,5v2.9
		C867.1,355.9,864.8,358.1,862.1,358.1z"/>
	<path id="XMLID_65_" class="st5" d="M855.5,320.5h-335c-2.8,0-5-2.2-5-5v-2.9c0-2.8,2.2-5,5-5h335c2.8,0,5,2.2,5,5v2.9
		C860.5,318.2,858.2,320.5,855.5,320.5z"/>
</g>
<g id="Layer_2">
	<g id="XMLID_1311_">
		<g id="layer1_2_">
			<path id="path4263_2_" class="st1" d="M652.1,136.8c-2.1,0-3.9,0-5.4,1.4c-2.1,2.1-1.9,7.9-1.4,11c-2.5,0.6-5.2,1.4-7.5,2.7
				c-1.9-2.7-5.4-7-8.3-7.5c-2.1-0.2-3.7,1.2-5.2,2.7c-1.4,1.2-3.1,2.7-3.1,4.6c-0.2,2.9,3.5,7.2,5.8,9.3c-1.7,2.3-2.9,4.6-3.9,7
				c-3.1-0.8-8.5-2.1-11-0.4c-1.7,1.2-2.1,3.3-2.3,5.4c-0.2,2.1-0.6,3.9,0.4,5.6c1.7,2.3,7.2,3.1,10.4,3.5c0.2,2.7,0.6,5.4,1.4,8.1
				c-2.9,1.4-7.7,4.1-8.5,6.8c-0.6,2.1,0.4,3.7,1.7,5.6c1,1.7,2.1,3.5,3.9,3.9c2.7,0.6,7.5-2.3,10.1-3.9c0.8,1,1.9,2.1,2.9,2.9
				c1,0.8,2.1,1.7,3.3,2.3c-1.2,2.9-3.3,8.1-2.3,10.8c0.8,1.9,2.9,2.7,5,3.3c1.9,0.6,3.7,1.2,5.4,0.4c2.5-1.2,4.3-6.6,5.2-9.7
				c2.7,0.4,5.4,0.4,7.9,0c0.8,3.1,2.7,8.5,5.2,9.7c1.9,0.8,3.9,0.2,5.8-0.6c1.9-0.8,3.7-1.4,4.6-3.3c1.2-2.7-0.8-7.9-2.3-10.8
				c2.3-1.4,4.3-3.3,6-5.2c2.7,1.9,7.5,4.8,10.1,4.1c1.9-0.4,3.1-2.3,4.1-4.3c1-1.9,1.9-3.5,1.4-5.4c-0.8-2.9-5.8-5.6-8.7-7
				c0.8-2.5,1.2-5.2,1.4-7.9c3.1-0.2,8.7-1,10.6-3.5c1.2-1.7,0.8-3.7,0.4-6c-0.4-2.1-0.8-3.9-2.3-5.2c-2.5-1.7-8.1-0.4-11,0.4
				c-1-2.5-2.3-4.8-3.9-6.8c2.3-2.3,6-6.6,5.8-9.5c-0.2-2.1-1.9-3.5-3.5-4.8c-1.7-1.2-3.1-2.5-5-2.3c-2.9,0.2-6.4,5-8.3,7.5
				c-2.3-1.2-5-2.3-7.5-2.7c0.2-3.1,0.4-8.9-1.4-11C656.5,136.8,654.4,136.8,652.1,136.8z M652.3,165.6c7.9,0,14.3,6.4,14.3,14.3
				c0,7.9-6.4,14.3-14.3,14.3s-14.3-6.4-14.3-14.3S644.4,165.6,652.3,165.6z"/>
		</g>
	</g>
	<g id="XMLID_1308_">
		<g id="layer1_1_">
			<path id="path4263_1_" class="st1" d="M725.2,163.9c-1.4,0-2.7,0-3.7,1c-1.4,1.4-1.2,5.4-1,7.7c-1.9,0.4-3.5,1-5.2,1.9
				c-1.2-1.9-3.7-5-5.8-5.2c-1.4-0.2-2.5,0.8-3.7,1.9c-1,0.8-2.1,1.9-2.3,3.1c-0.2,2.1,2.5,5,3.9,6.6c-1.2,1.4-2.1,3.1-2.7,5
				c-2.1-0.6-6-1.4-7.7-0.2c-1.2,0.8-1.4,2.3-1.7,3.7c-0.2,1.4-0.4,2.7,0.4,3.9c1.2,1.7,5,2.3,7.2,2.5c0,1.9,0.4,3.7,1,5.6
				c-2.1,1-5.4,2.9-6,4.8c-0.4,1.4,0.4,2.7,1,3.9c0.6,1.2,1.4,2.5,2.7,2.7c1.9,0.4,5.2-1.4,7-2.9c0.6,0.6,1.2,1.4,2.1,2.1
				c0.6,0.6,1.4,1.2,2.3,1.7c-0.8,2.1-2.3,5.6-1.4,7.5c0.6,1.2,2.1,1.9,3.3,2.3c1.2,0.4,2.7,0.8,3.7,0.4c1.9-0.8,3.1-4.6,3.5-6.8
				c1.9,0.2,3.7,0.2,5.6,0c0.6,2.1,1.9,5.8,3.5,6.8c1.2,0.6,2.7,0.2,4.1-0.4c1.2-0.4,2.7-1,3.1-2.3c0.8-1.9-0.6-5.4-1.7-7.5
				c1.4-1,2.9-2.3,4.1-3.7c1.9,1.2,5.2,3.3,7,2.9c1.4-0.4,2.1-1.7,2.9-2.9c0.6-1.2,1.4-2.5,1-3.7c-0.6-2.1-4.1-3.9-6-4.8
				c0.6-1.9,0.8-3.7,1-5.6c2.3-0.2,6.2-0.8,7.2-2.5c0.8-1.2,0.6-2.7,0.2-4.1c-0.2-1.4-0.6-2.9-1.7-3.5c-1.7-1.2-5.6-0.2-7.7,0.2
				c-0.6-1.7-1.7-3.3-2.7-4.8c1.4-1.7,4.1-4.6,4.1-6.6c-0.2-1.4-1.2-2.5-2.5-3.3c-1-0.8-2.1-1.7-3.5-1.7c-2.1,0.2-4.6,3.3-5.8,5.2
				c-1.7-0.8-3.3-1.4-5.2-1.9c0.2-2.3,0.4-6.2-1-7.7C728.3,163.9,726.6,163.9,725.2,163.9z M725.4,184c5.6,0,9.9,4.6,9.9,9.9
				c0,5.6-4.6,9.9-9.9,9.9c-5.4,0-9.9-4.6-9.9-9.9C715.5,188.4,719.8,184,725.4,184z"/>
		</g>
	</g>
	<g id="XMLID_1176_">
		<g id="XMLID_1303_">
			
				<image style="overflow:visible;opacity:0.12;" width="351" height="374" id="XMLID_94_" xlink:href="637A677FB6AD4B49.png"  transform="matrix(1 0 0 1 48.4129 235.4129)">
			</image>
			<g id="XMLID_81_">
				<path id="XMLID_93_" class="st6" d="M388.4,570L94.3,602.1c-2.7,0.3-5.2-1.7-5.5-4.4L53.9,278.3c-0.3-2.7,1.7-5.2,4.4-5.5
					l294.1-32.2c2.7-0.3,5.2,1.7,5.5,4.4l34.9,319.4C393.1,567.2,391.1,569.7,388.4,570z"/>
				<path id="XMLID_92_" class="st7" d="M388.4,570L94.3,602.1c-2.7,0.3-5.2-1.7-5.5-4.4L53.9,278.3c-0.3-2.7,1.7-5.2,4.4-5.5
					l294.1-32.2c2.7-0.3,5.2,1.7,5.5,4.4l34.9,319.4C393.1,567.2,391.1,569.7,388.4,570z"/>
			</g>
		</g>
		<line id="XMLID_1302_" class="st8" x1="205.1" y1="256.7" x2="241.1" y2="586.1"/>
		<line id="XMLID_1301_" class="st8" x1="200" y1="257.3" x2="236" y2="586.6"/>
		<line id="XMLID_1300_" class="st8" x1="195" y1="257.9" x2="231" y2="587.2"/>
		<line id="XMLID_1299_" class="st8" x1="189.9" y1="258.4" x2="225.9" y2="587.7"/>
		<line id="XMLID_1298_" class="st8" x1="184.8" y1="259" x2="220.8" y2="588.3"/>
		<line id="XMLID_1297_" class="st8" x1="179.8" y1="259.5" x2="215.8" y2="588.8"/>
		<line id="XMLID_1296_" class="st8" x1="174.7" y1="260.1" x2="210.7" y2="589.4"/>
		<line id="XMLID_1295_" class="st8" x1="169.6" y1="260.6" x2="205.6" y2="590"/>
		<line id="XMLID_1294_" class="st8" x1="164.6" y1="261.2" x2="200.6" y2="590.5"/>
		<line id="XMLID_1293_" class="st8" x1="159.5" y1="261.7" x2="195.5" y2="591.1"/>
		<line id="XMLID_1292_" class="st8" x1="154.4" y1="262.3" x2="190.4" y2="591.6"/>
		<line id="XMLID_1291_" class="st8" x1="149.4" y1="262.8" x2="185.4" y2="592.2"/>
		<line id="XMLID_1290_" class="st8" x1="144.3" y1="263.4" x2="180.3" y2="592.7"/>
		<line id="XMLID_1289_" class="st8" x1="139.2" y1="263.9" x2="175.2" y2="593.3"/>
		<line id="XMLID_1288_" class="st8" x1="134.2" y1="264.5" x2="170.2" y2="593.8"/>
		<line id="XMLID_1287_" class="st8" x1="129.1" y1="265.1" x2="165.1" y2="594.4"/>
		<line id="XMLID_1286_" class="st8" x1="124" y1="265.6" x2="160" y2="594.9"/>
		<line id="XMLID_1285_" class="st8" x1="119" y1="266.2" x2="155" y2="595.5"/>
		<line id="XMLID_1284_" class="st8" x1="113.9" y1="266.7" x2="149.9" y2="596"/>
		<line id="XMLID_1283_" class="st8" x1="108.8" y1="267.3" x2="144.8" y2="596.6"/>
		<line id="XMLID_1282_" class="st8" x1="103.8" y1="267.8" x2="139.8" y2="597.2"/>
		<line id="XMLID_1281_" class="st8" x1="98.7" y1="268.4" x2="134.7" y2="597.7"/>
		<line id="XMLID_1280_" class="st8" x1="93.6" y1="268.9" x2="129.6" y2="598.3"/>
		<line id="XMLID_1279_" class="st8" x1="88.6" y1="269.5" x2="124.6" y2="598.8"/>
		<line id="XMLID_1278_" class="st8" x1="83.5" y1="270" x2="119.5" y2="599.4"/>
		<line id="XMLID_1277_" class="st8" x1="78.4" y1="270.6" x2="114.4" y2="599.9"/>
		<line id="XMLID_1276_" class="st8" x1="73.4" y1="271.2" x2="109.4" y2="600.5"/>
		<line id="XMLID_1275_" class="st8" x1="68.3" y1="271.7" x2="104.3" y2="601"/>
		<line id="XMLID_1274_" class="st8" x1="63.2" y1="272.3" x2="99.2" y2="601.6"/>
		<line id="XMLID_1273_" class="st8" x1="58.2" y1="272.8" x2="94.2" y2="602.1"/>
		<line id="XMLID_1272_" class="st8" x1="210.2" y1="256.2" x2="246.2" y2="585.5"/>
		<line id="XMLID_1271_" class="st8" x1="215.2" y1="255.6" x2="251.2" y2="585"/>
		<line id="XMLID_1270_" class="st8" x1="220.3" y1="255.1" x2="256.3" y2="584.4"/>
		<line id="XMLID_1269_" class="st8" x1="225.4" y1="254.5" x2="261.4" y2="583.9"/>
		<line id="XMLID_1268_" class="st8" x1="230.4" y1="254" x2="266.4" y2="583.3"/>
		<line id="XMLID_1267_" class="st8" x1="235.5" y1="253.4" x2="271.5" y2="582.7"/>
		<line id="XMLID_1266_" class="st8" x1="240.6" y1="252.9" x2="276.6" y2="582.2"/>
		<line id="XMLID_1265_" class="st8" x1="245.6" y1="252.3" x2="281.6" y2="581.6"/>
		<line id="XMLID_1264_" class="st8" x1="250.7" y1="251.8" x2="286.7" y2="581.1"/>
		<line id="XMLID_1263_" class="st8" x1="255.8" y1="251.2" x2="291.8" y2="580.5"/>
		<line id="XMLID_1262_" class="st8" x1="260.8" y1="250.6" x2="296.8" y2="580"/>
		<line id="XMLID_1261_" class="st8" x1="265.9" y1="250.1" x2="301.9" y2="579.4"/>
		<line id="XMLID_1260_" class="st8" x1="271" y1="249.5" x2="307" y2="578.9"/>
		<line id="XMLID_1259_" class="st8" x1="276" y1="249" x2="312" y2="578.3"/>
		<line id="XMLID_1258_" class="st8" x1="281.1" y1="248.4" x2="317.1" y2="577.8"/>
		<line id="XMLID_1257_" class="st8" x1="286.2" y1="247.9" x2="322.2" y2="577.2"/>
		<line id="XMLID_1256_" class="st8" x1="291.2" y1="247.3" x2="327.2" y2="576.6"/>
		<line id="XMLID_1255_" class="st8" x1="296.3" y1="246.8" x2="332.3" y2="576.1"/>
		<line id="XMLID_1254_" class="st8" x1="301.4" y1="246.2" x2="337.4" y2="575.5"/>
		<line id="XMLID_1253_" class="st8" x1="306.4" y1="245.7" x2="342.4" y2="575"/>
		<line id="XMLID_1252_" class="st8" x1="311.5" y1="245.1" x2="347.5" y2="574.4"/>
		<line id="XMLID_1251_" class="st8" x1="316.6" y1="244.5" x2="352.6" y2="573.9"/>
		<line id="XMLID_1250_" class="st8" x1="321.6" y1="244" x2="357.6" y2="573.3"/>
		<line id="XMLID_1249_" class="st8" x1="326.7" y1="243.4" x2="362.7" y2="572.8"/>
		<line id="XMLID_1248_" class="st8" x1="331.8" y1="242.9" x2="367.8" y2="572.2"/>
		<line id="XMLID_1247_" class="st8" x1="336.8" y1="242.3" x2="372.8" y2="571.7"/>
		<line id="XMLID_1246_" class="st8" x1="341.9" y1="241.8" x2="377.9" y2="571.1"/>
		<line id="XMLID_1245_" class="st8" x1="347" y1="241.2" x2="383" y2="570.6"/>
		<line id="XMLID_1244_" class="st8" x1="352" y1="240.7" x2="388" y2="570"/>
		<line id="XMLID_1243_" class="st8" x1="357.1" y1="240.1" x2="393.1" y2="569.4"/>
		<line id="XMLID_1242_" class="st8" x1="375.9" y1="405" x2="71.4" y2="438.3"/>
		<line id="XMLID_1241_" class="st8" x1="376.4" y1="410" x2="71.9" y2="443.3"/>
		<line id="XMLID_1240_" class="st8" x1="377" y1="415.1" x2="72.5" y2="448.4"/>
		<line id="XMLID_1239_" class="st8" x1="377.5" y1="420.2" x2="73" y2="453.5"/>
		<line id="XMLID_1238_" class="st8" x1="378.1" y1="425.2" x2="73.6" y2="458.5"/>
		<line id="XMLID_1237_" class="st8" x1="378.7" y1="430.3" x2="74.2" y2="463.6"/>
		<line id="XMLID_1236_" class="st8" x1="379.2" y1="435.4" x2="74.7" y2="468.7"/>
		<line id="XMLID_1235_" class="st8" x1="379.8" y1="440.4" x2="75.3" y2="473.7"/>
		<line id="XMLID_1234_" class="st8" x1="380.3" y1="445.5" x2="75.8" y2="478.8"/>
		<line id="XMLID_1233_" class="st8" x1="380.9" y1="450.5" x2="76.4" y2="483.9"/>
		<line id="XMLID_1232_" class="st8" x1="381.4" y1="455.6" x2="76.9" y2="488.9"/>
		<line id="XMLID_1231_" class="st8" x1="382" y1="460.7" x2="77.5" y2="494"/>
		<line id="XMLID_1230_" class="st8" x1="382.5" y1="465.7" x2="78" y2="499.1"/>
		<line id="XMLID_1229_" class="st8" x1="383.1" y1="470.8" x2="78.6" y2="504.1"/>
		<line id="XMLID_1228_" class="st8" x1="383.6" y1="475.9" x2="79.1" y2="509.2"/>
		<line id="XMLID_1227_" class="st8" x1="384.2" y1="480.9" x2="79.7" y2="514.3"/>
		<line id="XMLID_1226_" class="st8" x1="384.8" y1="486" x2="80.2" y2="519.3"/>
		<line id="XMLID_1225_" class="st8" x1="385.3" y1="491.1" x2="80.8" y2="524.4"/>
		<line id="XMLID_1224_" class="st8" x1="385.9" y1="496.1" x2="81.4" y2="529.5"/>
		<line id="XMLID_1223_" class="st8" x1="386.4" y1="501.2" x2="81.9" y2="534.5"/>
		<line id="XMLID_1222_" class="st8" x1="387" y1="506.3" x2="82.5" y2="539.6"/>
		<line id="XMLID_1221_" class="st8" x1="387.5" y1="511.3" x2="83" y2="544.7"/>
		<line id="XMLID_1220_" class="st8" x1="388.1" y1="516.4" x2="83.6" y2="549.7"/>
		<line id="XMLID_1219_" class="st8" x1="388.6" y1="521.5" x2="84.1" y2="554.8"/>
		<line id="XMLID_1218_" class="st8" x1="389.2" y1="526.5" x2="84.7" y2="559.9"/>
		<line id="XMLID_1217_" class="st8" x1="389.7" y1="531.6" x2="85.2" y2="564.9"/>
		<line id="XMLID_1216_" class="st8" x1="390.3" y1="536.7" x2="85.8" y2="570"/>
		<line id="XMLID_1215_" class="st8" x1="390.8" y1="541.7" x2="86.3" y2="575.1"/>
		<line id="XMLID_1214_" class="st8" x1="391.4" y1="546.8" x2="86.9" y2="580.1"/>
		<line id="XMLID_1213_" class="st8" x1="392" y1="551.9" x2="87.5" y2="585.2"/>
		<line id="XMLID_1212_" class="st8" x1="392.5" y1="556.9" x2="88" y2="590.3"/>
		<line id="XMLID_1211_" class="st8" x1="393.1" y1="562" x2="88.6" y2="595.3"/>
		<line id="XMLID_1210_" class="st8" x1="393.6" y1="567.1" x2="89.1" y2="600.4"/>
		<line id="XMLID_1209_" class="st8" x1="375.3" y1="399.9" x2="70.8" y2="433.2"/>
		<path id="XMLID_x5F_67_x5F_" class="st9" d="M374.8,394.8L70.3,428.1"/>
		<text id="XMLID_1207_">		<textPath  xlink:href="#XMLID_x5F_67_x5F_" startOffset="0.4272%">
		</textPath>
</text>
		<line id="XMLID_1206_" class="st8" x1="374.2" y1="389.8" x2="69.7" y2="423.1"/>
		<line id="XMLID_1205_" class="st8" x1="373.7" y1="384.7" x2="69.2" y2="418"/>
		<line id="XMLID_1204_" class="st8" x1="373.1" y1="379.6" x2="68.6" y2="412.9"/>
		<line id="XMLID_1203_" class="st8" x1="372.6" y1="374.6" x2="68.1" y2="407.9"/>
		<line id="XMLID_1202_" class="st8" x1="372" y1="369.5" x2="67.5" y2="402.8"/>
		<line id="XMLID_1201_" class="st8" x1="371.5" y1="364.4" x2="66.9" y2="397.7"/>
		<line id="XMLID_1200_" class="st8" x1="370.9" y1="359.4" x2="66.4" y2="392.7"/>
		<line id="XMLID_1199_" class="st8" x1="370.3" y1="354.3" x2="65.8" y2="387.6"/>
		<line id="XMLID_1198_" class="st8" x1="369.8" y1="349.2" x2="65.3" y2="382.5"/>
		<line id="XMLID_1197_" class="st8" x1="369.2" y1="344.2" x2="64.7" y2="377.5"/>
		<line id="XMLID_1196_" class="st8" x1="368.7" y1="339.1" x2="64.2" y2="372.4"/>
		<line id="XMLID_1195_" class="st8" x1="368.1" y1="334" x2="63.6" y2="367.3"/>
		<line id="XMLID_1194_" class="st8" x1="367.6" y1="329" x2="63.1" y2="362.3"/>
		<line id="XMLID_1193_" class="st8" x1="367" y1="323.9" x2="62.5" y2="357.2"/>
		<line id="XMLID_1192_" class="st8" x1="366.5" y1="318.8" x2="62" y2="352.1"/>
		<line id="XMLID_1191_" class="st8" x1="365.9" y1="313.8" x2="61.4" y2="347.1"/>
		<line id="XMLID_1190_" class="st8" x1="365.4" y1="308.7" x2="60.9" y2="342"/>
		<line id="XMLID_1189_" class="st8" x1="364.8" y1="303.6" x2="60.3" y2="336.9"/>
		<line id="XMLID_1188_" class="st8" x1="364.2" y1="298.6" x2="59.7" y2="331.9"/>
		<line id="XMLID_1187_" class="st8" x1="363.7" y1="293.5" x2="59.2" y2="326.8"/>
		<line id="XMLID_1186_" class="st8" x1="363.1" y1="288.4" x2="58.6" y2="321.7"/>
		<line id="XMLID_1185_" class="st8" x1="362.6" y1="283.4" x2="58.1" y2="316.7"/>
		<line id="XMLID_1184_" class="st8" x1="362" y1="278.3" x2="57.5" y2="311.6"/>
		<line id="XMLID_1183_" class="st8" x1="361.5" y1="273.2" x2="57" y2="306.5"/>
		<line id="XMLID_1182_" class="st8" x1="360.9" y1="268.2" x2="56.4" y2="301.5"/>
		<line id="XMLID_1181_" class="st8" x1="360.4" y1="263.1" x2="55.9" y2="296.4"/>
		<line id="XMLID_1180_" class="st8" x1="359.8" y1="258" x2="55.3" y2="291.3"/>
		<line id="XMLID_1179_" class="st8" x1="359.3" y1="253" x2="54.8" y2="286.3"/>
		<line id="XMLID_1178_" class="st8" x1="358.7" y1="247.9" x2="54.2" y2="281.2"/>
		<line id="XMLID_1177_" class="st8" x1="358.1" y1="242.8" x2="53.6" y2="276.1"/>
	</g>
	<g id="XMLID_1044_">
		<g id="XMLID_1171_">
			
				<image style="overflow:visible;opacity:0.12;" width="356" height="378" id="XMLID_89_" xlink:href="637A677FB6AD4B4B.png"  transform="matrix(1 0 0 1 44.4129 231.4129)">
			</image>
			<g id="XMLID_79_">
				<path id="XMLID_88_" class="st6" d="M347.4,602.9L54,565.2c-2.7-0.4-4.7-2.9-4.3-5.6L90.6,241c0.4-2.7,2.9-4.7,5.6-4.3
					l293.4,37.7c2.7,0.4,4.7,2.9,4.3,5.6L353,598.6C352.6,601.3,350.1,603.3,347.4,602.9z"/>
				<path id="XMLID_87_" class="st7" d="M347.4,602.9L54,565.2c-2.7-0.4-4.7-2.9-4.3-5.6L90.6,241c0.4-2.7,2.9-4.7,5.6-4.3
					l293.4,37.7c2.7,0.4,4.7,2.9,4.3,5.6L353,598.6C352.6,601.3,350.1,603.3,347.4,602.9z"/>
			</g>
		</g>
		<line id="XMLID_1170_" class="st8" x1="242.6" y1="255.5" x2="200.4" y2="584"/>
		<line id="XMLID_1169_" class="st8" x1="237.6" y1="254.8" x2="195.4" y2="583.4"/>
		<line id="XMLID_1168_" class="st8" x1="232.5" y1="254.2" x2="190.3" y2="582.7"/>
		<line id="XMLID_1167_" class="st8" x1="227.5" y1="253.5" x2="185.2" y2="582.1"/>
		<line id="XMLID_1166_" class="st8" x1="222.4" y1="252.9" x2="180.2" y2="581.4"/>
		<line id="XMLID_1165_" class="st8" x1="217.4" y1="252.2" x2="175.1" y2="580.8"/>
		<line id="XMLID_1164_" class="st8" x1="212.3" y1="251.6" x2="170.1" y2="580.1"/>
		<line id="XMLID_1163_" class="st8" x1="207.2" y1="250.9" x2="165" y2="579.5"/>
		<line id="XMLID_1162_" class="st8" x1="202.2" y1="250.3" x2="160" y2="578.8"/>
		<line id="XMLID_1161_" class="st8" x1="197.1" y1="249.6" x2="154.9" y2="578.2"/>
		<line id="XMLID_1160_" class="st8" x1="192.1" y1="249" x2="149.9" y2="577.5"/>
		<line id="XMLID_1159_" class="st8" x1="187" y1="248.3" x2="144.8" y2="576.9"/>
		<line id="XMLID_1158_" class="st8" x1="182" y1="247.7" x2="139.8" y2="576.2"/>
		<line id="XMLID_1157_" class="st8" x1="176.9" y1="247" x2="134.7" y2="575.6"/>
		<line id="XMLID_1156_" class="st8" x1="171.9" y1="246.4" x2="129.6" y2="575"/>
		<line id="XMLID_1155_" class="st8" x1="166.8" y1="245.7" x2="124.6" y2="574.3"/>
		<line id="XMLID_1154_" class="st8" x1="161.7" y1="245.1" x2="119.5" y2="573.7"/>
		<line id="XMLID_1153_" class="st8" x1="156.7" y1="244.4" x2="114.5" y2="573"/>
		<line id="XMLID_1152_" class="st8" x1="151.6" y1="243.8" x2="109.4" y2="572.4"/>
		<line id="XMLID_1151_" class="st8" x1="146.6" y1="243.1" x2="104.4" y2="571.7"/>
		<line id="XMLID_1150_" class="st8" x1="141.5" y1="242.5" x2="99.3" y2="571.1"/>
		<line id="XMLID_1149_" class="st8" x1="136.5" y1="241.8" x2="94.3" y2="570.4"/>
		<line id="XMLID_1148_" class="st8" x1="131.4" y1="241.2" x2="89.2" y2="569.8"/>
		<line id="XMLID_1147_" class="st8" x1="126.4" y1="240.5" x2="84.1" y2="569.1"/>
		<line id="XMLID_1146_" class="st8" x1="121.3" y1="239.9" x2="79.1" y2="568.5"/>
		<line id="XMLID_1145_" class="st8" x1="116.2" y1="239.2" x2="74" y2="567.8"/>
		<line id="XMLID_1144_" class="st8" x1="111.2" y1="238.6" x2="69" y2="567.2"/>
		<line id="XMLID_1143_" class="st8" x1="106.1" y1="237.9" x2="63.9" y2="566.5"/>
		<line id="XMLID_1142_" class="st8" x1="101.1" y1="237.3" x2="58.9" y2="565.9"/>
		<line id="XMLID_1141_" class="st8" x1="96" y1="236.6" x2="53.8" y2="565.2"/>
		<line id="XMLID_1140_" class="st8" x1="247.7" y1="256.1" x2="205.5" y2="584.7"/>
		<line id="XMLID_1139_" class="st8" x1="252.7" y1="256.7" x2="210.5" y2="585.3"/>
		<line id="XMLID_1138_" class="st8" x1="257.8" y1="257.4" x2="215.6" y2="586"/>
		<line id="XMLID_1137_" class="st8" x1="262.9" y1="258" x2="220.6" y2="586.6"/>
		<line id="XMLID_1136_" class="st8" x1="267.9" y1="258.7" x2="225.7" y2="587.3"/>
		<line id="XMLID_1135_" class="st8" x1="273" y1="259.3" x2="230.7" y2="587.9"/>
		<line id="XMLID_1134_" class="st8" x1="278" y1="260" x2="235.8" y2="588.6"/>
		<line id="XMLID_1133_" class="st8" x1="283.1" y1="260.6" x2="240.9" y2="589.2"/>
		<line id="XMLID_1132_" class="st8" x1="288.1" y1="261.3" x2="245.9" y2="589.9"/>
		<line id="XMLID_1131_" class="st8" x1="293.2" y1="261.9" x2="251" y2="590.5"/>
		<line id="XMLID_1130_" class="st8" x1="298.2" y1="262.6" x2="256" y2="591.2"/>
		<line id="XMLID_1129_" class="st8" x1="303.3" y1="263.2" x2="261.1" y2="591.8"/>
		<line id="XMLID_1128_" class="st8" x1="308.4" y1="263.9" x2="266.1" y2="592.5"/>
		<line id="XMLID_1127_" class="st8" x1="313.4" y1="264.5" x2="271.2" y2="593.1"/>
		<line id="XMLID_1126_" class="st8" x1="318.5" y1="265.2" x2="276.2" y2="593.8"/>
		<line id="XMLID_1125_" class="st8" x1="323.5" y1="265.8" x2="281.3" y2="594.4"/>
		<line id="XMLID_1124_" class="st8" x1="328.6" y1="266.5" x2="286.4" y2="595.1"/>
		<line id="XMLID_1123_" class="st8" x1="333.6" y1="267.1" x2="291.4" y2="595.7"/>
		<line id="XMLID_1122_" class="st8" x1="338.7" y1="267.8" x2="296.5" y2="596.4"/>
		<line id="XMLID_1121_" class="st8" x1="343.7" y1="268.4" x2="301.5" y2="597"/>
		<line id="XMLID_1120_" class="st8" x1="348.8" y1="269.1" x2="306.6" y2="597.7"/>
		<line id="XMLID_1119_" class="st8" x1="353.8" y1="269.7" x2="311.6" y2="598.3"/>
		<line id="XMLID_1118_" class="st8" x1="358.9" y1="270.4" x2="316.7" y2="599"/>
		<line id="XMLID_1117_" class="st8" x1="364" y1="271" x2="321.7" y2="599.6"/>
		<line id="XMLID_1116_" class="st8" x1="369" y1="271.7" x2="326.8" y2="600.3"/>
		<line id="XMLID_1115_" class="st8" x1="374.1" y1="272.3" x2="331.9" y2="600.9"/>
		<line id="XMLID_1114_" class="st8" x1="379.1" y1="273" x2="336.9" y2="601.6"/>
		<line id="XMLID_1113_" class="st8" x1="384.2" y1="273.6" x2="342" y2="602.2"/>
		<line id="XMLID_1112_" class="st8" x1="389.2" y1="274.3" x2="347" y2="602.9"/>
		<line id="XMLID_1111_" class="st8" x1="394.3" y1="274.9" x2="352.1" y2="603.5"/>
		<line id="XMLID_1110_" class="st8" x1="373.9" y1="439.6" x2="70.1" y2="400.5"/>
		<line id="XMLID_1109_" class="st8" x1="373.3" y1="444.6" x2="69.4" y2="405.6"/>
		<line id="XMLID_1108_" class="st8" x1="372.6" y1="449.7" x2="68.8" y2="410.7"/>
		<line id="XMLID_1107_" class="st8" x1="372" y1="454.7" x2="68.1" y2="415.7"/>
		<line id="XMLID_1106_" class="st8" x1="371.3" y1="459.8" x2="67.5" y2="420.8"/>
		<line id="XMLID_1105_" class="st8" x1="370.7" y1="464.9" x2="66.8" y2="425.8"/>
		<line id="XMLID_1104_" class="st8" x1="370" y1="469.9" x2="66.2" y2="430.9"/>
		<line id="XMLID_1103_" class="st8" x1="369.4" y1="475" x2="65.5" y2="435.9"/>
		<line id="XMLID_1102_" class="st8" x1="368.7" y1="480" x2="64.9" y2="441"/>
		<line id="XMLID_1101_" class="st8" x1="368.1" y1="485.1" x2="64.2" y2="446"/>
		<line id="XMLID_1100_" class="st8" x1="367.4" y1="490.1" x2="63.6" y2="451.1"/>
		<line id="XMLID_1099_" class="st8" x1="366.8" y1="495.2" x2="62.9" y2="456.2"/>
		<line id="XMLID_1098_" class="st8" x1="366.1" y1="500.2" x2="62.3" y2="461.2"/>
		<line id="XMLID_1097_" class="st8" x1="365.5" y1="505.3" x2="61.6" y2="466.3"/>
		<line id="XMLID_1096_" class="st8" x1="364.8" y1="510.4" x2="61" y2="471.3"/>
		<line id="XMLID_1095_" class="st8" x1="364.2" y1="515.4" x2="60.3" y2="476.4"/>
		<line id="XMLID_1094_" class="st8" x1="363.5" y1="520.5" x2="59.7" y2="481.4"/>
		<line id="XMLID_1093_" class="st8" x1="362.9" y1="525.5" x2="59" y2="486.5"/>
		<line id="XMLID_1092_" class="st8" x1="362.2" y1="530.6" x2="58.4" y2="491.5"/>
		<line id="XMLID_1091_" class="st8" x1="361.6" y1="535.6" x2="57.7" y2="496.6"/>
		<line id="XMLID_1090_" class="st8" x1="360.9" y1="540.7" x2="57.1" y2="501.7"/>
		<line id="XMLID_1089_" class="st8" x1="360.3" y1="545.7" x2="56.4" y2="506.7"/>
		<line id="XMLID_1088_" class="st8" x1="359.6" y1="550.8" x2="55.8" y2="511.8"/>
		<line id="XMLID_1087_" class="st8" x1="359" y1="555.9" x2="55.1" y2="516.8"/>
		<line id="XMLID_1086_" class="st8" x1="358.3" y1="560.9" x2="54.5" y2="521.9"/>
		<line id="XMLID_1085_" class="st8" x1="357.7" y1="566" x2="53.8" y2="526.9"/>
		<line id="XMLID_1084_" class="st8" x1="357" y1="571" x2="53.2" y2="532"/>
		<line id="XMLID_1083_" class="st8" x1="356.4" y1="576.1" x2="52.5" y2="537"/>
		<line id="XMLID_1082_" class="st8" x1="355.7" y1="581.1" x2="51.9" y2="542.1"/>
		<line id="XMLID_1081_" class="st8" x1="355.1" y1="586.2" x2="51.3" y2="547.2"/>
		<line id="XMLID_1080_" class="st8" x1="354.4" y1="591.2" x2="50.6" y2="552.2"/>
		<line id="XMLID_1079_" class="st8" x1="353.8" y1="596.3" x2="50" y2="557.3"/>
		<line id="XMLID_1078_" class="st8" x1="353.1" y1="601.4" x2="49.3" y2="562.3"/>
		<line id="XMLID_1077_" class="st8" x1="374.6" y1="434.5" x2="70.7" y2="395.5"/>
		<path id="XMLID_x5F_68_x5F_" class="st9" d="M375.2,429.5l-303.8-39"/>
		<text id="XMLID_1075_">		<textPath  xlink:href="#XMLID_x5F_68_x5F_" startOffset="0.4272%">
		</textPath>
</text>
		<line id="XMLID_1074_" class="st8" x1="375.9" y1="424.4" x2="72" y2="385.4"/>
		<line id="XMLID_1073_" class="st8" x1="376.5" y1="419.4" x2="72.7" y2="380.3"/>
		<line id="XMLID_1072_" class="st8" x1="377.2" y1="414.3" x2="73.3" y2="375.3"/>
		<line id="XMLID_1071_" class="st8" x1="377.8" y1="409.2" x2="74" y2="370.2"/>
		<line id="XMLID_1070_" class="st8" x1="378.5" y1="404.2" x2="74.6" y2="365.2"/>
		<line id="XMLID_1069_" class="st8" x1="379.1" y1="399.1" x2="75.3" y2="360.1"/>
		<line id="XMLID_1068_" class="st8" x1="379.8" y1="394.1" x2="75.9" y2="355.1"/>
		<line id="XMLID_1067_" class="st8" x1="380.4" y1="389" x2="76.6" y2="350"/>
		<line id="XMLID_1066_" class="st8" x1="381.1" y1="384" x2="77.2" y2="344.9"/>
		<line id="XMLID_1065_" class="st8" x1="381.7" y1="378.9" x2="77.9" y2="339.9"/>
		<line id="XMLID_1064_" class="st8" x1="382.4" y1="373.9" x2="78.5" y2="334.8"/>
		<line id="XMLID_1063_" class="st8" x1="383" y1="368.8" x2="79.2" y2="329.8"/>
		<line id="XMLID_1062_" class="st8" x1="383.6" y1="363.8" x2="79.8" y2="324.7"/>
		<line id="XMLID_1061_" class="st8" x1="384.3" y1="358.7" x2="80.5" y2="319.7"/>
		<line id="XMLID_1060_" class="st8" x1="384.9" y1="353.6" x2="81.1" y2="314.6"/>
		<line id="XMLID_1059_" class="st8" x1="385.6" y1="348.6" x2="81.8" y2="309.6"/>
		<line id="XMLID_1058_" class="st8" x1="386.2" y1="343.5" x2="82.4" y2="304.5"/>
		<line id="XMLID_1057_" class="st8" x1="386.9" y1="338.5" x2="83.1" y2="299.4"/>
		<line id="XMLID_1056_" class="st8" x1="387.5" y1="333.4" x2="83.7" y2="294.4"/>
		<line id="XMLID_1055_" class="st8" x1="388.2" y1="328.4" x2="84.4" y2="289.3"/>
		<line id="XMLID_1054_" class="st8" x1="388.8" y1="323.3" x2="85" y2="284.3"/>
		<line id="XMLID_1053_" class="st8" x1="389.5" y1="318.3" x2="85.7" y2="279.2"/>
		<line id="XMLID_1052_" class="st8" x1="390.1" y1="313.2" x2="86.3" y2="274.2"/>
		<line id="XMLID_1051_" class="st8" x1="390.8" y1="308.1" x2="87" y2="269.1"/>
		<line id="XMLID_1050_" class="st8" x1="391.4" y1="303.1" x2="87.6" y2="264.1"/>
		<line id="XMLID_1049_" class="st8" x1="392.1" y1="298" x2="88.3" y2="259"/>
		<line id="XMLID_1048_" class="st8" x1="392.7" y1="293" x2="88.9" y2="253.9"/>
		<line id="XMLID_1047_" class="st8" x1="393.4" y1="287.9" x2="89.6" y2="248.9"/>
		<line id="XMLID_1046_" class="st8" x1="394" y1="282.9" x2="90.2" y2="243.8"/>
		<line id="XMLID_1045_" class="st8" x1="394.7" y1="277.8" x2="90.9" y2="238.8"/>
	</g>
	<g id="XMLID_911_">
		<g id="XMLID_1039_">
			
				<image style="overflow:visible;opacity:0.12;" width="398" height="415" id="XMLID_84_" xlink:href="637A677FB6AD4B4E.png"  transform="matrix(1 0 0 1 31.4129 218.4129)">
			</image>
			<g id="XMLID_77_">
				<path id="XMLID_83_" class="st6" d="M419.1,541.4L135.7,626c-2.6,0.8-5.4-0.7-6.2-3.4L37.6,314.8c-0.8-2.6,0.7-5.4,3.4-6.2
					L324.4,224c2.6-0.8,5.4,0.7,6.2,3.4l91.9,307.9C423.3,537.9,421.8,540.6,419.1,541.4z"/>
				<path id="XMLID_82_" class="st7" d="M419.1,541.4L135.7,626c-2.6,0.8-5.4-0.7-6.2-3.4L37.6,314.8c-0.8-2.6,0.7-5.4,3.4-6.2
					L324.4,224c2.6-0.8,5.4,0.7,6.2,3.4l91.9,307.9C423.3,537.9,421.8,540.6,419.1,541.4z"/>
			</g>
		</g>
		<line id="XMLID_1038_" class="st8" x1="182.4" y1="266.3" x2="277.1" y2="583.8"/>
		<line id="XMLID_1037_" class="st8" x1="177.5" y1="267.8" x2="272.3" y2="585.3"/>
		<line id="XMLID_1036_" class="st8" x1="172.6" y1="269.3" x2="267.4" y2="586.7"/>
		<line id="XMLID_1035_" class="st8" x1="167.8" y1="270.7" x2="262.5" y2="588.2"/>
		<line id="XMLID_1034_" class="st8" x1="162.9" y1="272.2" x2="257.6" y2="589.6"/>
		<line id="XMLID_1033_" class="st8" x1="158" y1="273.6" x2="252.7" y2="591.1"/>
		<line id="XMLID_1032_" class="st8" x1="153.1" y1="275.1" x2="247.8" y2="592.5"/>
		<line id="XMLID_1031_" class="st8" x1="148.2" y1="276.5" x2="243" y2="594"/>
		<line id="XMLID_1030_" class="st8" x1="143.3" y1="278" x2="238.1" y2="595.5"/>
		<line id="XMLID_1029_" class="st8" x1="138.5" y1="279.5" x2="233.2" y2="596.9"/>
		<line id="XMLID_1028_" class="st8" x1="133.6" y1="280.9" x2="228.3" y2="598.4"/>
		<line id="XMLID_1027_" class="st8" x1="128.7" y1="282.4" x2="223.4" y2="599.8"/>
		<line id="XMLID_1026_" class="st8" x1="123.8" y1="283.8" x2="218.5" y2="601.3"/>
		<line id="XMLID_1025_" class="st8" x1="118.9" y1="285.3" x2="213.7" y2="602.7"/>
		<line id="XMLID_1024_" class="st8" x1="114" y1="286.7" x2="208.8" y2="604.2"/>
		<line id="XMLID_1023_" class="st8" x1="109.2" y1="288.2" x2="203.9" y2="605.7"/>
		<line id="XMLID_1022_" class="st8" x1="104.3" y1="289.7" x2="199" y2="607.1"/>
		<line id="XMLID_1021_" class="st8" x1="99.4" y1="291.1" x2="194.1" y2="608.6"/>
		<line id="XMLID_1020_" class="st8" x1="94.5" y1="292.6" x2="189.2" y2="610"/>
		<line id="XMLID_1019_" class="st8" x1="89.6" y1="294" x2="184.4" y2="611.5"/>
		<line id="XMLID_1018_" class="st8" x1="84.7" y1="295.5" x2="179.5" y2="612.9"/>
		<line id="XMLID_1017_" class="st8" x1="79.8" y1="296.9" x2="174.6" y2="614.4"/>
		<line id="XMLID_1016_" class="st8" x1="75" y1="298.4" x2="169.7" y2="615.9"/>
		<line id="XMLID_1015_" class="st8" x1="70.1" y1="299.9" x2="164.8" y2="617.3"/>
		<line id="XMLID_1014_" class="st8" x1="65.2" y1="301.3" x2="159.9" y2="618.8"/>
		<line id="XMLID_1013_" class="st8" x1="60.3" y1="302.8" x2="155" y2="620.2"/>
		<line id="XMLID_1012_" class="st8" x1="55.4" y1="304.2" x2="150.2" y2="621.7"/>
		<line id="XMLID_1011_" class="st8" x1="50.5" y1="305.7" x2="145.3" y2="623.1"/>
		<line id="XMLID_1010_" class="st8" x1="45.7" y1="307.1" x2="140.4" y2="624.6"/>
		<line id="XMLID_1009_" class="st8" x1="40.8" y1="308.6" x2="135.5" y2="626.1"/>
		<line id="XMLID_1008_" class="st8" x1="187.3" y1="264.9" x2="282" y2="582.3"/>
		<line id="XMLID_1007_" class="st8" x1="192.2" y1="263.4" x2="286.9" y2="580.9"/>
		<line id="XMLID_1006_" class="st8" x1="197.1" y1="262" x2="291.8" y2="579.4"/>
		<line id="XMLID_1005_" class="st8" x1="201.9" y1="260.5" x2="296.7" y2="578"/>
		<line id="XMLID_1004_" class="st8" x1="206.8" y1="259" x2="301.6" y2="576.5"/>
		<line id="XMLID_1003_" class="st8" x1="211.7" y1="257.6" x2="306.5" y2="575.1"/>
		<line id="XMLID_1002_" class="st8" x1="216.6" y1="256.1" x2="311.3" y2="573.6"/>
		<line id="XMLID_1001_" class="st8" x1="221.5" y1="254.7" x2="316.2" y2="572.1"/>
		<line id="XMLID_1000_" class="st8" x1="226.4" y1="253.2" x2="321.1" y2="570.7"/>
		<line id="XMLID_999_" class="st8" x1="231.3" y1="251.8" x2="326" y2="569.2"/>
		<line id="XMLID_998_" class="st8" x1="236.1" y1="250.3" x2="330.9" y2="567.8"/>
		<line id="XMLID_997_" class="st8" x1="241" y1="248.8" x2="335.8" y2="566.3"/>
		<line id="XMLID_996_" class="st8" x1="245.9" y1="247.4" x2="340.6" y2="564.8"/>
		<line id="XMLID_995_" class="st8" x1="250.8" y1="245.9" x2="345.5" y2="563.4"/>
		<line id="XMLID_994_" class="st8" x1="255.7" y1="244.5" x2="350.4" y2="561.9"/>
		<line id="XMLID_993_" class="st8" x1="260.6" y1="243" x2="355.3" y2="560.5"/>
		<line id="XMLID_992_" class="st8" x1="265.4" y1="241.6" x2="360.2" y2="559"/>
		<line id="XMLID_991_" class="st8" x1="270.3" y1="240.1" x2="365.1" y2="557.6"/>
		<line id="XMLID_990_" class="st8" x1="275.2" y1="238.6" x2="369.9" y2="556.1"/>
		<line id="XMLID_989_" class="st8" x1="280.1" y1="237.2" x2="374.8" y2="554.6"/>
		<line id="XMLID_988_" class="st8" x1="285" y1="235.7" x2="379.7" y2="553.2"/>
		<line id="XMLID_987_" class="st8" x1="289.9" y1="234.3" x2="384.6" y2="551.7"/>
		<line id="XMLID_986_" class="st8" x1="294.7" y1="232.8" x2="389.5" y2="550.3"/>
		<line id="XMLID_985_" class="st8" x1="299.6" y1="231.4" x2="394.4" y2="548.8"/>
		<line id="XMLID_984_" class="st8" x1="304.5" y1="229.9" x2="399.2" y2="547.4"/>
		<line id="XMLID_983_" class="st8" x1="309.4" y1="228.4" x2="404.1" y2="545.9"/>
		<line id="XMLID_982_" class="st8" x1="314.3" y1="227" x2="409" y2="544.4"/>
		<line id="XMLID_981_" class="st8" x1="319.2" y1="225.5" x2="413.9" y2="543"/>
		<line id="XMLID_980_" class="st8" x1="324" y1="224.1" x2="418.8" y2="541.5"/>
		<line id="XMLID_979_" class="st8" x1="328.9" y1="222.6" x2="423.7" y2="540.1"/>
		<line id="XMLID_978_" class="st8" x1="377.1" y1="381.4" x2="83.6" y2="469"/>
		<line id="XMLID_977_" class="st8" x1="378.6" y1="386.3" x2="85" y2="473.8"/>
		<line id="XMLID_976_" class="st8" x1="380" y1="391.1" x2="86.5" y2="478.7"/>
		<line id="XMLID_975_" class="st8" x1="381.5" y1="396" x2="87.9" y2="483.6"/>
		<line id="XMLID_974_" class="st8" x1="382.9" y1="400.9" x2="89.4" y2="488.5"/>
		<line id="XMLID_973_" class="st8" x1="384.4" y1="405.8" x2="90.9" y2="493.4"/>
		<line id="XMLID_972_" class="st8" x1="385.8" y1="410.7" x2="92.3" y2="498.3"/>
		<line id="XMLID_971_" class="st8" x1="387.3" y1="415.6" x2="93.8" y2="503.1"/>
		<line id="XMLID_970_" class="st8" x1="388.8" y1="420.4" x2="95.2" y2="508"/>
		<line id="XMLID_969_" class="st8" x1="390.2" y1="425.3" x2="96.7" y2="512.9"/>
		<line id="XMLID_968_" class="st8" x1="391.7" y1="430.2" x2="98.2" y2="517.8"/>
		<line id="XMLID_967_" class="st8" x1="393.1" y1="435.1" x2="99.6" y2="522.7"/>
		<line id="XMLID_966_" class="st8" x1="394.6" y1="440" x2="101.1" y2="527.6"/>
		<line id="XMLID_965_" class="st8" x1="396.1" y1="444.9" x2="102.5" y2="532.5"/>
		<line id="XMLID_964_" class="st8" x1="397.5" y1="449.7" x2="104" y2="537.3"/>
		<line id="XMLID_963_" class="st8" x1="399" y1="454.6" x2="105.4" y2="542.2"/>
		<line id="XMLID_962_" class="st8" x1="400.4" y1="459.5" x2="106.9" y2="547.1"/>
		<line id="XMLID_961_" class="st8" x1="401.9" y1="464.4" x2="108.4" y2="552"/>
		<line id="XMLID_960_" class="st8" x1="403.3" y1="469.3" x2="109.8" y2="556.9"/>
		<line id="XMLID_959_" class="st8" x1="404.8" y1="474.2" x2="111.3" y2="561.8"/>
		<line id="XMLID_958_" class="st8" x1="406.3" y1="479" x2="112.7" y2="566.6"/>
		<line id="XMLID_957_" class="st8" x1="407.7" y1="483.9" x2="114.2" y2="571.5"/>
		<line id="XMLID_956_" class="st8" x1="409.2" y1="488.8" x2="115.6" y2="576.4"/>
		<line id="XMLID_955_" class="st8" x1="410.6" y1="493.7" x2="117.1" y2="581.3"/>
		<line id="XMLID_954_" class="st8" x1="412.1" y1="498.6" x2="118.6" y2="586.2"/>
		<line id="XMLID_953_" class="st8" x1="413.5" y1="503.5" x2="120" y2="591.1"/>
		<line id="XMLID_952_" class="st8" x1="415" y1="508.4" x2="121.5" y2="595.9"/>
		<line id="XMLID_951_" class="st8" x1="416.5" y1="513.2" x2="122.9" y2="600.8"/>
		<line id="XMLID_950_" class="st8" x1="417.9" y1="518.1" x2="124.4" y2="605.7"/>
		<line id="XMLID_949_" class="st8" x1="419.4" y1="523" x2="125.8" y2="610.6"/>
		<line id="XMLID_948_" class="st8" x1="420.8" y1="527.9" x2="127.3" y2="615.5"/>
		<line id="XMLID_947_" class="st8" x1="422.3" y1="532.8" x2="128.8" y2="620.4"/>
		<line id="XMLID_946_" class="st8" x1="423.7" y1="537.7" x2="130.2" y2="625.2"/>
		<line id="XMLID_945_" class="st8" x1="375.6" y1="376.5" x2="82.1" y2="464.1"/>
		<path id="XMLID_x5F_69_x5F_" class="st9" d="M374.2,371.6L80.7,459.2"/>
		<text id="XMLID_943_">		<textPath  xlink:href="#XMLID_x5F_69_x5F_" startOffset="0.4272%">
		</textPath>
</text>
		<line id="XMLID_942_" class="st8" x1="372.7" y1="366.7" x2="79.2" y2="454.3"/>
		<line id="XMLID_941_" class="st8" x1="371.3" y1="361.8" x2="77.7" y2="449.4"/>
		<line id="XMLID_940_" class="st8" x1="369.8" y1="356.9" x2="76.3" y2="444.5"/>
		<line id="XMLID_939_" class="st8" x1="368.4" y1="352.1" x2="74.8" y2="439.7"/>
		<line id="XMLID_938_" class="st8" x1="366.9" y1="347.2" x2="73.4" y2="434.8"/>
		<line id="XMLID_937_" class="st8" x1="365.4" y1="342.3" x2="71.9" y2="429.9"/>
		<line id="XMLID_936_" class="st8" x1="364" y1="337.4" x2="70.5" y2="425"/>
		<line id="XMLID_935_" class="st8" x1="362.5" y1="332.5" x2="69" y2="420.1"/>
		<line id="XMLID_934_" class="st8" x1="361.1" y1="327.6" x2="67.5" y2="415.2"/>
		<line id="XMLID_933_" class="st8" x1="359.6" y1="322.8" x2="66.1" y2="410.4"/>
		<line id="XMLID_932_" class="st8" x1="358.2" y1="317.9" x2="64.6" y2="405.5"/>
		<line id="XMLID_931_" class="st8" x1="356.7" y1="313" x2="63.2" y2="400.6"/>
		<line id="XMLID_930_" class="st8" x1="355.2" y1="308.1" x2="61.7" y2="395.7"/>
		<line id="XMLID_929_" class="st8" x1="353.8" y1="303.2" x2="60.3" y2="390.8"/>
		<line id="XMLID_928_" class="st8" x1="352.3" y1="298.3" x2="58.8" y2="385.9"/>
		<line id="XMLID_927_" class="st8" x1="350.9" y1="293.5" x2="57.3" y2="381"/>
		<line id="XMLID_926_" class="st8" x1="349.4" y1="288.6" x2="55.9" y2="376.2"/>
		<line id="XMLID_925_" class="st8" x1="348" y1="283.7" x2="54.4" y2="371.3"/>
		<line id="XMLID_924_" class="st8" x1="346.5" y1="278.8" x2="53" y2="366.4"/>
		<line id="XMLID_923_" class="st8" x1="345" y1="273.9" x2="51.5" y2="361.5"/>
		<line id="XMLID_922_" class="st8" x1="343.6" y1="269" x2="50.1" y2="356.6"/>
		<line id="XMLID_921_" class="st8" x1="342.1" y1="264.2" x2="48.6" y2="351.7"/>
		<line id="XMLID_920_" class="st8" x1="340.7" y1="259.3" x2="47.1" y2="346.9"/>
		<line id="XMLID_919_" class="st8" x1="339.2" y1="254.4" x2="45.7" y2="342"/>
		<line id="XMLID_918_" class="st8" x1="337.8" y1="249.5" x2="44.2" y2="337.1"/>
		<line id="XMLID_917_" class="st8" x1="336.3" y1="244.6" x2="42.8" y2="332.2"/>
		<line id="XMLID_916_" class="st8" x1="334.8" y1="239.7" x2="41.3" y2="327.3"/>
		<line id="XMLID_915_" class="st8" x1="333.4" y1="234.8" x2="39.9" y2="322.4"/>
		<line id="XMLID_914_" class="st8" x1="331.9" y1="230" x2="38.4" y2="317.6"/>
		<line id="XMLID_913_" class="st8" x1="330.5" y1="225.1" x2="36.9" y2="312.7"/>
		<line id="XMLID_912_" class="st8" x1="373.8" y1="371.8" x2="80.2" y2="459.4"/>
	</g>
	<g id="XMLID_900_">
		<path id="XMLID_908_" class="st10" d="M169.7,457.7l3.2-1.5L175,411l9.7-2.9l26.5,36.7l3.5-0.5l1.7,5.7l-16,4.8l-1.7-5.7l3.1-1.6
			l-4-5.9l-15.3,4.6l-0.1,7.1l3.4-0.4l1.7,5.7l-16,4.8L169.7,457.7z M182.6,438.6l10.8-3.2l-10.3-15l-0.2,0.1L182.6,438.6z"/>
		<path id="XMLID_905_" class="st10" d="M227.8,395.2c5.4-1.6,10.1-1.5,14,0.3c3.9,1.8,6.6,5,7.9,9.5c1.3,4.5,0.9,8.6-1.4,12.3
			c-2.3,3.7-6.1,6.3-11.5,7.9l-8,2.4l3.1,10.5l5.3-0.5l1.7,5.7l-19.5,5.8l-1.7-5.7l4.7-2.5l-10.1-33.8l-5.3,0.5l-1.7-5.7l5-1.5
			L227.8,395.2z M226.6,420.3l8-2.4c2.6-0.8,4.4-2.1,5.3-3.9c0.9-1.8,1-3.9,0.4-6.1c-0.7-2.3-1.9-3.9-3.7-5c-1.8-1.1-4-1.2-6.6-0.4
			l-8,2.4L226.6,420.3z"/>
		<path id="XMLID_903_" class="st10" d="M249.9,394.8l-1.7-5.7l19.5-5.8l1.7,5.7l-4.8,2.5l10.1,33.8l5.3-0.5l1.7,5.7l-19.5,5.8
			l-1.7-5.7l4.8-2.5l-10.1-33.8L249.9,394.8z"/>
	</g>
</g>
<g id="Layer_3">
	<g id="XMLID_453_" class="st11">
		
			<rect id="XMLID_452_" x="973.1" y="541.6" transform="matrix(-0.7091 -0.7051 0.7051 -0.7091 1397.9482 1685.5398)" class="st12" width="147" height="25.6"/>
		<path id="XMLID_451_" class="st12" d="M982.1,487l21.4,6.4l-18,18.2l-6.6-21.4C978.3,488.3,980.2,486.4,982.1,487z"/>
		<path id="XMLID_450_" class="st12" d="M1098.3,623.7l-8.5-8.5l18-18.2l8.5,8.5c1,1,1,2.7,0,3.6l-14.4,14.5
			C1101,624.8,1099.3,624.7,1098.3,623.7z"/>
		<path id="XMLID_449_" class="st12" d="M1091.8,595.3l-86.5-85.9c-0.5-0.6-0.5-1.3-0.1-1.8l0.1-0.1c0.6-0.5,1.3-0.5,1.8-0.1
			l86.5,85.9c0.5,0.6,0.5,1.3,0.1,1.8l-0.1,0.1C1093,595.8,1092.3,595.8,1091.8,595.3z"/>
		<path id="XMLID_448_" class="st12" d="M1086.2,601L999.7,515c-0.5-0.6-0.5-1.3-0.1-1.8l0.1-0.1c0.6-0.5,1.3-0.5,1.8-0.1l86.5,85.9
			c0.5,0.6,0.5,1.3,0.1,1.8l-0.1,0.1C1087.5,601.4,1086.6,601.4,1086.2,601z"/>
	</g>
	<g id="XMLID_454_" class="st13">
		<g id="XMLID_455_">
			<g id="XMLID_456_">
				<g id="XMLID_462_">
					<path id="XMLID_468_" class="st14" d="M1157.4,400.9l-3.9,3.9c-4.2,4.2-11.2,4.2-15.4,0l-23.1-23.1c-4.2-4.2-4.2-11.2,0-15.4
						l3.9-3.9c4.2-4.2,11.2-4.2,15.4,0l23.1,23.1C1161.8,389.7,1161.8,396.7,1157.4,400.9z"/>
					<path id="XMLID_467_" class="st14" d="M1141.2,282.6c29.2,29.2,29.2,76.7,0,105.9c-29.2,29.2-76.7,29.2-105.9,0
						c-29.2-29.2-29.2-76.7,0-105.9S1111.8,253.2,1141.2,282.6"/>
					<path id="XMLID_464_" class="st1" d="M1126.6,297c21.2,21.3,21.2,55.8,0,77.1c-21.3,21.3-55.8,21.3-77.1,0
						c-21.2-21.2-21.2-55.8,0-77.1C1070.7,275.6,1105.4,275.7,1126.6,297"/>
				</g>
			</g>
		</g>
	</g>
</g>
</svg>
