
<svg xmlns="http://www.w3.org/2000/svg" xmlns:xlink="http://www.w3.org/1999/xlink" width="100%" height="100%" viewBox="0 0 260 260" onload="init()">
     
  <title>WebPlatform.org Logo</title>
  
  <style type="text/css">
    svg.default #strut-1, #top-1 {
      fill: #F99D1C;
    }

      svg.default #join-1 {
        fill: #D02E27;
      }

      svg.default #strut-2 {
        fill: #DC4E3E;
      }

      svg.default #join-2 {
        fill: #58152A;
      }

      svg.default #strut-3 {
        fill: #694D9F;
      }

      svg.default #join-3 {
        fill: #263C82;
      }

      svg.default #strut-4, #top-2 {
        fill: #30B4C5;
      }
      
    /* Orange Analogous */
    svg.orange #strut-1, #top-1 {
      fill: #FFC621;
    }

      svg.orange #join-1 {
        fill: #DE6525;
      }

      svg.orange #strut-2 {
        fill: #F99D1C;
      }

      svg.orange #join-2 {
        fill: #DE6525;
      }

      svg.orange #strut-3 {
        fill: #FFC621;
      }

      svg.orange #join-3 {
        fill: #DE6525;
      }

      svg.orange #strut-4, #top-2 {
        fill: #F99D1C;
      }
    
    
    /* Red Analogous */
    svg.red #strut-1, #top-1 {
      fill: #EE677E;
    }

      svg.red #join-1 {
        fill: #D02E27;
      }

      svg.red #strut-2 {
        fill: #DC4E3E;
      }

      svg.red #join-2 {
        fill: #D02E27;
      }

      svg.red #strut-3 {
        fill: #EE677E;
      }

      svg.red #join-3 {
        fill: #D02E27;
      }

      svg.red #strut-4, #top-2 {
        fill: #DC4E3E;
      }
    
    
    /* Purple Analogous */
    svg.purple #strut-1, #top-1 {
      fill: #88609D;
    }

      svg.purple #join-1 {
        fill: #263C82;
      }

      svg.purple #strut-2 {
        fill: #694D9F;
      }

      svg.purple #join-2 {
        fill: #263C82;
      }

      svg.purple #strut-3 {
        fill: #88609D;
      }

      svg.purple #join-3 {
        fill: #263C82;
      }

      svg.purple #strut-4, #top-2 {
        fill: #694D9F;
      }
    
    
    /* Green Analogous */
    svg.green #strut-1, #top-1 {
      fill: #75C9B3;
    }

      svg.green #join-1 {
        fill: #356A84;
      }

      svg.green #strut-2 {
        fill: #30B4C5;
      }

      svg.green #join-2 {
        fill: #356A84;
      }

      svg.green #strut-3 {
        fill: #75C9B3;
      }

      svg.green #join-3 {
        fill: #356A84;
      }

      svg.green #strut-4, #top-2 {
        fill: #30B4C5;
      }
      
    
    /* Gray Analogous */
    svg.gray #strut-1, #top-1 {
      fill: #A7A9AC;
    }

      svg.gray #join-1 {
        fill: #58595B;
      }

      svg.gray #strut-2 {
        fill: #808285;
      }

      svg.gray #join-2 {
        fill: #58595B;
      }

      svg.gray #strut-3 {
        fill: #A7A9AC;
      }

      svg.gray #join-3 {
        fill: #58595B;
      }

      svg.gray #strut-4, #top-2 {
        fill: #808285;
      }

    
    #outline {
      fill: #F1ECD7;
      stroke: #F1ECD7;
      stroke-width: 10px; 
    }
  </style>
  

  
  <defs>
    <linearGradient id="default-lg" x1="0" x2="1" y1="0" y2="1">
      <stop offset="0" stop-color="#F99D1C"/>
      <stop offset="0.167" stop-color="#D02E27"/>
      <stop offset="0.34" stop-color="#DC4E3E"/>
      <stop offset="0.5" stop-color="#58152A"/>
      <stop offset="0.67" stop-color="#694D9F"/>
      <stop offset="0.83" stop-color="#263C82"/>
      <stop offset="1" stop-color="#30B4C5"/>
    </linearGradient>
  </defs>
  
  

  <svg id="logo" width="260" height="260" viewBox="-5 -5 265 265" overflow="visible" class="default">
    <path id="outline" d="M66,33 V131.5 L98.76,98.57 A33,33 0 0,1 145.33,98.67 L178,131.5 V33 A33,33 0 1,1 244,33 V211 A33,33 45 0,1 187.67,234.43 L122,168.67 L56.33,234.43 A33,33 45 0,1 0,211 V33 A33,33 45 1,1 66,33 Z"/>
    
    <path id="strut-1" d="M66,33 V211 A33,33 0 1,1 0,211 V33 A33,33 45 1,1 66,33 Z M33,19 A14,14 0 1,0 33,47 A14,14 0 1,0 33,19 Z M33,197 A14,14 0 1,0 33,225 A14,14 0 1,0 33,197 Z"/>
    <path id="strut-2" d="M9.67,187.67 L98.76,98.57 A33,33 0 1,1 145.43,145.24 L56.33,234.43 A33,33 45 1,1 9.67,187.67 Z M33,197 A14,14 0 1,0 33,225 A14,14 0 1,0 33,197 Z  M122,108 A14,14 0 1,0 122,136 A14,14 0 1,0 122,108 Z"/>
    <path id="strut-3" d="M145.33,98.67 L234.43,187.76 A33,33 0 1,1 187.67,234.43 L98.67,145.43 A33,33 45 1,1 145.33,98.67 Z  M122,108 A14,14 0 1,0 122,136 A14,14 0 1,0 122,108 Z  M211,197 A14,14 0 1,0 211,225 A14,14 0 1,0 211,197 Z"/>
    <path id="strut-4" d="M178,211 V33 A33,33 0 1,1 244,33 V211 A33,33 45 1,1 178,211 Z M211,19 A14,14 0 1,0 211,47 A14,14 0 1,0 211,19 Z M211,197 A14,14 0 1,0 211,225 A14,14 0 1,0 211,197 Z"/>

    <path id="join-1" d="M66,131.5 V211 A33,33 45 1,1 9.67,187.67 Z M33,197 A14,14 0 1,0 33,225 A14,14 0 1,0 33,197 Z "/>
    <path id="join-2" d="M122,168.67 L98.67,145.33 A33,33 45 1,1 145.43,145.33 Z M122,108 A14,14 0 1,0 122,136 A14,14 0 1,0 122,108 Z"/>
    <path id="join-3" d="M178,131.5 V211 A33,33 45 1,0 234.43,187.67 Z M211,197 A14,14 0 1,1 211,225 A14,14 0 1,1 211,197 Z"/> 
  </svg>

</svg>